<?xml version="1.0" encoding="UTF-8"?>
<svg id="Layer_2" data-name="Layer 2" xmlns="http://www.w3.org/2000/svg" xmlns:xlink="http://www.w3.org/1999/xlink" viewBox="0 0 214.12 166.98">
  <defs>
    <style>
      .cls-1 {
        fill: url(#linear-gradient);
      }

      .cls-1, .cls-2 {
        stroke-width: 0px;
      }

      .cls-2 {
        fill: none;
      }

      .cls-3 {
        clip-path: url(#clippath);
      }
    </style>
    <clipPath id="clippath">
      <path class="cls-2" d="M1.4,90.04c-1.03.28-.02,2.81-.2,4.07-.39,2.68-.42,5.45-.24,8.17.81,12.34,1.63,24.69,2.73,37,.22,2.49,1.35,5.1,2.78,7.17.54.78,3.1.18,4.73.21,6.32.12,12.64.22,18.96.35,4.97.11,9.94.49,14.89.3,3.68-.14,7.99,1.23,10.37-3.55.8-1.6,2.78-2.61,4.41-4.05,1.4,3.71,4.21,3.32,6.52,3.34,8.4.08,16.81-.18,25.22-.13,5.79.04,11.58.57,17.37.48,2.23-.04,5.1-.54,6.54-1.97,5.13-5.1,11.86-6.12,17.54-8.24.78,2.29,1.37,4.32,2.18,6.27.42,1.01,1.35,1.81,1.83,2.81.43.89.26,2.34.9,2.82,2.73,2.03,4.89,5.22,9.14,4.47,2.06-.36,3.66.51,3.58,3.25-.03,1,.87,2.57,1.76,2.97,3.27,1.45,6.75,2.43,10.08,3.77,1.14.46,2.2,1.33,3.06,2.23,1.34,1.41,2.24,3.94,3.75,4.33,3.29.84,6.84.6,10.29.84,2.54.17,4.44-.05,5.56-3.12.44-1.21.77-4.87,3.7-3.78,4.42,1.65,7.83-.63,11.28-2.38,1.53-.78,2.54-2.75,3.55-4.33,2.62-4.1.63-8.61.94-12.92.23-3.17.41-6.36.37-9.53-.03-1.96-.53-3.92-.85-6.11,1.6-.24,2.7-.58,3.8-.54,3.33.11,5.12-1.43,5.47-4.72.19-1.8.51-3.59.55-5.39.12-6.48.2-12.96.18-19.43-.02-5.67-.16-11.34-.33-17.01-.04-1.43-.49-2.12-2.41-2.46-4.27-.75-6.66-4.8-7.4-8.16-.87-4-1.37-8.88,2.09-12.62.32-.35.45-1.06.38-1.57-.57-4.55-.85-9.19-1.93-13.62-.96-3.95-1.57-7.6.24-11.45.62-1.31.52-2.99.65-4.51.21-2.42.08-4.91.55-7.27.73-3.63.05-4.78-3.55-5.93-.98-.31-2.23-1.72-2.29-2.69-.3-5.43-2.27-7.41-7.75-7.33-2.05.03-4.11.16-6.14-.02-3.05-.27-4.85.75-4.81,4.02h-1.89c-.03.3-.07.59-.1.89.93.14,1.87.28,3.19.47-.81-3.86,1.09-4.5,4-4.27,2.6.2,5.24.23,7.85.12,1.69-.07,3.46.21,2.95,2.05-.37,1.33-2.26,3.14-3.52,3.17-7.25.19-14.52-.32-21.78-.13-10.19.26-20.17,2.09-29.65,5.92-2.87,1.16-5.62,3.04-7.89,5.16-5.48,5.11-7.91,11.65-7.94,19.14v-8.93c-3.91,10.29-1.75,17.76,6.64,22.18,2.06,1.08,4.51,1.46,6.81,2.03,4.31,1.06,8.64,2.02,13.19,3.08-.03.04.39-.49,1.43-1.8-.41,3.9-.72,6.79-1.04,9.83-5.06-3.81-8.96.43-13.29,1.04.45,7.23-2.87,10.5-10.4,10.47,1.65-.88,3.36-1.45,4.55-2.58.66-.63.99-2.68.5-3.23-1.02-1.16-2.6-2.06-4.11-2.51-5.28-1.54-10.41-3.27-14.22-7.54-.26-.29-.67-.46-1.17-.79-.48,1.16-.86,2.06-1.46,3.5-4.89.41-9.87.81-14.85,1.24-2.57.22-5.13.57-7.71.68-.8.03-1.62-.54-2.43-.84-1.84-.67-3.65-1.78-5.53-1.91-2.97-.2-5.49-.77-6.81-3.01h-12.65c-1.62,1.12-3.3,2.28-5.26,3.64-.26-1.35-.45-2.3-.67-3.42-4.11.24-4.5-2.55-4.56-5.78-1.12,3.23-3.31,3.84-6.26,3.44-2.68-.36-5.42-.32-8.14-.46-10.99-.53-21.98-1.06-33.71-1.63-.77,4.03-1.61,8.32-2.42,12.61-.49,2.6-4.99,20.79-2.19,20.73l.48,3.43Z"/>
    </clipPath>
    <linearGradient id="linear-gradient" x1="-7.84" y1="87.97" x2="224.23" y2="87.97" gradientUnits="userSpaceOnUse">
      <stop offset=".3" stop-color="#3cb389"/>
      <stop offset=".6" stop-color="#007993"/>
      <stop offset=".9" stop-color="#1c3967"/>
    </linearGradient>
  </defs>
  <g id="Layer_1-2" data-name="Layer 1">
    <g class="cls-3">
      <path class="cls-1" d="M71.02,107.32v2.04h2.17v1.13h-2.17v2.04h-1.2v-2.04h-2.17v-1.13h2.17v-2.04h1.2ZM59.03,107.32v2.04h-2.17v1.13h2.17v2.04h1.2v-2.04h2.17v-1.13h-2.17v-2.04h-1.2ZM80.6,107.32v2.04h-2.17v1.13h2.17v2.04h1.2v-2.04h2.17v-1.13h-2.17v-2.04h-1.2ZM37.46,28.45v2.04h-2.17v1.13h2.17v2.04h1.2v-2.04h2.17v-1.13h-2.17v-2.04h-1.2ZM48.25,28.45v2.04h-2.17v1.13h2.17v2.04h1.2v-2.04h2.17v-1.13h-2.17v-2.04h-1.2ZM59.03,28.45v2.04h-2.17v1.13h2.17v2.04h1.2v-2.04h2.17v-1.13h-2.17v-2.04h-1.2ZM60.24,151.55v-2.04h2.17v-1.13h-2.17v-2.04h-1.2v2.04h-2.17v1.13h2.17v2.04h1.2ZM102.24,107.49v2.04h-2.17v1.13h2.17v2.04h1.2v-2.04h2.17v-1.13h-2.17v-2.04h-1.2ZM15.89,28.45v2.04h-2.17v1.13h2.17v2.04h1.2v-2.04h2.17v-1.13h-2.17v-2.04h-1.2ZM113.03,107.49v2.04h-2.17v1.13h2.17v2.04h1.2v-2.04h2.17v-1.13h-2.17v-2.04h-1.2ZM123.81,107.49v2.04h-2.17v1.13h2.17v2.04h1.2v-2.04h2.17v-1.13h-2.17v-2.04h-1.2ZM168.15,151.73v-2.04h2.17v-1.13h-2.17v-2.04h-1.2v2.04h-2.16v1.13h2.16v2.04h1.2ZM91.39,107.32v2.04h-2.17v1.13h2.17v2.04h1.2v-2.04h2.17v-1.13h-2.17v-2.04h-1.2ZM71.02,151.55v-2.04h2.17v-1.13h-2.17v-2.04h-1.2v2.04h-2.17v1.13h2.17v2.04h1.2ZM26.68,28.45v2.04h-2.17v1.13h2.17v2.04h1.2v-2.04h2.17v-1.13h-2.17v-2.04h-1.2ZM135.8,151.73v-2.04h2.17v-1.13h-2.17v-2.04h-1.2v2.04h-2.17v1.13h2.17v2.04h1.2ZM125.01,151.73v-2.04h2.17v-1.13h-2.17v-2.04h-1.2v2.04h-2.17v1.13h2.17v2.04h1.2ZM146.58,151.73v-2.04h2.17v-1.13h-2.17v-2.04h-1.2v2.04h-2.17v1.13h2.17v2.04h1.2ZM102.24,28.62v2.04h-2.17v1.13h2.17v2.04h1.2v-2.04h2.17v-1.13h-2.17v-2.04h-1.2ZM157.37,151.73v-2.04h2.17v-1.13h-2.17v-2.04h-1.2v2.04h-2.17v1.13h2.17v2.04h1.2ZM91.39,28.45v2.04h-2.17v1.13h2.17v2.04h1.2v-2.04h2.17v-1.13h-2.17v-2.04h-1.2ZM69.82,28.45v2.04h-2.17v1.13h2.17v2.04h1.2v-2.04h2.17v-1.13h-2.17v-2.04h-1.2ZM92.59,151.55v-2.04h2.17v-1.13h-2.17v-2.04h-1.2v2.04h-2.17v1.13h2.17v2.04h1.2ZM81.8,151.55v-2.04h2.17v-1.13h-2.17v-2.04h-1.2v2.04h-2.17v1.13h2.17v2.04h1.2ZM80.6,28.45v2.04h-2.17v1.13h2.17v2.04h1.2v-2.04h2.17v-1.13h-2.17v-2.04h-1.2ZM114.23,151.73v-2.04h2.17v-1.13h-2.17v-2.04h-1.2v2.04h-2.17v1.13h2.17v2.04h1.2ZM103.45,151.73v-2.04h2.17v-1.13h-2.17v-2.04h-1.2v2.04h-2.17v1.13h2.17v2.04h1.2ZM134.6,107.49v2.04h-2.17v1.13h2.17v2.04h1.2v-2.04h2.17v-1.13h-2.17v-2.04h-1.2ZM113.03,28.62v2.04h-2.17v1.13h2.17v2.04h1.2v-2.04h2.17v-1.13h-2.17v-2.04h-1.2ZM166.95,107.49v2.04h-2.16v1.13h2.16v2.04h1.2v-2.04h2.17v-1.13h-2.17v-2.04h-1.2ZM177.73,107.49v2.04h-2.17v1.13h2.17v2.04h1.2v-2.04h2.17v-1.13h-2.17v-2.04h-1.2ZM156.16,107.49v2.04h-2.17v1.13h2.17v2.04h1.2v-2.04h2.17v-1.13h-2.17v-2.04h-1.2ZM145.38,107.49v2.04h-2.17v1.13h2.17v2.04h1.2v-2.04h2.17v-1.13h-2.17v-2.04h-1.2ZM210.09,107.49v2.04h-2.17v1.13h2.17v2.04h1.2v-2.04h2.17v-1.13h-2.17v-2.04h-1.2ZM188.52,107.49v2.04h-2.17v1.13h2.17v2.04h1.2v-2.04h2.17v-1.13h-2.17v-2.04h-1.2ZM220.86,107.49v2.04h-2.17v1.13h2.17v2.04h1.2v-2.04h2.17v-1.13h-2.17v-2.04h-1.2ZM199.3,107.49v2.04h-2.17v1.13h2.17v2.04h1.2v-2.04h2.17v-1.13h-2.17v-2.04h-1.2ZM91.39,68.02v2.04h-2.17v1.13h2.17v2.04h1.2v-2.04h2.17v-1.13h-2.17v-2.04h-1.2ZM220.86,28.62v2.04h-2.17v1.13h2.17v2.04h1.2v-2.04h2.17v-1.13h-2.17v-2.04h-1.2ZM80.6,68.02v2.04h-2.17v1.13h2.17v2.04h1.2v-2.04h2.17v-1.13h-2.17v-2.04h-1.2ZM188.52,97.67v2.04h-2.17v1.13h2.17v2.04h1.2v-2.04h2.17v-1.13h-2.17v-2.04h-1.2ZM199.3,97.67v2.04h-2.17v1.13h2.17v2.04h1.2v-2.04h2.17v-1.13h-2.17v-2.04h-1.2ZM177.73,97.67v2.04h-2.17v1.13h2.17v2.04h1.2v-2.04h2.17v-1.13h-2.17v-2.04h-1.2ZM113.03,68.2v2.04h-2.17v1.13h2.17v2.04h1.2v-2.04h2.17v-1.13h-2.17v-2.04h-1.2ZM166.95,97.67v2.04h-2.16v1.13h2.16v2.04h1.2v-2.04h2.17v-1.13h-2.17v-2.04h-1.2ZM210.09,97.67v2.04h-2.17v1.13h2.17v2.04h1.2v-2.04h2.17v-1.13h-2.17v-2.04h-1.2ZM102.24,68.2v2.04h-2.17v1.13h2.17v2.04h1.2v-2.04h2.17v-1.13h-2.17v-2.04h-1.2ZM220.86,97.67v2.04h-2.17v1.13h2.17v2.04h1.2v-2.04h2.17v-1.13h-2.17v-2.04h-1.2ZM37.46,68.02v2.04h-2.17v1.13h2.17v2.04h1.2v-2.04h2.17v-1.13h-2.17v-2.04h-1.2ZM166.95,28.62v2.04h-2.16v1.13h2.16v2.04h1.2v-2.04h2.17v-1.13h-2.17v-2.04h-1.2ZM145.38,28.62v2.04h-2.17v1.13h2.17v2.04h1.2v-2.04h2.17v-1.13h-2.17v-2.04h-1.2ZM156.16,28.62v2.04h-2.17v1.13h2.17v2.04h1.2v-2.04h2.17v-1.13h-2.17v-2.04h-1.2ZM69.82,68.02v2.04h-2.17v1.13h2.17v2.04h1.2v-2.04h2.17v-1.13h-2.17v-2.04h-1.2ZM123.81,28.62v2.04h-2.17v1.13h2.17v2.04h1.2v-2.04h2.17v-1.13h-2.17v-2.04h-1.2ZM189.72,151.73v-2.04h2.17v-1.13h-2.17v-2.04h-1.2v2.04h-2.17v1.13h2.17v2.04h1.2ZM200.5,151.73v-2.04h2.17v-1.13h-2.17v-2.04h-1.2v2.04h-2.17v1.13h2.17v2.04h1.2ZM222.06,151.73v-2.04h2.17v-1.13h-2.17v-2.04h-1.2v2.04h-2.17v1.13h2.17v2.04h1.2ZM134.6,28.62v2.04h-2.17v1.13h2.17v2.04h1.2v-2.04h2.17v-1.13h-2.17v-2.04h-1.2ZM211.29,151.73v-2.04h2.17v-1.13h-2.17v-2.04h-1.2v2.04h-2.17v1.13h2.17v2.04h1.2ZM178.94,151.73v-2.04h2.17v-1.13h-2.17v-2.04h-1.2v2.04h-2.17v1.13h2.17v2.04h1.2ZM199.3,28.62v2.04h-2.17v1.13h2.17v2.04h1.2v-2.04h2.17v-1.13h-2.17v-2.04h-1.2ZM210.09,28.62v2.04h-2.17v1.13h2.17v2.04h1.2v-2.04h2.17v-1.13h-2.17v-2.04h-1.2ZM59.03,68.02v2.04h-2.17v1.13h2.17v2.04h1.2v-2.04h2.17v-1.13h-2.17v-2.04h-1.2ZM177.73,28.62v2.04h-2.17v1.13h2.17v2.04h1.2v-2.04h2.17v-1.13h-2.17v-2.04h-1.2ZM48.25,68.02v2.04h-2.17v1.13h2.17v2.04h1.2v-2.04h2.17v-1.13h-2.17v-2.04h-1.2ZM188.52,28.62v2.04h-2.17v1.13h2.17v2.04h1.2v-2.04h2.17v-1.13h-2.17v-2.04h-1.2ZM200.5,141.9v-2.04h2.17v-1.13h-2.17v-2.04h-1.2v2.04h-2.17v1.13h2.17v2.04h1.2ZM188.52,117.05v2.04h-2.17v1.13h2.17v2.04h1.2v-2.04h2.17v-1.13h-2.17v-2.04h-1.2ZM177.73,117.05v2.04h-2.17v1.13h2.17v2.04h1.2v-2.04h2.17v-1.13h-2.17v-2.04h-1.2ZM166.95,117.05v2.04h-2.16v1.13h2.16v2.04h1.2v-2.04h2.17v-1.13h-2.17v-2.04h-1.2ZM156.16,117.05v2.04h-2.17v1.13h2.17v2.04h1.2v-2.04h2.17v-1.13h-2.17v-2.04h-1.2ZM220.86,117.05v2.04h-2.17v1.13h2.17v2.04h1.2v-2.04h2.17v-1.13h-2.17v-2.04h-1.2ZM145.38,117.05v2.04h-2.17v1.13h2.17v2.04h1.2v-2.04h2.17v-1.13h-2.17v-2.04h-1.2ZM199.3,117.05v2.04h-2.17v1.13h2.17v2.04h1.2v-2.04h2.17v-1.13h-2.17v-2.04h-1.2ZM210.09,117.05v2.04h-2.17v1.13h2.17v2.04h1.2v-2.04h2.17v-1.13h-2.17v-2.04h-1.2ZM222.06,132.08v-2.04h2.17v-1.13h-2.17v-2.04h-1.2v2.04h-2.17v1.13h2.17v2.04h1.2ZM178.94,132.08v-2.04h2.17v-1.13h-2.17v-2.04h-1.2v2.04h-2.17v1.13h2.17v2.04h1.2ZM211.29,132.08v-2.04h2.17v-1.13h-2.17v-2.04h-1.2v2.04h-2.17v1.13h2.17v2.04h1.2ZM189.72,132.08v-2.04h2.17v-1.13h-2.17v-2.04h-1.2v2.04h-2.17v1.13h2.17v2.04h1.2ZM200.5,132.08v-2.04h2.17v-1.13h-2.17v-2.04h-1.2v2.04h-2.17v1.13h2.17v2.04h1.2ZM189.72,141.9v-2.04h2.17v-1.13h-2.17v-2.04h-1.2v2.04h-2.17v1.13h2.17v2.04h1.2ZM156.16,97.67v2.04h-2.17v1.13h2.17v2.04h1.2v-2.04h2.17v-1.13h-2.17v-2.04h-1.2ZM211.29,141.9v-2.04h2.17v-1.13h-2.17v-2.04h-1.2v2.04h-2.17v1.13h2.17v2.04h1.2ZM222.06,141.9v-2.04h2.17v-1.13h-2.17v-2.04h-1.2v2.04h-2.17v1.13h2.17v2.04h1.2ZM69.82,116.88v2.04h-2.17v1.13h2.17v2.04h1.2v-2.04h2.17v-1.13h-2.17v-2.04h-1.2ZM80.6,116.88v2.04h-2.17v1.13h2.17v2.04h1.2v-2.04h2.17v-1.13h-2.17v-2.04h-1.2ZM71.02,141.73v-2.04h2.17v-1.13h-2.17v-2.04h-1.2v2.04h-2.17v1.13h2.17v2.04h1.2ZM60.24,141.73v-2.04h2.17v-1.13h-2.17v-2.04h-1.2v2.04h-2.17v1.13h2.17v2.04h1.2ZM59.03,116.88v2.04h-2.17v1.13h2.17v2.04h1.2v-2.04h2.17v-1.13h-2.17v-2.04h-1.2ZM123.81,117.05v2.04h-2.17v1.13h2.17v2.04h1.2v-2.04h2.17v-1.13h-2.17v-2.04h-1.2ZM134.6,117.05v2.04h-2.17v1.13h2.17v2.04h1.2v-2.04h2.17v-1.13h-2.17v-2.04h-1.2ZM91.39,116.88v2.04h-2.17v1.13h2.17v2.04h1.2v-2.04h2.17v-1.13h-2.17v-2.04h-1.2ZM113.03,117.05v2.04h-2.17v1.13h2.17v2.04h1.2v-2.04h2.17v-1.13h-2.17v-2.04h-1.2ZM102.24,117.05v2.04h-2.17v1.13h2.17v2.04h1.2v-2.04h2.17v-1.13h-2.17v-2.04h-1.2ZM178.94,141.9v-2.04h2.17v-1.13h-2.17v-2.04h-1.2v2.04h-2.17v1.13h2.17v2.04h1.2ZM135.8,141.9v-2.04h2.17v-1.13h-2.17v-2.04h-1.2v2.04h-2.17v1.13h2.17v2.04h1.2ZM146.58,141.9v-2.04h2.17v-1.13h-2.17v-2.04h-1.2v2.04h-2.17v1.13h2.17v2.04h1.2ZM168.15,141.9v-2.04h2.17v-1.13h-2.17v-2.04h-1.2v2.04h-2.16v1.13h2.16v2.04h1.2ZM157.37,141.9v-2.04h2.17v-1.13h-2.17v-2.04h-1.2v2.04h-2.17v1.13h2.17v2.04h1.2ZM81.8,141.73v-2.04h2.17v-1.13h-2.17v-2.04h-1.2v2.04h-2.17v1.13h2.17v2.04h1.2ZM125.01,141.9v-2.04h2.17v-1.13h-2.17v-2.04h-1.2v2.04h-2.17v1.13h2.17v2.04h1.2ZM103.45,141.9v-2.04h2.17v-1.13h-2.17v-2.04h-1.2v2.04h-2.17v1.13h2.17v2.04h1.2ZM92.59,141.73v-2.04h2.17v-1.13h-2.17v-2.04h-1.2v2.04h-2.17v1.13h2.17v2.04h1.2ZM114.23,141.9v-2.04h2.17v-1.13h-2.17v-2.04h-1.2v2.04h-2.17v1.13h2.17v2.04h1.2ZM48.25,38.27v2.04h-2.17v1.13h2.17v2.04h1.2v-2.04h2.17v-1.13h-2.17v-2.04h-1.2ZM80.6,38.27v2.04h-2.17v1.13h2.17v2.04h1.2v-2.04h2.17v-1.13h-2.17v-2.04h-1.2ZM91.39,38.27v2.04h-2.17v1.13h2.17v2.04h1.2v-2.04h2.17v-1.13h-2.17v-2.04h-1.2ZM59.03,38.27v2.04h-2.17v1.13h2.17v2.04h1.2v-2.04h2.17v-1.13h-2.17v-2.04h-1.2ZM69.82,38.27v2.04h-2.17v1.13h2.17v2.04h1.2v-2.04h2.17v-1.13h-2.17v-2.04h-1.2ZM123.81,68.2v2.04h-2.17v1.13h2.17v2.04h1.2v-2.04h2.17v-1.13h-2.17v-2.04h-1.2ZM134.6,38.44v2.04h-2.17v1.13h2.17v2.04h1.2v-2.04h2.17v-1.13h-2.17v-2.04h-1.2ZM102.24,38.44v2.04h-2.17v1.13h2.17v2.04h1.2v-2.04h2.17v-1.13h-2.17v-2.04h-1.2ZM145.38,38.44v2.04h-2.17v1.13h2.17v2.04h1.2v-2.04h2.17v-1.13h-2.17v-2.04h-1.2ZM113.03,38.44v2.04h-2.17v1.13h2.17v2.04h1.2v-2.04h2.17v-1.13h-2.17v-2.04h-1.2ZM123.81,38.44v2.04h-2.17v1.13h2.17v2.04h1.2v-2.04h2.17v-1.13h-2.17v-2.04h-1.2ZM135.8,171.37v-2.04h2.17v-1.13h-2.17v-2.04h-1.2v2.04h-2.17v1.13h2.17v2.04h1.2ZM178.94,171.37v-2.04h2.17v-1.13h-2.17v-2.04h-1.2v2.04h-2.17v1.13h2.17v2.04h1.2ZM168.15,171.37v-2.04h2.17v-1.13h-2.17v-2.04h-1.2v2.04h-2.16v1.13h2.16v2.04h1.2ZM189.72,171.37v-2.04h2.17v-1.13h-2.17v-2.04h-1.2v2.04h-2.17v1.13h2.17v2.04h1.2ZM200.5,171.37v-2.04h2.17v-1.13h-2.17v-2.04h-1.2v2.04h-2.17v1.13h2.17v2.04h1.2ZM146.58,171.37v-2.04h2.17v-1.13h-2.17v-2.04h-1.2v2.04h-2.17v1.13h2.17v2.04h1.2ZM157.37,171.37v-2.04h2.17v-1.13h-2.17v-2.04h-1.2v2.04h-2.17v1.13h2.17v2.04h1.2ZM125.01,171.37v-2.04h2.17v-1.13h-2.17v-2.04h-1.2v2.04h-2.17v1.13h2.17v2.04h1.2ZM114.23,171.37v-2.04h2.17v-1.13h-2.17v-2.04h-1.2v2.04h-2.17v1.13h2.17v2.04h1.2ZM26.68,38.27v2.04h-2.17v1.13h2.17v2.04h1.2v-2.04h2.17v-1.13h-2.17v-2.04h-1.2ZM37.46,38.27v2.04h-2.17v1.13h2.17v2.04h1.2v-2.04h2.17v-1.13h-2.17v-2.04h-1.2ZM211.29,171.37v-2.04h2.17v-1.13h-2.17v-2.04h-1.2v2.04h-2.17v1.13h2.17v2.04h1.2ZM15.89,38.27v2.04h-2.17v1.13h2.17v2.04h1.2v-2.04h2.17v-1.13h-2.17v-2.04h-1.2ZM222.06,171.37v-2.04h2.17v-1.13h-2.17v-2.04h-1.2v2.04h-2.17v1.13h2.17v2.04h1.2ZM37.46,77.85v2.04h-2.17v1.13h2.17v2.04h1.2v-2.04h2.17v-1.13h-2.17v-2.04h-1.2ZM177.73,78.02v2.04h-2.17v1.13h2.17v2.04h1.2v-2.04h2.17v-1.13h-2.17v-2.04h-1.2ZM188.52,38.44v2.04h-2.17v1.13h2.17v2.04h1.2v-2.04h2.17v-1.13h-2.17v-2.04h-1.2ZM188.52,78.02v2.04h-2.17v1.13h2.17v2.04h1.2v-2.04h2.17v-1.13h-2.17v-2.04h-1.2ZM156.16,78.02v2.04h-2.17v1.13h2.17v2.04h1.2v-2.04h2.17v-1.13h-2.17v-2.04h-1.2ZM199.3,38.44v2.04h-2.17v1.13h2.17v2.04h1.2v-2.04h2.17v-1.13h-2.17v-2.04h-1.2ZM166.95,78.02v2.04h-2.16v1.13h2.16v2.04h1.2v-2.04h2.17v-1.13h-2.17v-2.04h-1.2ZM177.73,38.44v2.04h-2.17v1.13h2.17v2.04h1.2v-2.04h2.17v-1.13h-2.17v-2.04h-1.2ZM220.86,78.02v2.04h-2.17v1.13h2.17v2.04h1.2v-2.04h2.17v-1.13h-2.17v-2.04h-1.2ZM145.38,78.02v2.04h-2.17v1.13h2.17v2.04h1.2v-2.04h2.17v-1.13h-2.17v-2.04h-1.2ZM156.16,38.44v2.04h-2.17v1.13h2.17v2.04h1.2v-2.04h2.17v-1.13h-2.17v-2.04h-1.2ZM166.95,38.44v2.04h-2.16v1.13h2.16v2.04h1.2v-2.04h2.17v-1.13h-2.17v-2.04h-1.2ZM199.3,78.02v2.04h-2.17v1.13h2.17v2.04h1.2v-2.04h2.17v-1.13h-2.17v-2.04h-1.2ZM210.09,78.02v2.04h-2.17v1.13h2.17v2.04h1.2v-2.04h2.17v-1.13h-2.17v-2.04h-1.2ZM91.39,77.85v2.04h-2.17v1.13h2.17v2.04h1.2v-2.04h2.17v-1.13h-2.17v-2.04h-1.2ZM80.6,77.85v2.04h-2.17v1.13h2.17v2.04h1.2v-2.04h2.17v-1.13h-2.17v-2.04h-1.2ZM69.82,77.85v2.04h-2.17v1.13h2.17v2.04h1.2v-2.04h2.17v-1.13h-2.17v-2.04h-1.2ZM48.25,77.85v2.04h-2.17v1.13h2.17v2.04h1.2v-2.04h2.17v-1.13h-2.17v-2.04h-1.2ZM59.03,77.85v2.04h-2.17v1.13h2.17v2.04h1.2v-2.04h2.17v-1.13h-2.17v-2.04h-1.2ZM210.09,38.44v2.04h-2.17v1.13h2.17v2.04h1.2v-2.04h2.17v-1.13h-2.17v-2.04h-1.2ZM123.81,78.02v2.04h-2.17v1.13h2.17v2.04h1.2v-2.04h2.17v-1.13h-2.17v-2.04h-1.2ZM134.6,78.02v2.04h-2.17v1.13h2.17v2.04h1.2v-2.04h2.17v-1.13h-2.17v-2.04h-1.2ZM102.24,78.02v2.04h-2.17v1.13h2.17v2.04h1.2v-2.04h2.17v-1.13h-2.17v-2.04h-1.2ZM113.03,78.02v2.04h-2.17v1.13h2.17v2.04h1.2v-2.04h2.17v-1.13h-2.17v-2.04h-1.2ZM220.86,38.44v2.04h-2.17v1.13h2.17v2.04h1.2v-2.04h2.17v-1.13h-2.17v-2.04h-1.2ZM222.06,161.55v-2.04h2.17v-1.13h-2.17v-2.04h-1.2v2.04h-2.17v1.13h2.17v2.04h1.2ZM211.29,161.55v-2.04h2.17v-1.13h-2.17v-2.04h-1.2v2.04h-2.17v1.13h2.17v2.04h1.2ZM200.5,161.55v-2.04h2.17v-1.13h-2.17v-2.04h-1.2v2.04h-2.17v1.13h2.17v2.04h1.2ZM199.3,68.2v2.04h-2.17v1.13h2.17v2.04h1.2v-2.04h2.17v-1.13h-2.17v-2.04h-1.2ZM168.15,161.55v-2.04h2.17v-1.13h-2.17v-2.04h-1.2v2.04h-2.16v1.13h2.16v2.04h1.2ZM157.37,161.55v-2.04h2.17v-1.13h-2.17v-2.04h-1.2v2.04h-2.17v1.13h2.17v2.04h1.2ZM178.94,161.55v-2.04h2.17v-1.13h-2.17v-2.04h-1.2v2.04h-2.17v1.13h2.17v2.04h1.2ZM189.72,161.55v-2.04h2.17v-1.13h-2.17v-2.04h-1.2v2.04h-2.17v1.13h2.17v2.04h1.2ZM188.52,68.2v2.04h-2.17v1.13h2.17v2.04h1.2v-2.04h2.17v-1.13h-2.17v-2.04h-1.2ZM220.86,68.2v2.04h-2.17v1.13h2.17v2.04h1.2v-2.04h2.17v-1.13h-2.17v-2.04h-1.2ZM210.09,68.2v2.04h-2.17v1.13h2.17v2.04h1.2v-2.04h2.17v-1.13h-2.17v-2.04h-1.2ZM177.73,68.2v2.04h-2.17v1.13h2.17v2.04h1.2v-2.04h2.17v-1.13h-2.17v-2.04h-1.2ZM91.39,97.5v2.04h-2.17v1.13h2.17v2.04h1.2v-2.04h2.17v-1.13h-2.17v-2.04h-1.2ZM80.6,97.5v2.04h-2.17v1.13h2.17v2.04h1.2v-2.04h2.17v-1.13h-2.17v-2.04h-1.2ZM59.03,97.5v2.04h-2.17v1.13h2.17v2.04h1.2v-2.04h2.17v-1.13h-2.17v-2.04h-1.2ZM145.38,68.2v2.04h-2.17v1.13h2.17v2.04h1.2v-2.04h2.17v-1.13h-2.17v-2.04h-1.2ZM69.82,97.5v2.04h-2.17v1.13h2.17v2.04h1.2v-2.04h2.17v-1.13h-2.17v-2.04h-1.2ZM123.81,97.67v2.04h-2.17v1.13h2.17v2.04h1.2v-2.04h2.17v-1.13h-2.17v-2.04h-1.2ZM134.6,97.67v2.04h-2.17v1.13h2.17v2.04h1.2v-2.04h2.17v-1.13h-2.17v-2.04h-1.2ZM102.24,97.67v2.04h-2.17v1.13h2.17v2.04h1.2v-2.04h2.17v-1.13h-2.17v-2.04h-1.2ZM145.38,97.67v2.04h-2.17v1.13h2.17v2.04h1.2v-2.04h2.17v-1.13h-2.17v-2.04h-1.2ZM134.6,68.2v2.04h-2.17v1.13h2.17v2.04h1.2v-2.04h2.17v-1.13h-2.17v-2.04h-1.2ZM113.03,97.67v2.04h-2.17v1.13h2.17v2.04h1.2v-2.04h2.17v-1.13h-2.17v-2.04h-1.2ZM135.8,161.55v-2.04h2.17v-1.13h-2.17v-2.04h-1.2v2.04h-2.17v1.13h2.17v2.04h1.2ZM114.23,161.55v-2.04h2.17v-1.13h-2.17v-2.04h-1.2v2.04h-2.17v1.13h2.17v2.04h1.2ZM166.95,68.2v2.04h-2.16v1.13h2.16v2.04h1.2v-2.04h2.17v-1.13h-2.17v-2.04h-1.2ZM103.45,161.55v-2.04h2.17v-1.13h-2.17v-2.04h-1.2v2.04h-2.17v1.13h2.17v2.04h1.2ZM125.01,161.55v-2.04h2.17v-1.13h-2.17v-2.04h-1.2v2.04h-2.17v1.13h2.17v2.04h1.2ZM146.58,161.55v-2.04h2.17v-1.13h-2.17v-2.04h-1.2v2.04h-2.17v1.13h2.17v2.04h1.2ZM81.8,161.38v-2.04h2.17v-1.13h-2.17v-2.04h-1.2v2.04h-2.17v1.13h2.17v2.04h1.2ZM60.24,161.38v-2.04h2.17v-1.13h-2.17v-2.04h-1.2v2.04h-2.17v1.13h2.17v2.04h1.2ZM71.02,161.38v-2.04h2.17v-1.13h-2.17v-2.04h-1.2v2.04h-2.17v1.13h2.17v2.04h1.2ZM49.45,161.38v-2.04h2.17v-1.13h-2.17v-2.04h-1.2v2.04h-2.17v1.13h2.17v2.04h1.2ZM156.16,68.2v2.04h-2.17v1.13h2.17v2.04h1.2v-2.04h2.17v-1.13h-2.17v-2.04h-1.2ZM92.59,161.38v-2.04h2.17v-1.13h-2.17v-2.04h-1.2v2.04h-2.17v1.13h2.17v2.04h1.2ZM48.25,97.5v2.04h-2.17v1.13h2.17v2.04h1.2v-2.04h2.17v-1.13h-2.17v-2.04h-1.2ZM123.81,87.84v2.04h-2.17v1.13h2.17v2.04h1.2v-2.04h2.17v-1.13h-2.17v-2.04h-1.2ZM80.6,87.67v2.04h-2.17v1.13h2.17v2.04h1.2v-2.04h2.17v-1.13h-2.17v-2.04h-1.2ZM134.6,87.84v2.04h-2.17v1.13h2.17v2.04h1.2v-2.04h2.17v-1.13h-2.17v-2.04h-1.2ZM102.24,87.84v2.04h-2.17v1.13h2.17v2.04h1.2v-2.04h2.17v-1.13h-2.17v-2.04h-1.2ZM166.95,87.84v2.04h-2.16v1.13h2.16v2.04h1.2v-2.04h2.17v-1.13h-2.17v-2.04h-1.2ZM177.73,87.84v2.04h-2.17v1.13h2.17v2.04h1.2v-2.04h2.17v-1.13h-2.17v-2.04h-1.2ZM145.38,87.84v2.04h-2.17v1.13h2.17v2.04h1.2v-2.04h2.17v-1.13h-2.17v-2.04h-1.2ZM156.16,87.84v2.04h-2.17v1.13h2.17v2.04h1.2v-2.04h2.17v-1.13h-2.17v-2.04h-1.2ZM113.03,87.84v2.04h-2.17v1.13h2.17v2.04h1.2v-2.04h2.17v-1.13h-2.17v-2.04h-1.2ZM71.02,171.2v-2.04h2.17v-1.13h-2.17v-2.04h-1.2v2.04h-2.17v1.13h2.17v2.04h1.2ZM81.8,171.2v-2.04h2.17v-1.13h-2.17v-2.04h-1.2v2.04h-2.17v1.13h2.17v2.04h1.2ZM60.24,171.2v-2.04h2.17v-1.13h-2.17v-2.04h-1.2v2.04h-2.17v1.13h2.17v2.04h1.2ZM92.59,171.2v-2.04h2.17v-1.13h-2.17v-2.04h-1.2v2.04h-2.17v1.13h2.17v2.04h1.2ZM59.03,87.67v2.04h-2.17v1.13h2.17v2.04h1.2v-2.04h2.17v-1.13h-2.17v-2.04h-1.2ZM168.15,132.08v-2.04h2.17v-1.13h-2.17v-2.04h-1.2v2.04h-2.16v1.13h2.16v2.04h1.2ZM69.82,87.67v2.04h-2.17v1.13h2.17v2.04h1.2v-2.04h2.17v-1.13h-2.17v-2.04h-1.2ZM48.25,87.67v2.04h-2.17v1.13h2.17v2.04h1.2v-2.04h2.17v-1.13h-2.17v-2.04h-1.2ZM49.45,171.2v-2.04h2.17v-1.13h-2.17v-2.04h-1.2v2.04h-2.17v1.13h2.17v2.04h1.2ZM91.39,87.67v2.04h-2.17v1.13h2.17v2.04h1.2v-2.04h2.17v-1.13h-2.17v-2.04h-1.2ZM188.52,87.84v2.04h-2.17v1.13h2.17v2.04h1.2v-2.04h2.17v-1.13h-2.17v-2.04h-1.2ZM220.86,87.84v2.04h-2.17v1.13h2.17v2.04h1.2v-2.04h2.17v-1.13h-2.17v-2.04h-1.2ZM103.45,171.37v-2.04h2.17v-1.13h-2.17v-2.04h-1.2v2.04h-2.17v1.13h2.17v2.04h1.2ZM210.09,87.84v2.04h-2.17v1.13h2.17v2.04h1.2v-2.04h2.17v-1.13h-2.17v-2.04h-1.2ZM199.3,87.84v2.04h-2.17v1.13h2.17v2.04h1.2v-2.04h2.17v-1.13h-2.17v-2.04h-1.2ZM102.24,4.35h1.2v-2.04h2.17v-1.13h-2.17V-.85h-1.2V1.18h-2.17v1.13h2.17v2.04ZM113.03,8.97v2.04h-2.17v1.13h2.17v2.04h1.2v-2.04h2.17v-1.13h-2.17v-2.04h-1.2ZM123.81,8.97v2.04h-2.17v1.13h2.17v2.04h1.2v-2.04h2.17v-1.13h-2.17v-2.04h-1.2ZM91.39,4.18h1.2v-2.04h2.17v-1.13h-2.17V-1.03h-1.2V1.01h-2.17v1.13h2.17v2.04ZM134.6,8.97v2.04h-2.17v1.13h2.17v2.04h1.2v-2.04h2.17v-1.13h-2.17v-2.04h-1.2ZM123.81,4.35h1.2v-2.04h2.17v-1.13h-2.17V-.85h-1.2V1.18h-2.17v1.13h2.17v2.04ZM59.03,4.18h1.2v-2.04h2.17v-1.13h-2.17V-1.03h-1.2V1.01h-2.17v1.13h2.17v2.04ZM48.25,4.18h1.2v-2.04h2.17v-1.13h-2.17V-1.03h-1.2V1.01h-2.17v1.13h2.17v2.04ZM91.39,8.8v2.04h-2.17v1.13h2.17v2.04h1.2v-2.04h2.17v-1.13h-2.17v-2.04h-1.2ZM37.46,4.18h1.2v-2.04h2.17v-1.13h-2.17V-1.03h-1.2V1.01h-2.17v1.13h2.17v2.04ZM134.6,4.35h1.2v-2.04h2.17v-1.13h-2.17V-.85h-1.2V1.18h-2.17v1.13h2.17v2.04ZM80.6,4.18h1.2v-2.04h2.17v-1.13h-2.17V-1.03h-1.2V1.01h-2.17v1.13h2.17v2.04ZM69.82,4.18h1.2v-2.04h2.17v-1.13h-2.17V-1.03h-1.2V1.01h-2.17v1.13h2.17v2.04ZM102.24,8.97v2.04h-2.17v1.13h2.17v2.04h1.2v-2.04h2.17v-1.13h-2.17v-2.04h-1.2ZM113.03,4.35h1.2v-2.04h2.17v-1.13h-2.17V-.85h-1.2V1.18h-2.17v1.13h2.17v2.04ZM177.73,8.97v2.04h-2.17v1.13h2.17v2.04h1.2v-2.04h2.17v-1.13h-2.17v-2.04h-1.2ZM210.09,4.35h1.2v-2.04h2.17v-1.13h-2.17V-.85h-1.2V1.18h-2.17v1.13h2.17v2.04ZM166.95,8.97v2.04h-2.16v1.13h2.16v2.04h1.2v-2.04h2.17v-1.13h-2.17v-2.04h-1.2ZM199.3,4.35h1.2v-2.04h2.17v-1.13h-2.17V-.85h-1.2V1.18h-2.17v1.13h2.17v2.04ZM188.52,8.97v2.04h-2.17v1.13h2.17v2.04h1.2v-2.04h2.17v-1.13h-2.17v-2.04h-1.2ZM145.38,4.35h1.2v-2.04h2.17v-1.13h-2.17V-.85h-1.2V1.18h-2.17v1.13h2.17v2.04ZM166.95,4.35h1.2v-2.04h2.17v-1.13h-2.17V-.85h-1.2V1.18h-2.16v1.13h2.16v2.04ZM145.38,8.97v2.04h-2.17v1.13h2.17v2.04h1.2v-2.04h2.17v-1.13h-2.17v-2.04h-1.2ZM156.16,4.35h1.2v-2.04h2.17v-1.13h-2.17V-.85h-1.2V1.18h-2.17v1.13h2.17v2.04ZM188.52,4.35h1.2v-2.04h2.17v-1.13h-2.17V-.85h-1.2V1.18h-2.17v1.13h2.17v2.04ZM177.73,4.35h1.2v-2.04h2.17v-1.13h-2.17V-.85h-1.2V1.18h-2.17v1.13h2.17v2.04ZM156.16,8.97v2.04h-2.17v1.13h2.17v2.04h1.2v-2.04h2.17v-1.13h-2.17v-2.04h-1.2ZM220.86,4.35h1.2v-2.04h2.17v-1.13h-2.17V-.85h-1.2V1.18h-2.17v1.13h2.17v2.04ZM-5.67,171.2h1.2v-2.04h2.17v-1.13h-2.17v-2.04h-1.2v2.04h-2.17v1.13h2.17v2.04ZM-5.67,122.08h1.2v-2.04h2.17v-1.13h-2.17v-2.04h-1.2v2.04h-2.17v1.13h2.17v2.04ZM-5.67,161.38h1.2v-2.04h2.17v-1.13h-2.17v-2.04h-1.2v2.04h-2.17v1.13h2.17v2.04ZM-5.67,131.91h1.2v-2.04h2.17v-1.13h-2.17v-2.04h-1.2v2.04h-2.17v1.13h2.17v2.04ZM-5.67,151.55h1.2v-2.04h2.17v-1.13h-2.17v-2.04h-1.2v2.04h-2.17v1.13h2.17v2.04ZM-5.67,141.73h1.2v-2.04h2.17v-1.13h-2.17v-2.04h-1.2v2.04h-2.17v1.13h2.17v2.04ZM26.68,4.18h1.2v-2.04h2.17v-1.13h-2.17V-1.03h-1.2V1.01h-2.17v1.13h2.17v2.04ZM69.82,8.8v2.04h-2.17v1.13h2.17v2.04h1.2v-2.04h2.17v-1.13h-2.17v-2.04h-1.2ZM-5.67,4.18h1.2v-2.04h2.17v-1.13h-2.17V-1.03h-1.2V1.01h-2.17v1.13h2.17v2.04ZM5.11,4.18h1.2v-2.04h2.17v-1.13h-2.17V-1.03h-1.2V1.01h-2.17v1.13h2.17v2.04ZM-5.67,14h1.2v-2.04h2.17v-1.13h-2.17v-2.04h-1.2v2.04h-2.17v1.13h2.17v2.04ZM80.6,8.8v2.04h-2.17v1.13h2.17v2.04h1.2v-2.04h2.17v-1.13h-2.17v-2.04h-1.2ZM15.89,4.18h1.2v-2.04h2.17v-1.13h-2.17V-1.03h-1.2V1.01h-2.17v1.13h2.17v2.04ZM-5.67,23.83h1.2v-2.04h2.17v-1.13h-2.17v-2.04h-1.2v2.04h-2.17v1.13h2.17v2.04ZM-5.67,112.52h1.2v-2.04h2.17v-1.13h-2.17v-2.04h-1.2v2.04h-2.17v1.13h2.17v2.04ZM-5.67,83.05h1.2v-2.04h2.17v-1.13h-2.17v-2.04h-1.2v2.04h-2.17v1.13h2.17v2.04ZM-5.67,33.65h1.2v-2.04h2.17v-1.13h-2.17v-2.04h-1.2v2.04h-2.17v1.13h2.17v2.04ZM-5.67,102.7h1.2v-2.04h2.17v-1.13h-2.17v-2.04h-1.2v2.04h-2.17v1.13h2.17v2.04ZM-5.67,73.23h1.2v-2.04h2.17v-1.13h-2.17v-2.04h-1.2v2.04h-2.17v1.13h2.17v2.04ZM-5.67,92.88h1.2v-2.04h2.17v-1.13h-2.17v-2.04h-1.2v2.04h-2.17v1.13h2.17v2.04ZM-5.67,63.41h1.2v-2.04h2.17v-1.13h-2.17v-2.04h-1.2v2.04h-2.17v1.13h2.17v2.04ZM-5.67,43.47h1.2v-2.04h2.17v-1.13h-2.17v-2.04h-1.2v2.04h-2.17v1.13h2.17v2.04ZM-5.67,53.3h1.2v-2.04h2.17v-1.13h-2.17v-2.04h-1.2v2.04h-2.17v1.13h2.17v2.04ZM199.3,48.27v2.04h-2.17v1.13h2.17v2.04h1.2v-2.04h2.17v-1.13h-2.17v-2.04h-1.2ZM48.25,58.2v2.04h-2.17v1.13h2.17v2.04h1.2v-2.04h2.17v-1.13h-2.17v-2.04h-1.2ZM59.03,58.2v2.04h-2.17v1.13h2.17v2.04h1.2v-2.04h2.17v-1.13h-2.17v-2.04h-1.2ZM37.46,58.2v2.04h-2.17v1.13h2.17v2.04h1.2v-2.04h2.17v-1.13h-2.17v-2.04h-1.2ZM210.09,48.27v2.04h-2.17v1.13h2.17v2.04h1.2v-2.04h2.17v-1.13h-2.17v-2.04h-1.2ZM26.68,58.2v2.04h-2.17v1.13h2.17v2.04h1.2v-2.04h2.17v-1.13h-2.17v-2.04h-1.2ZM220.86,8.97v2.04h-2.17v1.13h2.17v2.04h1.2v-2.04h2.17v-1.13h-2.17v-2.04h-1.2ZM199.3,8.97v2.04h-2.17v1.13h2.17v2.04h1.2v-2.04h2.17v-1.13h-2.17v-2.04h-1.2ZM210.09,8.97v2.04h-2.17v1.13h2.17v2.04h1.2v-2.04h2.17v-1.13h-2.17v-2.04h-1.2ZM220.86,48.27v2.04h-2.17v1.13h2.17v2.04h1.2v-2.04h2.17v-1.13h-2.17v-2.04h-1.2ZM59.03,8.8v2.04h-2.17v1.13h2.17v2.04h1.2v-2.04h2.17v-1.13h-2.17v-2.04h-1.2ZM37.46,8.8v2.04h-2.17v1.13h2.17v2.04h1.2v-2.04h2.17v-1.13h-2.17v-2.04h-1.2ZM48.25,8.8v2.04h-2.17v1.13h2.17v2.04h1.2v-2.04h2.17v-1.13h-2.17v-2.04h-1.2ZM26.68,8.8v2.04h-2.17v1.13h2.17v2.04h1.2v-2.04h2.17v-1.13h-2.17v-2.04h-1.2ZM5.11,8.8v2.04h-2.17v1.13h2.17v2.04h1.2v-2.04h2.17v-1.13h-2.17v-2.04h-1.2ZM15.89,8.8v2.04h-2.17v1.13h2.17v2.04h1.2v-2.04h2.17v-1.13h-2.17v-2.04h-1.2ZM24.51,129.87h2.17v2.04h1.2v-2.04h2.17v-1.13h-2.17v-2.04h-1.2v2.04h-2.17v1.13ZM24.51,110.49h2.17v2.04h1.2v-2.04h2.17v-1.13h-2.17v-2.04h-1.2v2.04h-2.17v1.13ZM24.51,120.05h2.17v2.04h1.2v-2.04h2.17v-1.13h-2.17v-2.04h-1.2v2.04h-2.17v1.13ZM24.51,149.52h2.17v2.04h1.2v-2.04h2.17v-1.13h-2.17v-2.04h-1.2v2.04h-2.17v1.13ZM24.51,139.69h2.17v2.04h1.2v-2.04h2.17v-1.13h-2.17v-2.04h-1.2v2.04h-2.17v1.13ZM15.89,18.62v2.04h-2.17v1.13h2.17v2.04h1.2v-2.04h2.17v-1.13h-2.17v-2.04h-1.2ZM24.51,71.19h2.17v2.04h1.2v-2.04h2.17v-1.13h-2.17v-2.04h-1.2v2.04h-2.17v1.13ZM24.51,90.84h2.17v2.04h1.2v-2.04h2.17v-1.13h-2.17v-2.04h-1.2v2.04h-2.17v1.13ZM24.51,100.66h2.17v2.04h1.2v-2.04h2.17v-1.13h-2.17v-2.04h-1.2v2.04h-2.17v1.13ZM37.46,18.62v2.04h-2.17v1.13h2.17v2.04h1.2v-2.04h2.17v-1.13h-2.17v-2.04h-1.2ZM26.68,18.62v2.04h-2.17v1.13h2.17v2.04h1.2v-2.04h2.17v-1.13h-2.17v-2.04h-1.2ZM69.82,48.09v2.04h-2.17v1.13h2.17v2.04h1.2v-2.04h2.17v-1.13h-2.17v-2.04h-1.2ZM24.51,159.34h2.17v2.04h1.2v-2.04h2.17v-1.13h-2.17v-2.04h-1.2v2.04h-2.17v1.13ZM24.51,169.16h2.17v2.04h1.2v-2.04h2.17v-1.13h-2.17v-2.04h-1.2v2.04h-2.17v1.13ZM24.51,81.02h2.17v2.04h1.2v-2.04h2.17v-1.13h-2.17v-2.04h-1.2v2.04h-2.17v1.13ZM48.25,18.62v2.04h-2.17v1.13h2.17v2.04h1.2v-2.04h2.17v-1.13h-2.17v-2.04h-1.2ZM59.03,18.62v2.04h-2.17v1.13h2.17v2.04h1.2v-2.04h2.17v-1.13h-2.17v-2.04h-1.2ZM59.03,48.09v2.04h-2.17v1.13h2.17v2.04h1.2v-2.04h2.17v-1.13h-2.17v-2.04h-1.2ZM80.6,18.62v2.04h-2.17v1.13h2.17v2.04h1.2v-2.04h2.17v-1.13h-2.17v-2.04h-1.2ZM69.82,18.62v2.04h-2.17v1.13h2.17v2.04h1.2v-2.04h2.17v-1.13h-2.17v-2.04h-1.2ZM102.24,48.27v2.04h-2.17v1.13h2.17v2.04h1.2v-2.04h2.17v-1.13h-2.17v-2.04h-1.2ZM80.6,48.09v2.04h-2.17v1.13h2.17v2.04h1.2v-2.04h2.17v-1.13h-2.17v-2.04h-1.2ZM5.11,18.62v2.04h-2.17v1.13h2.17v2.04h1.2v-2.04h2.17v-1.13h-2.17v-2.04h-1.2ZM91.39,48.09v2.04h-2.17v1.13h2.17v2.04h1.2v-2.04h2.17v-1.13h-2.17v-2.04h-1.2ZM56.87,129.87h2.17v2.04h1.2v-2.04h2.17v-1.13h-2.17v-2.04h-1.2v2.04h-2.17v1.13ZM220.86,18.79v2.04h-2.17v1.13h2.17v2.04h1.2v-2.04h2.17v-1.13h-2.17v-2.04h-1.2ZM46.08,149.52h2.17v2.04h1.2v-2.04h2.17v-1.13h-2.17v-2.04h-1.2v2.04h-2.17v1.13ZM210.09,18.79v2.04h-2.17v1.13h2.17v2.04h1.2v-2.04h2.17v-1.13h-2.17v-2.04h-1.2ZM46.08,129.87h2.17v2.04h1.2v-2.04h2.17v-1.13h-2.17v-2.04h-1.2v2.04h-2.17v1.13ZM26.68,48.09v2.04h-2.17v1.13h2.17v2.04h1.2v-2.04h2.17v-1.13h-2.17v-2.04h-1.2ZM46.08,139.69h2.17v2.04h1.2v-2.04h2.17v-1.13h-2.17v-2.04h-1.2v2.04h-2.17v1.13ZM46.08,110.49h2.17v2.04h1.2v-2.04h2.17v-1.13h-2.17v-2.04h-1.2v2.04h-2.17v1.13ZM46.08,120.05h2.17v2.04h1.2v-2.04h2.17v-1.13h-2.17v-2.04h-1.2v2.04h-2.17v1.13ZM125.01,132.08v-2.04h2.17v-1.13h-2.17v-2.04h-1.2v2.04h-2.17v1.13h2.17v2.04h1.2ZM135.8,132.08v-2.04h2.17v-1.13h-2.17v-2.04h-1.2v2.04h-2.17v1.13h2.17v2.04h1.2ZM146.58,132.08v-2.04h2.17v-1.13h-2.17v-2.04h-1.2v2.04h-2.17v1.13h2.17v2.04h1.2ZM81.8,131.91v-2.04h2.17v-1.13h-2.17v-2.04h-1.2v2.04h-2.17v1.13h2.17v2.04h1.2ZM92.59,131.91v-2.04h2.17v-1.13h-2.17v-2.04h-1.2v2.04h-2.17v1.13h2.17v2.04h1.2ZM71.02,131.91v-2.04h2.17v-1.13h-2.17v-2.04h-1.2v2.04h-2.17v1.13h2.17v2.04h1.2ZM188.52,48.27v2.04h-2.17v1.13h2.17v2.04h1.2v-2.04h2.17v-1.13h-2.17v-2.04h-1.2ZM114.23,132.08v-2.04h2.17v-1.13h-2.17v-2.04h-1.2v2.04h-2.17v1.13h2.17v2.04h1.2ZM103.45,132.08v-2.04h2.17v-1.13h-2.17v-2.04h-1.2v2.04h-2.17v1.13h2.17v2.04h1.2ZM157.37,132.08v-2.04h2.17v-1.13h-2.17v-2.04h-1.2v2.04h-2.17v1.13h2.17v2.04h1.2ZM35.3,169.16h2.17v2.04h1.2v-2.04h2.17v-1.13h-2.17v-2.04h-1.2v2.04h-2.17v1.13ZM35.3,110.49h2.17v2.04h1.2v-2.04h2.17v-1.13h-2.17v-2.04h-1.2v2.04h-2.17v1.13ZM35.3,149.52h2.17v2.04h1.2v-2.04h2.17v-1.13h-2.17v-2.04h-1.2v2.04h-2.17v1.13ZM199.3,18.79v2.04h-2.17v1.13h2.17v2.04h1.2v-2.04h2.17v-1.13h-2.17v-2.04h-1.2ZM35.3,139.69h2.17v2.04h1.2v-2.04h2.17v-1.13h-2.17v-2.04h-1.2v2.04h-2.17v1.13ZM35.3,120.05h2.17v2.04h1.2v-2.04h2.17v-1.13h-2.17v-2.04h-1.2v2.04h-2.17v1.13ZM35.3,129.87h2.17v2.04h1.2v-2.04h2.17v-1.13h-2.17v-2.04h-1.2v2.04h-2.17v1.13ZM35.3,159.34h2.17v2.04h1.2v-2.04h2.17v-1.13h-2.17v-2.04h-1.2v2.04h-2.17v1.13ZM134.6,18.79v2.04h-2.17v1.13h2.17v2.04h1.2v-2.04h2.17v-1.13h-2.17v-2.04h-1.2ZM91.39,18.62v2.04h-2.17v1.13h2.17v2.04h1.2v-2.04h2.17v-1.13h-2.17v-2.04h-1.2ZM113.03,18.79v2.04h-2.17v1.13h2.17v2.04h1.2v-2.04h2.17v-1.13h-2.17v-2.04h-1.2ZM102.24,18.79v2.04h-2.17v1.13h2.17v2.04h1.2v-2.04h2.17v-1.13h-2.17v-2.04h-1.2ZM123.81,18.79v2.04h-2.17v1.13h2.17v2.04h1.2v-2.04h2.17v-1.13h-2.17v-2.04h-1.2ZM48.25,48.09v2.04h-2.17v1.13h2.17v2.04h1.2v-2.04h2.17v-1.13h-2.17v-2.04h-1.2ZM145.38,18.79v2.04h-2.17v1.13h2.17v2.04h1.2v-2.04h2.17v-1.13h-2.17v-2.04h-1.2ZM37.46,48.09v2.04h-2.17v1.13h2.17v2.04h1.2v-2.04h2.17v-1.13h-2.17v-2.04h-1.2ZM166.95,18.79v2.04h-2.16v1.13h2.16v2.04h1.2v-2.04h2.17v-1.13h-2.17v-2.04h-1.2ZM156.16,18.79v2.04h-2.17v1.13h2.17v2.04h1.2v-2.04h2.17v-1.13h-2.17v-2.04h-1.2ZM188.52,18.79v2.04h-2.17v1.13h2.17v2.04h1.2v-2.04h2.17v-1.13h-2.17v-2.04h-1.2ZM177.73,18.79v2.04h-2.17v1.13h2.17v2.04h1.2v-2.04h2.17v-1.13h-2.17v-2.04h-1.2ZM35.3,90.84h2.17v2.04h1.2v-2.04h2.17v-1.13h-2.17v-2.04h-1.2v2.04h-2.17v1.13ZM35.3,100.66h2.17v2.04h1.2v-2.04h2.17v-1.13h-2.17v-2.04h-1.2v2.04h-2.17v1.13ZM2.95,81.02h2.17v2.04h1.2v-2.04h2.17v-1.13h-2.17v-2.04h-1.2v2.04h-2.17v1.13ZM2.95,90.84h2.17v2.04h1.2v-2.04h2.17v-1.13h-2.17v-2.04h-1.2v2.04h-2.17v1.13ZM2.95,71.19h2.17v2.04h1.2v-2.04h2.17v-1.13h-2.17v-2.04h-1.2v2.04h-2.17v1.13ZM2.95,51.26h2.17v2.04h1.2v-2.04h2.17v-1.13h-2.17v-2.04h-1.2v2.04h-2.17v1.13ZM2.95,41.44h2.17v2.04h1.2v-2.04h2.17v-1.13h-2.17v-2.04h-1.2v2.04h-2.17v1.13ZM2.95,31.61h2.17v2.04h1.2v-2.04h2.17v-1.13h-2.17v-2.04h-1.2v2.04h-2.17v1.13ZM2.95,61.37h2.17v2.04h1.2v-2.04h2.17v-1.13h-2.17v-2.04h-1.2v2.04h-2.17v1.13ZM145.38,58.37v2.04h-2.17v1.13h2.17v2.04h1.2v-2.04h2.17v-1.13h-2.17v-2.04h-1.2ZM134.6,58.37v2.04h-2.17v1.13h2.17v2.04h1.2v-2.04h2.17v-1.13h-2.17v-2.04h-1.2ZM2.95,100.66h2.17v2.04h1.2v-2.04h2.17v-1.13h-2.17v-2.04h-1.2v2.04h-2.17v1.13ZM91.39,58.2v2.04h-2.17v1.13h2.17v2.04h1.2v-2.04h2.17v-1.13h-2.17v-2.04h-1.2ZM102.24,58.37v2.04h-2.17v1.13h2.17v2.04h1.2v-2.04h2.17v-1.13h-2.17v-2.04h-1.2ZM113.03,58.37v2.04h-2.17v1.13h2.17v2.04h1.2v-2.04h2.17v-1.13h-2.17v-2.04h-1.2ZM2.95,110.49h2.17v2.04h1.2v-2.04h2.17v-1.13h-2.17v-2.04h-1.2v2.04h-2.17v1.13ZM166.95,48.27v2.04h-2.16v1.13h2.16v2.04h1.2v-2.04h2.17v-1.13h-2.17v-2.04h-1.2ZM69.82,58.2v2.04h-2.17v1.13h2.17v2.04h1.2v-2.04h2.17v-1.13h-2.17v-2.04h-1.2ZM80.6,58.2v2.04h-2.17v1.13h2.17v2.04h1.2v-2.04h2.17v-1.13h-2.17v-2.04h-1.2ZM177.73,48.27v2.04h-2.17v1.13h2.17v2.04h1.2v-2.04h2.17v-1.13h-2.17v-2.04h-1.2ZM2.95,149.52h2.17v2.04h1.2v-2.04h2.17v-1.13h-2.17v-2.04h-1.2v2.04h-2.17v1.13ZM2.95,159.34h2.17v2.04h1.2v-2.04h2.17v-1.13h-2.17v-2.04h-1.2v2.04h-2.17v1.13ZM145.38,48.27v2.04h-2.17v1.13h2.17v2.04h1.2v-2.04h2.17v-1.13h-2.17v-2.04h-1.2ZM2.95,129.87h2.17v2.04h1.2v-2.04h2.17v-1.13h-2.17v-2.04h-1.2v2.04h-2.17v1.13ZM2.95,139.69h2.17v2.04h1.2v-2.04h2.17v-1.13h-2.17v-2.04h-1.2v2.04h-2.17v1.13ZM2.95,120.05h2.17v2.04h1.2v-2.04h2.17v-1.13h-2.17v-2.04h-1.2v2.04h-2.17v1.13ZM2.95,169.16h2.17v2.04h1.2v-2.04h2.17v-1.13h-2.17v-2.04h-1.2v2.04h-2.17v1.13ZM123.81,58.37v2.04h-2.17v1.13h2.17v2.04h1.2v-2.04h2.17v-1.13h-2.17v-2.04h-1.2ZM156.16,48.27v2.04h-2.17v1.13h2.17v2.04h1.2v-2.04h2.17v-1.13h-2.17v-2.04h-1.2ZM13.73,159.34h2.17v2.04h1.2v-2.04h2.17v-1.13h-2.17v-2.04h-1.2v2.04h-2.17v1.13ZM13.73,149.52h2.17v2.04h1.2v-2.04h2.17v-1.13h-2.17v-2.04h-1.2v2.04h-2.17v1.13ZM199.3,58.37v2.04h-2.17v1.13h2.17v2.04h1.2v-2.04h2.17v-1.13h-2.17v-2.04h-1.2ZM13.73,110.49h2.17v2.04h1.2v-2.04h2.17v-1.13h-2.17v-2.04h-1.2v2.04h-2.17v1.13ZM188.52,58.37v2.04h-2.17v1.13h2.17v2.04h1.2v-2.04h2.17v-1.13h-2.17v-2.04h-1.2ZM13.73,129.87h2.17v2.04h1.2v-2.04h2.17v-1.13h-2.17v-2.04h-1.2v2.04h-2.17v1.13ZM13.73,120.05h2.17v2.04h1.2v-2.04h2.17v-1.13h-2.17v-2.04h-1.2v2.04h-2.17v1.13ZM123.81,48.27v2.04h-2.17v1.13h2.17v2.04h1.2v-2.04h2.17v-1.13h-2.17v-2.04h-1.2ZM13.73,139.69h2.17v2.04h1.2v-2.04h2.17v-1.13h-2.17v-2.04h-1.2v2.04h-2.17v1.13ZM220.86,58.37v2.04h-2.17v1.13h2.17v2.04h1.2v-2.04h2.17v-1.13h-2.17v-2.04h-1.2ZM210.09,58.37v2.04h-2.17v1.13h2.17v2.04h1.2v-2.04h2.17v-1.13h-2.17v-2.04h-1.2ZM113.03,48.27v2.04h-2.17v1.13h2.17v2.04h1.2v-2.04h2.17v-1.13h-2.17v-2.04h-1.2ZM13.73,169.16h2.17v2.04h1.2v-2.04h2.17v-1.13h-2.17v-2.04h-1.2v2.04h-2.17v1.13ZM13.73,81.02h2.17v2.04h1.2v-2.04h2.17v-1.13h-2.17v-2.04h-1.2v2.04h-2.17v1.13ZM13.73,90.84h2.17v2.04h1.2v-2.04h2.17v-1.13h-2.17v-2.04h-1.2v2.04h-2.17v1.13ZM13.73,61.37h2.17v2.04h1.2v-2.04h2.17v-1.13h-2.17v-2.04h-1.2v2.04h-2.17v1.13ZM134.6,48.27v2.04h-2.17v1.13h2.17v2.04h1.2v-2.04h2.17v-1.13h-2.17v-2.04h-1.2ZM166.95,58.37v2.04h-2.16v1.13h2.16v2.04h1.2v-2.04h2.17v-1.13h-2.17v-2.04h-1.2ZM13.73,71.19h2.17v2.04h1.2v-2.04h2.17v-1.13h-2.17v-2.04h-1.2v2.04h-2.17v1.13ZM13.73,51.26h2.17v2.04h1.2v-2.04h2.17v-1.13h-2.17v-2.04h-1.2v2.04h-2.17v1.13ZM156.16,58.37v2.04h-2.17v1.13h2.17v2.04h1.2v-2.04h2.17v-1.13h-2.17v-2.04h-1.2ZM13.73,100.66h2.17v2.04h1.2v-2.04h2.17v-1.13h-2.17v-2.04h-1.2v2.04h-2.17v1.13ZM177.73,58.37v2.04h-2.17v1.13h2.17v2.04h1.2v-2.04h2.17v-1.13h-2.17v-2.04h-1.2ZM96.77,53.69v2.04h-2.17v1.13h2.17v2.04h1.2v-2.04h2.17v-1.13h-2.17v-2.04h-1.2ZM183.12,53.86v2.04h-2.16v1.13h2.16v2.04h1.2v-2.04h2.17v-1.13h-2.17v-2.04h-1.2ZM193.9,53.86v2.04h-2.17v1.13h2.17v2.04h1.2v-2.04h2.17v-1.13h-2.17v-2.04h-1.2ZM204.69,53.86v2.04h-2.17v1.13h2.17v2.04h1.2v-2.04h2.17v-1.13h-2.17v-2.04h-1.2ZM172.33,53.86v2.04h-2.17v1.13h2.17v2.04h1.2v-2.04h2.17v-1.13h-2.17v-2.04h-1.2ZM21.28,53.69v2.04h-2.17v1.13h2.17v2.04h1.2v-2.04h2.17v-1.13h-2.17v-2.04h-1.2ZM161.55,53.86v2.04h-2.17v1.13h2.17v2.04h1.2v-2.04h2.17v-1.13h-2.17v-2.04h-1.2ZM53.63,53.69v2.04h-2.17v1.13h2.17v2.04h1.2v-2.04h2.17v-1.13h-2.17v-2.04h-1.2ZM42.85,53.69v2.04h-2.17v1.13h2.17v2.04h1.2v-2.04h2.17v-1.13h-2.17v-2.04h-1.2ZM107.56,53.69v2.04h-2.17v1.13h2.17v2.04h1.2v-2.04h2.17v-1.13h-2.17v-2.04h-1.2ZM129.2,53.86v2.04h-2.17v1.13h2.17v2.04h1.2v-2.04h2.17v-1.13h-2.17v-2.04h-1.2ZM139.98,53.86v2.04h-2.17v1.13h2.17v2.04h1.2v-2.04h2.17v-1.13h-2.17v-2.04h-1.2ZM150.77,53.86v2.04h-2.17v1.13h2.17v2.04h1.2v-2.04h2.17v-1.13h-2.17v-2.04h-1.2ZM64.42,53.69v2.04h-2.17v1.13h2.17v2.04h1.2v-2.04h2.17v-1.13h-2.17v-2.04h-1.2ZM85.99,53.69v2.04h-2.17v1.13h2.17v2.04h1.2v-2.04h2.17v-1.13h-2.17v-2.04h-1.2ZM32.07,53.69v2.04h-2.17v1.13h2.17v2.04h1.2v-2.04h2.17v-1.13h-2.17v-2.04h-1.2ZM215.47,53.86v2.04h-2.17v1.13h2.17v2.04h1.2v-2.04h2.17v-1.13h-2.17v-2.04h-1.2ZM118.41,53.86v2.04h-2.17v1.13h2.17v2.04h1.2v-2.04h2.17v-1.13h-2.17v-2.04h-1.2ZM75.2,53.69v2.04h-2.17v1.13h2.17v2.04h1.2v-2.04h2.17v-1.13h-2.17v-2.04h-1.2ZM215.47,24.39v2.04h-2.17v1.13h2.17v2.04h1.2v-2.04h2.17v-1.13h-2.17v-2.04h-1.2ZM204.69,24.39v2.04h-2.17v1.13h2.17v2.04h1.2v-2.04h2.17v-1.13h-2.17v-2.04h-1.2ZM161.55,24.39v2.04h-2.17v1.13h2.17v2.04h1.2v-2.04h2.17v-1.13h-2.17v-2.04h-1.2ZM150.77,24.39v2.04h-2.17v1.13h2.17v2.04h1.2v-2.04h2.17v-1.13h-2.17v-2.04h-1.2ZM172.33,24.39v2.04h-2.17v1.13h2.17v2.04h1.2v-2.04h2.17v-1.13h-2.17v-2.04h-1.2ZM183.12,24.39v2.04h-2.16v1.13h2.16v2.04h1.2v-2.04h2.17v-1.13h-2.17v-2.04h-1.2ZM193.9,24.39v2.04h-2.17v1.13h2.17v2.04h1.2v-2.04h2.17v-1.13h-2.17v-2.04h-1.2ZM21.28,24.21v2.04h-2.17v1.13h2.17v2.04h1.2v-2.04h2.17v-1.13h-2.17v-2.04h-1.2ZM10.5,24.21v2.04h-2.17v1.13h2.17v2.04h1.2v-2.04h2.17v-1.13h-2.17v-2.04h-1.2ZM32.07,24.21v2.04h-2.17v1.13h2.17v2.04h1.2v-2.04h2.17v-1.13h-2.17v-2.04h-1.2ZM139.98,24.39v2.04h-2.17v1.13h2.17v2.04h1.2v-2.04h2.17v-1.13h-2.17v-2.04h-1.2ZM42.85,24.21v2.04h-2.17v1.13h2.17v2.04h1.2v-2.04h2.17v-1.13h-2.17v-2.04h-1.2ZM53.63,24.21v2.04h-2.17v1.13h2.17v2.04h1.2v-2.04h2.17v-1.13h-2.17v-2.04h-1.2ZM118.41,24.39v2.04h-2.17v1.13h2.17v2.04h1.2v-2.04h2.17v-1.13h-2.17v-2.04h-1.2ZM129.2,24.39v2.04h-2.17v1.13h2.17v2.04h1.2v-2.04h2.17v-1.13h-2.17v-2.04h-1.2ZM96.77,24.21v2.04h-2.17v1.13h2.17v2.04h1.2v-2.04h2.17v-1.13h-2.17v-2.04h-1.2ZM107.56,24.21v2.04h-2.17v1.13h2.17v2.04h1.2v-2.04h2.17v-1.13h-2.17v-2.04h-1.2ZM64.42,24.21v2.04h-2.17v1.13h2.17v2.04h1.2v-2.04h2.17v-1.13h-2.17v-2.04h-1.2ZM85.99,24.21v2.04h-2.17v1.13h2.17v2.04h1.2v-2.04h2.17v-1.13h-2.17v-2.04h-1.2ZM75.2,24.21v2.04h-2.17v1.13h2.17v2.04h1.2v-2.04h2.17v-1.13h-2.17v-2.04h-1.2ZM215.47,14.56v2.04h-2.17v1.13h2.17v2.04h1.2v-2.04h2.17v-1.13h-2.17v-2.04h-1.2ZM193.9,14.56v2.04h-2.17v1.13h2.17v2.04h1.2v-2.04h2.17v-1.13h-2.17v-2.04h-1.2ZM183.12,14.56v2.04h-2.16v1.13h2.16v2.04h1.2v-2.04h2.17v-1.13h-2.17v-2.04h-1.2ZM204.69,14.56v2.04h-2.17v1.13h2.17v2.04h1.2v-2.04h2.17v-1.13h-2.17v-2.04h-1.2ZM172.33,14.56v2.04h-2.17v1.13h2.17v2.04h1.2v-2.04h2.17v-1.13h-2.17v-2.04h-1.2ZM21.28,14.39v2.04h-2.17v1.13h2.17v2.04h1.2v-2.04h2.17v-1.13h-2.17v-2.04h-1.2ZM42.85,14.39v2.04h-2.17v1.13h2.17v2.04h1.2v-2.04h2.17v-1.13h-2.17v-2.04h-1.2ZM32.07,14.39v2.04h-2.17v1.13h2.17v2.04h1.2v-2.04h2.17v-1.13h-2.17v-2.04h-1.2ZM53.63,14.39v2.04h-2.17v1.13h2.17v2.04h1.2v-2.04h2.17v-1.13h-2.17v-2.04h-1.2ZM10.5,14.39v2.04h-2.17v1.13h2.17v2.04h1.2v-2.04h2.17v-1.13h-2.17v-2.04h-1.2ZM-.29,14.39v2.04h-2.17v1.13H-.29v2.04H.92v-2.04h2.17v-1.13H.92v-2.04H-.29ZM64.42,14.39v2.04h-2.17v1.13h2.17v2.04h1.2v-2.04h2.17v-1.13h-2.17v-2.04h-1.2ZM139.98,14.56v2.04h-2.17v1.13h2.17v2.04h1.2v-2.04h2.17v-1.13h-2.17v-2.04h-1.2ZM129.2,14.56v2.04h-2.17v1.13h2.17v2.04h1.2v-2.04h2.17v-1.13h-2.17v-2.04h-1.2ZM161.55,14.56v2.04h-2.17v1.13h2.17v2.04h1.2v-2.04h2.17v-1.13h-2.17v-2.04h-1.2ZM118.41,14.56v2.04h-2.17v1.13h2.17v2.04h1.2v-2.04h2.17v-1.13h-2.17v-2.04h-1.2ZM150.77,14.56v2.04h-2.17v1.13h2.17v2.04h1.2v-2.04h2.17v-1.13h-2.17v-2.04h-1.2ZM85.99,14.39v2.04h-2.17v1.13h2.17v2.04h1.2v-2.04h2.17v-1.13h-2.17v-2.04h-1.2ZM75.2,14.39v2.04h-2.17v1.13h2.17v2.04h1.2v-2.04h2.17v-1.13h-2.17v-2.04h-1.2ZM107.56,14.39v2.04h-2.17v1.13h2.17v2.04h1.2v-2.04h2.17v-1.13h-2.17v-2.04h-1.2ZM96.77,14.39v2.04h-2.17v1.13h2.17v2.04h1.2v-2.04h2.17v-1.13h-2.17v-2.04h-1.2ZM215.47,44.03v2.04h-2.17v1.13h2.17v2.04h1.2v-2.04h2.17v-1.13h-2.17v-2.04h-1.2ZM172.33,44.03v2.04h-2.17v1.13h2.17v2.04h1.2v-2.04h2.17v-1.13h-2.17v-2.04h-1.2ZM183.12,44.03v2.04h-2.16v1.13h2.16v2.04h1.2v-2.04h2.17v-1.13h-2.17v-2.04h-1.2ZM204.69,44.03v2.04h-2.17v1.13h2.17v2.04h1.2v-2.04h2.17v-1.13h-2.17v-2.04h-1.2ZM193.9,44.03v2.04h-2.17v1.13h2.17v2.04h1.2v-2.04h2.17v-1.13h-2.17v-2.04h-1.2ZM161.55,44.03v2.04h-2.17v1.13h2.17v2.04h1.2v-2.04h2.17v-1.13h-2.17v-2.04h-1.2ZM150.77,44.03v2.04h-2.17v1.13h2.17v2.04h1.2v-2.04h2.17v-1.13h-2.17v-2.04h-1.2ZM21.28,43.86v2.04h-2.17v1.13h2.17v2.04h1.2v-2.04h2.17v-1.13h-2.17v-2.04h-1.2ZM42.85,43.86v2.04h-2.17v1.13h2.17v2.04h1.2v-2.04h2.17v-1.13h-2.17v-2.04h-1.2ZM53.63,43.86v2.04h-2.17v1.13h2.17v2.04h1.2v-2.04h2.17v-1.13h-2.17v-2.04h-1.2ZM32.07,43.86v2.04h-2.17v1.13h2.17v2.04h1.2v-2.04h2.17v-1.13h-2.17v-2.04h-1.2ZM64.42,43.86v2.04h-2.17v1.13h2.17v2.04h1.2v-2.04h2.17v-1.13h-2.17v-2.04h-1.2ZM107.56,43.86v2.04h-2.17v1.13h2.17v2.04h1.2v-2.04h2.17v-1.13h-2.17v-2.04h-1.2ZM129.2,44.03v2.04h-2.17v1.13h2.17v2.04h1.2v-2.04h2.17v-1.13h-2.17v-2.04h-1.2ZM139.98,44.03v2.04h-2.17v1.13h2.17v2.04h1.2v-2.04h2.17v-1.13h-2.17v-2.04h-1.2ZM118.41,44.03v2.04h-2.17v1.13h2.17v2.04h1.2v-2.04h2.17v-1.13h-2.17v-2.04h-1.2ZM75.2,43.86v2.04h-2.17v1.13h2.17v2.04h1.2v-2.04h2.17v-1.13h-2.17v-2.04h-1.2ZM96.77,43.86v2.04h-2.17v1.13h2.17v2.04h1.2v-2.04h2.17v-1.13h-2.17v-2.04h-1.2ZM85.99,43.86v2.04h-2.17v1.13h2.17v2.04h1.2v-2.04h2.17v-1.13h-2.17v-2.04h-1.2ZM10.5,34.04v2.04h-2.17v1.13h2.17v2.04h1.2v-2.04h2.17v-1.13h-2.17v-2.04h-1.2ZM139.98,34.21v2.04h-2.17v1.13h2.17v2.04h1.2v-2.04h2.17v-1.13h-2.17v-2.04h-1.2ZM215.47,34.21v2.04h-2.17v1.13h2.17v2.04h1.2v-2.04h2.17v-1.13h-2.17v-2.04h-1.2ZM204.69,34.21v2.04h-2.17v1.13h2.17v2.04h1.2v-2.04h2.17v-1.13h-2.17v-2.04h-1.2ZM183.12,34.21v2.04h-2.16v1.13h2.16v2.04h1.2v-2.04h2.17v-1.13h-2.17v-2.04h-1.2ZM161.55,34.21v2.04h-2.17v1.13h2.17v2.04h1.2v-2.04h2.17v-1.13h-2.17v-2.04h-1.2ZM150.77,34.21v2.04h-2.17v1.13h2.17v2.04h1.2v-2.04h2.17v-1.13h-2.17v-2.04h-1.2ZM172.33,34.21v2.04h-2.17v1.13h2.17v2.04h1.2v-2.04h2.17v-1.13h-2.17v-2.04h-1.2ZM193.9,34.21v2.04h-2.17v1.13h2.17v2.04h1.2v-2.04h2.17v-1.13h-2.17v-2.04h-1.2ZM32.07,34.04v2.04h-2.17v1.13h2.17v2.04h1.2v-2.04h2.17v-1.13h-2.17v-2.04h-1.2ZM21.28,34.04v2.04h-2.17v1.13h2.17v2.04h1.2v-2.04h2.17v-1.13h-2.17v-2.04h-1.2ZM42.85,34.04v2.04h-2.17v1.13h2.17v2.04h1.2v-2.04h2.17v-1.13h-2.17v-2.04h-1.2ZM96.77,34.04v2.04h-2.17v1.13h2.17v2.04h1.2v-2.04h2.17v-1.13h-2.17v-2.04h-1.2ZM85.99,34.04v2.04h-2.17v1.13h2.17v2.04h1.2v-2.04h2.17v-1.13h-2.17v-2.04h-1.2ZM107.56,34.04v2.04h-2.17v1.13h2.17v2.04h1.2v-2.04h2.17v-1.13h-2.17v-2.04h-1.2ZM129.2,34.21v2.04h-2.17v1.13h2.17v2.04h1.2v-2.04h2.17v-1.13h-2.17v-2.04h-1.2ZM118.41,34.21v2.04h-2.17v1.13h2.17v2.04h1.2v-2.04h2.17v-1.13h-2.17v-2.04h-1.2ZM53.63,34.04v2.04h-2.17v1.13h2.17v2.04h1.2v-2.04h2.17v-1.13h-2.17v-2.04h-1.2ZM64.42,34.04v2.04h-2.17v1.13h2.17v2.04h1.2v-2.04h2.17v-1.13h-2.17v-2.04h-1.2ZM75.2,34.04v2.04h-2.17v1.13h2.17v2.04h1.2v-2.04h2.17v-1.13h-2.17v-2.04h-1.2ZM29.9,125.64h2.17v2.04h1.2v-2.04h2.17v-1.13h-2.17v-2.04h-1.2v2.04h-2.17v1.13ZM29.9,116.08h2.17v2.04h1.2v-2.04h2.17v-1.13h-2.17v-2.04h-1.2v2.04h-2.17v1.13ZM29.9,155.11h2.17v2.04h1.2v-2.04h2.17v-1.13h-2.17v-2.04h-1.2v2.04h-2.17v1.13ZM29.9,145.29h2.17v2.04h1.2v-2.04h2.17v-1.13h-2.17v-2.04h-1.2v2.04h-2.17v1.13ZM29.9,86.61h2.17v2.04h1.2v-2.04h2.17v-1.13h-2.17v-2.04h-1.2v2.04h-2.17v1.13ZM29.9,106.26h2.17v2.04h1.2v-2.04h2.17v-1.13h-2.17v-2.04h-1.2v2.04h-2.17v1.13ZM29.9,164.93h2.17v2.04h1.2v-2.04h2.17v-1.13h-2.17v-2.04h-1.2v2.04h-2.17v1.13ZM29.9,96.43h2.17v2.04h1.2v-2.04h2.17v-1.13h-2.17v-2.04h-1.2v2.04h-2.17v1.13ZM29.9,174.76h2.17v2.04h1.2v-2.04h2.17v-1.13h-2.17v-2.04h-1.2v2.04h-2.17v1.13ZM29.9,135.46h2.17v2.04h1.2v-2.04h2.17v-1.13h-2.17v-2.04h-1.2v2.04h-2.17v1.13ZM40.68,106.26h2.17v2.04h1.2v-2.04h2.17v-1.13h-2.17v-2.04h-1.2v2.04h-2.17v1.13ZM51.47,125.64h2.17v2.04h1.2v-2.04h2.17v-1.13h-2.17v-2.04h-1.2v2.04h-2.17v1.13ZM51.47,135.46h2.17v2.04h1.2v-2.04h2.17v-1.13h-2.17v-2.04h-1.2v2.04h-2.17v1.13ZM40.68,116.08h2.17v2.04h1.2v-2.04h2.17v-1.13h-2.17v-2.04h-1.2v2.04h-2.17v1.13ZM51.47,145.29h2.17v2.04h1.2v-2.04h2.17v-1.13h-2.17v-2.04h-1.2v2.04h-2.17v1.13ZM40.68,164.93h2.17v2.04h1.2v-2.04h2.17v-1.13h-2.17v-2.04h-1.2v2.04h-2.17v1.13ZM40.68,145.29h2.17v2.04h1.2v-2.04h2.17v-1.13h-2.17v-2.04h-1.2v2.04h-2.17v1.13ZM40.68,135.46h2.17v2.04h1.2v-2.04h2.17v-1.13h-2.17v-2.04h-1.2v2.04h-2.17v1.13ZM40.68,155.11h2.17v2.04h1.2v-2.04h2.17v-1.13h-2.17v-2.04h-1.2v2.04h-2.17v1.13ZM40.68,125.64h2.17v2.04h1.2v-2.04h2.17v-1.13h-2.17v-2.04h-1.2v2.04h-2.17v1.13ZM8.33,96.43h2.17v2.04h1.2v-2.04h2.17v-1.13h-2.17v-2.04h-1.2v2.04h-2.17v1.13ZM8.33,86.61h2.17v2.04h1.2v-2.04h2.17v-1.13h-2.17v-2.04h-1.2v2.04h-2.17v1.13ZM8.33,125.64h2.17v2.04h1.2v-2.04h2.17v-1.13h-2.17v-2.04h-1.2v2.04h-2.17v1.13ZM8.33,116.08h2.17v2.04h1.2v-2.04h2.17v-1.13h-2.17v-2.04h-1.2v2.04h-2.17v1.13ZM8.33,106.26h2.17v2.04h1.2v-2.04h2.17v-1.13h-2.17v-2.04h-1.2v2.04h-2.17v1.13ZM8.33,47.03h2.17v2.04h1.2v-2.04h2.17v-1.13h-2.17v-2.04h-1.2v2.04h-2.17v1.13ZM8.33,66.96h2.17v2.04h1.2v-2.04h2.17v-1.13h-2.17v-2.04h-1.2v2.04h-2.17v1.13ZM8.33,76.79h2.17v2.04h1.2v-2.04h2.17v-1.13h-2.17v-2.04h-1.2v2.04h-2.17v1.13ZM8.33,56.85h2.17v2.04h1.2v-2.04h2.17v-1.13h-2.17v-2.04h-1.2v2.04h-2.17v1.13ZM19.12,66.96h2.17v2.04h1.2v-2.04h2.17v-1.13h-2.17v-2.04h-1.2v2.04h-2.17v1.13ZM19.12,106.26h2.17v2.04h1.2v-2.04h2.17v-1.13h-2.17v-2.04h-1.2v2.04h-2.17v1.13ZM19.12,86.61h2.17v2.04h1.2v-2.04h2.17v-1.13h-2.17v-2.04h-1.2v2.04h-2.17v1.13ZM19.12,96.43h2.17v2.04h1.2v-2.04h2.17v-1.13h-2.17v-2.04h-1.2v2.04h-2.17v1.13ZM19.12,116.08h2.17v2.04h1.2v-2.04h2.17v-1.13h-2.17v-2.04h-1.2v2.04h-2.17v1.13ZM19.12,125.64h2.17v2.04h1.2v-2.04h2.17v-1.13h-2.17v-2.04h-1.2v2.04h-2.17v1.13ZM19.12,76.79h2.17v2.04h1.2v-2.04h2.17v-1.13h-2.17v-2.04h-1.2v2.04h-2.17v1.13ZM19.12,135.46h2.17v2.04h1.2v-2.04h2.17v-1.13h-2.17v-2.04h-1.2v2.04h-2.17v1.13ZM19.12,145.29h2.17v2.04h1.2v-2.04h2.17v-1.13h-2.17v-2.04h-1.2v2.04h-2.17v1.13ZM19.12,155.11h2.17v2.04h1.2v-2.04h2.17v-1.13h-2.17v-2.04h-1.2v2.04h-2.17v1.13ZM19.12,164.93h2.17v2.04h1.2v-2.04h2.17v-1.13h-2.17v-2.04h-1.2v2.04h-2.17v1.13ZM19.12,174.76h2.17v2.04h1.2v-2.04h2.17v-1.13h-2.17v-2.04h-1.2v2.04h-2.17v1.13ZM119.62,147.49v-2.04h2.17v-1.13h-2.17v-2.04h-1.2v2.04h-2.17v1.13h2.17v2.04h1.2ZM130.4,147.49v-2.04h2.17v-1.13h-2.17v-2.04h-1.2v2.04h-2.17v1.13h2.17v2.04h1.2ZM97.97,147.32v-2.04h2.17v-1.13h-2.17v-2.04h-1.2v2.04h-2.17v1.13h2.17v2.04h1.2ZM108.76,147.32v-2.04h2.17v-1.13h-2.17v-2.04h-1.2v2.04h-2.17v1.13h2.17v2.04h1.2ZM141.18,147.49v-2.04h2.17v-1.13h-2.17v-2.04h-1.2v2.04h-2.17v1.13h2.17v2.04h1.2ZM173.54,147.49v-2.04h2.17v-1.13h-2.17v-2.04h-1.2v2.04h-2.17v1.13h2.17v2.04h1.2ZM151.97,147.49v-2.04h2.17v-1.13h-2.17v-2.04h-1.2v2.04h-2.17v1.13h2.17v2.04h1.2ZM195.11,147.49v-2.04h2.17v-1.13h-2.17v-2.04h-1.2v2.04h-2.17v1.13h2.17v2.04h1.2ZM205.89,147.49v-2.04h2.17v-1.13h-2.17v-2.04h-1.2v2.04h-2.17v1.13h2.17v2.04h1.2ZM87.19,147.32v-2.04h2.17v-1.13h-2.17v-2.04h-1.2v2.04h-2.17v1.13h2.17v2.04h1.2ZM162.75,147.49v-2.04h2.17v-1.13h-2.17v-2.04h-1.2v2.04h-2.17v1.13h2.17v2.04h1.2ZM184.32,147.49v-2.04h2.17v-1.13h-2.17v-2.04h-1.2v2.04h-2.16v1.13h2.16v2.04h1.2ZM129.2,122.64v2.04h-2.17v1.13h2.17v2.04h1.2v-2.04h2.17v-1.13h-2.17v-2.04h-1.2ZM76.41,147.32v-2.04h2.17v-1.13h-2.17v-2.04h-1.2v2.04h-2.17v1.13h2.17v2.04h1.2ZM118.41,122.64v2.04h-2.17v1.13h2.17v2.04h1.2v-2.04h2.17v-1.13h-2.17v-2.04h-1.2ZM150.77,122.64v2.04h-2.17v1.13h2.17v2.04h1.2v-2.04h2.17v-1.13h-2.17v-2.04h-1.2ZM139.98,122.64v2.04h-2.17v1.13h2.17v2.04h1.2v-2.04h2.17v-1.13h-2.17v-2.04h-1.2ZM107.56,122.47v2.04h-2.17v1.13h2.17v2.04h1.2v-2.04h2.17v-1.13h-2.17v-2.04h-1.2ZM96.77,122.47v2.04h-2.17v1.13h2.17v2.04h1.2v-2.04h2.17v-1.13h-2.17v-2.04h-1.2ZM64.42,122.47v2.04h-2.17v1.13h2.17v2.04h1.2v-2.04h2.17v-1.13h-2.17v-2.04h-1.2ZM65.62,147.32v-2.04h2.17v-1.13h-2.17v-2.04h-1.2v2.04h-2.17v1.13h2.17v2.04h1.2ZM75.2,122.47v2.04h-2.17v1.13h2.17v2.04h1.2v-2.04h2.17v-1.13h-2.17v-2.04h-1.2ZM85.99,122.47v2.04h-2.17v1.13h2.17v2.04h1.2v-2.04h2.17v-1.13h-2.17v-2.04h-1.2ZM216.68,147.49v-2.04h2.17v-1.13h-2.17v-2.04h-1.2v2.04h-2.17v1.13h2.17v2.04h1.2ZM161.55,122.64v2.04h-2.17v1.13h2.17v2.04h1.2v-2.04h2.17v-1.13h-2.17v-2.04h-1.2ZM184.32,137.67v-2.04h2.17v-1.13h-2.17v-2.04h-1.2v2.04h-2.16v1.13h2.16v2.04h1.2ZM205.89,137.67v-2.04h2.17v-1.13h-2.17v-2.04h-1.2v2.04h-2.17v1.13h2.17v2.04h1.2ZM195.11,137.67v-2.04h2.17v-1.13h-2.17v-2.04h-1.2v2.04h-2.17v1.13h2.17v2.04h1.2ZM216.68,137.67v-2.04h2.17v-1.13h-2.17v-2.04h-1.2v2.04h-2.17v1.13h2.17v2.04h1.2ZM65.62,137.5v-2.04h2.17v-1.13h-2.17v-2.04h-1.2v2.04h-2.17v1.13h2.17v2.04h1.2ZM87.19,137.5v-2.04h2.17v-1.13h-2.17v-2.04h-1.2v2.04h-2.17v1.13h2.17v2.04h1.2ZM173.54,137.67v-2.04h2.17v-1.13h-2.17v-2.04h-1.2v2.04h-2.17v1.13h2.17v2.04h1.2ZM76.41,137.5v-2.04h2.17v-1.13h-2.17v-2.04h-1.2v2.04h-2.17v1.13h2.17v2.04h1.2ZM108.76,137.5v-2.04h2.17v-1.13h-2.17v-2.04h-1.2v2.04h-2.17v1.13h2.17v2.04h1.2ZM97.97,137.5v-2.04h2.17v-1.13h-2.17v-2.04h-1.2v2.04h-2.17v1.13h2.17v2.04h1.2ZM151.97,137.67v-2.04h2.17v-1.13h-2.17v-2.04h-1.2v2.04h-2.17v1.13h2.17v2.04h1.2ZM162.75,137.67v-2.04h2.17v-1.13h-2.17v-2.04h-1.2v2.04h-2.17v1.13h2.17v2.04h1.2ZM119.62,137.67v-2.04h2.17v-1.13h-2.17v-2.04h-1.2v2.04h-2.17v1.13h2.17v2.04h1.2ZM141.18,137.67v-2.04h2.17v-1.13h-2.17v-2.04h-1.2v2.04h-2.17v1.13h2.17v2.04h1.2ZM130.4,137.67v-2.04h2.17v-1.13h-2.17v-2.04h-1.2v2.04h-2.17v1.13h2.17v2.04h1.2ZM193.9,122.64v2.04h-2.17v1.13h2.17v2.04h1.2v-2.04h2.17v-1.13h-2.17v-2.04h-1.2ZM172.33,122.64v2.04h-2.17v1.13h2.17v2.04h1.2v-2.04h2.17v-1.13h-2.17v-2.04h-1.2ZM183.12,122.64v2.04h-2.16v1.13h2.16v2.04h1.2v-2.04h2.17v-1.13h-2.17v-2.04h-1.2ZM215.47,122.64v2.04h-2.17v1.13h2.17v2.04h1.2v-2.04h2.17v-1.13h-2.17v-2.04h-1.2ZM204.69,122.64v2.04h-2.17v1.13h2.17v2.04h1.2v-2.04h2.17v-1.13h-2.17v-2.04h-1.2ZM8.33,135.46h2.17v2.04h1.2v-2.04h2.17v-1.13h-2.17v-2.04h-1.2v2.04h-2.17v1.13ZM8.33,145.29h2.17v2.04h1.2v-2.04h2.17v-1.13h-2.17v-2.04h-1.2v2.04h-2.17v1.13ZM-2.45,27.38H-.29v2.04H.92v-2.04h2.17v-1.13H.92v-2.04H-.29v2.04h-2.17v1.13ZM-2.45,56.85H-.29v2.04H.92v-2.04h2.17v-1.13H.92v-2.04H-.29v2.04h-2.17v1.13ZM-2.45,47.03H-.29v2.04H.92v-2.04h2.17v-1.13H.92v-2.04H-.29v2.04h-2.17v1.13ZM-2.45,37.21H-.29v2.04H.92v-2.04h2.17v-1.13H.92v-2.04H-.29v2.04h-2.17v1.13ZM-2.45,135.46H-.29v2.04H.92v-2.04h2.17v-1.13H.92v-2.04H-.29v2.04h-2.17v1.13ZM-2.45,145.29H-.29v2.04H.92v-2.04h2.17v-1.13H.92v-2.04H-.29v2.04h-2.17v1.13ZM-2.45,66.96H-.29v2.04H.92v-2.04h2.17v-1.13H.92v-2.04H-.29v2.04h-2.17v1.13ZM-2.45,125.64H-.29v2.04H.92v-2.04h2.17v-1.13H.92v-2.04H-.29v2.04h-2.17v1.13ZM-2.45,155.11H-.29v2.04H.92v-2.04h2.17v-1.13H.92v-2.04H-.29v2.04h-2.17v1.13ZM-2.45,7.74H-.29v2.04H.92v-2.04h2.17v-1.13H.92v-2.04H-.29v2.04h-2.17v1.13ZM-2.45,86.61H-.29v2.04H.92v-2.04h2.17v-1.13H.92v-2.04H-.29v2.04h-2.17v1.13ZM-2.45,76.79H-.29v2.04H.92v-2.04h2.17v-1.13H.92v-2.04H-.29v2.04h-2.17v1.13ZM-2.45,106.26H-.29v2.04H.92v-2.04h2.17v-1.13H.92v-2.04H-.29v2.04h-2.17v1.13ZM-2.45,116.08H-.29v2.04H.92v-2.04h2.17v-1.13H.92v-2.04H-.29v2.04h-2.17v1.13ZM-2.45,96.43H-.29v2.04H.92v-2.04h2.17v-1.13H.92v-2.04H-.29v2.04h-2.17v1.13ZM8.33,155.11h2.17v2.04h1.2v-2.04h2.17v-1.13h-2.17v-2.04h-1.2v2.04h-2.17v1.13ZM8.33,164.93h2.17v2.04h1.2v-2.04h2.17v-1.13h-2.17v-2.04h-1.2v2.04h-2.17v1.13ZM8.33,174.76h2.17v2.04h1.2v-2.04h2.17v-1.13h-2.17v-2.04h-1.2v2.04h-2.17v1.13ZM-2.45,174.76H-.29v2.04H.92v-2.04h2.17v-1.13H.92v-2.04H-.29v2.04h-2.17v1.13ZM-2.45,164.93H-.29v2.04H.92v-2.04h2.17v-1.13H.92v-2.04H-.29v2.04h-2.17v1.13ZM159.39,7.91h2.17v2.04h1.2v-2.04h2.17v-1.13h-2.17v-2.04h-1.2v2.04h-2.17v1.13ZM180.95,7.91h2.16v2.04h1.2v-2.04h2.17v-1.13h-2.17v-2.04h-1.2v2.04h-2.16v1.13ZM148.6,7.91h2.17v2.04h1.2v-2.04h2.17v-1.13h-2.17v-2.04h-1.2v2.04h-2.17v1.13ZM137.82,7.91h2.17v2.04h1.2v-2.04h2.17v-1.13h-2.17v-2.04h-1.2v2.04h-2.17v1.13ZM127.03,7.91h2.17v2.04h1.2v-2.04h2.17v-1.13h-2.17v-2.04h-1.2v2.04h-2.17v1.13ZM213.31,7.91h2.17v2.04h1.2v-2.04h2.17v-1.13h-2.17v-2.04h-1.2v2.04h-2.17v1.13ZM202.52,7.91h2.17v2.04h1.2v-2.04h2.17v-1.13h-2.17v-2.04h-1.2v2.04h-2.17v1.13ZM191.74,7.91h2.17v2.04h1.2v-2.04h2.17v-1.13h-2.17v-2.04h-1.2v2.04h-2.17v1.13ZM170.17,7.91h2.17v2.04h1.2v-2.04h2.17v-1.13h-2.17v-2.04h-1.2v2.04h-2.17v1.13ZM29.9,7.74h2.17v2.04h1.2v-2.04h2.17v-1.13h-2.17v-2.04h-1.2v2.04h-2.17v1.13ZM51.47,7.74h2.17v2.04h1.2v-2.04h2.17v-1.13h-2.17v-2.04h-1.2v2.04h-2.17v1.13ZM40.68,7.74h2.17v2.04h1.2v-2.04h2.17v-1.13h-2.17v-2.04h-1.2v2.04h-2.17v1.13ZM19.12,7.74h2.17v2.04h1.2v-2.04h2.17v-1.13h-2.17v-2.04h-1.2v2.04h-2.17v1.13ZM8.33,7.74h2.17v2.04h1.2v-2.04h2.17v-1.13h-2.17v-2.04h-1.2v2.04h-2.17v1.13ZM62.25,7.74h2.17v2.04h1.2v-2.04h2.17v-1.13h-2.17v-2.04h-1.2v2.04h-2.17v1.13ZM105.39,7.74h2.17v2.04h1.2v-2.04h2.17v-1.13h-2.17v-2.04h-1.2v2.04h-2.17v1.13ZM83.82,7.74h2.17v2.04h1.2v-2.04h2.17v-1.13h-2.17v-2.04h-1.2v2.04h-2.17v1.13ZM116.25,7.91h2.17v2.04h1.2v-2.04h2.17v-1.13h-2.17v-2.04h-1.2v2.04h-2.17v1.13ZM73.04,7.74h2.17v2.04h1.2v-2.04h2.17v-1.13h-2.17v-2.04h-1.2v2.04h-2.17v1.13ZM94.61,7.74h2.17v2.04h1.2v-2.04h2.17v-1.13h-2.17v-2.04h-1.2v2.04h-2.17v1.13ZM215.47,73.79v2.04h-2.17v1.13h2.17v2.04h1.2v-2.04h2.17v-1.13h-2.17v-2.04h-1.2ZM204.69,73.79v2.04h-2.17v1.13h2.17v2.04h1.2v-2.04h2.17v-1.13h-2.17v-2.04h-1.2ZM193.9,73.79v2.04h-2.17v1.13h2.17v2.04h1.2v-2.04h2.17v-1.13h-2.17v-2.04h-1.2ZM129.2,73.79v2.04h-2.17v1.13h2.17v2.04h1.2v-2.04h2.17v-1.13h-2.17v-2.04h-1.2ZM32.07,73.62v2.04h-2.17v1.13h2.17v2.04h1.2v-2.04h2.17v-1.13h-2.17v-2.04h-1.2ZM42.85,73.62v2.04h-2.17v1.13h2.17v2.04h1.2v-2.04h2.17v-1.13h-2.17v-2.04h-1.2ZM53.63,73.62v2.04h-2.17v1.13h2.17v2.04h1.2v-2.04h2.17v-1.13h-2.17v-2.04h-1.2ZM183.12,73.79v2.04h-2.16v1.13h2.16v2.04h1.2v-2.04h2.17v-1.13h-2.17v-2.04h-1.2ZM139.98,73.79v2.04h-2.17v1.13h2.17v2.04h1.2v-2.04h2.17v-1.13h-2.17v-2.04h-1.2ZM150.77,73.79v2.04h-2.17v1.13h2.17v2.04h1.2v-2.04h2.17v-1.13h-2.17v-2.04h-1.2ZM161.55,73.79v2.04h-2.17v1.13h2.17v2.04h1.2v-2.04h2.17v-1.13h-2.17v-2.04h-1.2ZM172.33,73.79v2.04h-2.17v1.13h2.17v2.04h1.2v-2.04h2.17v-1.13h-2.17v-2.04h-1.2ZM64.42,73.62v2.04h-2.17v1.13h2.17v2.04h1.2v-2.04h2.17v-1.13h-2.17v-2.04h-1.2ZM75.2,73.62v2.04h-2.17v1.13h2.17v2.04h1.2v-2.04h2.17v-1.13h-2.17v-2.04h-1.2ZM85.99,73.62v2.04h-2.17v1.13h2.17v2.04h1.2v-2.04h2.17v-1.13h-2.17v-2.04h-1.2ZM107.56,73.62v2.04h-2.17v1.13h2.17v2.04h1.2v-2.04h2.17v-1.13h-2.17v-2.04h-1.2ZM96.77,73.62v2.04h-2.17v1.13h2.17v2.04h1.2v-2.04h2.17v-1.13h-2.17v-2.04h-1.2ZM118.41,73.79v2.04h-2.17v1.13h2.17v2.04h1.2v-2.04h2.17v-1.13h-2.17v-2.04h-1.2ZM75.2,83.44v2.04h-2.17v1.13h2.17v2.04h1.2v-2.04h2.17v-1.13h-2.17v-2.04h-1.2ZM64.42,83.44v2.04h-2.17v1.13h2.17v2.04h1.2v-2.04h2.17v-1.13h-2.17v-2.04h-1.2ZM96.77,83.44v2.04h-2.17v1.13h2.17v2.04h1.2v-2.04h2.17v-1.13h-2.17v-2.04h-1.2ZM107.56,83.44v2.04h-2.17v1.13h2.17v2.04h1.2v-2.04h2.17v-1.13h-2.17v-2.04h-1.2ZM53.63,83.44v2.04h-2.17v1.13h2.17v2.04h1.2v-2.04h2.17v-1.13h-2.17v-2.04h-1.2ZM85.99,83.44v2.04h-2.17v1.13h2.17v2.04h1.2v-2.04h2.17v-1.13h-2.17v-2.04h-1.2ZM42.85,83.44v2.04h-2.17v1.13h2.17v2.04h1.2v-2.04h2.17v-1.13h-2.17v-2.04h-1.2ZM183.12,83.61v2.04h-2.16v1.13h2.16v2.04h1.2v-2.04h2.17v-1.13h-2.17v-2.04h-1.2ZM118.41,83.61v2.04h-2.17v1.13h2.17v2.04h1.2v-2.04h2.17v-1.13h-2.17v-2.04h-1.2ZM204.69,83.61v2.04h-2.17v1.13h2.17v2.04h1.2v-2.04h2.17v-1.13h-2.17v-2.04h-1.2ZM215.47,83.61v2.04h-2.17v1.13h2.17v2.04h1.2v-2.04h2.17v-1.13h-2.17v-2.04h-1.2ZM193.9,83.61v2.04h-2.17v1.13h2.17v2.04h1.2v-2.04h2.17v-1.13h-2.17v-2.04h-1.2ZM172.33,83.61v2.04h-2.17v1.13h2.17v2.04h1.2v-2.04h2.17v-1.13h-2.17v-2.04h-1.2ZM129.2,83.61v2.04h-2.17v1.13h2.17v2.04h1.2v-2.04h2.17v-1.13h-2.17v-2.04h-1.2ZM139.98,83.61v2.04h-2.17v1.13h2.17v2.04h1.2v-2.04h2.17v-1.13h-2.17v-2.04h-1.2ZM161.55,83.61v2.04h-2.17v1.13h2.17v2.04h1.2v-2.04h2.17v-1.13h-2.17v-2.04h-1.2ZM150.77,83.61v2.04h-2.17v1.13h2.17v2.04h1.2v-2.04h2.17v-1.13h-2.17v-2.04h-1.2ZM107.56,63.79v2.04h-2.17v1.13h2.17v2.04h1.2v-2.04h2.17v-1.13h-2.17v-2.04h-1.2ZM96.77,63.79v2.04h-2.17v1.13h2.17v2.04h1.2v-2.04h2.17v-1.13h-2.17v-2.04h-1.2ZM118.41,63.97v2.04h-2.17v1.13h2.17v2.04h1.2v-2.04h2.17v-1.13h-2.17v-2.04h-1.2ZM139.98,63.97v2.04h-2.17v1.13h2.17v2.04h1.2v-2.04h2.17v-1.13h-2.17v-2.04h-1.2ZM129.2,63.97v2.04h-2.17v1.13h2.17v2.04h1.2v-2.04h2.17v-1.13h-2.17v-2.04h-1.2ZM150.77,63.97v2.04h-2.17v1.13h2.17v2.04h1.2v-2.04h2.17v-1.13h-2.17v-2.04h-1.2ZM42.85,63.79v2.04h-2.17v1.13h2.17v2.04h1.2v-2.04h2.17v-1.13h-2.17v-2.04h-1.2ZM53.63,63.79v2.04h-2.17v1.13h2.17v2.04h1.2v-2.04h2.17v-1.13h-2.17v-2.04h-1.2ZM75.2,63.79v2.04h-2.17v1.13h2.17v2.04h1.2v-2.04h2.17v-1.13h-2.17v-2.04h-1.2ZM32.07,63.79v2.04h-2.17v1.13h2.17v2.04h1.2v-2.04h2.17v-1.13h-2.17v-2.04h-1.2ZM64.42,63.79v2.04h-2.17v1.13h2.17v2.04h1.2v-2.04h2.17v-1.13h-2.17v-2.04h-1.2ZM85.99,63.79v2.04h-2.17v1.13h2.17v2.04h1.2v-2.04h2.17v-1.13h-2.17v-2.04h-1.2ZM215.47,63.97v2.04h-2.17v1.13h2.17v2.04h1.2v-2.04h2.17v-1.13h-2.17v-2.04h-1.2ZM172.33,63.97v2.04h-2.17v1.13h2.17v2.04h1.2v-2.04h2.17v-1.13h-2.17v-2.04h-1.2ZM183.12,63.97v2.04h-2.16v1.13h2.16v2.04h1.2v-2.04h2.17v-1.13h-2.17v-2.04h-1.2ZM204.69,63.97v2.04h-2.17v1.13h2.17v2.04h1.2v-2.04h2.17v-1.13h-2.17v-2.04h-1.2ZM193.9,63.97v2.04h-2.17v1.13h2.17v2.04h1.2v-2.04h2.17v-1.13h-2.17v-2.04h-1.2ZM161.55,63.97v2.04h-2.17v1.13h2.17v2.04h1.2v-2.04h2.17v-1.13h-2.17v-2.04h-1.2ZM193.9,103.26v2.04h-2.17v1.13h2.17v2.04h1.2v-2.04h2.17v-1.13h-2.17v-2.04h-1.2ZM183.12,103.26v2.04h-2.16v1.13h2.16v2.04h1.2v-2.04h2.17v-1.13h-2.17v-2.04h-1.2ZM204.69,103.26v2.04h-2.17v1.13h2.17v2.04h1.2v-2.04h2.17v-1.13h-2.17v-2.04h-1.2ZM215.47,103.26v2.04h-2.17v1.13h2.17v2.04h1.2v-2.04h2.17v-1.13h-2.17v-2.04h-1.2ZM184.32,167.14v-2.04h2.17v-1.13h-2.17v-2.04h-1.2v2.04h-2.16v1.13h2.16v2.04h1.2ZM172.33,103.26v2.04h-2.17v1.13h2.17v2.04h1.2v-2.04h2.17v-1.13h-2.17v-2.04h-1.2ZM96.77,103.09v2.04h-2.17v1.13h2.17v2.04h1.2v-2.04h2.17v-1.13h-2.17v-2.04h-1.2ZM97.97,166.97v-2.04h2.17v-1.13h-2.17v-2.04h-1.2v2.04h-2.17v1.13h2.17v2.04h1.2ZM65.62,166.97v-2.04h2.17v-1.13h-2.17v-2.04h-1.2v2.04h-2.17v1.13h2.17v2.04h1.2ZM87.19,166.97v-2.04h2.17v-1.13h-2.17v-2.04h-1.2v2.04h-2.17v1.13h2.17v2.04h1.2ZM76.41,166.97v-2.04h2.17v-1.13h-2.17v-2.04h-1.2v2.04h-2.17v1.13h2.17v2.04h1.2ZM119.62,167.14v-2.04h2.17v-1.13h-2.17v-2.04h-1.2v2.04h-2.17v1.13h2.17v2.04h1.2ZM108.76,166.97v-2.04h2.17v-1.13h-2.17v-2.04h-1.2v2.04h-2.17v1.13h2.17v2.04h1.2ZM162.75,167.14v-2.04h2.17v-1.13h-2.17v-2.04h-1.2v2.04h-2.17v1.13h2.17v2.04h1.2ZM130.4,167.14v-2.04h2.17v-1.13h-2.17v-2.04h-1.2v2.04h-2.17v1.13h2.17v2.04h1.2ZM173.54,167.14v-2.04h2.17v-1.13h-2.17v-2.04h-1.2v2.04h-2.17v1.13h2.17v2.04h1.2ZM141.18,167.14v-2.04h2.17v-1.13h-2.17v-2.04h-1.2v2.04h-2.17v1.13h2.17v2.04h1.2ZM151.97,167.14v-2.04h2.17v-1.13h-2.17v-2.04h-1.2v2.04h-2.17v1.13h2.17v2.04h1.2ZM118.41,103.26v2.04h-2.17v1.13h2.17v2.04h1.2v-2.04h2.17v-1.13h-2.17v-2.04h-1.2ZM107.56,103.09v2.04h-2.17v1.13h2.17v2.04h1.2v-2.04h2.17v-1.13h-2.17v-2.04h-1.2ZM129.2,103.26v2.04h-2.17v1.13h2.17v2.04h1.2v-2.04h2.17v-1.13h-2.17v-2.04h-1.2ZM161.55,103.26v2.04h-2.17v1.13h2.17v2.04h1.2v-2.04h2.17v-1.13h-2.17v-2.04h-1.2ZM139.98,103.26v2.04h-2.17v1.13h2.17v2.04h1.2v-2.04h2.17v-1.13h-2.17v-2.04h-1.2ZM150.77,103.26v2.04h-2.17v1.13h2.17v2.04h1.2v-2.04h2.17v-1.13h-2.17v-2.04h-1.2ZM75.2,103.09v2.04h-2.17v1.13h2.17v2.04h1.2v-2.04h2.17v-1.13h-2.17v-2.04h-1.2ZM53.63,103.09v2.04h-2.17v1.13h2.17v2.04h1.2v-2.04h2.17v-1.13h-2.17v-2.04h-1.2ZM64.42,103.09v2.04h-2.17v1.13h2.17v2.04h1.2v-2.04h2.17v-1.13h-2.17v-2.04h-1.2ZM85.99,103.09v2.04h-2.17v1.13h2.17v2.04h1.2v-2.04h2.17v-1.13h-2.17v-2.04h-1.2ZM54.84,166.97v-2.04h2.17v-1.13h-2.17v-2.04h-1.2v2.04h-2.17v1.13h2.17v2.04h1.2ZM107.56,112.91v2.04h-2.17v1.13h2.17v2.04h1.2v-2.04h2.17v-1.13h-2.17v-2.04h-1.2ZM118.41,113.08v2.04h-2.17v1.13h2.17v2.04h1.2v-2.04h2.17v-1.13h-2.17v-2.04h-1.2ZM139.98,113.08v2.04h-2.17v1.13h2.17v2.04h1.2v-2.04h2.17v-1.13h-2.17v-2.04h-1.2ZM96.77,112.91v2.04h-2.17v1.13h2.17v2.04h1.2v-2.04h2.17v-1.13h-2.17v-2.04h-1.2ZM129.2,113.08v2.04h-2.17v1.13h2.17v2.04h1.2v-2.04h2.17v-1.13h-2.17v-2.04h-1.2ZM64.42,112.91v2.04h-2.17v1.13h2.17v2.04h1.2v-2.04h2.17v-1.13h-2.17v-2.04h-1.2ZM54.84,157.15v-2.04h2.17v-1.13h-2.17v-2.04h-1.2v2.04h-2.17v1.13h2.17v2.04h1.2ZM53.63,112.91v2.04h-2.17v1.13h2.17v2.04h1.2v-2.04h2.17v-1.13h-2.17v-2.04h-1.2ZM75.2,112.91v2.04h-2.17v1.13h2.17v2.04h1.2v-2.04h2.17v-1.13h-2.17v-2.04h-1.2ZM85.99,112.91v2.04h-2.17v1.13h2.17v2.04h1.2v-2.04h2.17v-1.13h-2.17v-2.04h-1.2ZM150.77,113.08v2.04h-2.17v1.13h2.17v2.04h1.2v-2.04h2.17v-1.13h-2.17v-2.04h-1.2ZM161.55,113.08v2.04h-2.17v1.13h2.17v2.04h1.2v-2.04h2.17v-1.13h-2.17v-2.04h-1.2ZM193.9,113.08v2.04h-2.17v1.13h2.17v2.04h1.2v-2.04h2.17v-1.13h-2.17v-2.04h-1.2ZM183.12,113.08v2.04h-2.16v1.13h2.16v2.04h1.2v-2.04h2.17v-1.13h-2.17v-2.04h-1.2ZM172.33,113.08v2.04h-2.17v1.13h2.17v2.04h1.2v-2.04h2.17v-1.13h-2.17v-2.04h-1.2ZM65.62,157.15v-2.04h2.17v-1.13h-2.17v-2.04h-1.2v2.04h-2.17v1.13h2.17v2.04h1.2ZM204.69,113.08v2.04h-2.17v1.13h2.17v2.04h1.2v-2.04h2.17v-1.13h-2.17v-2.04h-1.2ZM215.47,113.08v2.04h-2.17v1.13h2.17v2.04h1.2v-2.04h2.17v-1.13h-2.17v-2.04h-1.2ZM205.89,157.32v-2.04h2.17v-1.13h-2.17v-2.04h-1.2v2.04h-2.17v1.13h2.17v2.04h1.2ZM216.68,157.32v-2.04h2.17v-1.13h-2.17v-2.04h-1.2v2.04h-2.17v1.13h2.17v2.04h1.2ZM76.41,157.15v-2.04h2.17v-1.13h-2.17v-2.04h-1.2v2.04h-2.17v1.13h2.17v2.04h1.2ZM195.11,157.32v-2.04h2.17v-1.13h-2.17v-2.04h-1.2v2.04h-2.17v1.13h2.17v2.04h1.2ZM108.76,157.15v-2.04h2.17v-1.13h-2.17v-2.04h-1.2v2.04h-2.17v1.13h2.17v2.04h1.2ZM130.4,157.32v-2.04h2.17v-1.13h-2.17v-2.04h-1.2v2.04h-2.17v1.13h2.17v2.04h1.2ZM119.62,157.32v-2.04h2.17v-1.13h-2.17v-2.04h-1.2v2.04h-2.17v1.13h2.17v2.04h1.2ZM87.19,157.15v-2.04h2.17v-1.13h-2.17v-2.04h-1.2v2.04h-2.17v1.13h2.17v2.04h1.2ZM97.97,157.15v-2.04h2.17v-1.13h-2.17v-2.04h-1.2v2.04h-2.17v1.13h2.17v2.04h1.2ZM173.54,157.32v-2.04h2.17v-1.13h-2.17v-2.04h-1.2v2.04h-2.17v1.13h2.17v2.04h1.2ZM141.18,157.32v-2.04h2.17v-1.13h-2.17v-2.04h-1.2v2.04h-2.17v1.13h2.17v2.04h1.2ZM184.32,157.32v-2.04h2.17v-1.13h-2.17v-2.04h-1.2v2.04h-2.16v1.13h2.16v2.04h1.2ZM162.75,157.32v-2.04h2.17v-1.13h-2.17v-2.04h-1.2v2.04h-2.17v1.13h2.17v2.04h1.2ZM151.97,157.32v-2.04h2.17v-1.13h-2.17v-2.04h-1.2v2.04h-2.17v1.13h2.17v2.04h1.2ZM195.11,176.97v-2.04h2.17v-1.13h-2.17v-2.04h-1.2v2.04h-2.17v1.13h2.17v2.04h1.2ZM184.32,176.97v-2.04h2.17v-1.13h-2.17v-2.04h-1.2v2.04h-2.16v1.13h2.16v2.04h1.2ZM151.97,176.97v-2.04h2.17v-1.13h-2.17v-2.04h-1.2v2.04h-2.17v1.13h2.17v2.04h1.2ZM173.54,176.97v-2.04h2.17v-1.13h-2.17v-2.04h-1.2v2.04h-2.17v1.13h2.17v2.04h1.2ZM205.89,176.97v-2.04h2.17v-1.13h-2.17v-2.04h-1.2v2.04h-2.17v1.13h2.17v2.04h1.2ZM162.75,176.97v-2.04h2.17v-1.13h-2.17v-2.04h-1.2v2.04h-2.17v1.13h2.17v2.04h1.2ZM53.63,93.26v2.04h-2.17v1.13h2.17v2.04h1.2v-2.04h2.17v-1.13h-2.17v-2.04h-1.2ZM216.68,176.97v-2.04h2.17v-1.13h-2.17v-2.04h-1.2v2.04h-2.17v1.13h2.17v2.04h1.2ZM141.18,176.97v-2.04h2.17v-1.13h-2.17v-2.04h-1.2v2.04h-2.17v1.13h2.17v2.04h1.2ZM76.41,176.79v-2.04h2.17v-1.13h-2.17v-2.04h-1.2v2.04h-2.17v1.13h2.17v2.04h1.2ZM65.62,176.79v-2.04h2.17v-1.13h-2.17v-2.04h-1.2v2.04h-2.17v1.13h2.17v2.04h1.2ZM54.84,176.79v-2.04h2.17v-1.13h-2.17v-2.04h-1.2v2.04h-2.17v1.13h2.17v2.04h1.2ZM44.05,176.79v-2.04h2.17v-1.13h-2.17v-2.04h-1.2v2.04h-2.17v1.13h2.17v2.04h1.2ZM42.85,93.26v2.04h-2.17v1.13h2.17v2.04h1.2v-2.04h2.17v-1.13h-2.17v-2.04h-1.2ZM119.62,176.97v-2.04h2.17v-1.13h-2.17v-2.04h-1.2v2.04h-2.17v1.13h2.17v2.04h1.2ZM130.4,176.97v-2.04h2.17v-1.13h-2.17v-2.04h-1.2v2.04h-2.17v1.13h2.17v2.04h1.2ZM108.76,176.79v-2.04h2.17v-1.13h-2.17v-2.04h-1.2v2.04h-2.17v1.13h2.17v2.04h1.2ZM87.19,176.79v-2.04h2.17v-1.13h-2.17v-2.04h-1.2v2.04h-2.17v1.13h2.17v2.04h1.2ZM97.97,176.79v-2.04h2.17v-1.13h-2.17v-2.04h-1.2v2.04h-2.17v1.13h2.17v2.04h1.2ZM195.11,167.14v-2.04h2.17v-1.13h-2.17v-2.04h-1.2v2.04h-2.17v1.13h2.17v2.04h1.2ZM216.68,167.14v-2.04h2.17v-1.13h-2.17v-2.04h-1.2v2.04h-2.17v1.13h2.17v2.04h1.2ZM205.89,167.14v-2.04h2.17v-1.13h-2.17v-2.04h-1.2v2.04h-2.17v1.13h2.17v2.04h1.2ZM64.42,93.26v2.04h-2.17v1.13h2.17v2.04h1.2v-2.04h2.17v-1.13h-2.17v-2.04h-1.2ZM183.12,93.44v2.04h-2.16v1.13h2.16v2.04h1.2v-2.04h2.17v-1.13h-2.17v-2.04h-1.2ZM139.98,93.44v2.04h-2.17v1.13h2.17v2.04h1.2v-2.04h2.17v-1.13h-2.17v-2.04h-1.2ZM150.77,93.44v2.04h-2.17v1.13h2.17v2.04h1.2v-2.04h2.17v-1.13h-2.17v-2.04h-1.2ZM161.55,93.44v2.04h-2.17v1.13h2.17v2.04h1.2v-2.04h2.17v-1.13h-2.17v-2.04h-1.2ZM129.2,93.44v2.04h-2.17v1.13h2.17v2.04h1.2v-2.04h2.17v-1.13h-2.17v-2.04h-1.2ZM85.99,93.26v2.04h-2.17v1.13h2.17v2.04h1.2v-2.04h2.17v-1.13h-2.17v-2.04h-1.2ZM75.2,93.26v2.04h-2.17v1.13h2.17v2.04h1.2v-2.04h2.17v-1.13h-2.17v-2.04h-1.2ZM96.77,93.26v2.04h-2.17v1.13h2.17v2.04h1.2v-2.04h2.17v-1.13h-2.17v-2.04h-1.2ZM107.56,93.26v2.04h-2.17v1.13h2.17v2.04h1.2v-2.04h2.17v-1.13h-2.17v-2.04h-1.2ZM118.41,93.44v2.04h-2.17v1.13h2.17v2.04h1.2v-2.04h2.17v-1.13h-2.17v-2.04h-1.2ZM172.33,93.44v2.04h-2.17v1.13h2.17v2.04h1.2v-2.04h2.17v-1.13h-2.17v-2.04h-1.2ZM193.9,93.44v2.04h-2.17v1.13h2.17v2.04h1.2v-2.04h2.17v-1.13h-2.17v-2.04h-1.2ZM215.47,93.44v2.04h-2.17v1.13h2.17v2.04h1.2v-2.04h2.17v-1.13h-2.17v-2.04h-1.2ZM204.69,93.44v2.04h-2.17v1.13h2.17v2.04h1.2v-2.04h2.17v-1.13h-2.17v-2.04h-1.2Z"/>
    </g>
  </g>
</svg>