<?xml version="1.0" encoding="UTF-8"?>
<svg id="Layer_2" data-name="Layer 2" xmlns="http://www.w3.org/2000/svg" xmlns:xlink="http://www.w3.org/1999/xlink" viewBox="0 0 166.39 103.43">
  <defs>
    <style>
      .cls-1 {
        fill: url(#linear-gradient);
      }

      .cls-1, .cls-2 {
        stroke-width: 0px;
      }

      .cls-2 {
        fill: none;
      }

      .cls-3 {
        clip-path: url(#clippath);
      }
    </style>
    <clipPath id="clippath">
      <path class="cls-2" d="M151.34,41.19c.42.59.53,1.34.34,1.93-.21.65.42,1.23-.01,1.85-.05.07.35.52.36.88.13,4.15.17,8.3-.66,12.38-.24,1.15-.31,2.31-.52,3.45-.06.3-.08.64-.23.89-.64,1.03-.64,1.29-.34,2.48.25,1.02,0,2.08-.09,3.11-.02.22-.22.23-.36.31-.25.16-.36.42-.2.65.68.96-.22,1.74-.28,2.62-.04.55-.53.75-.98.94-1.58.69-3.24,1.13-4.86,1.7-.25.09-.55.09-.82.43,1.09-.06,1.9-.68,2.84-.82-.71.54-1.53.83-2.34,1.1-8.23,2.7-16.46,5.39-24.69,8.1-3.95,1.3-7.91,2.59-11.85,3.93-1,.34-1.96.13-2.92-.05-4.65-.85-9.28-1.82-13.77-3.36-.64-.22-.83-.12-.86.57-.13,3.19-.67,6.33-1.07,9.49-.08.6-.33,1.14-.74,1.59-.59.64-1.2,1.27-1.84,1.86-.14.13-.32.78-.66.13-.09.06-.2.1-.26.18-.53.76-1.33,1.16-2.09,1.63-2.01,1.24-3.86,2.73-5.98,3.8-.89.45-1.67.63-2.64.34-4.39-1.32-8.8-2.59-13.19-3.89-.44-.13-.78-.23-1.05.29-.22.44-.69.36-1.06.26-3.37-.92-6.73-1.86-9.96-3.19-.44-.18-.68-.5-.78-.93-.12-.5-.45-.72-.91-.87-4.3-1.35-8.5-2.97-12.74-4.48-.75-.27-1.31-.7-1.74-1.37-.89-1.4-1.72-2.84-2.49-4.32-.34-.66-.51-1.35-.55-2.1-.51-10.62-.54-21.26-.5-31.89,0-1.16.33-2.13,1.03-3.04,2.23-2.86,2.33-2.92,6.24-3.27.98-.09,1.93-.07,2.92.1,1.14.19,2.3-.09,3.44-.26,1.96-.29,3.88.1,5.8.36,4.46.6,8.94,1.11,13.36,1.97,1.6.31,3.21.62,4.8.99.56.13.95,0,1.36-.37,1.62-1.5,3.43-2.75,5.26-3.96.16-.11.4-.16.43-.37.14-1.38,1.23-1.56,2.25-1.66,1.55-.16,3.04-.53,4.24-1.51,1.28-1.04,2.67-2.01,3.54-3.55-.67-.25-1.35-.43-1.94-.23-1.91.66-3.74.04-5.58-.26-.59-.09-1.15-.15-1.75-.1-4.63.4-8.99-.76-13.28-2.29-1.39-.5-2.78-1.02-3.94-2.05-.43-.38-1.21-.39-1.83-.55-1.7-.42-2.59-1.4-2.82-3.13-.03-.2-.07-.39-.07-.59,0-.84-.35-1.4-1.08-1.91-1.33-.94-1.68-3.25-.96-5.14.58-1.52,1.89-2.34,3.66-2.31.44,0,1.01.24,1.04-.61-2.15.56-4.33.74-6.49,1.04-.23.03-.45.1-.59.29-1.38,1.89-3.42,2.56-5.56,3.02-5.56,1.17-11.14,2.16-16.75,3.05-3.47.55-6.94,1.09-10.42,1.62-2.28.34-4.57.7-6.87.74-3.4.06-5.63-1.41-7.15-4.64C.1,19.98-.27,17.67.2,15.21c.57-2.92,2.32-4.59,5.08-5.46,5.8-1.83,11.72-3.14,17.66-4.38,5.34-1.11,10.71-2.06,16.09-2.96,2.14-.36,4.25-.22,6.19.99.65.41,1.37,0,2.05-.07,1.17-.11,2.4-.22,3.48-.56,1.35-.42,2.74-.57,4.09-.9.24-.06.41-.2.55-.37.2-.24.42-.36.74-.24.11.04.23.07.23.21,0,.41-.43.33-.64.44.71,0,1.42.02,2.12-.01.2-.01.6.08.56-.3-.04-.36-.34-.5-.7-.4-.31.08-.61.07-1.09-.11.78,0,1.4-.06,2,.02.57.07.88.47.84,1.07-.08,1.35.7,2.03,1.81,2.61,1.23.64,2.58.92,3.84,1.46.19.08.44,0,.66-.01,2.62-.09,5.11.26,7.29,1.89,2.4,1.8,3.37,4.76,2.36,7.59-.23.63-.06.72.5.66,2.63-.3,5.29-.05,7.92-.25,1.09-.08,1.89.3,2.32,1.3.45,1.03.27,1.98-.58,2.76-.03.03-.03.1-.04.16,1.53.68,1.92.04,2.04-1.32.17-1.85.2-1.78,1.96-2.23,4.46-1.12,9.03-1.67,13.53-2.57.4-.08.63-.04.63.46,0,.59.48.64.84.5.4-.16.95-.28.99-.88,0-.08,0-.17.03-.25.58-1.44.47-1.59-1.17-1.58.22-.35.61-.22.9-.34,2.24-.97,4.47-.41,6.71-.02,1.88.33,3.78.59,5.67.89.63.1,1.24-.05,1.84-.2.93-.24,1.85-.24,2.75.07.89.31,1.77.06,2.66-.08,0,.33-.42.13-.36.49.62.09,1.22.39,1.79.71.36.2.66.07.97,0,1.3-.26,2.55-.72,3.88-.85.17-.02.36-.02.36-.26,0-.26-.15-.43-.39-.5-.53-.16-1.05-.09-1.58.02-1.09.23-2.17.66-3.32.3-.24-.07-.56-.05-.57-.39,0-.37.33-.31.56-.36,3.8-.83,7.59-1.65,11.39-2.47.55-.12,1.05-.28,1.52-.66.9-.73,2.03-.95,3.16-1.07.51-.05.78-.27,1.01-.72,1.15-2.27,2.52-4.39,4.17-6.34.58-.68,1.15-.79,1.99-.65,4.5.72,8.05,3.01,11.04,6.36,2.07,2.32,4.13,4.62,5.27,7.59,1.22,3.17.59,5.94-1.91,8.21-.86.78-1.6,1.67-2.19,2.67-2.5,4.19-6.44,5.17-10.88,4.02-1.56-.4-2.72-1.33-3.76-2.45-.37-.39-.69-.46-1.18-.34-1.31.31-2.55.9-3.95.96.13.65.47,1.17.74,1.72.59,1.2,1.02,2.44,1.12,3.78.03.45.2.54.67.6,1.09.14,2.09.44,2.67,1.6.84,1.69,1.85,3.29,2.56,5.04-.35-.19-.45-.57-.63-.88-.87-1.52-1.67-3.08-2.77-4.47-.3.37-.35.68-.16,1.1.69,1.47,1.37,2.96,1.91,4.5.13.36.2.8.77.67.49-.11.95-.23.88-.89.1.46.43.65.85.81.3.12.74.11.84.56-.29.09-.6.14-.88.26-.67.31-.34.85-.24,1.31.13.63.64.31.95.27.58-.07.19-.51.19-.79,0-.36-.03-.72-.05-1.09ZM129.12,72.28c.46.32,1.81.21,2.08-.17.12-.16.02-.5-.17-.51-.72-.02-1.4.1-1.9.7-.04.14-.19.41-.21.33-.16-.63-.54-.49-.9-.27-.48.29.15.55.04.86.32-.38,1.35.07,1.05-.95ZM94.11,25.11c.08.03.16.05.23.09.75.44,1.5.28,1.98-.42.15-.22.15-.42-.13-.4-.75.04-1.47.24-2.05.76-.4.12-.76-.15-1.15-.11-.11.01-.23.02-.25.16-.02.14.07.23.18.23,1.14.09,1.85.83,2.54,1.84-.09-1.11-.88-1.52-1.35-2.16ZM123.97,54.89c.75-1.3-.98-1.1-1.11-1.86.43,2.09.86,4.17,1.04,6.42.19-1.1-.03-2.04-.09-2.99-.02-.22-.1-.43-.16-.65.07.04.19.12.19.12.48-.69.85-1.42.68-2.33-.18.43-.36.86-.55,1.29ZM124.13,80.85c.97,0,1.83-.45,2.75-.66,1.86-.43,3.57-1.34,5.43-1.77.3-.07.63-.13.84-.63-2.45.81-4.77,1.55-7.06,2.35-.65.23-1.39.23-1.93.74-.89.04-1.64.46-2.44.79.87-.07,1.74-.15,2.42-.81ZM120.48,31.52c-.16-.18-.5-.48-.46-.53.29-.44.03-.27-.25-.39-.83-.35-1.74-.08-2.55-.45-.21-.1-.47-.23-.56.06-.07.25.03.54.05.82.48-.17.78.36,1.33.26.53-.09.58-.36.7-.85.31,1.29.89,1.59,1.76,1.05-.07.13-.09.36.06.34.54-.06,1.01.24,1.53.21.85-.04,1.61.4,2.48.47-.45-.27-.23-.77-.42-1.13-.3.09-.09.42-.29.52-.16-.2-.08-.51-.4-.65-.09.19-.18.37-.26.55.03-.47-.25-.61-.62-.62-.51-.01-1.05-.66-1.54.09-.1.15-.27-.09-.35-.21-.06-.09.44-.38-.1-.32-.29.03-.23.29-.16.47.05.12.16.21.25.32-.04.01-.09.03-.13.03-.02,0-.04-.03-.07-.04ZM118.12,82.63c-1.98.62-3.97,1.21-5.94,1.85-1.27.41-2.59.76-3.62,1.68,3.02-1.11,6.12-1.98,9.16-3.02.23-.08.64-.08.39-.52.85.46,1.45-.23,2.16-.41-.79-.19-1.43.29-2.15.42ZM127.65,16.07c.82.24,1.66.34,2.51.34-.83-.2-1.65-.52-2.53-.32-.58-.5-1.31-.38-1.98-.48-4.86-.76-9.72-1.52-14.58-2.24-.9-.13-1.8-.44-2.73-.31,3.32.59,6.64,1.15,9.97,1.62,3.12.45,6.2,1.11,9.34,1.39ZM143.14,39.69c.19-.18-.07-.5.18-.68.09.04.16.08.23.12.31.16.75.31.92,0,.2-.38-.32-.43-.55-.57-.42-.26-.83-.47-.48-1.07.07-.12.17-.33-.02-.45-.17-.1-.34-.02-.45.12-.13.18-.23.38-.44.71-.17-.8-.65-.52-1.01-.37-.73.29-1.03.99-1.32,1.65-.1.24.12.6.4.48.7-.28,1.33-.07,1.98.1-.45.14-.9.29-1.35.42-.25.07-.51.09-.42.47.09.36.33.21.53.19,1.07-.1,2.07-.49,3.09-.77.16-.04.46-.02.4-.31-.06-.28-.3-.44-.57-.37-.38.1-.79.07-1.12.31ZM117.96,51.55v.04c-.42.14-.84.32-1.27.42-1.5.33-1.5.32-1.64,1.71-.31-.22-.5-.52-.66-.91-.29.48-.73.41-1.12.34-.15.31.37.76-.04.77-1.22.05-.46.9-.35,1.06.47.71.72,1.48.92,2.29.05.22.16.67.51.56.43-.13,1.05-.05,1.25-.51.13-.3.17-.9-.49-.97.14-.33.76-.11.74-.56-.03-.67.05-1.16.88-1.18.53-.02.88-.59,1.6-.31.57.22.99,1.19,1.83.6.01,0,.05.03.07.04.61.2.82.03.73-.61-.08-.59-.25-1.15-.51-1.69-.15-.32-.26-1.1-.61-.79-.71.62-.24-1.01-.83-.35-.05.06-.59-.13-.81.2-.07-.05-.13-.1-.2-.15ZM66.55,8.3c.76.58,1.27,1.3,1.61,2.16.38.94.83,1.84,1.2,2.78.24.6.59.94,1.25,1.05,1.03.18,1.9.79,2.89,1.13.74-1.72.61-3.45-.58-4.89-1.63-1.98-3.92-2.44-6.38-2.24ZM66.34,18.83c.73.37,1.44.37,2.13.47.75.11,1.19.34,1.06,1.23-.1.69-.02,1.4-.02,2.1h.32c.22-.83.11-1.7.07-2.54-.03-.55.18-.67.61-.76,1.13-.23,2.25-.51,3.38-.73,1.65-.33,1.66-.31,2.52,1.1.01.02.02.05.03.08.12.27.33.26.57.2.35-.1.22-.33.15-.54-.4-1.14-.93-2.36-2.14-2.6-1.18-.24-1.05-.68-.71-1.45.01-.02-.05-.08-.08-.12-.66.72-.61.72-.6,1.68,0,.25.28.7-.14.83-1.18.35-2.39.72-3.62.21-.27-.11-.46-.36-.42-.67.12-.84.1-.87-.82-.67-1.57.34-3.13.7-4.69,1.05-.2.04-.44.04-.47.27-.04.27.22.4.42.45.7.19,1.38.43,2.15.24.92-.23,1.86-.38,2.79-.56-.74.46-1.59.48-2.48.74ZM124.73,30.86c-.41-.48-.75-.88-1.09-1.28q-1.15-1.32.24-2.37c.19-.14.54-.26.41-.55-.08-.17-.42-.23-.65-.29-.28-.08-.48.11-.68.26-.44.33-.88.65-1.47,1.07,0-.52,0-.85,0-1.18,0-.4-.2-.55-.57-.56-.42,0-.43.29-.44.58-.01.52,0,1.04,0,1.56-.08,0-.15,0-.23,0,0-.52.01-1.03,0-1.55-.02-.76-.39-1.03-1.08-.74-.99.41-1.94.89-2.93,1.3-.42.17-.38.48-.4.82-.02.47.32.45.62.51.77.15,1.55.3,2.32.43.28.05.49.11.47.46-.03.45.1.79.63.77.59-.02.29-.49.39-.76.03-.08.05-.16.16-.11.16.17.09.38.09.56,0,.43.28.51.61.54.49.05.32-.34.37-.58.07-.3-.12-.65.18-.98.44.5.87.94,1.25,1.42.44.55.97.79,1.81.66ZM109.61,55.83c.32-.09.6-.32.83-.36.65-.09.88-.89,1.57-.81.28.03.46-.08.47-.34,0-.32-.1-.76-.4-.74-.6.04-.67-.31-.84-.72-.13-.33-.44-.31-.72-.16-.22.13-.57.15-.49.56.07.36.28.44.6.38.13-.02.27,0,.42.02-.37.33-.97.11-1.2.53-.22.38.01.81.23,1.22-.45.03-.8.06-1.16.08-.06-.24.55-.4.2-.43-.53-.06-.63-.52-1.17-.88.41,1.41.75,2.58,1.1,3.76.04.13.15.32.28.16.35-.41.65-.02,1.08.04-.42-1.26.59-1.06,1.22-1.23-.33-1.03-1.28-.78-2.01-1.08ZM61.49,24.33c.17.15-.14.79.29.57.44-.23.46-.22.67.17.21.38.68.25,1.06.3.09.01.08-.83.2-.03.05.29.38.21.57.26,1.28.36,2.64.42,3.9.9.25.09.43,0,.48-.3.07-.37-.93-1.48-1.08-1.28-.34.45-.73.19-1.01.15-.85-.12-1.71-.32-2.54-.55-.61-.17-1.41-.07-1.84-.78-.1-.17-.37-.17-.55-.07-.24.13-.1.4-.15.67ZM146.1,16.92s-.1,0-.18-.02c-.49-.04-.81.27-.8.67,0,.43.45.12.68.2.82.29,1.62-.02,2.4-.15.71-.12,1.39-.44,2.07-.68.38-.14.55-.43.38-.8-.18-.38-.48-.17-.72-.04-.25.14-.51.33-.78.15-.56-.36-1.01-.06-1.5.18-.47.23-.89.62-1.55.48ZM120.43,45.12c-.43-.68-.95-1.23-1.52-1.72-.3-.25-1.92-.32-2.03-.03-.23.63.51.73.76,1.12.11.16.29.26.42.41.45.5.93.74,1.52.22.26-.22.54-.17.84,0ZM61.01,21.71c2.51.86,5.1,1.38,7.68,1.96,1.71.38,3.64.31,4.74,2.13-.24-1.12-1.05-1.74-2.01-1.95-3.46-.77-6.94-1.44-10.42-2.14ZM76.25,67.2c-.54.2-.85.43-.87.94-.02.87-.02,1.74-.29,2.59-.06.19-.15.52.11.6.25.08.55.02.76-.22.2-.23.28-.48.28-.77,0-1.01,0-2.03,0-3.14ZM100.86,60.21c-.15-.45-.34-1.07-.56-1.67-.06-.15-.13-.37-.43-.24-.47.21-.93,1.14-.77,1.68.06.21,1.32.9,1.54.84.23-.06.31-.22.23-.61ZM70.3,82.67c-1.18-.53-2.26-.99-3.2-1.67-.48-.34-.79-.26-1.21.16,1.36.75,2.47,2.06,4.41,1.51ZM139.87,69.67c-.05.51.16.66.65.5.4-.14.83-.2,1.19-.39.17-.09.73.06.47-.44-.16-.3-.17-.92-.84-.6-.33.15-.69.22-1.04.33-.3.09-.5.25-.43.61ZM74.85,33.25c.38-1.16-.23-5.27-.95-6.47.36,2.31.81,4.37.95,6.47ZM124.45,74.73c0-.4-.13-.41-.52-.37-.92.09-1.52.99-2.54.87-.38-.04-.05.42.04.65.35-.25.91.1,1.17-.4.16-.31.88-.62,1-.4.15.28.28.22.44.1.16-.12.47-.12.4-.44ZM71.86,23.53c.72.87,1.53,1.02,2.45.48.2-.12.55-.17.44-.5-.09-.25-.38-.2-.59-.16-.76.15-1.5.36-2.29.18ZM116.82,59.16c.05.1-.04.31.17.29.73-.05,1.45-.2,2.12-.47.32-.13.07-.45-.05-.65-.14-.25-.38-.15-.45.03-.12.3-.12.13-.31.05-.46-.2-1.5.38-1.48.75ZM117.04,56.41c.4-.23,1.13-.1,1.43-.7.09-.17-.19-.62-.52-.46-.49.24-1.32,0-1.38.89-.02.27.12.35.48.27ZM142.63,69.49c.54-.43,1.17-.59,1.78-.76.39-.11.42-.37.34-.64-.09-.33-.39-.16-.56-.09-.7.26-1.63.29-1.56,1.49ZM117.09,76.74c-.2-.62-.58-.95-1.18-.48-.24.19-.46.23-.73.29-.2.05-.55.03-.61.34-.02.09.14.23.23.34.24.27.44.03.66-.06.53-.21,1.05-.45,1.63-.43ZM95.75,33.22s.07.01.11.02v-5.21s-.07,0-.11-.01v5.2ZM151.25,54.94c.33-2.6.33-5.22.2-7.85.03,2.61-.23,5.22-.2,7.85ZM138.49,69.21s.06-.16-.12-.2c-.21-.05-1.61.38-1.67.57-.07.22-.09.53.1.62.33.15.73-.04.98-.2.27-.17.79-.2.7-.79ZM87.97,60.83c-1.13.09-2.27.18-3.27.8,1.16.03,2.23-.33,3.27-.8ZM137.82,70.19c-.61.24-1.11.46-1.64.62-.25.08-.21.22-.2.37.01.13,0,.35.16.33.56-.04,1.1-.22,1.59-.47.31-.16.02-.49.08-.86ZM129.04,55.08c.27-.09.16-.48.25-.37.59.65,1-.12,1.49-.16.44-.04.43-.15.19-.63-.53.54-2.01-.43-1.93,1.16ZM147.11,67.04c-.54-.02-.88.44-1.39.43-.2,0-.32.18-.21.35.1.16-.04.47.31.49.65.05,1.28-.52,1.29-1.27ZM104.7,63.67q.56-.72.44-3.06c.06.48-.83.61-.34,1.31.35.5-.52,1.12-.1,1.75ZM67.77,47.72c.05.06.1.11.15.17,1.03-.84,2.07-1.69,3.1-2.53-1.24.59-2.29,1.43-3.26,2.37ZM111.81,77.76c.17.46.41.75.87.38.22-.18.51-.07.7-.24.16-.15.5.01.53-.28.01-.13-.12-.33-.24-.42-.22-.15-.45-.1-.68.05-.36.23-.63.67-1.17.51ZM112.23,57.64c-.03-.28-.14-.42-.39-.34-.39.12-.96,0-1.03.61-.03.23.16.48.4.44.43-.09.82-.31,1.01-.71ZM94.75,61.63c.23-.57-.42-.31-.41-.67,0-.18-.13-.41-.39-.3-.23.1-.14.33-.1.52.04.16.16.32.15.47-.02.4.16.85.44.86.49.01.12-.47.21-.72.04-.1.11-.19.1-.17ZM102.41,58.17c.23.77.43,1.45.65,2.24.39-1.97.38-2.03-.65-2.24ZM88.17,26.82c-1.17-.41-2.38-.69-3.62-.72,1.2.3,2.35.8,3.62.72ZM135.58,18.3s-.03-.03-.05-.04v5.85s.03,0,.05,0v-5.81ZM130.58,59.06c-.46-.15-.79.21-1.18.31-.2.05-.2.26-.15.43.07.28.29.1.41.08.32-.07.55-.37.96-.28.27.06.32-.28.29-.5-.05-.42-.22.05-.33-.03ZM113.55,81.97c.17-.06.31-.07.36-.14.06-.08.07-.24-.05-.29-.58-.26-.51-.5-.01-.79.13-.08.17-.3.09-.46-.06-.12-.11.03-.17.05-.46.16-.86.45-.93.93-.08.52.78.15.72.71ZM118.85,76.2c-.37-.41-.69-.74-1.26-.33-.11.08-.52-.21-.36.27.09.26.26.74.6.4.32-.32.72-.02,1.03-.34ZM134.94,16.36c-.42-.24-3.24-.48-3.57-.31,1.2.13,2.28.52,3.57.31ZM137.78,76.37c.48.03,3.14-.85,3.53-1.15-1.23.21-2.37.7-3.53,1.15ZM135.91,17.53c.02.09.03.18.05.27.82,0,1.59-.23,2.33-.55l-.04-.2c-.78.16-1.55.33-2.33.49ZM98.55,18.7c1.09.59,2.18,1.17,3.26,1.76.03-.06.06-.13.1-.19-1.03-.71-2.15-1.23-3.36-1.57ZM128.51,78.2c-.56-.5-1.09-.27-1.55,0-.14.09-.51-.06-.46.32.02.12.06.26.17.25.21-.02.6-.08.61-.15.03-.46.3-.23.5-.23.23,0,.47.02.72-.19ZM139.19,69.81c-.24.07-.44.16-.66.18-.35.04-.51.2-.45.55.03.2.11.42.37.31.44-.18,1.15-.19.74-1.04ZM65.35,31.16c.25.03.43-.02.43-.29,0-.57-.48-.53-.83-.62-.22-.06-.38.04-.4.3-.04.62.53.43.8.61ZM115.83,58.97c-.05-.09-.13-.37-.24-.38-.2-.02-.41.12-.63.18-.19.05-.13.52-.35.33-.4-.33-.37-.03-.28.17.33.75.88-.47,1.31.12.08.12.23-.15.2-.42ZM68.04,62.83c.57-.63.74-1.48,1.74-1.76-.92-.2-1.38.33-1.74,1.76ZM148.52,67.38c-.26-.24-.11-.7-.53-.63-.26.04-.7,0-.64.44.02.16-.15.59.28.53.29-.04.57-.21.89-.34ZM132.54,71.24c0-.25-.1-.36-.25-.27-.3.17-.82.05-.84.57,0,.04-.17.62.4.49.52-.11,0-.96.69-.79ZM150.34,61.62c-.31.09-.69.09-.71.55,0,.22.03.4.31.37.4-.05.66-.26.71-.67.03-.24-.12-.27-.31-.25ZM51.13,6.66c.05-.69.33-1.33-.61-1.55-.07.6.11,1.07.61,1.55ZM52.26,11.43c-.13-.22.13-.64-.28-.72-.37-.07-.27.28-.25.46.03.31-.1.76.32.82.24.04.17-.34.21-.57ZM116.35,62.96s-.07.01-.11.02v3.41s.07,0,.11,0v-3.43ZM145.74,50.56c.32-.51.33-1.68.08-2.25.17.76-.12,1.5-.08,2.25ZM105.48,63.35c.83-.41.25-1.02.32-1.64-.58.52.11,1.17-.32,1.64ZM91.1,25.86c-.59-.4-1.22-.57-1.93-.43.67.15,1.3.29,1.93.43Z"/>
    </clipPath>
    <linearGradient id="linear-gradient" x1="-6.23" y1="52.43" x2="190.6" y2="52.43" gradientUnits="userSpaceOnUse">
      <stop offset=".3" stop-color="#3cb389"/>
      <stop offset=".6" stop-color="#007993"/>
      <stop offset=".9" stop-color="#1c3967"/>
    </linearGradient>
  </defs>
  <g id="Layer_4" data-name="Layer 4">
    <g class="cls-3">
      <path class="cls-1" d="M132.74,85.87h-.53v.9h-.95v.5h.95v.9h.53v-.9h.95v-.5h-.95v-.9ZM132.74,103.2h-.53v.9h-.95v.5h.95v.9h.53v-.9h.95v-.5h-.95v-.9ZM132.74,98.88h-.53v.9h-.95v.5h.95v.9h.53v-.9h.95v-.5h-.95v-.9ZM132.74,94.5h-.53v.9h-.95v.5h.95v.9h.53v-.9h.95v-.5h-.95v-.9ZM132.74,90.19h-.53v.9h-.95v.5h.95v.9h.53v-.9h.95v-.5h-.95v-.9ZM132.74,107.51h-.53v.9h-.95v.5h.95v.9h.53v-.9h.95v-.5h-.95v-.9ZM128-.62h-.53V.28h-.95v.5h.95v.9h.53v-.9h.95v-.5h-.95v-.9ZM128-4.94h-.53v.9h-.95v.5h.95v.9h.53v-.9h.95v-.5h-.95v-.9ZM128,12.33h-.53v.9h-.95v.5h.95v.9h.53v-.9h.95v-.5h-.95v-.9ZM128,16.65h-.53v.9h-.95v.5h.95v.9h.53v-.9h.95v-.5h-.95v-.9ZM128,8.02h-.53v.9h-.95v.5h.95v.9h.53v-.9h.95v-.5h-.95v-.9ZM128,3.7h-.53v.9h-.95v.5h.95v.9h.53v-.9h.95v-.5h-.95v-.9ZM132.74-4.94h-.53v.9h-.95v.5h.95v.9h.53v-.9h.95v-.5h-.95v-.9ZM132.74,8.02h-.53v.9h-.95v.5h.95v.9h.53v-.9h.95v-.5h-.95v-.9ZM132.74-.62h-.53V.28h-.95v.5h.95v.9h.53v-.9h.95v-.5h-.95v-.9ZM132.74,3.7h-.53v.9h-.95v.5h.95v.9h.53v-.9h.95v-.5h-.95v-.9ZM132.74,81.55h-.53v.9h-.95v.5h.95v.9h.53v-.9h.95v-.5h-.95v-.9ZM132.74,12.33h-.53v.9h-.95v.5h.95v.9h.53v-.9h.95v-.5h-.95v-.9ZM132.74,59.84h-.53v.9h-.95v.5h.95v.9h.53v-.9h.95v-.5h-.95v-.9ZM132.74,51.2h-.53v.9h-.95v.5h.95v.9h.53v-.9h.95v-.5h-.95v-.9ZM132.74,55.52h-.53v.9h-.95v.5h.95v.9h.53v-.9h.95v-.5h-.95v-.9ZM132.74,77.23h-.53v.9h-.95v.5h.95v.9h.53v-.9h.95v-.5h-.95v-.9ZM132.74,16.65h-.53v.9h-.95v.5h.95v.9h.53v-.9h.95v-.5h-.95v-.9ZM132.74,72.92h-.53v.9h-.95v.5h.95v.9h.53v-.9h.95v-.5h-.95v-.9ZM132.74,68.47h-.53v.9h-.95v.5h.95v.9h.53v-.9h.95v-.5h-.95v-.9ZM132.74,29.73h-.53v.9h-.95v.5h.95v.9h.53v-.9h.95v-.5h-.95v-.9ZM132.74,46.88h-.53v.9h-.95v.5h.95v.9h.53v-.9h.95v-.5h-.95v-.9ZM132.74,21.1h-.53v.9h-.95v.5h.95v.9h.53v-.9h.95v-.5h-.95v-.9ZM132.74,25.41h-.53v.9h-.95v.5h.95v.9h.53v-.9h.95v-.5h-.95v-.9ZM132.74,42.68h-.53v.9h-.95v.5h.95v.9h.53v-.9h.95v-.5h-.95v-.9ZM132.74,34.05h-.53v.9h-.95v.5h.95v.9h.53v-.9h.95v-.5h-.95v-.9ZM132.74,38.37h-.53v.9h-.95v.5h.95v.9h.53v-.9h.95v-.5h-.95v-.9ZM123.26,68.47h-.53v.9h-.95v.5h.95v.9h.53v-.9h.95v-.5h-.95v-.9ZM123.26,25.41h-.53v.9h-.95v.5h.95v.9h.53v-.9h.95v-.5h-.95v-.9ZM123.26-.62h-.53V.28h-.95v.5h.95v.9h.53v-.9h.95v-.5h-.95v-.9ZM123.26-4.94h-.53v.9h-.95v.5h.95v.9h.53v-.9h.95v-.5h-.95v-.9ZM123.26,3.7h-.53v.9h-.95v.5h.95v.9h.53v-.9h.95v-.5h-.95v-.9ZM123.26,21.1h-.53v.9h-.95v.5h.95v.9h.53v-.9h.95v-.5h-.95v-.9ZM123.26,16.65h-.53v.9h-.95v.5h.95v.9h.53v-.9h.95v-.5h-.95v-.9ZM123.26,12.33h-.53v.9h-.95v.5h.95v.9h.53v-.9h.95v-.5h-.95v-.9ZM123.26,8.02h-.53v.9h-.95v.5h.95v.9h.53v-.9h.95v-.5h-.95v-.9ZM123.26,77.23h-.53v.9h-.95v.5h.95v.9h.53v-.9h.95v-.5h-.95v-.9ZM123.26,29.73h-.53v.9h-.95v.5h.95v.9h.53v-.9h.95v-.5h-.95v-.9ZM123.26,64.15h-.53v.9h-.95v.5h.95v.9h.53v-.9h.95v-.5h-.95v-.9ZM123.26,81.55h-.53v.9h-.95v.5h.95v.9h.53v-.9h.95v-.5h-.95v-.9ZM123.26,90.19h-.53v.9h-.95v.5h.95v.9h.53v-.9h.95v-.5h-.95v-.9ZM128,21.1h-.53v.9h-.95v.5h.95v.9h.53v-.9h.95v-.5h-.95v-.9ZM123.26,72.92h-.53v.9h-.95v.5h.95v.9h.53v-.9h.95v-.5h-.95v-.9ZM123.26,59.84h-.53v.9h-.95v.5h.95v.9h.53v-.9h.95v-.5h-.95v-.9ZM123.26,34.05h-.53v.9h-.95v.5h.95v.9h.53v-.9h.95v-.5h-.95v-.9ZM123.26,42.68h-.53v.9h-.95v.5h.95v.9h.53v-.9h.95v-.5h-.95v-.9ZM123.26,94.5h-.53v.9h-.95v.5h.95v.9h.53v-.9h.95v-.5h-.95v-.9ZM123.26,46.88h-.53v.9h-.95v.5h.95v.9h.53v-.9h.95v-.5h-.95v-.9ZM123.26,55.52h-.53v.9h-.95v.5h.95v.9h.53v-.9h.95v-.5h-.95v-.9ZM123.26,51.2h-.53v.9h-.95v.5h.95v.9h.53v-.9h.95v-.5h-.95v-.9ZM123.26,85.87h-.53v.9h-.95v.5h.95v.9h.53v-.9h.95v-.5h-.95v-.9ZM128,68.47h-.53v.9h-.95v.5h.95v.9h.53v-.9h.95v-.5h-.95v-.9ZM128,72.92h-.53v.9h-.95v.5h.95v.9h.53v-.9h.95v-.5h-.95v-.9ZM128,64.15h-.53v.9h-.95v.5h.95v.9h.53v-.9h.95v-.5h-.95v-.9ZM128,59.84h-.53v.9h-.95v.5h.95v.9h.53v-.9h.95v-.5h-.95v-.9ZM128,81.55h-.53v.9h-.95v.5h.95v.9h.53v-.9h.95v-.5h-.95v-.9ZM128,85.87h-.53v.9h-.95v.5h.95v.9h.53v-.9h.95v-.5h-.95v-.9ZM128,55.52h-.53v.9h-.95v.5h.95v.9h.53v-.9h.95v-.5h-.95v-.9ZM128,77.23h-.53v.9h-.95v.5h.95v.9h.53v-.9h.95v-.5h-.95v-.9ZM128,29.73h-.53v.9h-.95v.5h.95v.9h.53v-.9h.95v-.5h-.95v-.9ZM128,90.19h-.53v.9h-.95v.5h.95v.9h.53v-.9h.95v-.5h-.95v-.9ZM128,25.41h-.53v.9h-.95v.5h.95v.9h.53v-.9h.95v-.5h-.95v-.9ZM128,34.05h-.53v.9h-.95v.5h.95v.9h.53v-.9h.95v-.5h-.95v-.9ZM128,42.68h-.53v.9h-.95v.5h.95v.9h.53v-.9h.95v-.5h-.95v-.9ZM128,46.88h-.53v.9h-.95v.5h.95v.9h.53v-.9h.95v-.5h-.95v-.9ZM128,38.37h-.53v.9h-.95v.5h.95v.9h.53v-.9h.95v-.5h-.95v-.9ZM128,51.2h-.53v.9h-.95v.5h.95v.9h.53v-.9h.95v-.5h-.95v-.9ZM128,98.88h-.53v.9h-.95v.5h.95v.9h.53v-.9h.95v-.5h-.95v-.9ZM128,103.2h-.53v.9h-.95v.5h.95v.9h.53v-.9h.95v-.5h-.95v-.9ZM128,107.51h-.53v.9h-.95v.5h.95v.9h.53v-.9h.95v-.5h-.95v-.9ZM128,94.5h-.53v.9h-.95v.5h.95v.9h.53v-.9h.95v-.5h-.95v-.9ZM123.26,38.37h-.53v.9h-.95v.5h.95v.9h.53v-.9h.95v-.5h-.95v-.9ZM142.22-.62h-.53V.28h-.95v.5h.95v.9h.53v-.9h.95v-.5h-.95v-.9ZM142.22,68.47h-.53v.9h-.95v.5h.95v.9h.53v-.9h.95v-.5h-.95v-.9ZM142.22-4.94h-.53v.9h-.95v.5h.95v.9h.53v-.9h.95v-.5h-.95v-.9ZM142.22,29.73h-.53v.9h-.95v.5h.95v.9h.53v-.9h.95v-.5h-.95v-.9ZM142.22,51.2h-.53v.9h-.95v.5h.95v.9h.53v-.9h.95v-.5h-.95v-.9ZM142.22,38.37h-.53v.9h-.95v.5h.95v.9h.53v-.9h.95v-.5h-.95v-.9ZM142.22,42.68h-.53v.9h-.95v.5h.95v.9h.53v-.9h.95v-.5h-.95v-.9ZM142.22,46.88h-.53v.9h-.95v.5h.95v.9h.53v-.9h.95v-.5h-.95v-.9ZM142.22,55.52h-.53v.9h-.95v.5h.95v.9h.53v-.9h.95v-.5h-.95v-.9ZM142.22,64.15h-.53v.9h-.95v.5h.95v.9h.53v-.9h.95v-.5h-.95v-.9ZM142.22,59.84h-.53v.9h-.95v.5h.95v.9h.53v-.9h.95v-.5h-.95v-.9ZM142.22,34.05h-.53v.9h-.95v.5h.95v.9h.53v-.9h.95v-.5h-.95v-.9ZM142.22,3.7h-.53v.9h-.95v.5h.95v.9h.53v-.9h.95v-.5h-.95v-.9ZM142.22,12.33h-.53v.9h-.95v.5h.95v.9h.53v-.9h.95v-.5h-.95v-.9ZM142.22,8.02h-.53v.9h-.95v.5h.95v.9h.53v-.9h.95v-.5h-.95v-.9ZM142.22,16.65h-.53v.9h-.95v.5h.95v.9h.53v-.9h.95v-.5h-.95v-.9ZM142.22,21.1h-.53v.9h-.95v.5h.95v.9h.53v-.9h.95v-.5h-.95v-.9ZM142.22,25.41h-.53v.9h-.95v.5h.95v.9h.53v-.9h.95v-.5h-.95v-.9ZM146.96,38.37h-.53v.9h-.95v.5h.95v.9h.53v-.9h.95v-.5h-.95v-.9ZM146.96,42.68h-.53v.9h-.95v.5h.95v.9h.53v-.9h.95v-.5h-.95v-.9ZM146.96,46.88h-.53v.9h-.95v.5h.95v.9h.53v-.9h.95v-.5h-.95v-.9ZM146.96,34.05h-.53v.9h-.95v.5h.95v.9h.53v-.9h.95v-.5h-.95v-.9ZM146.96,55.52h-.53v.9h-.95v.5h.95v.9h.53v-.9h.95v-.5h-.95v-.9ZM146.96,51.2h-.53v.9h-.95v.5h.95v.9h.53v-.9h.95v-.5h-.95v-.9ZM146.96,59.84h-.53v.9h-.95v.5h.95v.9h.53v-.9h.95v-.5h-.95v-.9ZM146.96,29.73h-.53v.9h-.95v.5h.95v.9h.53v-.9h.95v-.5h-.95v-.9ZM146.96,16.65h-.53v.9h-.95v.5h.95v.9h.53v-.9h.95v-.5h-.95v-.9ZM146.96,25.41h-.53v.9h-.95v.5h.95v.9h.53v-.9h.95v-.5h-.95v-.9ZM146.96,3.7h-.53v.9h-.95v.5h.95v.9h.53v-.9h.95v-.5h-.95v-.9ZM146.96-.62h-.53V.28h-.95v.5h.95v.9h.53v-.9h.95v-.5h-.95v-.9ZM146.96,8.02h-.53v.9h-.95v.5h.95v.9h.53v-.9h.95v-.5h-.95v-.9ZM146.96,21.1h-.53v.9h-.95v.5h.95v.9h.53v-.9h.95v-.5h-.95v-.9ZM146.96,12.33h-.53v.9h-.95v.5h.95v.9h.53v-.9h.95v-.5h-.95v-.9ZM146.96,64.15h-.53v.9h-.95v.5h.95v.9h.53v-.9h.95v-.5h-.95v-.9ZM146.96,107.51h-.53v.9h-.95v.5h.95v.9h.53v-.9h.95v-.5h-.95v-.9ZM146.96,103.2h-.53v.9h-.95v.5h.95v.9h.53v-.9h.95v-.5h-.95v-.9ZM146.96,85.87h-.53v.9h-.95v.5h.95v.9h.53v-.9h.95v-.5h-.95v-.9ZM146.96,98.88h-.53v.9h-.95v.5h.95v.9h.53v-.9h.95v-.5h-.95v-.9ZM146.96,72.92h-.53v.9h-.95v.5h.95v.9h.53v-.9h.95v-.5h-.95v-.9ZM146.96,81.55h-.53v.9h-.95v.5h.95v.9h.53v-.9h.95v-.5h-.95v-.9ZM146.96,77.23h-.53v.9h-.95v.5h.95v.9h.53v-.9h.95v-.5h-.95v-.9ZM146.96,68.47h-.53v.9h-.95v.5h.95v.9h.53v-.9h.95v-.5h-.95v-.9ZM146.96,94.5h-.53v.9h-.95v.5h.95v.9h.53v-.9h.95v-.5h-.95v-.9ZM146.96,90.19h-.53v.9h-.95v.5h.95v.9h.53v-.9h.95v-.5h-.95v-.9ZM137.48,77.23h-.53v.9h-.95v.5h.95v.9h.53v-.9h.95v-.5h-.95v-.9ZM137.48,59.84h-.53v.9h-.95v.5h.95v.9h.53v-.9h.95v-.5h-.95v-.9ZM137.48,51.2h-.53v.9h-.95v.5h.95v.9h.53v-.9h.95v-.5h-.95v-.9ZM137.48,8.02h-.53v.9h-.95v.5h.95v.9h.53v-.9h.95v-.5h-.95v-.9ZM137.48,64.15h-.53v.9h-.95v.5h.95v.9h.53v-.9h.95v-.5h-.95v-.9ZM137.48,42.68h-.53v.9h-.95v.5h.95v.9h.53v-.9h.95v-.5h-.95v-.9ZM137.48,72.92h-.53v.9h-.95v.5h.95v.9h.53v-.9h.95v-.5h-.95v-.9ZM137.48,68.47h-.53v.9h-.95v.5h.95v.9h.53v-.9h.95v-.5h-.95v-.9ZM137.48,55.52h-.53v.9h-.95v.5h.95v.9h.53v-.9h.95v-.5h-.95v-.9ZM137.48,16.65h-.53v.9h-.95v.5h.95v.9h.53v-.9h.95v-.5h-.95v-.9ZM137.48,21.1h-.53v.9h-.95v.5h.95v.9h.53v-.9h.95v-.5h-.95v-.9ZM137.48,12.33h-.53v.9h-.95v.5h.95v.9h.53v-.9h.95v-.5h-.95v-.9ZM137.48,34.05h-.53v.9h-.95v.5h.95v.9h.53v-.9h.95v-.5h-.95v-.9ZM142.22,72.92h-.53v.9h-.95v.5h.95v.9h.53v-.9h.95v-.5h-.95v-.9ZM137.48,25.41h-.53v.9h-.95v.5h.95v.9h.53v-.9h.95v-.5h-.95v-.9ZM137.48,29.73h-.53v.9h-.95v.5h.95v.9h.53v-.9h.95v-.5h-.95v-.9ZM137.48,46.88h-.53v.9h-.95v.5h.95v.9h.53v-.9h.95v-.5h-.95v-.9ZM137.48,103.2h-.53v.9h-.95v.5h.95v.9h.53v-.9h.95v-.5h-.95v-.9ZM137.48,90.19h-.53v.9h-.95v.5h.95v.9h.53v-.9h.95v-.5h-.95v-.9ZM137.48,85.87h-.53v.9h-.95v.5h.95v.9h.53v-.9h.95v-.5h-.95v-.9ZM137.48,94.5h-.53v.9h-.95v.5h.95v.9h.53v-.9h.95v-.5h-.95v-.9ZM137.48,81.55h-.53v.9h-.95v.5h.95v.9h.53v-.9h.95v-.5h-.95v-.9ZM137.48,98.88h-.53v.9h-.95v.5h.95v.9h.53v-.9h.95v-.5h-.95v-.9ZM137.48,107.51h-.53v.9h-.95v.5h.95v.9h.53v-.9h.95v-.5h-.95v-.9ZM137.48,38.37h-.53v.9h-.95v.5h.95v.9h.53v-.9h.95v-.5h-.95v-.9ZM142.22,107.51h-.53v.9h-.95v.5h.95v.9h.53v-.9h.95v-.5h-.95v-.9ZM142.22,103.2h-.53v.9h-.95v.5h.95v.9h.53v-.9h.95v-.5h-.95v-.9ZM142.22,81.55h-.53v.9h-.95v.5h.95v.9h.53v-.9h.95v-.5h-.95v-.9ZM142.22,85.87h-.53v.9h-.95v.5h.95v.9h.53v-.9h.95v-.5h-.95v-.9ZM137.48,3.7h-.53v.9h-.95v.5h.95v.9h.53v-.9h.95v-.5h-.95v-.9ZM142.22,98.88h-.53v.9h-.95v.5h.95v.9h.53v-.9h.95v-.5h-.95v-.9ZM142.22,90.19h-.53v.9h-.95v.5h.95v.9h.53v-.9h.95v-.5h-.95v-.9ZM142.22,94.5h-.53v.9h-.95v.5h.95v.9h.53v-.9h.95v-.5h-.95v-.9ZM142.22,77.23h-.53v.9h-.95v.5h.95v.9h.53v-.9h.95v-.5h-.95v-.9ZM137.48-.62h-.53V.28h-.95v.5h.95v.9h.53v-.9h.95v-.5h-.95v-.9ZM137.48-4.94h-.53v.9h-.95v.5h.95v.9h.53v-.9h.95v-.5h-.95v-.9ZM104.3,46.88h-.53v.9h-.95v.5h.95v.9h.53v-.9h.95v-.5h-.95v-.9ZM104.3,29.73h-.53v.9h-.95v.5h.95v.9h.53v-.9h.95v-.5h-.95v-.9ZM104.3,16.65h-.53v.9h-.95v.5h.95v.9h.53v-.9h.95v-.5h-.95v-.9ZM104.3,21.1h-.53v.9h-.95v.5h.95v.9h.53v-.9h.95v-.5h-.95v-.9ZM104.3,34.05h-.53v.9h-.95v.5h.95v.9h.53v-.9h.95v-.5h-.95v-.9ZM104.3,38.37h-.53v.9h-.95v.5h.95v.9h.53v-.9h.95v-.5h-.95v-.9ZM146.96-4.94h-.53v.9h-.95v.5h.95v.9h.53v-.9h.95v-.5h-.95v-.9ZM104.3,42.68h-.53v.9h-.95v.5h.95v.9h.53v-.9h.95v-.5h-.95v-.9ZM104.3,25.41h-.53v.9h-.95v.5h.95v.9h.53v-.9h.95v-.5h-.95v-.9ZM104.3,12.33h-.53v.9h-.95v.5h.95v.9h.53v-.9h.95v-.5h-.95v-.9ZM104.3-4.94h-.53v.9h-.95v.5h.95v.9h.53v-.9h.95v-.5h-.95v-.9ZM104.3,8.02h-.53v.9h-.95v.5h.95v.9h.53v-.9h.95v-.5h-.95v-.9ZM104.3,3.7h-.53v.9h-.95v.5h.95v.9h.53v-.9h.95v-.5h-.95v-.9ZM104.3-.62h-.53V.28h-.95v.5h.95v.9h.53v-.9h.95v-.5h-.95v-.9ZM104.3,81.55h-.53v.9h-.95v.5h.95v.9h.53v-.9h.95v-.5h-.95v-.9ZM104.3,90.19h-.53v.9h-.95v.5h.95v.9h.53v-.9h.95v-.5h-.95v-.9ZM104.3,103.2h-.53v.9h-.95v.5h.95v.9h.53v-.9h.95v-.5h-.95v-.9ZM104.3,94.5h-.53v.9h-.95v.5h.95v.9h.53v-.9h.95v-.5h-.95v-.9ZM104.3,98.88h-.53v.9h-.95v.5h.95v.9h.53v-.9h.95v-.5h-.95v-.9ZM104.3,107.51h-.53v.9h-.95v.5h.95v.9h.53v-.9h.95v-.5h-.95v-.9ZM104.3,55.52h-.53v.9h-.95v.5h.95v.9h.53v-.9h.95v-.5h-.95v-.9ZM104.3,64.15h-.53v.9h-.95v.5h.95v.9h.53v-.9h.95v-.5h-.95v-.9ZM104.3,85.87h-.53v.9h-.95v.5h.95v.9h.53v-.9h.95v-.5h-.95v-.9ZM104.3,59.84h-.53v.9h-.95v.5h.95v.9h.53v-.9h.95v-.5h-.95v-.9ZM104.3,68.47h-.53v.9h-.95v.5h.95v.9h.53v-.9h.95v-.5h-.95v-.9ZM104.3,72.92h-.53v.9h-.95v.5h.95v.9h.53v-.9h.95v-.5h-.95v-.9ZM104.3,77.23h-.53v.9h-.95v.5h.95v.9h.53v-.9h.95v-.5h-.95v-.9ZM104.3,51.2h-.53v.9h-.95v.5h.95v.9h.53v-.9h.95v-.5h-.95v-.9ZM109.04,90.19h-.53v.9h-.95v.5h.95v.9h.53v-.9h.95v-.5h-.95v-.9ZM109.04,94.5h-.53v.9h-.95v.5h.95v.9h.53v-.9h.95v-.5h-.95v-.9ZM109.04,85.87h-.53v.9h-.95v.5h.95v.9h.53v-.9h.95v-.5h-.95v-.9ZM109.04,98.88h-.53v.9h-.95v.5h.95v.9h.53v-.9h.95v-.5h-.95v-.9ZM109.04,107.51h-.53v.9h-.95v.5h.95v.9h.53v-.9h.95v-.5h-.95v-.9ZM109.04,81.55h-.53v.9h-.95v.5h.95v.9h.53v-.9h.95v-.5h-.95v-.9ZM109.04,103.2h-.53v.9h-.95v.5h.95v.9h.53v-.9h.95v-.5h-.95v-.9ZM109.04,55.52h-.53v.9h-.95v.5h.95v.9h.53v-.9h.95v-.5h-.95v-.9ZM109.04,59.84h-.53v.9h-.95v.5h.95v.9h.53v-.9h.95v-.5h-.95v-.9ZM109.04,51.2h-.53v.9h-.95v.5h.95v.9h.53v-.9h.95v-.5h-.95v-.9ZM109.04,64.15h-.53v.9h-.95v.5h.95v.9h.53v-.9h.95v-.5h-.95v-.9ZM109.04,72.92h-.53v.9h-.95v.5h.95v.9h.53v-.9h.95v-.5h-.95v-.9ZM109.04,77.23h-.53v.9h-.95v.5h.95v.9h.53v-.9h.95v-.5h-.95v-.9ZM109.04,68.47h-.53v.9h-.95v.5h.95v.9h.53v-.9h.95v-.5h-.95v-.9ZM99.56,77.23h-.53v.9h-.95v.5h.95v.9h.53v-.9h.95v-.5h-.95v-.9ZM99.56,103.2h-.53v.9h-.95v.5h.95v.9h.53v-.9h.95v-.5h-.95v-.9ZM99.56,98.88h-.53v.9h-.95v.5h.95v.9h.53v-.9h.95v-.5h-.95v-.9ZM99.56,94.5h-.53v.9h-.95v.5h.95v.9h.53v-.9h.95v-.5h-.95v-.9ZM99.56,107.51h-.53v.9h-.95v.5h.95v.9h.53v-.9h.95v-.5h-.95v-.9ZM99.56,68.47h-.53v.9h-.95v.5h.95v.9h.53v-.9h.95v-.5h-.95v-.9ZM99.56,72.92h-.53v.9h-.95v.5h.95v.9h.53v-.9h.95v-.5h-.95v-.9ZM99.56,64.15h-.53v.9h-.95v.5h.95v.9h.53v-.9h.95v-.5h-.95v-.9ZM99.56,85.87h-.53v.9h-.95v.5h.95v.9h.53v-.9h.95v-.5h-.95v-.9ZM109.04,46.88h-.53v.9h-.95v.5h.95v.9h.53v-.9h.95v-.5h-.95v-.9ZM99.56,90.19h-.53v.9h-.95v.5h.95v.9h.53v-.9h.95v-.5h-.95v-.9ZM99.56,81.55h-.53v.9h-.95v.5h.95v.9h.53v-.9h.95v-.5h-.95v-.9ZM99.56,59.84h-.53v.9h-.95v.5h.95v.9h.53v-.9h.95v-.5h-.95v-.9ZM99.56,3.7h-.53v.9h-.95v.5h.95v.9h.53v-.9h.95v-.5h-.95v-.9ZM99.56,55.52h-.53v.9h-.95v.5h.95v.9h.53v-.9h.95v-.5h-.95v-.9ZM99.56,38.37h-.53v.9h-.95v.5h.95v.9h.53v-.9h.95v-.5h-.95v-.9ZM99.56,34.05h-.53v.9h-.95v.5h.95v.9h.53v-.9h.95v-.5h-.95v-.9ZM99.56,29.73h-.53v.9h-.95v.5h.95v.9h.53v-.9h.95v-.5h-.95v-.9ZM99.56,46.88h-.53v.9h-.95v.5h.95v.9h.53v-.9h.95v-.5h-.95v-.9ZM99.56,51.2h-.53v.9h-.95v.5h.95v.9h.53v-.9h.95v-.5h-.95v-.9ZM99.56,42.68h-.53v.9h-.95v.5h.95v.9h.53v-.9h.95v-.5h-.95v-.9ZM99.56,25.41h-.53v.9h-.95v.5h.95v.9h.53v-.9h.95v-.5h-.95v-.9ZM99.56,12.33h-.53v.9h-.95v.5h.95v.9h.53v-.9h.95v-.5h-.95v-.9ZM99.56-.62h-.53V.28h-.95v.5h.95v.9h.53v-.9h.95v-.5h-.95v-.9ZM99.56-4.94h-.53v.9h-.95v.5h.95v.9h.53v-.9h.95v-.5h-.95v-.9ZM99.56,16.65h-.53v.9h-.95v.5h.95v.9h.53v-.9h.95v-.5h-.95v-.9ZM99.56,21.1h-.53v.9h-.95v.5h.95v.9h.53v-.9h.95v-.5h-.95v-.9ZM99.56,8.02h-.53v.9h-.95v.5h.95v.9h.53v-.9h.95v-.5h-.95v-.9ZM118.52,81.55h-.53v.9h-.95v.5h.95v.9h.53v-.9h.95v-.5h-.95v-.9ZM118.52,85.87h-.53v.9h-.95v.5h.95v.9h.53v-.9h.95v-.5h-.95v-.9ZM118.52,77.23h-.53v.9h-.95v.5h.95v.9h.53v-.9h.95v-.5h-.95v-.9ZM118.52,72.92h-.53v.9h-.95v.5h.95v.9h.53v-.9h.95v-.5h-.95v-.9ZM118.52,98.88h-.53v.9h-.95v.5h.95v.9h.53v-.9h.95v-.5h-.95v-.9ZM118.52,34.05h-.53v.9h-.95v.5h.95v.9h.53v-.9h.95v-.5h-.95v-.9ZM109.04,42.68h-.53v.9h-.95v.5h.95v.9h.53v-.9h.95v-.5h-.95v-.9ZM118.52,94.5h-.53v.9h-.95v.5h.95v.9h.53v-.9h.95v-.5h-.95v-.9ZM118.52,55.52h-.53v.9h-.95v.5h.95v.9h.53v-.9h.95v-.5h-.95v-.9ZM118.52,42.68h-.53v.9h-.95v.5h.95v.9h.53v-.9h.95v-.5h-.95v-.9ZM118.52,38.37h-.53v.9h-.95v.5h.95v.9h.53v-.9h.95v-.5h-.95v-.9ZM118.52,46.88h-.53v.9h-.95v.5h.95v.9h.53v-.9h.95v-.5h-.95v-.9ZM118.52,103.2h-.53v.9h-.95v.5h.95v.9h.53v-.9h.95v-.5h-.95v-.9ZM118.52,59.84h-.53v.9h-.95v.5h.95v.9h.53v-.9h.95v-.5h-.95v-.9ZM118.52,64.15h-.53v.9h-.95v.5h.95v.9h.53v-.9h.95v-.5h-.95v-.9ZM118.52,51.2h-.53v.9h-.95v.5h.95v.9h.53v-.9h.95v-.5h-.95v-.9ZM118.52,68.47h-.53v.9h-.95v.5h.95v.9h.53v-.9h.95v-.5h-.95v-.9ZM118.52,107.51h-.53v.9h-.95v.5h.95v.9h.53v-.9h.95v-.5h-.95v-.9ZM123.26,107.51h-.53v.9h-.95v.5h.95v.9h.53v-.9h.95v-.5h-.95v-.9ZM123.26,103.2h-.53v.9h-.95v.5h.95v.9h.53v-.9h.95v-.5h-.95v-.9ZM118.52-.62h-.53V.28h-.95v.5h.95v.9h.53v-.9h.95v-.5h-.95v-.9ZM118.52,3.7h-.53v.9h-.95v.5h.95v.9h.53v-.9h.95v-.5h-.95v-.9ZM118.52,12.33h-.53v.9h-.95v.5h.95v.9h.53v-.9h.95v-.5h-.95v-.9ZM118.52,8.02h-.53v.9h-.95v.5h.95v.9h.53v-.9h.95v-.5h-.95v-.9ZM118.52,25.41h-.53v.9h-.95v.5h.95v.9h.53v-.9h.95v-.5h-.95v-.9ZM118.52,16.65h-.53v.9h-.95v.5h.95v.9h.53v-.9h.95v-.5h-.95v-.9ZM118.52,21.1h-.53v.9h-.95v.5h.95v.9h.53v-.9h.95v-.5h-.95v-.9ZM118.52-4.94h-.53v.9h-.95v.5h.95v.9h.53v-.9h.95v-.5h-.95v-.9ZM118.52,29.73h-.53v.9h-.95v.5h.95v.9h.53v-.9h.95v-.5h-.95v-.9ZM118.52,90.19h-.53v.9h-.95v.5h.95v.9h.53v-.9h.95v-.5h-.95v-.9ZM123.26,98.88h-.53v.9h-.95v.5h.95v.9h.53v-.9h.95v-.5h-.95v-.9ZM109.04,8.02h-.53v.9h-.95v.5h.95v.9h.53v-.9h.95v-.5h-.95v-.9ZM109.04,21.1h-.53v.9h-.95v.5h.95v.9h.53v-.9h.95v-.5h-.95v-.9ZM109.04,25.41h-.53v.9h-.95v.5h.95v.9h.53v-.9h.95v-.5h-.95v-.9ZM109.04,12.33h-.53v.9h-.95v.5h.95v.9h.53v-.9h.95v-.5h-.95v-.9ZM109.04,16.65h-.53v.9h-.95v.5h.95v.9h.53v-.9h.95v-.5h-.95v-.9ZM109.04,29.73h-.53v.9h-.95v.5h.95v.9h.53v-.9h.95v-.5h-.95v-.9ZM109.04,34.05h-.53v.9h-.95v.5h.95v.9h.53v-.9h.95v-.5h-.95v-.9ZM109.04,38.37h-.53v.9h-.95v.5h.95v.9h.53v-.9h.95v-.5h-.95v-.9ZM109.04,3.7h-.53v.9h-.95v.5h.95v.9h.53v-.9h.95v-.5h-.95v-.9ZM109.04-.62h-.53V.28h-.95v.5h.95v.9h.53v-.9h.95v-.5h-.95v-.9ZM109.04-4.94h-.53v.9h-.95v.5h.95v.9h.53v-.9h.95v-.5h-.95v-.9ZM113.78,21.1h-.53v.9h-.95v.5h.95v.9h.53v-.9h.95v-.5h-.95v-.9ZM113.78,12.33h-.53v.9h-.95v.5h.95v.9h.53v-.9h.95v-.5h-.95v-.9ZM113.78,38.37h-.53v.9h-.95v.5h.95v.9h.53v-.9h.95v-.5h-.95v-.9ZM113.78,8.02h-.53v.9h-.95v.5h.95v.9h.53v-.9h.95v-.5h-.95v-.9ZM113.78,25.41h-.53v.9h-.95v.5h.95v.9h.53v-.9h.95v-.5h-.95v-.9ZM113.78,34.05h-.53v.9h-.95v.5h.95v.9h.53v-.9h.95v-.5h-.95v-.9ZM113.78,29.73h-.53v.9h-.95v.5h.95v.9h.53v-.9h.95v-.5h-.95v-.9ZM113.78,3.7h-.53v.9h-.95v.5h.95v.9h.53v-.9h.95v-.5h-.95v-.9ZM113.78,16.65h-.53v.9h-.95v.5h.95v.9h.53v-.9h.95v-.5h-.95v-.9ZM113.78-4.94h-.53v.9h-.95v.5h.95v.9h.53v-.9h.95v-.5h-.95v-.9ZM113.78-.62h-.53V.28h-.95v.5h.95v.9h.53v-.9h.95v-.5h-.95v-.9ZM113.78,81.55h-.53v.9h-.95v.5h.95v.9h.53v-.9h.95v-.5h-.95v-.9ZM113.78,85.87h-.53v.9h-.95v.5h.95v.9h.53v-.9h.95v-.5h-.95v-.9ZM113.78,107.51h-.53v.9h-.95v.5h.95v.9h.53v-.9h.95v-.5h-.95v-.9ZM113.78,90.19h-.53v.9h-.95v.5h.95v.9h.53v-.9h.95v-.5h-.95v-.9ZM113.78,77.23h-.53v.9h-.95v.5h.95v.9h.53v-.9h.95v-.5h-.95v-.9ZM113.78,103.2h-.53v.9h-.95v.5h.95v.9h.53v-.9h.95v-.5h-.95v-.9ZM113.78,94.5h-.53v.9h-.95v.5h.95v.9h.53v-.9h.95v-.5h-.95v-.9ZM113.78,98.88h-.53v.9h-.95v.5h.95v.9h.53v-.9h.95v-.5h-.95v-.9ZM113.78,42.68h-.53v.9h-.95v.5h.95v.9h.53v-.9h.95v-.5h-.95v-.9ZM113.78,55.52h-.53v.9h-.95v.5h.95v.9h.53v-.9h.95v-.5h-.95v-.9ZM113.78,72.92h-.53v.9h-.95v.5h.95v.9h.53v-.9h.95v-.5h-.95v-.9ZM113.78,46.88h-.53v.9h-.95v.5h.95v.9h.53v-.9h.95v-.5h-.95v-.9ZM113.78,51.2h-.53v.9h-.95v.5h.95v.9h.53v-.9h.95v-.5h-.95v-.9ZM113.78,59.84h-.53v.9h-.95v.5h.95v.9h.53v-.9h.95v-.5h-.95v-.9ZM113.78,68.47h-.53v.9h-.95v.5h.95v.9h.53v-.9h.95v-.5h-.95v-.9ZM113.78,64.15h-.53v.9h-.95v.5h.95v.9h.53v-.9h.95v-.5h-.95v-.9ZM184.91,85.94h-.53v.9h-.95v.5h.95v.9h.53v-.9h.95v-.5h-.95v-.9ZM180.17,16.73h-.53v.9h-.95v.5h.95v.9h.53v-.9h.95v-.5h-.95v-.9ZM184.91,98.95h-.53v.9h-.95v.5h.95v.9h.53v-.9h.95v-.5h-.95v-.9ZM184.91,90.26h-.53v.9h-.95v.5h.95v.9h.53v-.9h.95v-.5h-.95v-.9ZM184.91,103.27h-.53v.9h-.95v.5h.95v.9h.53v-.9h.95v-.5h-.95v-.9ZM175.43,94.58h-.53v.9h-.95v.5h.95v.9h.53v-.9h.95v-.5h-.95v-.9ZM180.17-4.86h-.53v.9h-.95v.5h.95v.9h.53v-.9h.95v-.5h-.95v-.9ZM180.17-.54h-.53V.35h-.95v.5h.95v.9h.53v-.9h.95v-.5h-.95v-.9ZM180.17,12.41h-.53v.9h-.95v.5h.95v.9h.53v-.9h.95v-.5h-.95v-.9ZM180.17,3.78h-.53v.9h-.95v.5h.95v.9h.53v-.9h.95v-.5h-.95v-.9ZM180.17,8.09h-.53v.9h-.95v.5h.95v.9h.53v-.9h.95v-.5h-.95v-.9ZM184.91,94.58h-.53v.9h-.95v.5h.95v.9h.53v-.9h.95v-.5h-.95v-.9ZM184.91-4.86h-.53v.9h-.95v.5h.95v.9h.53v-.9h.95v-.5h-.95v-.9ZM184.91,8.09h-.53v.9h-.95v.5h.95v.9h.53v-.9h.95v-.5h-.95v-.9ZM184.91-.54h-.53V.35h-.95v.5h.95v.9h.53v-.9h.95v-.5h-.95v-.9ZM184.91,3.78h-.53v.9h-.95v.5h.95v.9h.53v-.9h.95v-.5h-.95v-.9ZM184.91,81.63h-.53v.9h-.95v.5h.95v.9h.53v-.9h.95v-.5h-.95v-.9ZM184.91,12.41h-.53v.9h-.95v.5h.95v.9h.53v-.9h.95v-.5h-.95v-.9ZM184.91,59.91h-.53v.9h-.95v.5h.95v.9h.53v-.9h.95v-.5h-.95v-.9ZM184.91,55.6h-.53v.9h-.95v.5h.95v.9h.53v-.9h.95v-.5h-.95v-.9ZM184.91,16.73h-.53v.9h-.95v.5h.95v.9h.53v-.9h.95v-.5h-.95v-.9ZM184.91,64.23h-.53v.9h-.95v.5h.95v.9h.53v-.9h.95v-.5h-.95v-.9ZM184.91,77.31h-.53v.9h-.95v.5h.95v.9h.53v-.9h.95v-.5h-.95v-.9ZM184.91,72.99h-.53v.9h-.95v.5h.95v.9h.53v-.9h.95v-.5h-.95v-.9ZM184.91,68.55h-.53v.9h-.95v.5h.95v.9h.53v-.9h.95v-.5h-.95v-.9ZM184.91,51.28h-.53v.9h-.95v.5h.95v.9h.53v-.9h.95v-.5h-.95v-.9ZM184.91,46.96h-.53v.9h-.95v.5h.95v.9h.53v-.9h.95v-.5h-.95v-.9ZM184.91,29.81h-.53v.9h-.95v.5h.95v.9h.53v-.9h.95v-.5h-.95v-.9ZM184.91,21.17h-.53v.9h-.95v.5h.95v.9h.53v-.9h.95v-.5h-.95v-.9ZM184.91,25.49h-.53v.9h-.95v.5h.95v.9h.53v-.9h.95v-.5h-.95v-.9ZM184.91,42.76h-.53v.9h-.95v.5h.95v.9h.53v-.9h.95v-.5h-.95v-.9ZM184.91,38.44h-.53v.9h-.95v.5h.95v.9h.53v-.9h.95v-.5h-.95v-.9ZM184.91,34.12h-.53v.9h-.95v.5h.95v.9h.53v-.9h.95v-.5h-.95v-.9ZM175.43,12.41h-.53v.9h-.95v.5h.95v.9h.53v-.9h.95v-.5h-.95v-.9ZM175.43,3.78h-.53v.9h-.95v.5h.95v.9h.53v-.9h.95v-.5h-.95v-.9ZM175.43,8.09h-.53v.9h-.95v.5h.95v.9h.53v-.9h.95v-.5h-.95v-.9ZM175.43-.54h-.53V.35h-.95v.5h.95v.9h.53v-.9h.95v-.5h-.95v-.9ZM175.43-4.86h-.53v.9h-.95v.5h.95v.9h.53v-.9h.95v-.5h-.95v-.9ZM175.43,21.17h-.53v.9h-.95v.5h.95v.9h.53v-.9h.95v-.5h-.95v-.9ZM175.43,16.73h-.53v.9h-.95v.5h.95v.9h.53v-.9h.95v-.5h-.95v-.9ZM175.43,25.49h-.53v.9h-.95v.5h.95v.9h.53v-.9h.95v-.5h-.95v-.9ZM175.43,59.91h-.53v.9h-.95v.5h.95v.9h.53v-.9h.95v-.5h-.95v-.9ZM175.43,72.99h-.53v.9h-.95v.5h.95v.9h.53v-.9h.95v-.5h-.95v-.9ZM175.43,64.23h-.53v.9h-.95v.5h.95v.9h.53v-.9h.95v-.5h-.95v-.9ZM175.43,77.31h-.53v.9h-.95v.5h.95v.9h.53v-.9h.95v-.5h-.95v-.9ZM175.43,68.55h-.53v.9h-.95v.5h.95v.9h.53v-.9h.95v-.5h-.95v-.9ZM175.43,90.26h-.53v.9h-.95v.5h.95v.9h.53v-.9h.95v-.5h-.95v-.9ZM175.43,85.94h-.53v.9h-.95v.5h.95v.9h.53v-.9h.95v-.5h-.95v-.9ZM175.43,29.81h-.53v.9h-.95v.5h.95v.9h.53v-.9h.95v-.5h-.95v-.9ZM175.43,81.63h-.53v.9h-.95v.5h.95v.9h.53v-.9h.95v-.5h-.95v-.9ZM175.43,38.44h-.53v.9h-.95v.5h.95v.9h.53v-.9h.95v-.5h-.95v-.9ZM175.43,34.12h-.53v.9h-.95v.5h.95v.9h.53v-.9h.95v-.5h-.95v-.9ZM175.43,42.76h-.53v.9h-.95v.5h.95v.9h.53v-.9h.95v-.5h-.95v-.9ZM175.43,46.96h-.53v.9h-.95v.5h.95v.9h.53v-.9h.95v-.5h-.95v-.9ZM175.43,55.6h-.53v.9h-.95v.5h.95v.9h.53v-.9h.95v-.5h-.95v-.9ZM175.43,51.28h-.53v.9h-.95v.5h.95v.9h.53v-.9h.95v-.5h-.95v-.9ZM180.17,51.28h-.53v.9h-.95v.5h.95v.9h.53v-.9h.95v-.5h-.95v-.9ZM180.17,72.99h-.53v.9h-.95v.5h.95v.9h.53v-.9h.95v-.5h-.95v-.9ZM180.17,64.23h-.53v.9h-.95v.5h.95v.9h.53v-.9h.95v-.5h-.95v-.9ZM180.17,55.6h-.53v.9h-.95v.5h.95v.9h.53v-.9h.95v-.5h-.95v-.9ZM180.17,68.55h-.53v.9h-.95v.5h.95v.9h.53v-.9h.95v-.5h-.95v-.9ZM180.17,85.94h-.53v.9h-.95v.5h.95v.9h.53v-.9h.95v-.5h-.95v-.9ZM180.17,77.31h-.53v.9h-.95v.5h.95v.9h.53v-.9h.95v-.5h-.95v-.9ZM180.17,81.63h-.53v.9h-.95v.5h.95v.9h.53v-.9h.95v-.5h-.95v-.9ZM180.17,21.17h-.53v.9h-.95v.5h.95v.9h.53v-.9h.95v-.5h-.95v-.9ZM180.17,29.81h-.53v.9h-.95v.5h.95v.9h.53v-.9h.95v-.5h-.95v-.9ZM180.17,25.49h-.53v.9h-.95v.5h.95v.9h.53v-.9h.95v-.5h-.95v-.9ZM180.17,90.26h-.53v.9h-.95v.5h.95v.9h.53v-.9h.95v-.5h-.95v-.9ZM180.17,34.12h-.53v.9h-.95v.5h.95v.9h.53v-.9h.95v-.5h-.95v-.9ZM180.17,46.96h-.53v.9h-.95v.5h.95v.9h.53v-.9h.95v-.5h-.95v-.9ZM180.17,38.44h-.53v.9h-.95v.5h.95v.9h.53v-.9h.95v-.5h-.95v-.9ZM180.17,42.76h-.53v.9h-.95v.5h.95v.9h.53v-.9h.95v-.5h-.95v-.9ZM180.17,59.91h-.53v.9h-.95v.5h.95v.9h.53v-.9h.95v-.5h-.95v-.9ZM180.17,94.58h-.53v.9h-.95v.5h.95v.9h.53v-.9h.95v-.5h-.95v-.9ZM180.17,98.95h-.53v.9h-.95v.5h.95v.9h.53v-.9h.95v-.5h-.95v-.9ZM180.17,107.59h-.53v.9h-.95v.5h.95v.9h.53v-.9h.95v-.5h-.95v-.9ZM184.91,107.59h-.53v.9h-.95v.5h.95v.9h.53v-.9h.95v-.5h-.95v-.9ZM189.65,51.28h-.53v.9h-.95v.5h.95v.9h.53v-.9h.95v-.5h-.95v-.9ZM189.65,55.6h-.53v.9h-.95v.5h.95v.9h.53v-.9h.95v-.5h-.95v-.9ZM189.65,46.96h-.53v.9h-.95v.5h.95v.9h.53v-.9h.95v-.5h-.95v-.9ZM189.65,59.91h-.53v.9h-.95v.5h.95v.9h.53v-.9h.95v-.5h-.95v-.9ZM189.65,64.23h-.53v.9h-.95v.5h.95v.9h.53v-.9h.95v-.5h-.95v-.9ZM189.65,77.31h-.53v.9h-.95v.5h.95v.9h.53v-.9h.95v-.5h-.95v-.9ZM189.65,68.55h-.53v.9h-.95v.5h.95v.9h.53v-.9h.95v-.5h-.95v-.9ZM189.65,42.76h-.53v.9h-.95v.5h.95v.9h.53v-.9h.95v-.5h-.95v-.9ZM189.65,8.09h-.53v.9h-.95v.5h.95v.9h.53v-.9h.95v-.5h-.95v-.9ZM189.65,16.73h-.53v.9h-.95v.5h.95v.9h.53v-.9h.95v-.5h-.95v-.9ZM189.65,21.17h-.53v.9h-.95v.5h.95v.9h.53v-.9h.95v-.5h-.95v-.9ZM189.65,12.41h-.53v.9h-.95v.5h.95v.9h.53v-.9h.95v-.5h-.95v-.9ZM189.65,29.81h-.53v.9h-.95v.5h.95v.9h.53v-.9h.95v-.5h-.95v-.9ZM189.65,34.12h-.53v.9h-.95v.5h.95v.9h.53v-.9h.95v-.5h-.95v-.9ZM189.65,25.49h-.53v.9h-.95v.5h.95v.9h.53v-.9h.95v-.5h-.95v-.9ZM189.65,38.44h-.53v.9h-.95v.5h.95v.9h.53v-.9h.95v-.5h-.95v-.9ZM189.65,72.99h-.53v.9h-.95v.5h.95v.9h.53v-.9h.95v-.5h-.95v-.9ZM189.65,81.63h-.53v.9h-.95v.5h.95v.9h.53v-.9h.95v-.5h-.95v-.9ZM189.65,90.26h-.53v.9h-.95v.5h.95v.9h.53v-.9h.95v-.5h-.95v-.9ZM189.65,85.94h-.53v.9h-.95v.5h.95v.9h.53v-.9h.95v-.5h-.95v-.9ZM189.65,94.58h-.53v.9h-.95v.5h.95v.9h.53v-.9h.95v-.5h-.95v-.9ZM189.65,107.59h-.53v.9h-.95v.5h.95v.9h.53v-.9h.95v-.5h-.95v-.9ZM189.65,103.27h-.53v.9h-.95v.5h.95v.9h.53v-.9h.95v-.5h-.95v-.9ZM189.65,98.95h-.53v.9h-.95v.5h.95v.9h.53v-.9h.95v-.5h-.95v-.9ZM189.65-.54h-.53V.35h-.95v.5h.95v.9h.53v-.9h.95v-.5h-.95v-.9ZM189.65-4.86h-.53v.9h-.95v.5h.95v.9h.53v-.9h.95v-.5h-.95v-.9ZM189.65,3.78h-.53v.9h-.95v.5h.95v.9h.53v-.9h.95v-.5h-.95v-.9ZM180.17,103.27h-.53v.9h-.95v.5h.95v.9h.53v-.9h.95v-.5h-.95v-.9ZM156.47,25.49h-.53v.9h-.95v.5h.95v.9h.53v-.9h.95v-.5h-.95v-.9ZM156.47,51.28h-.53v.9h-.95v.5h.95v.9h.53v-.9h.95v-.5h-.95v-.9ZM156.47,21.17h-.53v.9h-.95v.5h.95v.9h.53v-.9h.95v-.5h-.95v-.9ZM156.47,34.12h-.53v.9h-.95v.5h.95v.9h.53v-.9h.95v-.5h-.95v-.9ZM156.47,42.76h-.53v.9h-.95v.5h.95v.9h.53v-.9h.95v-.5h-.95v-.9ZM156.47,46.96h-.53v.9h-.95v.5h.95v.9h.53v-.9h.95v-.5h-.95v-.9ZM156.47,16.73h-.53v.9h-.95v.5h.95v.9h.53v-.9h.95v-.5h-.95v-.9ZM156.47,38.44h-.53v.9h-.95v.5h.95v.9h.53v-.9h.95v-.5h-.95v-.9ZM156.47,29.81h-.53v.9h-.95v.5h.95v.9h.53v-.9h.95v-.5h-.95v-.9ZM156.47,12.41h-.53v.9h-.95v.5h.95v.9h.53v-.9h.95v-.5h-.95v-.9ZM156.47-4.86h-.53v.9h-.95v.5h.95v.9h.53v-.9h.95v-.5h-.95v-.9ZM156.47,8.09h-.53v.9h-.95v.5h.95v.9h.53v-.9h.95v-.5h-.95v-.9ZM156.47,3.78h-.53v.9h-.95v.5h.95v.9h.53v-.9h.95v-.5h-.95v-.9ZM156.47-.54h-.53V.35h-.95v.5h.95v.9h.53v-.9h.95v-.5h-.95v-.9ZM156.47,98.95h-.53v.9h-.95v.5h.95v.9h.53v-.9h.95v-.5h-.95v-.9ZM156.47,90.26h-.53v.9h-.95v.5h.95v.9h.53v-.9h.95v-.5h-.95v-.9ZM156.47,94.58h-.53v.9h-.95v.5h.95v.9h.53v-.9h.95v-.5h-.95v-.9ZM156.47,103.27h-.53v.9h-.95v.5h.95v.9h.53v-.9h.95v-.5h-.95v-.9ZM156.47,55.6h-.53v.9h-.95v.5h.95v.9h.53v-.9h.95v-.5h-.95v-.9ZM156.47,107.59h-.53v.9h-.95v.5h.95v.9h.53v-.9h.95v-.5h-.95v-.9ZM161.21,46.96h-.53v.9h-.95v.5h.95v.9h.53v-.9h.95v-.5h-.95v-.9ZM156.47,68.55h-.53v.9h-.95v.5h.95v.9h.53v-.9h.95v-.5h-.95v-.9ZM156.47,64.23h-.53v.9h-.95v.5h.95v.9h.53v-.9h.95v-.5h-.95v-.9ZM156.47,85.94h-.53v.9h-.95v.5h.95v.9h.53v-.9h.95v-.5h-.95v-.9ZM156.47,59.91h-.53v.9h-.95v.5h.95v.9h.53v-.9h.95v-.5h-.95v-.9ZM156.47,81.63h-.53v.9h-.95v.5h.95v.9h.53v-.9h.95v-.5h-.95v-.9ZM156.47,77.31h-.53v.9h-.95v.5h.95v.9h.53v-.9h.95v-.5h-.95v-.9ZM156.47,72.99h-.53v.9h-.95v.5h.95v.9h.53v-.9h.95v-.5h-.95v-.9ZM161.21,90.26h-.53v.9h-.95v.5h.95v.9h.53v-.9h.95v-.5h-.95v-.9ZM161.21,94.58h-.53v.9h-.95v.5h.95v.9h.53v-.9h.95v-.5h-.95v-.9ZM161.21,81.63h-.53v.9h-.95v.5h.95v.9h.53v-.9h.95v-.5h-.95v-.9ZM161.21,98.95h-.53v.9h-.95v.5h.95v.9h.53v-.9h.95v-.5h-.95v-.9ZM161.21,85.94h-.53v.9h-.95v.5h.95v.9h.53v-.9h.95v-.5h-.95v-.9ZM161.21,103.27h-.53v.9h-.95v.5h.95v.9h.53v-.9h.95v-.5h-.95v-.9ZM161.21,55.6h-.53v.9h-.95v.5h.95v.9h.53v-.9h.95v-.5h-.95v-.9ZM161.21,51.28h-.53v.9h-.95v.5h.95v.9h.53v-.9h.95v-.5h-.95v-.9ZM161.21,59.91h-.53v.9h-.95v.5h.95v.9h.53v-.9h.95v-.5h-.95v-.9ZM161.21,72.99h-.53v.9h-.95v.5h.95v.9h.53v-.9h.95v-.5h-.95v-.9ZM161.21,77.31h-.53v.9h-.95v.5h.95v.9h.53v-.9h.95v-.5h-.95v-.9ZM161.21,68.55h-.53v.9h-.95v.5h.95v.9h.53v-.9h.95v-.5h-.95v-.9ZM161.21,64.23h-.53v.9h-.95v.5h.95v.9h.53v-.9h.95v-.5h-.95v-.9ZM161.21,107.59h-.53v.9h-.95v.5h.95v.9h.53v-.9h.95v-.5h-.95v-.9ZM151.73,103.27h-.53v.9h-.95v.5h.95v.9h.53v-.9h.95v-.5h-.95v-.9ZM151.73,107.59h-.53v.9h-.95v.5h.95v.9h.53v-.9h.95v-.5h-.95v-.9ZM151.73,98.95h-.53v.9h-.95v.5h.95v.9h.53v-.9h.95v-.5h-.95v-.9ZM151.73,94.58h-.53v.9h-.95v.5h.95v.9h.53v-.9h.95v-.5h-.95v-.9ZM151.73,68.55h-.53v.9h-.95v.5h.95v.9h.53v-.9h.95v-.5h-.95v-.9ZM151.73,64.23h-.53v.9h-.95v.5h.95v.9h.53v-.9h.95v-.5h-.95v-.9ZM151.73,72.99h-.53v.9h-.95v.5h.95v.9h.53v-.9h.95v-.5h-.95v-.9ZM151.73,77.31h-.53v.9h-.95v.5h.95v.9h.53v-.9h.95v-.5h-.95v-.9ZM151.73,59.91h-.53v.9h-.95v.5h.95v.9h.53v-.9h.95v-.5h-.95v-.9ZM151.73,81.63h-.53v.9h-.95v.5h.95v.9h.53v-.9h.95v-.5h-.95v-.9ZM151.73,90.26h-.53v.9h-.95v.5h.95v.9h.53v-.9h.95v-.5h-.95v-.9ZM151.73,85.94h-.53v.9h-.95v.5h.95v.9h.53v-.9h.95v-.5h-.95v-.9ZM151.73,21.17h-.53v.9h-.95v.5h.95v.9h.53v-.9h.95v-.5h-.95v-.9ZM151.73,55.6h-.53v.9h-.95v.5h.95v.9h.53v-.9h.95v-.5h-.95v-.9ZM151.73,34.12h-.53v.9h-.95v.5h.95v.9h.53v-.9h.95v-.5h-.95v-.9ZM151.73,29.81h-.53v.9h-.95v.5h.95v.9h.53v-.9h.95v-.5h-.95v-.9ZM151.73,38.44h-.53v.9h-.95v.5h.95v.9h.53v-.9h.95v-.5h-.95v-.9ZM151.73,42.76h-.53v.9h-.95v.5h.95v.9h.53v-.9h.95v-.5h-.95v-.9ZM151.73,51.28h-.53v.9h-.95v.5h.95v.9h.53v-.9h.95v-.5h-.95v-.9ZM175.43,98.95h-.53v.9h-.95v.5h.95v.9h.53v-.9h.95v-.5h-.95v-.9ZM151.73,46.96h-.53v.9h-.95v.5h.95v.9h.53v-.9h.95v-.5h-.95v-.9ZM151.73-4.86h-.53v.9h-.95v.5h.95v.9h.53v-.9h.95v-.5h-.95v-.9ZM151.73-.54h-.53V.35h-.95v.5h.95v.9h.53v-.9h.95v-.5h-.95v-.9ZM151.73,3.78h-.53v.9h-.95v.5h.95v.9h.53v-.9h.95v-.5h-.95v-.9ZM151.73,16.73h-.53v.9h-.95v.5h.95v.9h.53v-.9h.95v-.5h-.95v-.9ZM151.73,8.09h-.53v.9h-.95v.5h.95v.9h.53v-.9h.95v-.5h-.95v-.9ZM151.73,12.41h-.53v.9h-.95v.5h.95v.9h.53v-.9h.95v-.5h-.95v-.9ZM151.73,25.49h-.53v.9h-.95v.5h.95v.9h.53v-.9h.95v-.5h-.95v-.9ZM170.69,68.55h-.53v.9h-.95v.5h.95v.9h.53v-.9h.95v-.5h-.95v-.9ZM170.69,103.27h-.53v.9h-.95v.5h.95v.9h.53v-.9h.95v-.5h-.95v-.9ZM170.69,77.31h-.53v.9h-.95v.5h.95v.9h.53v-.9h.95v-.5h-.95v-.9ZM170.69,72.99h-.53v.9h-.95v.5h.95v.9h.53v-.9h.95v-.5h-.95v-.9ZM170.69,85.94h-.53v.9h-.95v.5h.95v.9h.53v-.9h.95v-.5h-.95v-.9ZM170.69,90.26h-.53v.9h-.95v.5h.95v.9h.53v-.9h.95v-.5h-.95v-.9ZM170.69,98.95h-.53v.9h-.95v.5h.95v.9h.53v-.9h.95v-.5h-.95v-.9ZM170.69,34.12h-.53v.9h-.95v.5h.95v.9h.53v-.9h.95v-.5h-.95v-.9ZM170.69,81.63h-.53v.9h-.95v.5h.95v.9h.53v-.9h.95v-.5h-.95v-.9ZM170.69,42.76h-.53v.9h-.95v.5h.95v.9h.53v-.9h.95v-.5h-.95v-.9ZM170.69,64.23h-.53v.9h-.95v.5h.95v.9h.53v-.9h.95v-.5h-.95v-.9ZM170.69,46.96h-.53v.9h-.95v.5h.95v.9h.53v-.9h.95v-.5h-.95v-.9ZM170.69,38.44h-.53v.9h-.95v.5h.95v.9h.53v-.9h.95v-.5h-.95v-.9ZM170.69,51.28h-.53v.9h-.95v.5h.95v.9h.53v-.9h.95v-.5h-.95v-.9ZM170.69,59.91h-.53v.9h-.95v.5h.95v.9h.53v-.9h.95v-.5h-.95v-.9ZM170.69,55.6h-.53v.9h-.95v.5h.95v.9h.53v-.9h.95v-.5h-.95v-.9ZM170.69,94.58h-.53v.9h-.95v.5h.95v.9h.53v-.9h.95v-.5h-.95v-.9ZM170.69,107.59h-.53v.9h-.95v.5h.95v.9h.53v-.9h.95v-.5h-.95v-.9ZM161.21,42.76h-.53v.9h-.95v.5h.95v.9h.53v-.9h.95v-.5h-.95v-.9ZM175.43,107.59h-.53v.9h-.95v.5h.95v.9h.53v-.9h.95v-.5h-.95v-.9ZM175.43,103.27h-.53v.9h-.95v.5h.95v.9h.53v-.9h.95v-.5h-.95v-.9ZM170.69,8.09h-.53v.9h-.95v.5h.95v.9h.53v-.9h.95v-.5h-.95v-.9ZM170.69,3.78h-.53v.9h-.95v.5h.95v.9h.53v-.9h.95v-.5h-.95v-.9ZM170.69,12.41h-.53v.9h-.95v.5h.95v.9h.53v-.9h.95v-.5h-.95v-.9ZM170.69,16.73h-.53v.9h-.95v.5h.95v.9h.53v-.9h.95v-.5h-.95v-.9ZM170.69,25.49h-.53v.9h-.95v.5h.95v.9h.53v-.9h.95v-.5h-.95v-.9ZM170.69-.54h-.53V.35h-.95v.5h.95v.9h.53v-.9h.95v-.5h-.95v-.9ZM170.69,21.17h-.53v.9h-.95v.5h.95v.9h.53v-.9h.95v-.5h-.95v-.9ZM170.69,29.81h-.53v.9h-.95v.5h.95v.9h.53v-.9h.95v-.5h-.95v-.9ZM170.69-4.86h-.53v.9h-.95v.5h.95v.9h.53v-.9h.95v-.5h-.95v-.9ZM161.21,12.41h-.53v.9h-.95v.5h.95v.9h.53v-.9h.95v-.5h-.95v-.9ZM161.21,21.17h-.53v.9h-.95v.5h.95v.9h.53v-.9h.95v-.5h-.95v-.9ZM161.21,16.73h-.53v.9h-.95v.5h.95v.9h.53v-.9h.95v-.5h-.95v-.9ZM161.21,25.49h-.53v.9h-.95v.5h.95v.9h.53v-.9h.95v-.5h-.95v-.9ZM161.21,29.81h-.53v.9h-.95v.5h.95v.9h.53v-.9h.95v-.5h-.95v-.9ZM161.21,34.12h-.53v.9h-.95v.5h.95v.9h.53v-.9h.95v-.5h-.95v-.9ZM161.21,38.44h-.53v.9h-.95v.5h.95v.9h.53v-.9h.95v-.5h-.95v-.9ZM161.21,8.09h-.53v.9h-.95v.5h.95v.9h.53v-.9h.95v-.5h-.95v-.9ZM161.21,3.78h-.53v.9h-.95v.5h.95v.9h.53v-.9h.95v-.5h-.95v-.9ZM161.21-4.86h-.53v.9h-.95v.5h.95v.9h.53v-.9h.95v-.5h-.95v-.9ZM161.21-.54h-.53V.35h-.95v.5h.95v.9h.53v-.9h.95v-.5h-.95v-.9ZM165.95,21.17h-.53v.9h-.95v.5h.95v.9h.53v-.9h.95v-.5h-.95v-.9ZM165.95,16.73h-.53v.9h-.95v.5h.95v.9h.53v-.9h.95v-.5h-.95v-.9ZM165.95,12.41h-.53v.9h-.95v.5h.95v.9h.53v-.9h.95v-.5h-.95v-.9ZM165.95,3.78h-.53v.9h-.95v.5h.95v.9h.53v-.9h.95v-.5h-.95v-.9ZM165.95,8.09h-.53v.9h-.95v.5h.95v.9h.53v-.9h.95v-.5h-.95v-.9ZM165.95,25.49h-.53v.9h-.95v.5h.95v.9h.53v-.9h.95v-.5h-.95v-.9ZM165.95,34.12h-.53v.9h-.95v.5h.95v.9h.53v-.9h.95v-.5h-.95v-.9ZM165.95,29.81h-.53v.9h-.95v.5h.95v.9h.53v-.9h.95v-.5h-.95v-.9ZM165.95-4.86h-.53v.9h-.95v.5h.95v.9h.53v-.9h.95v-.5h-.95v-.9ZM165.95-.54h-.53V.35h-.95v.5h.95v.9h.53v-.9h.95v-.5h-.95v-.9ZM165.95,38.44h-.53v.9h-.95v.5h.95v.9h.53v-.9h.95v-.5h-.95v-.9ZM165.95,72.99h-.53v.9h-.95v.5h.95v.9h.53v-.9h.95v-.5h-.95v-.9ZM165.95,85.94h-.53v.9h-.95v.5h.95v.9h.53v-.9h.95v-.5h-.95v-.9ZM165.95,90.26h-.53v.9h-.95v.5h.95v.9h.53v-.9h.95v-.5h-.95v-.9ZM165.95,81.63h-.53v.9h-.95v.5h.95v.9h.53v-.9h.95v-.5h-.95v-.9ZM165.95,103.27h-.53v.9h-.95v.5h.95v.9h.53v-.9h.95v-.5h-.95v-.9ZM165.95,94.58h-.53v.9h-.95v.5h.95v.9h.53v-.9h.95v-.5h-.95v-.9ZM165.95,77.31h-.53v.9h-.95v.5h.95v.9h.53v-.9h.95v-.5h-.95v-.9ZM165.95,98.95h-.53v.9h-.95v.5h.95v.9h.53v-.9h.95v-.5h-.95v-.9ZM165.95,51.28h-.53v.9h-.95v.5h.95v.9h.53v-.9h.95v-.5h-.95v-.9ZM165.95,42.76h-.53v.9h-.95v.5h.95v.9h.53v-.9h.95v-.5h-.95v-.9ZM165.95,55.6h-.53v.9h-.95v.5h.95v.9h.53v-.9h.95v-.5h-.95v-.9ZM165.95,46.96h-.53v.9h-.95v.5h.95v.9h.53v-.9h.95v-.5h-.95v-.9ZM165.95,59.91h-.53v.9h-.95v.5h.95v.9h.53v-.9h.95v-.5h-.95v-.9ZM165.95,107.59h-.53v.9h-.95v.5h.95v.9h.53v-.9h.95v-.5h-.95v-.9ZM165.95,68.55h-.53v.9h-.95v.5h.95v.9h.53v-.9h.95v-.5h-.95v-.9ZM165.95,64.23h-.53v.9h-.95v.5h.95v.9h.53v-.9h.95v-.5h-.95v-.9ZM132.74,64.15h-.53v.9h-.95v.5h.95v.9h.53v-.9h.95v-.5h-.95v-.9ZM28.43,90.11h-.53v.9h-.95v.5h.95v.9h.53v-.9h.95v-.5h-.95v-.9ZM28.43,98.8h-.53v.9h-.95v.5h.95v.9h.53v-.9h.95v-.5h-.95v-.9ZM23.69,16.58h-.53v.9h-.95v.5h.95v.9h.53v-.9h.95v-.5h-.95v-.9ZM28.43,103.12h-.53v.9h-.95v.5h.95v.9h.53v-.9h.95v-.5h-.95v-.9ZM28.43,107.44h-.53v.9h-.95v.5h.95v.9h.53v-.9h.95v-.5h-.95v-.9ZM23.69-.69h-.53V.2h-.95v.5h.95v.9h.53v-.9h.95V.2h-.95v-.9ZM23.69-5.01h-.53v.9h-.95v.5h.95v.9h.53v-.9h.95v-.5h-.95v-.9ZM23.69,12.26h-.53v.9h-.95v.5h.95v.9h.53v-.9h.95v-.5h-.95v-.9ZM23.69,7.94h-.53v.9h-.95v.5h.95v.9h.53v-.9h.95v-.5h-.95v-.9ZM23.69,3.62h-.53v.9h-.95v.5h.95v.9h.53v-.9h.95v-.5h-.95v-.9ZM28.43,94.43h-.53v.9h-.95v.5h.95v.9h.53v-.9h.95v-.5h-.95v-.9ZM28.43-5.01h-.53v.9h-.95v.5h.95v.9h.53v-.9h.95v-.5h-.95v-.9ZM28.43,81.47h-.53v.9h-.95v.5h.95v.9h.53v-.9h.95v-.5h-.95v-.9ZM28.43,12.26h-.53v.9h-.95v.5h.95v.9h.53v-.9h.95v-.5h-.95v-.9ZM28.43-.69h-.53V.2h-.95v.5h.95v.9h.53v-.9h.95V.2h-.95v-.9ZM28.43,7.94h-.53v.9h-.95v.5h.95v.9h.53v-.9h.95v-.5h-.95v-.9ZM18.95,98.8h-.53v.9h-.95v.5h.95v.9h.53v-.9h.95v-.5h-.95v-.9ZM28.43,3.62h-.53v.9h-.95v.5h.95v.9h.53v-.9h.95v-.5h-.95v-.9ZM28.43,59.76h-.53v.9h-.95v.5h.95v.9h.53v-.9h.95v-.5h-.95v-.9ZM28.43,64.08h-.53v.9h-.95v.5h.95v.9h.53v-.9h.95v-.5h-.95v-.9ZM28.43,55.44h-.53v.9h-.95v.5h.95v.9h.53v-.9h.95v-.5h-.95v-.9ZM28.43,77.16h-.53v.9h-.95v.5h.95v.9h.53v-.9h.95v-.5h-.95v-.9ZM28.43,16.58h-.53v.9h-.95v.5h.95v.9h.53v-.9h.95v-.5h-.95v-.9ZM28.43,72.84h-.53v.9h-.95v.5h.95v.9h.53v-.9h.95v-.5h-.95v-.9ZM28.43,68.4h-.53v.9h-.95v.5h.95v.9h.53v-.9h.95v-.5h-.95v-.9ZM28.43,51.13h-.53v.9h-.95v.5h.95v.9h.53v-.9h.95v-.5h-.95v-.9ZM28.43,25.34h-.53v.9h-.95v.5h.95v.9h.53v-.9h.95v-.5h-.95v-.9ZM28.43,29.65h-.53v.9h-.95v.5h.95v.9h.53v-.9h.95v-.5h-.95v-.9ZM28.43,21.02h-.53v.9h-.95v.5h.95v.9h.53v-.9h.95v-.5h-.95v-.9ZM28.43,38.29h-.53v.9h-.95v.5h.95v.9h.53v-.9h.95v-.5h-.95v-.9ZM28.43,42.61h-.53v.9h-.95v.5h.95v.9h.53v-.9h.95v-.5h-.95v-.9ZM28.43,33.97h-.53v.9h-.95v.5h.95v.9h.53v-.9h.95v-.5h-.95v-.9ZM28.43,46.81h-.53v.9h-.95v.5h.95v.9h.53v-.9h.95v-.5h-.95v-.9ZM28.43,85.79h-.53v.9h-.95v.5h.95v.9h.53v-.9h.95v-.5h-.95v-.9ZM18.95,7.94h-.53v.9h-.95v.5h.95v.9h.53v-.9h.95v-.5h-.95v-.9ZM18.95-.69h-.53V.2h-.95v.5h.95v.9h.53v-.9h.95V.2h-.95v-.9ZM18.95-5.01h-.53v.9h-.95v.5h.95v.9h.53v-.9h.95v-.5h-.95v-.9ZM18.95,16.58h-.53v.9h-.95v.5h.95v.9h.53v-.9h.95v-.5h-.95v-.9ZM18.95,25.34h-.53v.9h-.95v.5h.95v.9h.53v-.9h.95v-.5h-.95v-.9ZM18.95,21.02h-.53v.9h-.95v.5h.95v.9h.53v-.9h.95v-.5h-.95v-.9ZM18.95,29.65h-.53v.9h-.95v.5h.95v.9h.53v-.9h.95v-.5h-.95v-.9ZM18.95,12.26h-.53v.9h-.95v.5h.95v.9h.53v-.9h.95v-.5h-.95v-.9ZM18.95,77.16h-.53v.9h-.95v.5h.95v.9h.53v-.9h.95v-.5h-.95v-.9ZM18.95,81.47h-.53v.9h-.95v.5h.95v.9h.53v-.9h.95v-.5h-.95v-.9ZM18.95,68.4h-.53v.9h-.95v.5h.95v.9h.53v-.9h.95v-.5h-.95v-.9ZM23.69,21.02h-.53v.9h-.95v.5h.95v.9h.53v-.9h.95v-.5h-.95v-.9ZM18.95,85.79h-.53v.9h-.95v.5h.95v.9h.53v-.9h.95v-.5h-.95v-.9ZM18.95,94.43h-.53v.9h-.95v.5h.95v.9h.53v-.9h.95v-.5h-.95v-.9ZM18.95,90.11h-.53v.9h-.95v.5h.95v.9h.53v-.9h.95v-.5h-.95v-.9ZM18.95,55.44h-.53v.9h-.95v.5h.95v.9h.53v-.9h.95v-.5h-.95v-.9ZM18.95,42.61h-.53v.9h-.95v.5h.95v.9h.53v-.9h.95v-.5h-.95v-.9ZM18.95,64.08h-.53v.9h-.95v.5h.95v.9h.53v-.9h.95v-.5h-.95v-.9ZM18.95,46.81h-.53v.9h-.95v.5h.95v.9h.53v-.9h.95v-.5h-.95v-.9ZM18.95,38.29h-.53v.9h-.95v.5h.95v.9h.53v-.9h.95v-.5h-.95v-.9ZM18.95,51.13h-.53v.9h-.95v.5h.95v.9h.53v-.9h.95v-.5h-.95v-.9ZM18.95,59.76h-.53v.9h-.95v.5h.95v.9h.53v-.9h.95v-.5h-.95v-.9ZM18.95,33.97h-.53v.9h-.95v.5h.95v.9h.53v-.9h.95v-.5h-.95v-.9ZM18.95,72.84h-.53v.9h-.95v.5h.95v.9h.53v-.9h.95v-.5h-.95v-.9ZM23.69,64.08h-.53v.9h-.95v.5h.95v.9h.53v-.9h.95v-.5h-.95v-.9ZM23.69,72.84h-.53v.9h-.95v.5h.95v.9h.53v-.9h.95v-.5h-.95v-.9ZM23.69,68.4h-.53v.9h-.95v.5h.95v.9h.53v-.9h.95v-.5h-.95v-.9ZM23.69,59.76h-.53v.9h-.95v.5h.95v.9h.53v-.9h.95v-.5h-.95v-.9ZM23.69,81.47h-.53v.9h-.95v.5h.95v.9h.53v-.9h.95v-.5h-.95v-.9ZM23.69,85.79h-.53v.9h-.95v.5h.95v.9h.53v-.9h.95v-.5h-.95v-.9ZM23.69,55.44h-.53v.9h-.95v.5h.95v.9h.53v-.9h.95v-.5h-.95v-.9ZM23.69,77.16h-.53v.9h-.95v.5h.95v.9h.53v-.9h.95v-.5h-.95v-.9ZM23.69,29.65h-.53v.9h-.95v.5h.95v.9h.53v-.9h.95v-.5h-.95v-.9ZM23.69,90.11h-.53v.9h-.95v.5h.95v.9h.53v-.9h.95v-.5h-.95v-.9ZM23.69,25.34h-.53v.9h-.95v.5h.95v.9h.53v-.9h.95v-.5h-.95v-.9ZM23.69,33.97h-.53v.9h-.95v.5h.95v.9h.53v-.9h.95v-.5h-.95v-.9ZM23.69,42.61h-.53v.9h-.95v.5h.95v.9h.53v-.9h.95v-.5h-.95v-.9ZM23.69,38.29h-.53v.9h-.95v.5h.95v.9h.53v-.9h.95v-.5h-.95v-.9ZM23.69,46.81h-.53v.9h-.95v.5h.95v.9h.53v-.9h.95v-.5h-.95v-.9ZM23.69,51.13h-.53v.9h-.95v.5h.95v.9h.53v-.9h.95v-.5h-.95v-.9ZM23.69,98.8h-.53v.9h-.95v.5h.95v.9h.53v-.9h.95v-.5h-.95v-.9ZM23.69,94.43h-.53v.9h-.95v.5h.95v.9h.53v-.9h.95v-.5h-.95v-.9ZM23.69,107.44h-.53v.9h-.95v.5h.95v.9h.53v-.9h.95v-.5h-.95v-.9ZM23.69,103.12h-.53v.9h-.95v.5h.95v.9h.53v-.9h.95v-.5h-.95v-.9ZM37.91-5.01h-.53v.9h-.95v.5h.95v.9h.53v-.9h.95v-.5h-.95v-.9ZM37.91-.69h-.53V.2h-.95v.5h.95v.9h.53v-.9h.95V.2h-.95v-.9ZM37.91,51.13h-.53v.9h-.95v.5h.95v.9h.53v-.9h.95v-.5h-.95v-.9ZM37.91,46.81h-.53v.9h-.95v.5h.95v.9h.53v-.9h.95v-.5h-.95v-.9ZM37.91,42.61h-.53v.9h-.95v.5h.95v.9h.53v-.9h.95v-.5h-.95v-.9ZM37.91,3.62h-.53v.9h-.95v.5h.95v.9h.53v-.9h.95v-.5h-.95v-.9ZM37.91,64.08h-.53v.9h-.95v.5h.95v.9h.53v-.9h.95v-.5h-.95v-.9ZM37.91,38.29h-.53v.9h-.95v.5h.95v.9h.53v-.9h.95v-.5h-.95v-.9ZM37.91,55.44h-.53v.9h-.95v.5h.95v.9h.53v-.9h.95v-.5h-.95v-.9ZM37.91,59.76h-.53v.9h-.95v.5h.95v.9h.53v-.9h.95v-.5h-.95v-.9ZM37.91,12.26h-.53v.9h-.95v.5h.95v.9h.53v-.9h.95v-.5h-.95v-.9ZM37.91,16.58h-.53v.9h-.95v.5h.95v.9h.53v-.9h.95v-.5h-.95v-.9ZM37.91,33.97h-.53v.9h-.95v.5h.95v.9h.53v-.9h.95v-.5h-.95v-.9ZM37.91,7.94h-.53v.9h-.95v.5h.95v.9h.53v-.9h.95v-.5h-.95v-.9ZM37.91,21.02h-.53v.9h-.95v.5h.95v.9h.53v-.9h.95v-.5h-.95v-.9ZM37.91,29.65h-.53v.9h-.95v.5h.95v.9h.53v-.9h.95v-.5h-.95v-.9ZM37.91,25.34h-.53v.9h-.95v.5h.95v.9h.53v-.9h.95v-.5h-.95v-.9ZM42.65,25.34h-.53v.9h-.95v.5h.95v.9h.53v-.9h.95v-.5h-.95v-.9ZM42.65,38.29h-.53v.9h-.95v.5h.95v.9h.53v-.9h.95v-.5h-.95v-.9ZM42.65,29.65h-.53v.9h-.95v.5h.95v.9h.53v-.9h.95v-.5h-.95v-.9ZM42.65,42.61h-.53v.9h-.95v.5h.95v.9h.53v-.9h.95v-.5h-.95v-.9ZM42.65,64.08h-.53v.9h-.95v.5h.95v.9h.53v-.9h.95v-.5h-.95v-.9ZM42.65,51.13h-.53v.9h-.95v.5h.95v.9h.53v-.9h.95v-.5h-.95v-.9ZM42.65,59.76h-.53v.9h-.95v.5h.95v.9h.53v-.9h.95v-.5h-.95v-.9ZM42.65,55.44h-.53v.9h-.95v.5h.95v.9h.53v-.9h.95v-.5h-.95v-.9ZM42.65,33.97h-.53v.9h-.95v.5h.95v.9h.53v-.9h.95v-.5h-.95v-.9ZM42.65,3.62h-.53v.9h-.95v.5h.95v.9h.53v-.9h.95v-.5h-.95v-.9ZM37.91,68.4h-.53v.9h-.95v.5h.95v.9h.53v-.9h.95v-.5h-.95v-.9ZM42.65,7.94h-.53v.9h-.95v.5h.95v.9h.53v-.9h.95v-.5h-.95v-.9ZM42.65-.69h-.53V.2h-.95v.5h.95v.9h.53v-.9h.95V.2h-.95v-.9ZM42.65,21.02h-.53v.9h-.95v.5h.95v.9h.53v-.9h.95v-.5h-.95v-.9ZM42.65,16.58h-.53v.9h-.95v.5h.95v.9h.53v-.9h.95v-.5h-.95v-.9ZM42.65,12.26h-.53v.9h-.95v.5h.95v.9h.53v-.9h.95v-.5h-.95v-.9ZM42.65,46.81h-.53v.9h-.95v.5h.95v.9h.53v-.9h.95v-.5h-.95v-.9ZM42.65,103.12h-.53v.9h-.95v.5h.95v.9h.53v-.9h.95v-.5h-.95v-.9ZM42.65,68.4h-.53v.9h-.95v.5h.95v.9h.53v-.9h.95v-.5h-.95v-.9ZM42.65,107.44h-.53v.9h-.95v.5h.95v.9h.53v-.9h.95v-.5h-.95v-.9ZM42.65,77.16h-.53v.9h-.95v.5h.95v.9h.53v-.9h.95v-.5h-.95v-.9ZM42.65,81.47h-.53v.9h-.95v.5h.95v.9h.53v-.9h.95v-.5h-.95v-.9ZM42.65,72.84h-.53v.9h-.95v.5h.95v.9h.53v-.9h.95v-.5h-.95v-.9ZM42.65,94.43h-.53v.9h-.95v.5h.95v.9h.53v-.9h.95v-.5h-.95v-.9ZM42.65,98.8h-.53v.9h-.95v.5h.95v.9h.53v-.9h.95v-.5h-.95v-.9ZM42.65,90.11h-.53v.9h-.95v.5h.95v.9h.53v-.9h.95v-.5h-.95v-.9ZM42.65,85.79h-.53v.9h-.95v.5h.95v.9h.53v-.9h.95v-.5h-.95v-.9ZM33.17,55.44h-.53v.9h-.95v.5h.95v.9h.53v-.9h.95v-.5h-.95v-.9ZM33.17,51.13h-.53v.9h-.95v.5h.95v.9h.53v-.9h.95v-.5h-.95v-.9ZM33.17,59.76h-.53v.9h-.95v.5h.95v.9h.53v-.9h.95v-.5h-.95v-.9ZM37.91,72.84h-.53v.9h-.95v.5h.95v.9h.53v-.9h.95v-.5h-.95v-.9ZM33.17,64.08h-.53v.9h-.95v.5h.95v.9h.53v-.9h.95v-.5h-.95v-.9ZM33.17,72.84h-.53v.9h-.95v.5h.95v.9h.53v-.9h.95v-.5h-.95v-.9ZM33.17,42.61h-.53v.9h-.95v.5h.95v.9h.53v-.9h.95v-.5h-.95v-.9ZM33.17,68.4h-.53v.9h-.95v.5h.95v.9h.53v-.9h.95v-.5h-.95v-.9ZM33.17,12.26h-.53v.9h-.95v.5h.95v.9h.53v-.9h.95v-.5h-.95v-.9ZM33.17,16.58h-.53v.9h-.95v.5h.95v.9h.53v-.9h.95v-.5h-.95v-.9ZM33.17,77.16h-.53v.9h-.95v.5h.95v.9h.53v-.9h.95v-.5h-.95v-.9ZM33.17,21.02h-.53v.9h-.95v.5h.95v.9h.53v-.9h.95v-.5h-.95v-.9ZM33.17,29.65h-.53v.9h-.95v.5h.95v.9h.53v-.9h.95v-.5h-.95v-.9ZM33.17,33.97h-.53v.9h-.95v.5h.95v.9h.53v-.9h.95v-.5h-.95v-.9ZM33.17,25.34h-.53v.9h-.95v.5h.95v.9h.53v-.9h.95v-.5h-.95v-.9ZM33.17,38.29h-.53v.9h-.95v.5h.95v.9h.53v-.9h.95v-.5h-.95v-.9ZM33.17,7.94h-.53v.9h-.95v.5h.95v.9h.53v-.9h.95v-.5h-.95v-.9ZM33.17,103.12h-.53v.9h-.95v.5h.95v.9h.53v-.9h.95v-.5h-.95v-.9ZM33.17,90.11h-.53v.9h-.95v.5h.95v.9h.53v-.9h.95v-.5h-.95v-.9ZM33.17,85.79h-.53v.9h-.95v.5h.95v.9h.53v-.9h.95v-.5h-.95v-.9ZM33.17,94.43h-.53v.9h-.95v.5h.95v.9h.53v-.9h.95v-.5h-.95v-.9ZM33.17,98.8h-.53v.9h-.95v.5h.95v.9h.53v-.9h.95v-.5h-.95v-.9ZM33.17,107.44h-.53v.9h-.95v.5h.95v.9h.53v-.9h.95v-.5h-.95v-.9ZM33.17,81.47h-.53v.9h-.95v.5h.95v.9h.53v-.9h.95v-.5h-.95v-.9ZM33.17,46.81h-.53v.9h-.95v.5h.95v.9h.53v-.9h.95v-.5h-.95v-.9ZM33.17,3.62h-.53v.9h-.95v.5h.95v.9h.53v-.9h.95v-.5h-.95v-.9ZM37.91,107.44h-.53v.9h-.95v.5h.95v.9h.53v-.9h.95v-.5h-.95v-.9ZM37.91,81.47h-.53v.9h-.95v.5h.95v.9h.53v-.9h.95v-.5h-.95v-.9ZM37.91,103.12h-.53v.9h-.95v.5h.95v.9h.53v-.9h.95v-.5h-.95v-.9ZM37.91,85.79h-.53v.9h-.95v.5h.95v.9h.53v-.9h.95v-.5h-.95v-.9ZM37.91,77.16h-.53v.9h-.95v.5h.95v.9h.53v-.9h.95v-.5h-.95v-.9ZM37.91,98.8h-.53v.9h-.95v.5h.95v.9h.53v-.9h.95v-.5h-.95v-.9ZM37.91,94.43h-.53v.9h-.95v.5h.95v.9h.53v-.9h.95v-.5h-.95v-.9ZM37.91,90.11h-.53v.9h-.95v.5h.95v.9h.53v-.9h.95v-.5h-.95v-.9ZM33.17-.69h-.53V.2h-.95v.5h.95v.9h.53v-.9h.95V.2h-.95v-.9ZM33.17-5.01h-.53v.9h-.95v.5h.95v.9h.53v-.9h.95v-.5h-.95v-.9ZM-4.75,33.97h-.53v.9h-.95v.5h.95v.9h.53v-.9h.95v-.5h-.95v-.9ZM0,29.65h-.53v.9h-.95v.5h.95v.9H0v-.9h.95v-.5H0v-.9ZM0,21.02h-.53v.9h-.95v.5h.95v.9H0v-.9h.95v-.5H0v-.9ZM0,33.97h-.53v.9h-.95v.5h.95v.9H0v-.9h.95v-.5H0v-.9ZM0,25.34h-.53v.9h-.95v.5h.95v.9H0v-.9h.95v-.5H0v-.9ZM0,38.29h-.53v.9h-.95v.5h.95v.9H0v-.9h.95v-.5H0v-.9ZM0,42.61h-.53v.9h-.95v.5h.95v.9H0v-.9h.95v-.5H0v-.9ZM0,51.13h-.53v.9h-.95v.5h.95v.9H0v-.9h.95v-.5H0v-.9ZM0,46.81h-.53v.9h-.95v.5h.95v.9H0v-.9h.95v-.5H0v-.9ZM0,12.26h-.53v.9h-.95v.5h.95v.9H0v-.9h.95v-.5H0v-.9ZM0-5.01h-.53v.9h-.95v.5h.95v.9H0v-.9h.95v-.5H0v-.9ZM0-.69h-.53V.2h-.95v.5h.95v.9H0v-.9h.95V.2H0v-.9ZM0,55.44h-.53v.9h-.95v.5h.95v.9H0v-.9h.95v-.5H0v-.9ZM0,16.58h-.53v.9h-.95v.5h.95v.9H0v-.9h.95v-.5H0v-.9ZM0,7.94h-.53v.9h-.95v.5h.95v.9H0v-.9h.95v-.5H0v-.9ZM0,3.62h-.53v.9h-.95v.5h.95v.9H0v-.9h.95v-.5H0v-.9ZM0,72.84h-.53v.9h-.95v.5h.95v.9H0v-.9h.95v-.5H0v-.9ZM0,94.43h-.53v.9h-.95v.5h.95v.9H0v-.9h.95v-.5H0v-.9ZM0,103.12h-.53v.9h-.95v.5h.95v.9H0v-.9h.95v-.5H0v-.9ZM0,98.8h-.53v.9h-.95v.5h.95v.9H0v-.9h.95v-.5H0v-.9ZM0,107.44h-.53v.9h-.95v.5h.95v.9H0v-.9h.95v-.5H0v-.9ZM0,81.47h-.53v.9h-.95v.5h.95v.9H0v-.9h.95v-.5H0v-.9ZM0,68.4h-.53v.9h-.95v.5h.95v.9H0v-.9h.95v-.5H0v-.9ZM0,85.79h-.53v.9h-.95v.5h.95v.9H0v-.9h.95v-.5H0v-.9ZM0,90.11h-.53v.9h-.95v.5h.95v.9H0v-.9h.95v-.5H0v-.9ZM0,77.16h-.53v.9h-.95v.5h.95v.9H0v-.9h.95v-.5H0v-.9ZM0,59.76h-.53v.9h-.95v.5h.95v.9H0v-.9h.95v-.5H0v-.9ZM0,64.08h-.53v.9h-.95v.5h.95v.9H0v-.9h.95v-.5H0v-.9ZM4.73,103.12h-.53v.9h-.95v.5h.95v.9h.53v-.9h.95v-.5h-.95v-.9ZM4.73,85.79h-.53v.9h-.95v.5h.95v.9h.53v-.9h.95v-.5h-.95v-.9ZM4.73,90.11h-.53v.9h-.95v.5h.95v.9h.53v-.9h.95v-.5h-.95v-.9ZM4.73,107.44h-.53v.9h-.95v.5h.95v.9h.53v-.9h.95v-.5h-.95v-.9ZM4.73,94.43h-.53v.9h-.95v.5h.95v.9h.53v-.9h.95v-.5h-.95v-.9ZM4.73,64.08h-.53v.9h-.95v.5h.95v.9h.53v-.9h.95v-.5h-.95v-.9ZM4.73,81.47h-.53v.9h-.95v.5h.95v.9h.53v-.9h.95v-.5h-.95v-.9ZM4.73,55.44h-.53v.9h-.95v.5h.95v.9h.53v-.9h.95v-.5h-.95v-.9ZM4.73,59.76h-.53v.9h-.95v.5h.95v.9h.53v-.9h.95v-.5h-.95v-.9ZM4.73,68.4h-.53v.9h-.95v.5h.95v.9h.53v-.9h.95v-.5h-.95v-.9ZM4.73,77.16h-.53v.9h-.95v.5h.95v.9h.53v-.9h.95v-.5h-.95v-.9ZM4.73,72.84h-.53v.9h-.95v.5h.95v.9h.53v-.9h.95v-.5h-.95v-.9ZM4.73,98.8h-.53v.9h-.95v.5h.95v.9h.53v-.9h.95v-.5h-.95v-.9ZM-4.75,107.44h-.53v.9h-.95v.5h.95v.9h.53v-.9h.95v-.5h-.95v-.9ZM-4.75,103.12h-.53v.9h-.95v.5h.95v.9h.53v-.9h.95v-.5h-.95v-.9ZM-4.75,98.8h-.53v.9h-.95v.5h.95v.9h.53v-.9h.95v-.5h-.95v-.9ZM-4.75,72.84h-.53v.9h-.95v.5h.95v.9h.53v-.9h.95v-.5h-.95v-.9ZM-4.75,68.4h-.53v.9h-.95v.5h.95v.9h.53v-.9h.95v-.5h-.95v-.9ZM-4.75,77.16h-.53v.9h-.95v.5h.95v.9h.53v-.9h.95v-.5h-.95v-.9ZM-4.75,94.43h-.53v.9h-.95v.5h.95v.9h.53v-.9h.95v-.5h-.95v-.9ZM-4.75,90.11h-.53v.9h-.95v.5h.95v.9h.53v-.9h.95v-.5h-.95v-.9ZM-4.75,85.79h-.53v.9h-.95v.5h.95v.9h.53v-.9h.95v-.5h-.95v-.9ZM-4.75,81.47h-.53v.9h-.95v.5h.95v.9h.53v-.9h.95v-.5h-.95v-.9ZM-4.75,64.08h-.53v.9h-.95v.5h.95v.9h.53v-.9h.95v-.5h-.95v-.9ZM4.73,51.13h-.53v.9h-.95v.5h.95v.9h.53v-.9h.95v-.5h-.95v-.9ZM-4.75,21.02h-.53v.9h-.95v.5h.95v.9h.53v-.9h.95v-.5h-.95v-.9ZM-4.75,29.65h-.53v.9h-.95v.5h.95v.9h.53v-.9h.95v-.5h-.95v-.9ZM-4.75,38.29h-.53v.9h-.95v.5h.95v.9h.53v-.9h.95v-.5h-.95v-.9ZM42.65-5.01h-.53v.9h-.95v.5h.95v.9h.53v-.9h.95v-.5h-.95v-.9ZM-4.75,42.61h-.53v.9h-.95v.5h.95v.9h.53v-.9h.95v-.5h-.95v-.9ZM-4.75,46.81h-.53v.9h-.95v.5h.95v.9h.53v-.9h.95v-.5h-.95v-.9ZM-4.75,55.44h-.53v.9h-.95v.5h.95v.9h.53v-.9h.95v-.5h-.95v-.9ZM-4.75,51.13h-.53v.9h-.95v.5h.95v.9h.53v-.9h.95v-.5h-.95v-.9ZM-4.75,59.76h-.53v.9h-.95v.5h.95v.9h.53v-.9h.95v-.5h-.95v-.9ZM-4.75,3.62h-.53v.9h-.95v.5h.95v.9h.53v-.9h.95v-.5h-.95v-.9ZM-4.75,25.34h-.53v.9h-.95v.5h.95v.9h.53v-.9h.95v-.5h-.95v-.9ZM-4.75,7.94h-.53v.9h-.95v.5h.95v.9h.53v-.9h.95v-.5h-.95v-.9ZM-4.75-.69h-.53V.2h-.95v.5h.95v.9h.53v-.9h.95V.2h-.95v-.9ZM-4.75-5.01h-.53v.9h-.95v.5h.95v.9h.53v-.9h.95v-.5h-.95v-.9ZM-4.75,16.58h-.53v.9h-.95v.5h.95v.9h.53v-.9h.95v-.5h-.95v-.9ZM-4.75,12.26h-.53v.9h-.95v.5h.95v.9h.53v-.9h.95v-.5h-.95v-.9ZM14.21,85.79h-.53v.9h-.95v.5h.95v.9h.53v-.9h.95v-.5h-.95v-.9ZM14.21,90.11h-.53v.9h-.95v.5h.95v.9h.53v-.9h.95v-.5h-.95v-.9ZM14.21,81.47h-.53v.9h-.95v.5h.95v.9h.53v-.9h.95v-.5h-.95v-.9ZM14.21,72.84h-.53v.9h-.95v.5h.95v.9h.53v-.9h.95v-.5h-.95v-.9ZM14.21,77.16h-.53v.9h-.95v.5h.95v.9h.53v-.9h.95v-.5h-.95v-.9ZM14.21,94.43h-.53v.9h-.95v.5h.95v.9h.53v-.9h.95v-.5h-.95v-.9ZM14.21,103.12h-.53v.9h-.95v.5h.95v.9h.53v-.9h.95v-.5h-.95v-.9ZM14.21,107.44h-.53v.9h-.95v.5h.95v.9h.53v-.9h.95v-.5h-.95v-.9ZM14.21,98.8h-.53v.9h-.95v.5h.95v.9h.53v-.9h.95v-.5h-.95v-.9ZM14.21,68.4h-.53v.9h-.95v.5h.95v.9h.53v-.9h.95v-.5h-.95v-.9ZM14.21,46.81h-.53v.9h-.95v.5h.95v.9h.53v-.9h.95v-.5h-.95v-.9ZM14.21,42.61h-.53v.9h-.95v.5h.95v.9h.53v-.9h.95v-.5h-.95v-.9ZM14.21,51.13h-.53v.9h-.95v.5h.95v.9h.53v-.9h.95v-.5h-.95v-.9ZM14.21,64.08h-.53v.9h-.95v.5h.95v.9h.53v-.9h.95v-.5h-.95v-.9ZM14.21,38.29h-.53v.9h-.95v.5h.95v.9h.53v-.9h.95v-.5h-.95v-.9ZM14.21,59.76h-.53v.9h-.95v.5h.95v.9h.53v-.9h.95v-.5h-.95v-.9ZM14.21,55.44h-.53v.9h-.95v.5h.95v.9h.53v-.9h.95v-.5h-.95v-.9ZM18.95,107.44h-.53v.9h-.95v.5h.95v.9h.53v-.9h.95v-.5h-.95v-.9ZM4.73,46.81h-.53v.9h-.95v.5h.95v.9h.53v-.9h.95v-.5h-.95v-.9ZM14.21,25.34h-.53v.9h-.95v.5h.95v.9h.53v-.9h.95v-.5h-.95v-.9ZM14.21,12.26h-.53v.9h-.95v.5h.95v.9h.53v-.9h.95v-.5h-.95v-.9ZM14.21,7.94h-.53v.9h-.95v.5h.95v.9h.53v-.9h.95v-.5h-.95v-.9ZM14.21,16.58h-.53v.9h-.95v.5h.95v.9h.53v-.9h.95v-.5h-.95v-.9ZM14.21,33.97h-.53v.9h-.95v.5h.95v.9h.53v-.9h.95v-.5h-.95v-.9ZM14.21,21.02h-.53v.9h-.95v.5h.95v.9h.53v-.9h.95v-.5h-.95v-.9ZM14.21,29.65h-.53v.9h-.95v.5h.95v.9h.53v-.9h.95v-.5h-.95v-.9ZM14.21,3.62h-.53v.9h-.95v.5h.95v.9h.53v-.9h.95v-.5h-.95v-.9ZM14.21-.69h-.53V.2h-.95v.5h.95v.9h.53v-.9h.95V.2h-.95v-.9ZM14.21-5.01h-.53v.9h-.95v.5h.95v.9h.53v-.9h.95v-.5h-.95v-.9ZM18.95,103.12h-.53v.9h-.95v.5h.95v.9h.53v-.9h.95v-.5h-.95v-.9ZM4.73,21.02h-.53v.9h-.95v.5h.95v.9h.53v-.9h.95v-.5h-.95v-.9ZM4.73,25.34h-.53v.9h-.95v.5h.95v.9h.53v-.9h.95v-.5h-.95v-.9ZM4.73,29.65h-.53v.9h-.95v.5h.95v.9h.53v-.9h.95v-.5h-.95v-.9ZM4.73,16.58h-.53v.9h-.95v.5h.95v.9h.53v-.9h.95v-.5h-.95v-.9ZM4.73,42.61h-.53v.9h-.95v.5h.95v.9h.53v-.9h.95v-.5h-.95v-.9ZM4.73,38.29h-.53v.9h-.95v.5h.95v.9h.53v-.9h.95v-.5h-.95v-.9ZM4.73,33.97h-.53v.9h-.95v.5h.95v.9h.53v-.9h.95v-.5h-.95v-.9ZM4.73-5.01h-.53v.9h-.95v.5h.95v.9h.53v-.9h.95v-.5h-.95v-.9ZM4.73,7.94h-.53v.9h-.95v.5h.95v.9h.53v-.9h.95v-.5h-.95v-.9ZM4.73,12.26h-.53v.9h-.95v.5h.95v.9h.53v-.9h.95v-.5h-.95v-.9ZM4.73,3.62h-.53v.9h-.95v.5h.95v.9h.53v-.9h.95v-.5h-.95v-.9ZM4.73-.69h-.53V.2h-.95v.5h.95v.9h.53v-.9h.95V.2h-.95v-.9ZM9.47,16.58h-.53v.9h-.95v.5h.95v.9h.53v-.9h.95v-.5h-.95v-.9ZM9.47,21.02h-.53v.9h-.95v.5h.95v.9h.53v-.9h.95v-.5h-.95v-.9ZM9.47,25.34h-.53v.9h-.95v.5h.95v.9h.53v-.9h.95v-.5h-.95v-.9ZM9.47,42.61h-.53v.9h-.95v.5h.95v.9h.53v-.9h.95v-.5h-.95v-.9ZM9.47,29.65h-.53v.9h-.95v.5h.95v.9h.53v-.9h.95v-.5h-.95v-.9ZM9.47,38.29h-.53v.9h-.95v.5h.95v.9h.53v-.9h.95v-.5h-.95v-.9ZM9.47,33.97h-.53v.9h-.95v.5h.95v.9h.53v-.9h.95v-.5h-.95v-.9ZM9.47,12.26h-.53v.9h-.95v.5h.95v.9h.53v-.9h.95v-.5h-.95v-.9ZM9.47,3.62h-.53v.9h-.95v.5h.95v.9h.53v-.9h.95v-.5h-.95v-.9ZM9.47-.69h-.53V.2h-.95v.5h.95v.9h.53v-.9h.95V.2h-.95v-.9ZM9.47-5.01h-.53v.9h-.95v.5h.95v.9h.53v-.9h.95v-.5h-.95v-.9ZM9.47,7.94h-.53v.9h-.95v.5h.95v.9h.53v-.9h.95v-.5h-.95v-.9ZM9.47,81.47h-.53v.9h-.95v.5h.95v.9h.53v-.9h.95v-.5h-.95v-.9ZM9.47,85.79h-.53v.9h-.95v.5h.95v.9h.53v-.9h.95v-.5h-.95v-.9ZM9.47,94.43h-.53v.9h-.95v.5h.95v.9h.53v-.9h.95v-.5h-.95v-.9ZM9.47,90.11h-.53v.9h-.95v.5h.95v.9h.53v-.9h.95v-.5h-.95v-.9ZM9.47,107.44h-.53v.9h-.95v.5h.95v.9h.53v-.9h.95v-.5h-.95v-.9ZM9.47,103.12h-.53v.9h-.95v.5h.95v.9h.53v-.9h.95v-.5h-.95v-.9ZM9.47,98.8h-.53v.9h-.95v.5h.95v.9h.53v-.9h.95v-.5h-.95v-.9ZM9.47,46.81h-.53v.9h-.95v.5h.95v.9h.53v-.9h.95v-.5h-.95v-.9ZM9.47,59.76h-.53v.9h-.95v.5h.95v.9h.53v-.9h.95v-.5h-.95v-.9ZM9.47,55.44h-.53v.9h-.95v.5h.95v.9h.53v-.9h.95v-.5h-.95v-.9ZM9.47,51.13h-.53v.9h-.95v.5h.95v.9h.53v-.9h.95v-.5h-.95v-.9ZM9.47,68.4h-.53v.9h-.95v.5h.95v.9h.53v-.9h.95v-.5h-.95v-.9ZM9.47,72.84h-.53v.9h-.95v.5h.95v.9h.53v-.9h.95v-.5h-.95v-.9ZM9.47,64.08h-.53v.9h-.95v.5h.95v.9h.53v-.9h.95v-.5h-.95v-.9ZM9.47,77.16h-.53v.9h-.95v.5h.95v.9h.53v-.9h.95v-.5h-.95v-.9ZM66.38,90.19h-.53v.9h-.95v.5h.95v.9h.53v-.9h.95v-.5h-.95v-.9ZM80.6,85.87h-.53v.9h-.95v.5h.95v.9h.53v-.9h.95v-.5h-.95v-.9ZM80.6,94.5h-.53v.9h-.95v.5h.95v.9h.53v-.9h.95v-.5h-.95v-.9ZM80.6,90.19h-.53v.9h-.95v.5h.95v.9h.53v-.9h.95v-.5h-.95v-.9ZM80.6,98.88h-.53v.9h-.95v.5h.95v.9h.53v-.9h.95v-.5h-.95v-.9ZM80.6,107.51h-.53v.9h-.95v.5h.95v.9h.53v-.9h.95v-.5h-.95v-.9ZM80.6,103.2h-.53v.9h-.95v.5h.95v.9h.53v-.9h.95v-.5h-.95v-.9ZM75.86-4.94h-.53v.9h-.95v.5h.95v.9h.53v-.9h.95v-.5h-.95v-.9ZM75.86-.62h-.53V.28h-.95v.5h.95v.9h.53v-.9h.95v-.5h-.95v-.9ZM75.86,12.33h-.53v.9h-.95v.5h.95v.9h.53v-.9h.95v-.5h-.95v-.9ZM75.86,3.7h-.53v.9h-.95v.5h.95v.9h.53v-.9h.95v-.5h-.95v-.9ZM75.86,8.02h-.53v.9h-.95v.5h.95v.9h.53v-.9h.95v-.5h-.95v-.9ZM75.86,16.65h-.53v.9h-.95v.5h.95v.9h.53v-.9h.95v-.5h-.95v-.9ZM80.6-4.94h-.53v.9h-.95v.5h.95v.9h.53v-.9h.95v-.5h-.95v-.9ZM80.6,12.33h-.53v.9h-.95v.5h.95v.9h.53v-.9h.95v-.5h-.95v-.9ZM80.6,8.02h-.53v.9h-.95v.5h.95v.9h.53v-.9h.95v-.5h-.95v-.9ZM80.6-.62h-.53V.28h-.95v.5h.95v.9h.53v-.9h.95v-.5h-.95v-.9ZM80.6,3.7h-.53v.9h-.95v.5h.95v.9h.53v-.9h.95v-.5h-.95v-.9ZM80.6,81.55h-.53v.9h-.95v.5h.95v.9h.53v-.9h.95v-.5h-.95v-.9ZM80.6,59.84h-.53v.9h-.95v.5h.95v.9h.53v-.9h.95v-.5h-.95v-.9ZM80.6,55.52h-.53v.9h-.95v.5h.95v.9h.53v-.9h.95v-.5h-.95v-.9ZM80.6,64.15h-.53v.9h-.95v.5h.95v.9h.53v-.9h.95v-.5h-.95v-.9ZM80.6,51.2h-.53v.9h-.95v.5h.95v.9h.53v-.9h.95v-.5h-.95v-.9ZM80.6,16.65h-.53v.9h-.95v.5h.95v.9h.53v-.9h.95v-.5h-.95v-.9ZM80.6,68.47h-.53v.9h-.95v.5h.95v.9h.53v-.9h.95v-.5h-.95v-.9ZM80.6,72.92h-.53v.9h-.95v.5h.95v.9h.53v-.9h.95v-.5h-.95v-.9ZM80.6,77.23h-.53v.9h-.95v.5h.95v.9h.53v-.9h.95v-.5h-.95v-.9ZM80.6,25.41h-.53v.9h-.95v.5h.95v.9h.53v-.9h.95v-.5h-.95v-.9ZM80.6,29.73h-.53v.9h-.95v.5h.95v.9h.53v-.9h.95v-.5h-.95v-.9ZM80.6,21.1h-.53v.9h-.95v.5h.95v.9h.53v-.9h.95v-.5h-.95v-.9ZM80.6,34.05h-.53v.9h-.95v.5h.95v.9h.53v-.9h.95v-.5h-.95v-.9ZM80.6,46.88h-.53v.9h-.95v.5h.95v.9h.53v-.9h.95v-.5h-.95v-.9ZM80.6,42.68h-.53v.9h-.95v.5h.95v.9h.53v-.9h.95v-.5h-.95v-.9ZM80.6,38.37h-.53v.9h-.95v.5h.95v.9h.53v-.9h.95v-.5h-.95v-.9ZM71.12,3.7h-.53v.9h-.95v.5h.95v.9h.53v-.9h.95v-.5h-.95v-.9ZM75.86,21.1h-.53v.9h-.95v.5h.95v.9h.53v-.9h.95v-.5h-.95v-.9ZM71.12-.62h-.53V.28h-.95v.5h.95v.9h.53v-.9h.95v-.5h-.95v-.9ZM71.12,25.41h-.53v.9h-.95v.5h.95v.9h.53v-.9h.95v-.5h-.95v-.9ZM71.12,12.33h-.53v.9h-.95v.5h.95v.9h.53v-.9h.95v-.5h-.95v-.9ZM71.12,21.1h-.53v.9h-.95v.5h.95v.9h.53v-.9h.95v-.5h-.95v-.9ZM71.12,16.65h-.53v.9h-.95v.5h.95v.9h.53v-.9h.95v-.5h-.95v-.9ZM71.12-4.94h-.53v.9h-.95v.5h.95v.9h.53v-.9h.95v-.5h-.95v-.9ZM71.12,81.55h-.53v.9h-.95v.5h.95v.9h.53v-.9h.95v-.5h-.95v-.9ZM71.12,29.73h-.53v.9h-.95v.5h.95v.9h.53v-.9h.95v-.5h-.95v-.9ZM71.12,68.47h-.53v.9h-.95v.5h.95v.9h.53v-.9h.95v-.5h-.95v-.9ZM71.12,77.23h-.53v.9h-.95v.5h.95v.9h.53v-.9h.95v-.5h-.95v-.9ZM71.12,85.87h-.53v.9h-.95v.5h.95v.9h.53v-.9h.95v-.5h-.95v-.9ZM71.12,90.19h-.53v.9h-.95v.5h.95v.9h.53v-.9h.95v-.5h-.95v-.9ZM71.12,64.15h-.53v.9h-.95v.5h.95v.9h.53v-.9h.95v-.5h-.95v-.9ZM71.12,72.92h-.53v.9h-.95v.5h.95v.9h.53v-.9h.95v-.5h-.95v-.9ZM71.12,38.37h-.53v.9h-.95v.5h.95v.9h.53v-.9h.95v-.5h-.95v-.9ZM71.12,59.84h-.53v.9h-.95v.5h.95v.9h.53v-.9h.95v-.5h-.95v-.9ZM71.12,42.68h-.53v.9h-.95v.5h.95v.9h.53v-.9h.95v-.5h-.95v-.9ZM71.12,34.05h-.53v.9h-.95v.5h.95v.9h.53v-.9h.95v-.5h-.95v-.9ZM71.12,46.88h-.53v.9h-.95v.5h.95v.9h.53v-.9h.95v-.5h-.95v-.9ZM71.12,55.52h-.53v.9h-.95v.5h.95v.9h.53v-.9h.95v-.5h-.95v-.9ZM71.12,51.2h-.53v.9h-.95v.5h.95v.9h.53v-.9h.95v-.5h-.95v-.9ZM71.12,8.02h-.53v.9h-.95v.5h.95v.9h.53v-.9h.95v-.5h-.95v-.9ZM75.86,64.15h-.53v.9h-.95v.5h.95v.9h.53v-.9h.95v-.5h-.95v-.9ZM75.86,68.47h-.53v.9h-.95v.5h.95v.9h.53v-.9h.95v-.5h-.95v-.9ZM75.86,72.92h-.53v.9h-.95v.5h.95v.9h.53v-.9h.95v-.5h-.95v-.9ZM75.86,59.84h-.53v.9h-.95v.5h.95v.9h.53v-.9h.95v-.5h-.95v-.9ZM75.86,81.55h-.53v.9h-.95v.5h.95v.9h.53v-.9h.95v-.5h-.95v-.9ZM75.86,85.87h-.53v.9h-.95v.5h.95v.9h.53v-.9h.95v-.5h-.95v-.9ZM75.86,77.23h-.53v.9h-.95v.5h.95v.9h.53v-.9h.95v-.5h-.95v-.9ZM75.86,55.52h-.53v.9h-.95v.5h.95v.9h.53v-.9h.95v-.5h-.95v-.9ZM75.86,38.37h-.53v.9h-.95v.5h.95v.9h.53v-.9h.95v-.5h-.95v-.9ZM75.86,29.73h-.53v.9h-.95v.5h.95v.9h.53v-.9h.95v-.5h-.95v-.9ZM75.86,25.41h-.53v.9h-.95v.5h.95v.9h.53v-.9h.95v-.5h-.95v-.9ZM75.86,34.05h-.53v.9h-.95v.5h.95v.9h.53v-.9h.95v-.5h-.95v-.9ZM75.86,51.2h-.53v.9h-.95v.5h.95v.9h.53v-.9h.95v-.5h-.95v-.9ZM75.86,46.88h-.53v.9h-.95v.5h.95v.9h.53v-.9h.95v-.5h-.95v-.9ZM75.86,90.19h-.53v.9h-.95v.5h.95v.9h.53v-.9h.95v-.5h-.95v-.9ZM75.86,42.68h-.53v.9h-.95v.5h.95v.9h.53v-.9h.95v-.5h-.95v-.9ZM75.86,94.5h-.53v.9h-.95v.5h.95v.9h.53v-.9h.95v-.5h-.95v-.9ZM75.86,107.51h-.53v.9h-.95v.5h.95v.9h.53v-.9h.95v-.5h-.95v-.9ZM75.86,103.2h-.53v.9h-.95v.5h.95v.9h.53v-.9h.95v-.5h-.95v-.9ZM75.86,98.88h-.53v.9h-.95v.5h.95v.9h.53v-.9h.95v-.5h-.95v-.9ZM90.08-4.94h-.53v.9h-.95v.5h.95v.9h.53v-.9h.95v-.5h-.95v-.9ZM90.08-.62h-.53V.28h-.95v.5h.95v.9h.53v-.9h.95v-.5h-.95v-.9ZM90.08,3.7h-.53v.9h-.95v.5h.95v.9h.53v-.9h.95v-.5h-.95v-.9ZM90.08,42.68h-.53v.9h-.95v.5h.95v.9h.53v-.9h.95v-.5h-.95v-.9ZM90.08,51.2h-.53v.9h-.95v.5h.95v.9h.53v-.9h.95v-.5h-.95v-.9ZM90.08,38.37h-.53v.9h-.95v.5h.95v.9h.53v-.9h.95v-.5h-.95v-.9ZM90.08,64.15h-.53v.9h-.95v.5h.95v.9h.53v-.9h.95v-.5h-.95v-.9ZM90.08,55.52h-.53v.9h-.95v.5h.95v.9h.53v-.9h.95v-.5h-.95v-.9ZM90.08,59.84h-.53v.9h-.95v.5h.95v.9h.53v-.9h.95v-.5h-.95v-.9ZM90.08,46.88h-.53v.9h-.95v.5h.95v.9h.53v-.9h.95v-.5h-.95v-.9ZM90.08,16.65h-.53v.9h-.95v.5h.95v.9h.53v-.9h.95v-.5h-.95v-.9ZM90.08,12.33h-.53v.9h-.95v.5h.95v.9h.53v-.9h.95v-.5h-.95v-.9ZM90.08,8.02h-.53v.9h-.95v.5h.95v.9h.53v-.9h.95v-.5h-.95v-.9ZM90.08,29.73h-.53v.9h-.95v.5h.95v.9h.53v-.9h.95v-.5h-.95v-.9ZM90.08,21.1h-.53v.9h-.95v.5h.95v.9h.53v-.9h.95v-.5h-.95v-.9ZM90.08,34.05h-.53v.9h-.95v.5h.95v.9h.53v-.9h.95v-.5h-.95v-.9ZM90.08,25.41h-.53v.9h-.95v.5h.95v.9h.53v-.9h.95v-.5h-.95v-.9ZM94.82,77.23h-.53v.9h-.95v.5h.95v.9h.53v-.9h.95v-.5h-.95v-.9ZM94.82,46.88h-.53v.9h-.95v.5h.95v.9h.53v-.9h.95v-.5h-.95v-.9ZM94.82,42.68h-.53v.9h-.95v.5h.95v.9h.53v-.9h.95v-.5h-.95v-.9ZM94.82,38.37h-.53v.9h-.95v.5h.95v.9h.53v-.9h.95v-.5h-.95v-.9ZM94.82,34.05h-.53v.9h-.95v.5h.95v.9h.53v-.9h.95v-.5h-.95v-.9ZM94.82,51.2h-.53v.9h-.95v.5h.95v.9h.53v-.9h.95v-.5h-.95v-.9ZM94.82,29.73h-.53v.9h-.95v.5h.95v.9h.53v-.9h.95v-.5h-.95v-.9ZM94.82,64.15h-.53v.9h-.95v.5h.95v.9h.53v-.9h.95v-.5h-.95v-.9ZM94.82,55.52h-.53v.9h-.95v.5h.95v.9h.53v-.9h.95v-.5h-.95v-.9ZM94.82,8.02h-.53v.9h-.95v.5h.95v.9h.53v-.9h.95v-.5h-.95v-.9ZM94.82,3.7h-.53v.9h-.95v.5h.95v.9h.53v-.9h.95v-.5h-.95v-.9ZM94.82-.62h-.53V.28h-.95v.5h.95v.9h.53v-.9h.95v-.5h-.95v-.9ZM94.82,12.33h-.53v.9h-.95v.5h.95v.9h.53v-.9h.95v-.5h-.95v-.9ZM94.82,25.41h-.53v.9h-.95v.5h.95v.9h.53v-.9h.95v-.5h-.95v-.9ZM94.82,21.1h-.53v.9h-.95v.5h.95v.9h.53v-.9h.95v-.5h-.95v-.9ZM94.82,16.65h-.53v.9h-.95v.5h.95v.9h.53v-.9h.95v-.5h-.95v-.9ZM94.82,103.2h-.53v.9h-.95v.5h.95v.9h.53v-.9h.95v-.5h-.95v-.9ZM94.82,107.51h-.53v.9h-.95v.5h.95v.9h.53v-.9h.95v-.5h-.95v-.9ZM94.82,90.19h-.53v.9h-.95v.5h.95v.9h.53v-.9h.95v-.5h-.95v-.9ZM94.82,81.55h-.53v.9h-.95v.5h.95v.9h.53v-.9h.95v-.5h-.95v-.9ZM90.08,68.47h-.53v.9h-.95v.5h.95v.9h.53v-.9h.95v-.5h-.95v-.9ZM94.82,98.88h-.53v.9h-.95v.5h.95v.9h.53v-.9h.95v-.5h-.95v-.9ZM94.82,72.92h-.53v.9h-.95v.5h.95v.9h.53v-.9h.95v-.5h-.95v-.9ZM94.82,94.5h-.53v.9h-.95v.5h.95v.9h.53v-.9h.95v-.5h-.95v-.9ZM94.82,68.47h-.53v.9h-.95v.5h.95v.9h.53v-.9h.95v-.5h-.95v-.9ZM94.82,85.87h-.53v.9h-.95v.5h.95v.9h.53v-.9h.95v-.5h-.95v-.9ZM94.82,59.84h-.53v.9h-.95v.5h.95v.9h.53v-.9h.95v-.5h-.95v-.9ZM85.34,55.52h-.53v.9h-.95v.5h.95v.9h.53v-.9h.95v-.5h-.95v-.9ZM85.34,51.2h-.53v.9h-.95v.5h.95v.9h.53v-.9h.95v-.5h-.95v-.9ZM85.34,46.88h-.53v.9h-.95v.5h.95v.9h.53v-.9h.95v-.5h-.95v-.9ZM85.34,59.84h-.53v.9h-.95v.5h.95v.9h.53v-.9h.95v-.5h-.95v-.9ZM85.34,64.15h-.53v.9h-.95v.5h.95v.9h.53v-.9h.95v-.5h-.95v-.9ZM85.34,72.92h-.53v.9h-.95v.5h.95v.9h.53v-.9h.95v-.5h-.95v-.9ZM85.34,68.47h-.53v.9h-.95v.5h.95v.9h.53v-.9h.95v-.5h-.95v-.9ZM85.34,42.68h-.53v.9h-.95v.5h.95v.9h.53v-.9h.95v-.5h-.95v-.9ZM85.34,8.02h-.53v.9h-.95v.5h.95v.9h.53v-.9h.95v-.5h-.95v-.9ZM85.34,77.23h-.53v.9h-.95v.5h.95v.9h.53v-.9h.95v-.5h-.95v-.9ZM85.34,12.33h-.53v.9h-.95v.5h.95v.9h.53v-.9h.95v-.5h-.95v-.9ZM85.34,21.1h-.53v.9h-.95v.5h.95v.9h.53v-.9h.95v-.5h-.95v-.9ZM85.34,34.05h-.53v.9h-.95v.5h.95v.9h.53v-.9h.95v-.5h-.95v-.9ZM85.34,38.37h-.53v.9h-.95v.5h.95v.9h.53v-.9h.95v-.5h-.95v-.9ZM85.34,25.41h-.53v.9h-.95v.5h.95v.9h.53v-.9h.95v-.5h-.95v-.9ZM85.34,29.73h-.53v.9h-.95v.5h.95v.9h.53v-.9h.95v-.5h-.95v-.9ZM85.34,16.65h-.53v.9h-.95v.5h.95v.9h.53v-.9h.95v-.5h-.95v-.9ZM85.34,90.19h-.53v.9h-.95v.5h.95v.9h.53v-.9h.95v-.5h-.95v-.9ZM85.34,94.5h-.53v.9h-.95v.5h.95v.9h.53v-.9h.95v-.5h-.95v-.9ZM85.34,81.55h-.53v.9h-.95v.5h.95v.9h.53v-.9h.95v-.5h-.95v-.9ZM85.34,85.87h-.53v.9h-.95v.5h.95v.9h.53v-.9h.95v-.5h-.95v-.9ZM85.34,98.88h-.53v.9h-.95v.5h.95v.9h.53v-.9h.95v-.5h-.95v-.9ZM85.34,107.51h-.53v.9h-.95v.5h.95v.9h.53v-.9h.95v-.5h-.95v-.9ZM85.34,103.2h-.53v.9h-.95v.5h.95v.9h.53v-.9h.95v-.5h-.95v-.9ZM90.08,103.2h-.53v.9h-.95v.5h.95v.9h.53v-.9h.95v-.5h-.95v-.9ZM90.08,107.51h-.53v.9h-.95v.5h.95v.9h.53v-.9h.95v-.5h-.95v-.9ZM71.12,94.5h-.53v.9h-.95v.5h.95v.9h.53v-.9h.95v-.5h-.95v-.9ZM90.08,81.55h-.53v.9h-.95v.5h.95v.9h.53v-.9h.95v-.5h-.95v-.9ZM90.08,77.23h-.53v.9h-.95v.5h.95v.9h.53v-.9h.95v-.5h-.95v-.9ZM90.08,85.87h-.53v.9h-.95v.5h.95v.9h.53v-.9h.95v-.5h-.95v-.9ZM90.08,90.19h-.53v.9h-.95v.5h.95v.9h.53v-.9h.95v-.5h-.95v-.9ZM90.08,72.92h-.53v.9h-.95v.5h.95v.9h.53v-.9h.95v-.5h-.95v-.9ZM90.08,98.88h-.53v.9h-.95v.5h.95v.9h.53v-.9h.95v-.5h-.95v-.9ZM90.08,94.5h-.53v.9h-.95v.5h.95v.9h.53v-.9h.95v-.5h-.95v-.9ZM85.34-.62h-.53V.28h-.95v.5h.95v.9h.53v-.9h.95v-.5h-.95v-.9ZM85.34,3.7h-.53v.9h-.95v.5h.95v.9h.53v-.9h.95v-.5h-.95v-.9ZM85.34-4.94h-.53v.9h-.95v.5h.95v.9h.53v-.9h.95v-.5h-.95v-.9ZM52.16,29.73h-.53v.9h-.95v.5h.95v.9h.53v-.9h.95v-.5h-.95v-.9ZM52.16,25.41h-.53v.9h-.95v.5h.95v.9h.53v-.9h.95v-.5h-.95v-.9ZM52.16,16.65h-.53v.9h-.95v.5h.95v.9h.53v-.9h.95v-.5h-.95v-.9ZM52.16,21.1h-.53v.9h-.95v.5h.95v.9h.53v-.9h.95v-.5h-.95v-.9ZM52.16,34.05h-.53v.9h-.95v.5h.95v.9h.53v-.9h.95v-.5h-.95v-.9ZM52.16,46.88h-.53v.9h-.95v.5h.95v.9h.53v-.9h.95v-.5h-.95v-.9ZM52.16,42.68h-.53v.9h-.95v.5h.95v.9h.53v-.9h.95v-.5h-.95v-.9ZM52.16,38.37h-.53v.9h-.95v.5h.95v.9h.53v-.9h.95v-.5h-.95v-.9ZM52.16-4.94h-.53v.9h-.95v.5h.95v.9h.53v-.9h.95v-.5h-.95v-.9ZM52.16,51.2h-.53v.9h-.95v.5h.95v.9h.53v-.9h.95v-.5h-.95v-.9ZM52.16,8.02h-.53v.9h-.95v.5h.95v.9h.53v-.9h.95v-.5h-.95v-.9ZM52.16,12.33h-.53v.9h-.95v.5h.95v.9h.53v-.9h.95v-.5h-.95v-.9ZM71.12,98.88h-.53v.9h-.95v.5h.95v.9h.53v-.9h.95v-.5h-.95v-.9ZM52.16-.62h-.53V.28h-.95v.5h.95v.9h.53v-.9h.95v-.5h-.95v-.9ZM52.16,64.15h-.53v.9h-.95v.5h.95v.9h.53v-.9h.95v-.5h-.95v-.9ZM52.16,98.88h-.53v.9h-.95v.5h.95v.9h.53v-.9h.95v-.5h-.95v-.9ZM52.16,55.52h-.53v.9h-.95v.5h.95v.9h.53v-.9h.95v-.5h-.95v-.9ZM52.16,90.19h-.53v.9h-.95v.5h.95v.9h.53v-.9h.95v-.5h-.95v-.9ZM52.16,94.5h-.53v.9h-.95v.5h.95v.9h.53v-.9h.95v-.5h-.95v-.9ZM52.16,107.51h-.53v.9h-.95v.5h.95v.9h.53v-.9h.95v-.5h-.95v-.9ZM52.16,103.2h-.53v.9h-.95v.5h.95v.9h.53v-.9h.95v-.5h-.95v-.9ZM52.16,68.47h-.53v.9h-.95v.5h.95v.9h.53v-.9h.95v-.5h-.95v-.9ZM52.16,59.84h-.53v.9h-.95v.5h.95v.9h.53v-.9h.95v-.5h-.95v-.9ZM52.16,85.87h-.53v.9h-.95v.5h.95v.9h.53v-.9h.95v-.5h-.95v-.9ZM52.16,81.55h-.53v.9h-.95v.5h.95v.9h.53v-.9h.95v-.5h-.95v-.9ZM52.16,77.23h-.53v.9h-.95v.5h.95v.9h.53v-.9h.95v-.5h-.95v-.9ZM52.16,72.92h-.53v.9h-.95v.5h.95v.9h.53v-.9h.95v-.5h-.95v-.9ZM56.9,59.84h-.53v.9h-.95v.5h.95v.9h.53v-.9h.95v-.5h-.95v-.9ZM56.9,81.55h-.53v.9h-.95v.5h.95v.9h.53v-.9h.95v-.5h-.95v-.9ZM56.9,98.88h-.53v.9h-.95v.5h.95v.9h.53v-.9h.95v-.5h-.95v-.9ZM56.9,90.19h-.53v.9h-.95v.5h.95v.9h.53v-.9h.95v-.5h-.95v-.9ZM56.9,85.87h-.53v.9h-.95v.5h.95v.9h.53v-.9h.95v-.5h-.95v-.9ZM56.9,94.5h-.53v.9h-.95v.5h.95v.9h.53v-.9h.95v-.5h-.95v-.9ZM56.9,103.2h-.53v.9h-.95v.5h.95v.9h.53v-.9h.95v-.5h-.95v-.9ZM56.9,107.51h-.53v.9h-.95v.5h.95v.9h.53v-.9h.95v-.5h-.95v-.9ZM56.9,77.23h-.53v.9h-.95v.5h.95v.9h.53v-.9h.95v-.5h-.95v-.9ZM56.9,46.88h-.53v.9h-.95v.5h.95v.9h.53v-.9h.95v-.5h-.95v-.9ZM56.9,51.2h-.53v.9h-.95v.5h.95v.9h.53v-.9h.95v-.5h-.95v-.9ZM56.9,72.92h-.53v.9h-.95v.5h.95v.9h.53v-.9h.95v-.5h-.95v-.9ZM56.9,64.15h-.53v.9h-.95v.5h.95v.9h.53v-.9h.95v-.5h-.95v-.9ZM56.9,68.47h-.53v.9h-.95v.5h.95v.9h.53v-.9h.95v-.5h-.95v-.9ZM56.9,55.52h-.53v.9h-.95v.5h.95v.9h.53v-.9h.95v-.5h-.95v-.9ZM47.42,107.51h-.53v.9h-.95v.5h.95v.9h.53v-.9h.95v-.5h-.95v-.9ZM47.42,103.2h-.53v.9h-.95v.5h.95v.9h.53v-.9h.95v-.5h-.95v-.9ZM47.42,98.88h-.53v.9h-.95v.5h.95v.9h.53v-.9h.95v-.5h-.95v-.9ZM47.42,94.5h-.53v.9h-.95v.5h.95v.9h.53v-.9h.95v-.5h-.95v-.9ZM47.42,68.47h-.53v.9h-.95v.5h.95v.9h.53v-.9h.95v-.5h-.95v-.9ZM47.42,72.92h-.53v.9h-.95v.5h.95v.9h.53v-.9h.95v-.5h-.95v-.9ZM47.42,64.15h-.53v.9h-.95v.5h.95v.9h.53v-.9h.95v-.5h-.95v-.9ZM47.42,77.23h-.53v.9h-.95v.5h.95v.9h.53v-.9h.95v-.5h-.95v-.9ZM47.42,90.19h-.53v.9h-.95v.5h.95v.9h.53v-.9h.95v-.5h-.95v-.9ZM47.42,85.87h-.53v.9h-.95v.5h.95v.9h.53v-.9h.95v-.5h-.95v-.9ZM47.42,81.55h-.53v.9h-.95v.5h.95v.9h.53v-.9h.95v-.5h-.95v-.9ZM47.42,59.84h-.53v.9h-.95v.5h.95v.9h.53v-.9h.95v-.5h-.95v-.9ZM47.42,55.52h-.53v.9h-.95v.5h.95v.9h.53v-.9h.95v-.5h-.95v-.9ZM47.42,34.05h-.53v.9h-.95v.5h.95v.9h.53v-.9h.95v-.5h-.95v-.9ZM47.42,38.37h-.53v.9h-.95v.5h.95v.9h.53v-.9h.95v-.5h-.95v-.9ZM47.42,29.73h-.53v.9h-.95v.5h.95v.9h.53v-.9h.95v-.5h-.95v-.9ZM47.42,51.2h-.53v.9h-.95v.5h.95v.9h.53v-.9h.95v-.5h-.95v-.9ZM47.42,42.68h-.53v.9h-.95v.5h.95v.9h.53v-.9h.95v-.5h-.95v-.9ZM47.42,25.41h-.53v.9h-.95v.5h.95v.9h.53v-.9h.95v-.5h-.95v-.9ZM47.42,46.88h-.53v.9h-.95v.5h.95v.9h.53v-.9h.95v-.5h-.95v-.9ZM47.42-.62h-.53V.28h-.95v.5h.95v.9h.53v-.9h.95v-.5h-.95v-.9ZM47.42-4.94h-.53v.9h-.95v.5h.95v.9h.53v-.9h.95v-.5h-.95v-.9ZM47.42,3.7h-.53v.9h-.95v.5h.95v.9h.53v-.9h.95v-.5h-.95v-.9ZM47.42,16.65h-.53v.9h-.95v.5h.95v.9h.53v-.9h.95v-.5h-.95v-.9ZM47.42,21.1h-.53v.9h-.95v.5h.95v.9h.53v-.9h.95v-.5h-.95v-.9ZM47.42,12.33h-.53v.9h-.95v.5h.95v.9h.53v-.9h.95v-.5h-.95v-.9ZM47.42,8.02h-.53v.9h-.95v.5h.95v.9h.53v-.9h.95v-.5h-.95v-.9ZM52.16,3.7h-.53v.9h-.95v.5h.95v.9h.53v-.9h.95v-.5h-.95v-.9ZM66.38,77.23h-.53v.9h-.95v.5h.95v.9h.53v-.9h.95v-.5h-.95v-.9ZM66.38,85.87h-.53v.9h-.95v.5h.95v.9h.53v-.9h.95v-.5h-.95v-.9ZM66.38,81.55h-.53v.9h-.95v.5h.95v.9h.53v-.9h.95v-.5h-.95v-.9ZM66.38,72.92h-.53v.9h-.95v.5h.95v.9h.53v-.9h.95v-.5h-.95v-.9ZM66.38,94.5h-.53v.9h-.95v.5h.95v.9h.53v-.9h.95v-.5h-.95v-.9ZM66.38,103.2h-.53v.9h-.95v.5h.95v.9h.53v-.9h.95v-.5h-.95v-.9ZM66.38,34.05h-.53v.9h-.95v.5h.95v.9h.53v-.9h.95v-.5h-.95v-.9ZM66.38,68.47h-.53v.9h-.95v.5h.95v.9h.53v-.9h.95v-.5h-.95v-.9ZM66.38,98.88h-.53v.9h-.95v.5h.95v.9h.53v-.9h.95v-.5h-.95v-.9ZM66.38,42.68h-.53v.9h-.95v.5h.95v.9h.53v-.9h.95v-.5h-.95v-.9ZM66.38,46.88h-.53v.9h-.95v.5h.95v.9h.53v-.9h.95v-.5h-.95v-.9ZM66.38,38.37h-.53v.9h-.95v.5h.95v.9h.53v-.9h.95v-.5h-.95v-.9ZM66.38,59.84h-.53v.9h-.95v.5h.95v.9h.53v-.9h.95v-.5h-.95v-.9ZM66.38,64.15h-.53v.9h-.95v.5h.95v.9h.53v-.9h.95v-.5h-.95v-.9ZM66.38,55.52h-.53v.9h-.95v.5h.95v.9h.53v-.9h.95v-.5h-.95v-.9ZM66.38,51.2h-.53v.9h-.95v.5h.95v.9h.53v-.9h.95v-.5h-.95v-.9ZM94.82-4.94h-.53v.9h-.95v.5h.95v.9h.53v-.9h.95v-.5h-.95v-.9ZM66.38,107.51h-.53v.9h-.95v.5h.95v.9h.53v-.9h.95v-.5h-.95v-.9ZM56.9,42.68h-.53v.9h-.95v.5h.95v.9h.53v-.9h.95v-.5h-.95v-.9ZM71.12,107.51h-.53v.9h-.95v.5h.95v.9h.53v-.9h.95v-.5h-.95v-.9ZM71.12,103.2h-.53v.9h-.95v.5h.95v.9h.53v-.9h.95v-.5h-.95v-.9ZM66.38,3.7h-.53v.9h-.95v.5h.95v.9h.53v-.9h.95v-.5h-.95v-.9ZM66.38,12.33h-.53v.9h-.95v.5h.95v.9h.53v-.9h.95v-.5h-.95v-.9ZM66.38,29.73h-.53v.9h-.95v.5h.95v.9h.53v-.9h.95v-.5h-.95v-.9ZM66.38,16.65h-.53v.9h-.95v.5h.95v.9h.53v-.9h.95v-.5h-.95v-.9ZM66.38,25.41h-.53v.9h-.95v.5h.95v.9h.53v-.9h.95v-.5h-.95v-.9ZM66.38,21.1h-.53v.9h-.95v.5h.95v.9h.53v-.9h.95v-.5h-.95v-.9ZM66.38-.62h-.53V.28h-.95v.5h.95v.9h.53v-.9h.95v-.5h-.95v-.9ZM66.38,8.02h-.53v.9h-.95v.5h.95v.9h.53v-.9h.95v-.5h-.95v-.9ZM66.38-4.94h-.53v.9h-.95v.5h.95v.9h.53v-.9h.95v-.5h-.95v-.9ZM56.9,25.41h-.53v.9h-.95v.5h.95v.9h.53v-.9h.95v-.5h-.95v-.9ZM56.9,34.05h-.53v.9h-.95v.5h.95v.9h.53v-.9h.95v-.5h-.95v-.9ZM56.9,38.37h-.53v.9h-.95v.5h.95v.9h.53v-.9h.95v-.5h-.95v-.9ZM56.9,12.33h-.53v.9h-.95v.5h.95v.9h.53v-.9h.95v-.5h-.95v-.9ZM56.9,29.73h-.53v.9h-.95v.5h.95v.9h.53v-.9h.95v-.5h-.95v-.9ZM56.9,21.1h-.53v.9h-.95v.5h.95v.9h.53v-.9h.95v-.5h-.95v-.9ZM56.9-.62h-.53V.28h-.95v.5h.95v.9h.53v-.9h.95v-.5h-.95v-.9ZM56.9,3.7h-.53v.9h-.95v.5h.95v.9h.53v-.9h.95v-.5h-.95v-.9ZM56.9,8.02h-.53v.9h-.95v.5h.95v.9h.53v-.9h.95v-.5h-.95v-.9ZM56.9-4.94h-.53v.9h-.95v.5h.95v.9h.53v-.9h.95v-.5h-.95v-.9ZM56.9,16.65h-.53v.9h-.95v.5h.95v.9h.53v-.9h.95v-.5h-.95v-.9ZM61.64,12.33h-.53v.9h-.95v.5h.95v.9h.53v-.9h.95v-.5h-.95v-.9ZM61.64,3.7h-.53v.9h-.95v.5h.95v.9h.53v-.9h.95v-.5h-.95v-.9ZM61.64,21.1h-.53v.9h-.95v.5h.95v.9h.53v-.9h.95v-.5h-.95v-.9ZM61.64,8.02h-.53v.9h-.95v.5h.95v.9h.53v-.9h.95v-.5h-.95v-.9ZM61.64,16.65h-.53v.9h-.95v.5h.95v.9h.53v-.9h.95v-.5h-.95v-.9ZM61.64,34.05h-.53v.9h-.95v.5h.95v.9h.53v-.9h.95v-.5h-.95v-.9ZM61.64,29.73h-.53v.9h-.95v.5h.95v.9h.53v-.9h.95v-.5h-.95v-.9ZM61.64,25.41h-.53v.9h-.95v.5h.95v.9h.53v-.9h.95v-.5h-.95v-.9ZM61.64-4.94h-.53v.9h-.95v.5h.95v.9h.53v-.9h.95v-.5h-.95v-.9ZM61.64-.62h-.53V.28h-.95v.5h.95v.9h.53v-.9h.95v-.5h-.95v-.9ZM61.64,38.37h-.53v.9h-.95v.5h.95v.9h.53v-.9h.95v-.5h-.95v-.9ZM61.64,77.23h-.53v.9h-.95v.5h.95v.9h.53v-.9h.95v-.5h-.95v-.9ZM61.64,90.19h-.53v.9h-.95v.5h.95v.9h.53v-.9h.95v-.5h-.95v-.9ZM61.64,107.51h-.53v.9h-.95v.5h.95v.9h.53v-.9h.95v-.5h-.95v-.9ZM61.64,81.55h-.53v.9h-.95v.5h.95v.9h.53v-.9h.95v-.5h-.95v-.9ZM61.64,85.87h-.53v.9h-.95v.5h.95v.9h.53v-.9h.95v-.5h-.95v-.9ZM61.64,103.2h-.53v.9h-.95v.5h.95v.9h.53v-.9h.95v-.5h-.95v-.9ZM61.64,94.5h-.53v.9h-.95v.5h.95v.9h.53v-.9h.95v-.5h-.95v-.9ZM61.64,98.88h-.53v.9h-.95v.5h.95v.9h.53v-.9h.95v-.5h-.95v-.9ZM61.64,55.52h-.53v.9h-.95v.5h.95v.9h.53v-.9h.95v-.5h-.95v-.9ZM61.64,51.2h-.53v.9h-.95v.5h.95v.9h.53v-.9h.95v-.5h-.95v-.9ZM61.64,72.92h-.53v.9h-.95v.5h.95v.9h.53v-.9h.95v-.5h-.95v-.9ZM61.64,42.68h-.53v.9h-.95v.5h.95v.9h.53v-.9h.95v-.5h-.95v-.9ZM61.64,46.88h-.53v.9h-.95v.5h.95v.9h.53v-.9h.95v-.5h-.95v-.9ZM61.64,68.47h-.53v.9h-.95v.5h.95v.9h.53v-.9h.95v-.5h-.95v-.9ZM61.64,59.84h-.53v.9h-.95v.5h.95v.9h.53v-.9h.95v-.5h-.95v-.9ZM61.64,64.15h-.53v.9h-.95v.5h.95v.9h.53v-.9h.95v-.5h-.95v-.9ZM18.95,3.62h-.53v.9h-.95v.5h.95v.9h.53v-.9h.95v-.5h-.95v-.9Z"/>
    </g>
  </g>
</svg>