<svg xmlns="http://www.w3.org/2000/svg" xmlns:xlink="http://www.w3.org/1999/xlink" width="361.439" height="246.527" viewBox="0 0 361.439 246.527">
  <defs>
    <clipPath id="clip-path">
      <rect id="Rectangle_105" data-name="Rectangle 105" width="132.448" height="132.44" transform="translate(366.908 339.28)" fill="none"/>
    </clipPath>
  </defs>
  <g id="Group_557" data-name="Group 557" transform="translate(-366.908 -225.193)">
    <path id="Path_353" data-name="Path 353" d="M724.024,252.485a10.833,10.833,0,0,1,3.548.548q.427-4.131.775-8.286a10.293,10.293,0,0,1-4.14.8,10,10,0,0,1-10.059-10.5,10.25,10.25,0,0,1,7.3-9.407,25.74,25.74,0,0,0-4.882-.395q-9.364.024-18.728.036a10.06,10.06,0,1,1-1.759,0q-12.495.027-24.99.047a10.2,10.2,0,1,1-2.614,0q-12.147.02-24.294.044a10.168,10.168,0,1,1-3.268,0q-11.933.015-23.866.015a10.056,10.056,0,0,1,8.331,9.9,9.846,9.846,0,0,1-9.885,10.244,9.948,9.948,0,0,1-10.314-9.831,10.188,10.188,0,0,1,8.359-10.309q-11.824.01-23.649.016a10.127,10.127,0,1,1-3.739,0q-10.958,0-21.917,0a10.054,10.054,0,0,1,8.215,10.139,9.88,9.88,0,0,1-10.141,9.988,10,10,0,0,1-10.06-10.5,10.226,10.226,0,0,1,8.235-9.63q-11.8,0-23.6-.018a10.083,10.083,0,1,1-3.541,0q-11.923-.009-23.846-.018a10.2,10.2,0,1,1-3.172,0q-12.2-.018-24.408-.05a10.149,10.149,0,1,1-2.5-.006q-12.82-.027-25.642-.062a10.05,10.05,0,0,1,9.706,10.038,9.846,9.846,0,0,1-9.885,10.244,9.947,9.947,0,0,1-10.314-9.831,10.154,10.154,0,0,1,9.773-10.454q-12.088-.031-24.178-.057c-.764,0-1.473.025-2.154.067a10.162,10.162,0,0,1-.447,20.307,10.071,10.071,0,0,1-10.2-9.075c-.035.726-.057,1.474-.052,2.275q.069,11.253.091,22.506A10.14,10.14,0,0,1,436.3,262.8a10.153,10.153,0,0,1-20.176,1.443q.037,11.906.054,23.812a10.091,10.091,0,0,1,9.616-8.3,10.105,10.105,0,1,1,.52,20.2,10.009,10.009,0,0,1-10.132-8.191q.011,11.664.015,23.328a10.089,10.089,0,1,1,0,4.036q0,11.718-.015,23.437a10.136,10.136,0,0,1,20.123,1.94,10.151,10.151,0,0,1-20.125,1.759q-.011,11.755-.014,23.512a10.072,10.072,0,1,1,0,3.661q0,4.593,0,9.185,0,5.421.008,10.843a10.154,10.154,0,1,1,10.112,12.007,10.063,10.063,0,0,1-10.11-8.416q.009,11.83.017,23.662a10.141,10.141,0,0,1,20.117,1.989,10.161,10.161,0,0,1-20.113,1.869q0,4.332.007,8.665H649.976q4.914-5.689,9.658-11.663a10.365,10.365,0,0,1,6.559-8.537q2.844-3.817,5.619-7.752a9.531,9.531,0,0,1-1.875.188,10.17,10.17,0,1,1,9.857-11.912q3.1-4.754,6.118-9.651c1.168-1.9,2.3-3.821,3.41-5.744a10.152,10.152,0,0,1,7.657-16.724,10.63,10.63,0,0,1,1.205.071q2.029-4.162,3.907-8.372a9.994,9.994,0,0,1-4.92,1.39,10.221,10.221,0,0,1-10.258-10.362,10.1,10.1,0,0,1,19.916-2.332q4.3-10.92,7.683-22.121a10.65,10.65,0,0,1-.34-2.834,10.026,10.026,0,0,1,3.217-7.247q1.407-5.273,2.636-10.6A10.09,10.09,0,0,1,723.9,279.8q.607-3.514,1.149-7.046c-.244.018-.487.039-.737.04a10.157,10.157,0,0,1-.286-20.309m-54.126-.031a10.172,10.172,0,1,1-10.31,10.361,10.276,10.276,0,0,1,10.31-10.361m.154,54.514a10.13,10.13,0,1,1-10.463,10.152,10.166,10.166,0,0,1,10.463-10.152M659.606,289.84a10.175,10.175,0,1,1,10.447,10.136,10.094,10.094,0,0,1-10.447-10.136m10.25,44.3a10.2,10.2,0,1,1-10.269,10.021,10.293,10.293,0,0,1,10.269-10.021m-27.269-81.677a10.17,10.17,0,1,1-10.2,10.026,10.239,10.239,0,0,1,10.2-10.026M615.322,354.494a10.161,10.161,0,0,1-.255-20.317,10.16,10.16,0,1,1,.255,20.317m10.061,17.016a10.095,10.095,0,1,1-10.05-10.071,9.987,9.987,0,0,1,10.05,10.071m-10.154-44.3a10.119,10.119,0,1,1,10.154-10.347,9.975,9.975,0,0,1-10.154,10.347m-.069-27.25a10.089,10.089,0,1,1,10.223-9.864,9.955,9.955,0,0,1-10.223,9.864m-26.842-47.47A10.154,10.154,0,1,1,577.9,262.667a10.089,10.089,0,0,1,10.419-10.179m-53.3-.028a10.17,10.17,0,1,1-10.011,10.184,10.127,10.127,0,0,1,10.011-10.184M508,252.454a10.172,10.172,0,1,1-10.311,10.361A10.274,10.274,0,0,1,508,252.454m.153,54.514a10.13,10.13,0,1,1-10.463,10.152,10.166,10.166,0,0,1,10.463-10.152M497.7,289.84a10.175,10.175,0,1,1,10.447,10.136A10.1,10.1,0,0,1,497.7,289.84m10.25,44.3a10.2,10.2,0,1,1-10.268,10.021,10.292,10.292,0,0,1,10.268-10.021m-27.269-81.677a10.17,10.17,0,1,1-10.2,10.026,10.237,10.237,0,0,1,10.2-10.026M453.422,354.494a10.161,10.161,0,0,1-.256-20.317,10.16,10.16,0,1,1,.256,20.317m10.06,17.016a10.094,10.094,0,1,1-10.049-10.071,9.986,9.986,0,0,1,10.049,10.071m-10.153-44.3a10.119,10.119,0,1,1,10.154-10.347,9.975,9.975,0,0,1-10.154,10.347m-.069-27.25a10.089,10.089,0,1,1,10.223-9.864,9.955,9.955,0,0,1-10.223,9.864m.122,85.183a10.057,10.057,0,0,1,10.1,10.056,9.846,9.846,0,0,1-9.885,10.244,9.947,9.947,0,0,1-10.314-9.831,10.152,10.152,0,0,1,10.1-10.469m.057,47.567A10.127,10.127,0,0,1,443.3,422.686a9.987,9.987,0,0,1,9.852-10.292,10.107,10.107,0,0,1,10.372,9.8,10.243,10.243,0,0,1-10.081,10.512m0-159.9A10.129,10.129,0,0,1,443.3,262.779a9.985,9.985,0,0,1,9.852-10.291,10.106,10.106,0,0,1,10.372,9.8A10.245,10.245,0,0,1,453.439,272.8m27.377,6.983a10.086,10.086,0,1,1-10.337,9.8,10.047,10.047,0,0,1,10.337-9.8m-.049,81.653a10.122,10.122,0,1,1-10.284,10.292,10.125,10.125,0,0,1,10.284-10.292m-10.281-16.981a10.158,10.158,0,1,1,10.175,10.07,10.23,10.23,0,0,1-10.175-10.07m9.892,88.243A10.17,10.17,0,1,1,490.8,422.5a10.162,10.162,0,0,1-10.423,10.2m.482-27.2a10.18,10.18,0,1,1,9.943-10.321A10.213,10.213,0,0,1,480.86,405.5m.105-78.29a10.122,10.122,0,1,1,9.842-10.35,10.093,10.093,0,0,1-9.842,10.35m27,105.5a10.172,10.172,0,1,1,10.1-10.139,10.262,10.262,0,0,1-10.1,10.139M497.7,395.56a10.178,10.178,0,1,1,10.333,9.918A10.221,10.221,0,0,1,497.7,395.56m10.476-13.875a10.125,10.125,0,1,1,9.879-10.316,10.184,10.184,0,0,1-9.879,10.316m26.749-54.472a10.124,10.124,0,1,1,10.313-9.824,10.019,10.019,0,0,1-10.313,9.824m10.316,17.075a10.118,10.118,0,1,1-20.232-.114,10.116,10.116,0,0,1,20.232.114m-10.167,17.159a10.119,10.119,0,1,1-10.07,10.07,10.032,10.032,0,0,1,10.07-10.07m10.165,33.936a10.115,10.115,0,1,1-9.935-10.244,10.071,10.071,0,0,1,9.935,10.244m-10.2,37.32a10.169,10.169,0,1,1,10.207-9.972,10.115,10.115,0,0,1-10.207,9.972m.31-132.749a10.1,10.1,0,1,1,9.9-10.209,9.989,9.989,0,0,1-9.9,10.209m27.121,34.178a10.127,10.127,0,0,1,9.98,10.2,9.962,9.962,0,0,1-10,10.153,10.064,10.064,0,0,1-10.208-10.365,10.227,10.227,0,0,1,10.224-9.992m0-27.164a10.119,10.119,0,1,1-10.2,9.919,10,10,0,0,1,10.2-9.919m-10.2-16.822a10.088,10.088,0,1,1,10.272,9.806,9.934,9.934,0,0,1-10.272-9.806m20.173,81.389a10.088,10.088,0,1,1-10.014-10.088,9.966,9.966,0,0,1,10.014,10.088m-9.828,13.607a10.056,10.056,0,0,1,9.828,10.318,9.879,9.879,0,0,1-10.141,9.988,10,10,0,0,1-10.06-10.5,10.181,10.181,0,0,1,10.373-9.807m-.21,47.559a10.156,10.156,0,1,1,10.057-10.5,10.092,10.092,0,0,1-10.057,10.5m0-159.907a10.156,10.156,0,1,1,10.057-10.5,10.091,10.091,0,0,1-10.057,10.5m25.655,34.175a10.119,10.119,0,1,1-10.179,10.01,10.1,10.1,0,0,1,10.179-10.01M598.2,344.506a10.148,10.148,0,0,1-20.3-.152,10.149,10.149,0,1,1,20.3.152M587.983,432.7a10.154,10.154,0,1,1,10.214-9.99,10.131,10.131,0,0,1-10.214,9.99m.19-27.225A10.168,10.168,0,1,1,598.2,395.28a10.1,10.1,0,0,1-10.026,10.193m-.465-23.791A10.127,10.127,0,1,1,598.2,371.614a10.12,10.12,0,0,1-10.492,10.068m.5-81.726a10.1,10.1,0,0,1-.521-20.2,10.105,10.105,0,1,1,.521,20.2m27.07,85.185a10.057,10.057,0,0,1,10.1,10.056,9.845,9.845,0,0,1-9.885,10.244,9.948,9.948,0,0,1-10.314-9.831,10.153,10.153,0,0,1,10.1-10.469m.058,47.567A10.126,10.126,0,0,1,605.2,422.686a9.985,9.985,0,0,1,9.851-10.292,10.107,10.107,0,0,1,10.372,9.8,10.243,10.243,0,0,1-10.08,10.512m0-159.9A10.129,10.129,0,0,1,605.2,262.779a9.984,9.984,0,0,1,9.851-10.291,10.106,10.106,0,0,1,10.372,9.8A10.244,10.244,0,0,1,615.34,272.8m27.376,6.983a10.086,10.086,0,1,1-10.336,9.8,10.046,10.046,0,0,1,10.336-9.8m-.049,81.653a10.122,10.122,0,1,1-10.284,10.292,10.125,10.125,0,0,1,10.284-10.292m-10.281-16.981a10.159,10.159,0,1,1,10.176,10.07,10.23,10.23,0,0,1-10.176-10.07m9.892,88.243A10.17,10.17,0,1,1,652.7,422.5a10.163,10.163,0,0,1-10.424,10.2m.482-27.2a10.18,10.18,0,1,1,9.944-10.321A10.213,10.213,0,0,1,642.76,405.5m.1-78.29a10.122,10.122,0,1,1,9.842-10.35,10.093,10.093,0,0,1-9.842,10.35m27.215,54.478a10.125,10.125,0,1,1,9.879-10.316,10.184,10.184,0,0,1-9.879,10.316M696.921,252.46a10.17,10.17,0,1,1-10.011,10.184,10.128,10.128,0,0,1,10.011-10.184m-.092,74.753a10.124,10.124,0,1,1,10.313-9.824,10.019,10.019,0,0,1-10.313,9.824m.419-27.259a10.1,10.1,0,1,1,9.9-10.209,9.989,9.989,0,0,1-9.9,10.209" fill="#ff501a"/>
    <g id="Group_250" data-name="Group 250" opacity="0.8">
      <g id="Group_249" data-name="Group 249">
        <g id="Group_248" data-name="Group 248" clip-path="url(#clip-path)">
          <path id="Path_354" data-name="Path 354" d="M433.146,339.277a66.224,66.224,0,1,1-66.237,66.11,66.173,66.173,0,0,1,66.237-66.11m.018,30.257c-19.855.006-36.136,16.118-36.1,35.719a36.065,36.065,0,1,0,36.1-35.719" fill="#82d1d3"/>
        </g>
      </g>
    </g>
  </g>
</svg>
