<svg xmlns="http://www.w3.org/2000/svg" xmlns:xlink="http://www.w3.org/1999/xlink" width="338.014" height="414.37" viewBox="0 0 338.014 414.37">
  <defs>
    <clipPath id="clip-path">
      <rect id="Rectangle_41" data-name="Rectangle 41" width="312.362" height="312.57" transform="translate(85.787 331.08)" fill="none"/>
    </clipPath>
    <clipPath id="clip-path-2">
      <rect id="Rectangle_43" data-name="Rectangle 43" width="164.773" height="164.77" transform="translate(177.707 497.18)" fill="none"/>
    </clipPath>
    <clipPath id="clip-path-3">
      <rect id="Rectangle_44" data-name="Rectangle 44" width="154.702" height="167.01" transform="translate(60.136 247.58)" fill="none"/>
    </clipPath>
  </defs>
  <g id="Group_532" data-name="Group 532" transform="translate(-60.136 -247.58)">
    <g id="Group_94" data-name="Group 94" style="mix-blend-mode: multiply;isolation: isolate">
      <g id="Group_93" data-name="Group 93">
        <g id="Group_92" data-name="Group 92" clip-path="url(#clip-path)">
          <path id="Path_26" data-name="Path 26" d="M87.059,336.358a7.732,7.732,0,0,1,4.624-4.275,10.267,10.267,0,0,0-4.624,4.275" fill="#ff501a"/>
          <path id="Path_27" data-name="Path 27" d="M393.826,358.376a10.157,10.157,0,0,0,.287,20.309c.249,0,.493-.022.737-.041q-.541,3.534-1.149,7.046a10.091,10.091,0,0,0-3.873,19.242q-1.232,5.325-2.636,10.6a10.021,10.021,0,0,0-3.217,7.248,10.685,10.685,0,0,0,.339,2.833q-3.4,11.2-7.682,22.122a10.1,10.1,0,0,0-19.916,2.332,10.22,10.22,0,0,0,10.258,10.362,9.993,9.993,0,0,0,4.919-1.39q-1.877,4.209-3.906,8.372a10.64,10.64,0,0,0-1.206-.071,10.152,10.152,0,0,0-7.656,16.724c-1.113,1.922-2.243,3.839-3.411,5.744q-3.009,4.906-6.117,9.651a10.172,10.172,0,1,0-9.857,11.911,9.44,9.44,0,0,0,1.874-.187q-2.775,3.933-5.618,7.752a10.362,10.362,0,0,0-6.559,8.536q-7.521,9.493-15.487,18.245a10.364,10.364,0,0,0-1.431-.131,10.063,10.063,0,0,0-10.337,9.8,10.669,10.669,0,0,0,.222,2.307q-8.01,7.9-16.433,15.12c-.332-.028-.669-.042-1.01-.038a10,10,0,0,0-9.876,8.845q-4.146,3.209-8.388,6.253A10.169,10.169,0,1,0,257.644,593a10.471,10.471,0,0,0,1.861-.137q-9.227,6.207-18.885,11.691a10.06,10.06,0,0,0-8.348-4.629,10.226,10.226,0,0,0-10.224,9.992,9.885,9.885,0,0,0,.7,3.949A296.463,296.463,0,0,1,183.6,629.142a10.153,10.153,0,0,0-6.02-1.905,10.258,10.258,0,0,0-9.331,6.3q-3.887,1-7.832,1.9a10.163,10.163,0,0,0-20.135,2.087,10.246,10.246,0,0,0,.21,1.885c-2.558.43-5.143.814-7.732,1.191a10.432,10.432,0,0,0,.521-3.295,10.094,10.094,0,1,0-18.659,5.467q-5.313.505-10.71.87a10.143,10.143,0,1,0-17.925-8.225,33.153,33.153,0,0,1-.2-4.143c.051-6.6.069-13.207.1-19.811a10.153,10.153,0,1,0,10.34-11.519A10.11,10.11,0,0,0,85.9,608.821q.053-11.971.079-23.943a10.16,10.16,0,1,0,0-3.929q.015-11.614.021-23.229a10.013,10.013,0,0,0,10.106,8.033A10.1,10.1,0,1,0,86,553.664q-.006-11.6-.019-23.2A10.159,10.159,0,1,0,96.22,518.285a9.99,9.99,0,0,0-10.237,8.324q-.014-11.831-.017-23.662a10.141,10.141,0,0,0,20.135-1.776,10.151,10.151,0,0,0-20.137-1.814q0-5.422-.008-10.844,0-4.592,0-9.184a10.178,10.178,0,1,0,0-3.661q.006-11.757.014-23.513A10.15,10.15,0,0,0,106.1,450.4a10.135,10.135,0,0,0-20.122-1.94q.011-11.719.015-23.438a10.146,10.146,0,1,0,0-4.035q0-11.664-.014-23.329a10.006,10.006,0,0,0,10.132,8.191,10.1,10.1,0,1,0-10.136-11.9q-.013-11.907-.054-23.813a10.152,10.152,0,1,0,10.3-11.757,10,10,0,0,0-10.308,8.785q-.039-11.252-.091-22.505c0-.8.017-1.55.052-2.275a10.142,10.142,0,0,0,20.228-1.119,10.181,10.181,0,0,0-9.578-10.112c.681-.043,1.39-.071,2.153-.068q12.09.039,24.179.058a10.153,10.153,0,0,0-9.774,10.453,9.947,9.947,0,0,0,10.315,9.83,9.846,9.846,0,0,0,9.885-10.243,10.05,10.05,0,0,0-9.706-10.038q12.82.034,25.642.062a10.177,10.177,0,0,0,1.446,20.275,10.177,10.177,0,0,0,1.05-20.27q12.2.025,24.408.05a10.162,10.162,0,1,0,3.172,0q11.922.016,23.845.018a10.146,10.146,0,1,0,3.541,0q11.8.009,23.6.018a10.225,10.225,0,0,0-8.234,9.63,10,10,0,0,0,10.06,10.5,9.879,9.879,0,0,0,10.14-9.988,10.053,10.053,0,0,0-8.214-10.139q10.959,0,21.917,0a10.174,10.174,0,1,0,3.739,0q11.825,0,23.649-.016a10.187,10.187,0,0,0-8.359,10.309,9.946,9.946,0,0,0,10.314,9.83,9.846,9.846,0,0,0,9.885-10.243,10.057,10.057,0,0,0-8.332-9.9q11.934-.009,23.867-.015a10.174,10.174,0,0,0,1.847,20.212,10.176,10.176,0,0,0,1.42-20.215q12.147-.015,24.294-.045a10.156,10.156,0,1,0,2.615-.005q12.495-.021,24.99-.046a10.162,10.162,0,1,0,1.759,0q9.363-.019,18.728-.035a25.741,25.741,0,0,1,4.882.395,10.251,10.251,0,0,0-7.3,9.407,10,10,0,0,0,10.06,10.5,10.293,10.293,0,0,0,4.14-.8q-.352,4.154-.776,8.286a10.832,10.832,0,0,0-3.548-.548M232.256,593a10.119,10.119,0,1,0-10.181-10.318A9.95,9.95,0,0,0,232.256,593m9.992-37.424a10.087,10.087,0,1,0-9.9,10.17,9.9,9.9,0,0,0,9.9-10.17m-9.825-64.546a10.181,10.181,0,0,0-10.373,9.807,10,10,0,0,0,10.06,10.5,9.879,9.879,0,0,0,10.14-9.988,10.054,10.054,0,0,0-9.827-10.318m9.828-13.607a10.088,10.088,0,1,0-9.952,10.143,9.948,9.948,0,0,0,9.952-10.143M205.074,620.333a10.2,10.2,0,0,0-.087-20.387,10.1,10.1,0,0,0-10.172,10.026,10.221,10.221,0,0,0,10.259,10.361m-.342-27.323a10.124,10.124,0,1,0-9.923-10.218,10.041,10.041,0,0,0,9.923,10.218M177.8,518.251a10.171,10.171,0,1,0,10.06,10.2,10.3,10.3,0,0,0-10.06-10.2m10.058-17.115a10.178,10.178,0,1,0-10.02,10.232,10.22,10.22,0,0,0,10.02-10.232m-9.9,71.629a10.129,10.129,0,1,0,9.9,10.294,10.2,10.2,0,0,0-9.9-10.294m9.9-17.274a10.175,10.175,0,1,0-9.9,10.283,10.137,10.137,0,0,0,9.9-10.283M177.81,620.327a10.2,10.2,0,1,0-10.32-10.373,10.308,10.308,0,0,0,10.32,10.373m-27.346,0a10.2,10.2,0,1,0-10.175-10.069,10.275,10.275,0,0,0,10.175,10.069m-.014-54.572a10.087,10.087,0,1,0-10.168-10.374,10.053,10.053,0,0,0,10.168,10.374m.014-105.335a10.2,10.2,0,1,0-10.175-10.069,10.275,10.275,0,0,0,10.175,10.069m-10.178,17.2a10.158,10.158,0,1,0,10.283-10.291,10.1,10.1,0,0,0-10.283,10.291M150.4,491.03a10.18,10.18,0,1,0,.258,20.357,10.18,10.18,0,0,0-.258-20.357m.084,27.226A10.17,10.17,0,1,0,160.6,528.388a10.2,10.2,0,0,0-10.115-10.132M123.225,620.291a10.16,10.16,0,1,0-.256-20.317,10.161,10.161,0,0,0,.256,20.317m-.093-27.285a10.12,10.12,0,1,0-10.034-10.08,9.977,9.977,0,0,0,10.034,10.08m-.069-27.25a10.089,10.089,0,1,0-9.97-10.123,9.944,9.944,0,0,0,9.97,10.123m.333-54.424a9.846,9.846,0,0,0,9.885-10.244,10.1,10.1,0,1,0-20.2.413,9.948,9.948,0,0,0,10.315,9.831m-.427-71.264a10.161,10.161,0,0,0,.256,20.317,10.16,10.16,0,1,0-.256-20.317m10.317-17.317A10.1,10.1,0,1,0,123.132,433.1a10.017,10.017,0,0,0,10.154-10.349M113.1,477.711a10.095,10.095,0,1,0,10.136-10.381A10,10,0,0,0,113.1,477.711m9.963-71.861a10.089,10.089,0,1,0-9.97-10.123,9.945,9.945,0,0,0,9.97,10.123m-.113-47.471A9.984,9.984,0,0,0,113.1,368.67a10.129,10.129,0,0,0,10.143,10.024,10.244,10.244,0,0,0,10.08-10.514,10.1,10.1,0,0,0-10.372-9.8m0,159.906a9.985,9.985,0,0,0-9.851,10.292A10.129,10.129,0,0,0,123.242,538.6a10.244,10.244,0,0,0,10.08-10.513,10.1,10.1,0,0,0-10.372-9.8m17.332-122.813a10.161,10.161,0,1,0,10.337-9.795,10.084,10.084,0,0,0-10.337,9.795m10.207-37.123A10.17,10.17,0,1,0,160.6,368.481a10.2,10.2,0,0,0-10.115-10.132m-.187,54.51a10.122,10.122,0,1,0,10.307,9.889,10.118,10.118,0,0,0-10.307-9.889m0,159.906a10.122,10.122,0,1,0,10.307,9.889,10.118,10.118,0,0,0-10.307-9.889m27.652-159.907a10.13,10.13,0,1,0,9.9,10.3,10.2,10.2,0,0,0-9.9-10.3m9.9-17.274a10.175,10.175,0,1,0-9.9,10.283,10.135,10.135,0,0,0,9.9-10.283m-10.1,44.443a10.2,10.2,0,1,0,10.1,10.168,10.339,10.339,0,0,0-10.1-10.168m.043-81.682a10.171,10.171,0,1,0,10.06,10.2,10.3,10.3,0,0,0-10.06-10.2m-.217,108.985a10.125,10.125,0,1,0,10.278,9.93,10.205,10.205,0,0,0-10.278-9.93m27.239-108.979a10.168,10.168,0,1,0,10.225,10.364,10.143,10.143,0,0,0-10.225-10.364m.087,27.3a10.1,10.1,0,1,0,10.138,9.982,10.038,10.038,0,0,0-10.138-9.982m-.087,132.6a10.169,10.169,0,1,0,10.225,10.364,10.144,10.144,0,0,0-10.225-10.364m10.224-68.078a10.116,10.116,0,0,0-20.232-.114,10.118,10.118,0,1,0,20.232.114m0,51.1a10.116,10.116,0,1,0-10.1,10.093,10.112,10.112,0,0,0,10.1-10.093m-9.871-13.7a10.119,10.119,0,1,0-10.364-10.164,10.048,10.048,0,0,0,10.364,10.164m-.443-54.468a10.124,10.124,0,1,0-9.923-10.219,10.041,10.041,0,0,0,9.923,10.219m.178,112.456a10.1,10.1,0,1,0,10.138,9.982,10.039,10.039,0,0,0-10.138-9.982m17.138-95.545a10.1,10.1,0,1,0,10.224-9.992,10.226,10.226,0,0,0-10.224,9.992m10.226-37.157a10.12,10.12,0,1,0,9.979,10.134,10.017,10.017,0,0,0-9.979-10.134m9.974-17.186a10.087,10.087,0,1,0-9.9,10.171,9.9,9.9,0,0,0,9.9-10.171m-10.322-37.3a10.157,10.157,0,0,0,.287,20.309,10.132,10.132,0,0,0,10.057-10.5,10.015,10.015,0,0,0-10.344-9.809m0,159.906a10.157,10.157,0,0,0,.287,20.309,10.131,10.131,0,0,0,10.057-10.5,10.016,10.016,0,0,0-10.344-9.809m26.05-6.918A10.168,10.168,0,1,0,247.7,501.021a10.144,10.144,0,0,0,10.275,10.343m-10.275,17.1a10.15,10.15,0,1,0,10.42-10.179,10.132,10.132,0,0,0-10.42,10.179m9.81-40.892a10.126,10.126,0,1,0-9.819-10.355,10.105,10.105,0,0,0,9.819,10.355M268,450.4a10.148,10.148,0,1,0-10.223,10.026A10.167,10.167,0,0,0,268,450.4m-20.313-27.526a10.157,10.157,0,1,0,10.178-10.011,10.115,10.115,0,0,0-10.178,10.011m10.432-64.493a10.154,10.154,0,1,0-.336,20.305,10.154,10.154,0,0,0,.336-20.305m-.627,27.267a10.105,10.105,0,1,0,10.522,10.049,10.2,10.2,0,0,0-10.522-10.049m0,159.906a10.106,10.106,0,1,0,10.522,10.05,10.2,10.2,0,0,0-10.522-10.05m54.587-6.959a10.17,10.17,0,1,0-9.888-10.311,10.224,10.224,0,0,0,9.888,10.311m.482-27.2a10.18,10.18,0,0,0-.257-20.357,10.18,10.18,0,1,0,.257,20.357m-.163-23.816a10.121,10.121,0,1,0-10.214-9.95,10.1,10.1,0,0,0,10.214,9.95m10.105-37.281a10.158,10.158,0,1,0-10.141,10.128,10.29,10.29,0,0,0,10.141-10.128M284.963,565.756a10.089,10.089,0,1,0-9.97-10.123,9.946,9.946,0,0,0,9.97,10.123m.333-54.424a9.846,9.846,0,0,0,9.885-10.244,10.1,10.1,0,1,0-20.2.413,9.947,9.947,0,0,0,10.314,9.831m-.427-71.264a10.161,10.161,0,0,0,.256,20.317,10.16,10.16,0,1,0-.256-20.317m10.317-17.317A10.1,10.1,0,1,0,285.032,433.1a10.016,10.016,0,0,0,10.154-10.349M275,477.711a10.094,10.094,0,1,0,10.135-10.381A9.994,9.994,0,0,0,275,477.711m9.962-71.861a10.089,10.089,0,1,0-9.97-10.123,9.946,9.946,0,0,0,9.97,10.123m-.112-47.471A9.985,9.985,0,0,0,275,368.67a10.129,10.129,0,0,0,10.143,10.024,10.246,10.246,0,0,0,10.081-10.514,10.105,10.105,0,0,0-10.372-9.8m0,159.906A9.987,9.987,0,0,0,275,528.577,10.129,10.129,0,0,0,285.142,538.6a10.245,10.245,0,0,0,10.081-10.513,10.106,10.106,0,0,0-10.372-9.8m17.331-122.813a10.162,10.162,0,1,0,10.337-9.795,10.085,10.085,0,0,0-10.337,9.795m10.208-37.123A10.17,10.17,0,1,0,322.5,368.481a10.2,10.2,0,0,0-10.114-10.132m-.188,54.51a10.122,10.122,0,1,0,10.308,9.889,10.116,10.116,0,0,0-10.308-9.889m27.652,0a10.13,10.13,0,1,0,9.9,10.3,10.2,10.2,0,0,0-9.9-10.3m9.9-17.274a10.175,10.175,0,1,0-9.9,10.283,10.134,10.134,0,0,0,9.9-10.283m-10.1,44.443a10.2,10.2,0,1,0,10.1,10.168,10.339,10.339,0,0,0-10.1-10.168m.042-81.682a10.171,10.171,0,1,0,10.06,10.2,10.3,10.3,0,0,0-10.06-10.2m-.217,108.985a10.125,10.125,0,1,0,10.278,9.93,10.206,10.206,0,0,0-10.278-9.93M366.632,433.1a10.124,10.124,0,1,0-9.922-10.219,10.043,10.043,0,0,0,9.922,10.219m.092-74.753a10.168,10.168,0,1,0,10.224,10.364,10.144,10.144,0,0,0-10.224-10.364m.086,27.3a10.1,10.1,0,1,0,10.139,9.982,10.036,10.036,0,0,0-10.139-9.982" fill="#ff501a"/>
          <path id="Path_28" data-name="Path 28" d="M85.805,450.245a11.408,11.408,0,0,1,.174-1.788q0,1.85,0,3.7a9.665,9.665,0,0,1-.171-1.911" fill="#ff501a"/>
          <path id="Path_29" data-name="Path 29" d="M85.8,368.558a11.139,11.139,0,0,1,.111-1.394c0,.99.009,1.981.012,2.971a9.653,9.653,0,0,1-.123-1.577" fill="#ff501a"/>
          <path id="Path_30" data-name="Path 30" d="M232.423,331.127a10.282,10.282,0,0,1,1.613.18q-1.876,0-3.752,0a10.062,10.062,0,0,1,2.139-.177" fill="#ff501a"/>
          <path id="Path_31" data-name="Path 31" d="M150.4,331.124a9.924,9.924,0,0,1,1.308.087l-2.5-.005a9.7,9.7,0,0,1,1.188-.082" fill="#ff501a"/>
          <path id="Path_32" data-name="Path 32" d="M123.185,331.125c.132,0,.26.014.39.019l-.72,0c.111,0,.218-.017.33-.017" fill="#ff501a"/>
          <path id="Path_33" data-name="Path 33" d="M85.791,477.217a10.37,10.37,0,0,1,.172-1.549q0,1.832,0,3.661a9.967,9.967,0,0,1-.17-2.112" fill="#ff501a"/>
          <path id="Path_34" data-name="Path 34" d="M177.727,331.123a10,10,0,0,1,1.566.141c-1.058,0-2.115,0-3.172,0a9.93,9.93,0,0,1,1.606-.138" fill="#ff501a"/>
          <path id="Path_35" data-name="Path 35" d="M205.11,331.124a10.246,10.246,0,0,1,1.569.162l-3.541,0a10.1,10.1,0,0,1,1.972-.158" fill="#ff501a"/>
          <path id="Path_36" data-name="Path 36" d="M85.8,341.115a9.818,9.818,0,0,1,1.257-4.756,17.033,17.033,0,0,0-1.185,6.025,11.255,11.255,0,0,1-.072-1.269" fill="#ff501a"/>
          <path id="Path_37" data-name="Path 37" d="M96.028,331.123c.167,0,.33.02.5.029a16.778,16.778,0,0,0-4.841.93,10.057,10.057,0,0,1,4.346-.959" fill="#ff501a"/>
          <path id="Path_38" data-name="Path 38" d="M85.812,396.015a11.042,11.042,0,0,1,.166-2.067q0,1.853,0,3.707a10.126,10.126,0,0,1-.17-1.64" fill="#ff501a"/>
          <path id="Path_39" data-name="Path 39" d="M85.788,422.871A10.265,10.265,0,0,1,86,420.985l0,4.035a10.154,10.154,0,0,1-.2-2.149" fill="#ff501a"/>
          <path id="Path_40" data-name="Path 40" d="M312.306,331.124a10,10,0,0,1,1.678.143q-1.634,0-3.268,0a10.139,10.139,0,0,1,1.59-.145" fill="#ff501a"/>
          <path id="Path_41" data-name="Path 41" d="M285.085,331.125a10.231,10.231,0,0,1,1.764.159l-3.508,0a10.289,10.289,0,0,1,1.744-.161" fill="#ff501a"/>
          <path id="Path_42" data-name="Path 42" d="M339.627,331.123a9.792,9.792,0,0,1,1.265.094l-2.615,0a9.9,9.9,0,0,1,1.35-.1" fill="#ff501a"/>
          <path id="Path_43" data-name="Path 43" d="M367.011,331.124c.213,0,.421.025.63.043l-1.759,0a10.045,10.045,0,0,1,1.129-.045" fill="#ff501a"/>
          <path id="Path_44" data-name="Path 44" d="M257.929,331.123a10.045,10.045,0,0,1,1.763.179l-3.738,0a10,10,0,0,1,1.975-.182" fill="#ff501a"/>
          <path id="Path_45" data-name="Path 45" d="M85.805,610.151a11.666,11.666,0,0,1,.1-1.33q-.006,1.323-.014,2.646a9.539,9.539,0,0,1-.084-1.316" fill="#ff501a"/>
          <path id="Path_46" data-name="Path 46" d="M85.8,528.464a11.2,11.2,0,0,1,.182-1.854l0,3.858a9.744,9.744,0,0,1-.185-2" fill="#ff501a"/>
          <path id="Path_47" data-name="Path 47" d="M85.8,501.021a9.816,9.816,0,0,1,.162-1.664l0,3.591a10.939,10.939,0,0,1-.165-1.927" fill="#ff501a"/>
          <path id="Path_48" data-name="Path 48" d="M85.812,555.922A11.043,11.043,0,0,1,86,553.664q0,2.028,0,4.056a10.182,10.182,0,0,1-.2-1.8" fill="#ff501a"/>
          <path id="Path_49" data-name="Path 49" d="M85.788,582.777a10.365,10.365,0,0,1,.2-1.828q0,1.965,0,3.929a10.043,10.043,0,0,1-.194-2.1" fill="#ff501a"/>
        </g>
      </g>
    </g>
    <rect id="Rectangle_42" data-name="Rectangle 42" width="313.138" height="113.203" transform="translate(67.835 539.133)" fill="#f3f2f0"/>
    <g id="Group_97" data-name="Group 97" style="mix-blend-mode: multiply;isolation: isolate">
      <g id="Group_96" data-name="Group 96">
        <g id="Group_95" data-name="Group 95" clip-path="url(#clip-path-2)">
          <path id="Path_50" data-name="Path 50" d="M260.2,497.177a82.386,82.386,0,1,1-82.5,82.15,82.325,82.325,0,0,1,82.5-82.15m-.021,37.641c-24.7-.021-44.979,20-44.955,44.386a44.867,44.867,0,1,0,44.955-44.386" fill="#82d1d3"/>
        </g>
      </g>
    </g>
    <g id="Group_100" data-name="Group 100" style="mix-blend-mode: multiply;isolation: isolate">
      <g id="Group_99" data-name="Group 99">
        <g id="Group_98" data-name="Group 98" clip-path="url(#clip-path-3)">
          <path id="Path_51" data-name="Path 51" d="M199.847,321.23a59.318,59.318,0,0,0,5.393-11.11L65.082,362.551a45.3,45.3,0,0,0,7.234,10.019l126-47.051a7.731,7.731,0,0,1,1.533-4.289" fill="#82d1d3"/>
          <path id="Path_52" data-name="Path 52" d="M208.46,292.107,60.454,347.485A43.194,43.194,0,0,0,63,357.968l144.037-53.882a52.118,52.118,0,0,0,1.422-11.979" fill="#82d1d3"/>
          <path id="Path_53" data-name="Path 53" d="M201.053,329.857,76.376,376.415A41.077,41.077,0,0,0,88.355,383.6l119.787-44.7a43.616,43.616,0,0,0-7.089-9.038" fill="#82d1d3"/>
          <path id="Path_54" data-name="Path 54" d="M183.071,251.5c-1.281-.562-2.559-1.122-3.858-1.629L127.3,269.234l-.218-.583a55.354,55.354,0,0,0-7.56,15.94c-.058.2-.118.383-.178.569l73.533-27.531a43.344,43.344,0,0,0-9.81-6.126" fill="#82d1d3"/>
          <path id="Path_55" data-name="Path 55" d="M132.692,261.864l37.694-14.058a46.192,46.192,0,0,0-37.694,14.058" fill="#82d1d3"/>
          <path id="Path_56" data-name="Path 56" d="M196.928,261.477l-123.676,46.3-.451-1.2a51.622,51.622,0,0,0-9.786,17.464l140.716-52.648a42.444,42.444,0,0,0-6.8-9.917" fill="#82d1d3"/>
          <path id="Path_57" data-name="Path 57" d="M79.361,300.131l28.624-10.717c-10.287-.033-20.4,3.961-28.624,10.717" fill="#82d1d3"/>
          <path id="Path_58" data-name="Path 58" d="M210.478,343.384,96.994,385.735c7.371.906,15.2-.327,23.362-3.573,3.15-1.253,4.517-1.255,5.758,2.454.242.725.5,1.434.763,2.135l87.063-32.408a48.766,48.766,0,0,0-3.462-10.959" fill="#82d1d3"/>
          <path id="Path_59" data-name="Path 59" d="M205.7,276.018,62.393,329.637l-.538-1.435a58.727,58.727,0,0,0-1.718,14.039l148.047-55.394a46.486,46.486,0,0,0-2.48-10.829" fill="#82d1d3"/>
          <path id="Path_60" data-name="Path 60" d="M199.851,399.821,161.1,414.252c14.279,1.775,28.248-3.515,38.754-14.431" fill="#82d1d3"/>
          <path id="Path_61" data-name="Path 61" d="M214.646,359.439l-85.787,31.933a43.875,43.875,0,0,0,5.92,9.178l79.558-29.6a50.688,50.688,0,0,0,.309-11.516" fill="#82d1d3"/>
          <path id="Path_62" data-name="Path 62" d="M208.821,387.571a47.8,47.8,0,0,0,4.338-10.82L138.616,404.48a38.885,38.885,0,0,0,13.561,7.735l53.836-20.047q1.482-2.2,2.808-4.6" fill="#82d1d3"/>
        </g>
      </g>
    </g>
  </g>
</svg>
