<svg xmlns="http://www.w3.org/2000/svg" xmlns:xlink="http://www.w3.org/1999/xlink" width="216.84" height="112.3" viewBox="0 0 216.84 112.3">
  <defs>
    <clipPath id="clip-path">
      <rect id="Rectangle_52" data-name="Rectangle 52" width="162.66" height="36" transform="translate(1324.99 1198.69)" fill="none"/>
    </clipPath>
    <clipPath id="clip-path-2">
      <rect id="Rectangle_54" data-name="Rectangle 54" width="102.01" height="112.3" transform="translate(1439.82 1162.36)" fill="none"/>
    </clipPath>
    <clipPath id="clip-path-3">
      <rect id="Rectangle_53" data-name="Rectangle 53" width="102.497" height="90.78" transform="matrix(0.115, -0.993, 0.993, 0.115, 1439.822, 1264.175)" fill="none"/>
    </clipPath>
  </defs>
  <g id="Group_534" data-name="Group 534" transform="translate(-1324.99 -1162.36)">
    <g id="Group_123" data-name="Group 123" style="mix-blend-mode: multiply;isolation: isolate">
      <g id="Group_122" data-name="Group 122">
        <g id="Group_121" data-name="Group 121" clip-path="url(#clip-path)">
          <path id="Path_273" data-name="Path 273" d="M1487.648,1198.693h-.3l.3.46Z" fill="#82d1d3"/>
          <path id="Path_274" data-name="Path 274" d="M1399.231,1198.693l-26.756,36h16.673l26.791-36Z" fill="#82d1d3"/>
          <path id="Path_275" data-name="Path 275" d="M1377.28,1198.693l-26.754,36h14.944l26.758-36Z" fill="#82d1d3"/>
          <path id="Path_276" data-name="Path 276" d="M1422.947,1198.693l-26.79,36h15.259l26.8-36Z" fill="#82d1d3"/>
          <path id="Path_277" data-name="Path 277" d="M1331.652,1198.693l-6.667,8.974v21.863l22.919-30.837Z" fill="#82d1d3"/>
          <path id="Path_278" data-name="Path 278" d="M1445.225,1198.693l-26.8,36h15.95l26.848-36Z" fill="#82d1d3"/>
          <path id="Path_279" data-name="Path 279" d="M1354.911,1198.693l-26.754,36h15.363l26.754-36Z" fill="#82d1d3"/>
          <path id="Path_280" data-name="Path 280" d="M1487.648,1234.693v-.827l-.617.827Z" fill="#82d1d3"/>
          <path id="Path_281" data-name="Path 281" d="M1468.236,1198.693l-26.849,36H1456.3l26.857-36Z" fill="#82d1d3"/>
          <path id="Path_282" data-name="Path 282" d="M1463.313,1234.693h16.713l7.622-10.223v-21.5c-.066-.213-.118-.429-.187-.64Z" fill="#82d1d3"/>
        </g>
      </g>
    </g>
    <g id="Group_128" data-name="Group 128" style="mix-blend-mode: multiply;isolation: isolate">
      <g id="Group_127" data-name="Group 127">
        <g id="Group_126" data-name="Group 126" clip-path="url(#clip-path-2)">
          <g id="Group_125" data-name="Group 125">
            <g id="Group_124" data-name="Group 124" clip-path="url(#clip-path-3)">
              <path id="Path_283" data-name="Path 283" d="M1486.735,1257.783l42.282-6.1c.72-.1,1.439-.219,2.16-.324,1.879-.274,2.128-1.15.893-2.9-4.824-6.821-9.593-13.692-14.386-20.541q-21.411-30.6-42.834-61.191c-.495-.706-.807-1.962-1.7-1.838-.859.119-.925,1.363-1.2,2.188q-15.745,47.055-31.476,94.12c-1.014,3.032-.809,3.37,2.058,2.959q22.105-3.165,44.206-6.373" fill="#ff501a"/>
            </g>
          </g>
        </g>
      </g>
    </g>
  </g>
</svg>
