<?xml version="1.0" encoding="UTF-8"?>
<svg id="Layer_2" data-name="Layer 2" xmlns="http://www.w3.org/2000/svg" xmlns:xlink="http://www.w3.org/1999/xlink" viewBox="0 0 268.65 333.21">
  <defs>
    <style>
      .cls-1 {
        fill: url(#linear-gradient);
      }

      .cls-1, .cls-2 {
        stroke-width: 0px;
      }

      .cls-2 {
        fill: none;
      }

      .cls-3 {
        clip-path: url(#clippath);
      }
    </style>
    <clipPath id="clippath">
      <path class="cls-2" d="M87,68.44c2.54-6.35,5.98-10.84,8.36-13.78,2.54-3.14,5.22-6.98,10.29-9.96,5.19-3.05,9.91-3.87,13.48-4.45,10.21-.69,11.77-.38,13.39-.49.64.47,1.74,1.4,3.14,2.22,1.44.84,3.63,2.14,6.11,2.12,3-.01,4.35-.94,7.57-2.85,1.22-.25,2.43-.32,4.85-.46,2.98-.17,4.47-.26,5.05,0,1.34,4.08,1.24,15.4.66,16.39-.56-.11-.94.51-.94.51l-8.55.49s-3.76-2.85-8.37-2.66c-1.18.01-4.25.04-6.21,2.09-3.32,1.87-4.29,6.46-4.42,10.28-.16.22-.27-.01-.48.47-.21,2.57.25,5.38.43,6.78-.41,1.41-.69,21.76-.63,35.79-.21,5.2.93,25.97.89,28.98s1.59,21.29,2.08,32.66c.4,18.99-.27,17.97-.4,27.49.49,14.29-.66.92,2.17,31.73-.21.28-1.34,1.42-3.23,2.66-5.18.44-8.72,1.02-15.4.18-.47-.28-2.46-1.48-3.72-3.01,1.48-6.48,2.21-16.82,2.3-31.11.5-10.09-.53-6.81-.44-28.33.2-12.22.89-12.87,1.77-31.87.75-16.11.81-23.92.49-29.59-.31-18.62-.87-33.16-.84-34.27s.44-8.29.44-8.29c0,0-1.22.45-1.77-.62.19.01-1.15-9.84-2.39-12.22-15.15.11-21.59,14.19-25.49,15.31-.08-.09,0-1.42,0-1.42,0,0,1.85-1.14-.17-.81Z"/>
    </clipPath>
    <linearGradient id="linear-gradient" x1="134.32" y1="333.21" x2="134.32" y2="0" gradientUnits="userSpaceOnUse">
      <stop offset=".1" stop-color="#1c3967"/>
      <stop offset=".4" stop-color="#007993"/>
      <stop offset=".7" stop-color="#3cb389"/>
    </linearGradient>
  </defs>
  <g id="Layer_3" data-name="Layer 3">
    <g class="cls-3">
      <path class="cls-1" d="M111.14,145.62c.07-.17.1-.28.16-.37-1.02,2.82-3.5,9.91-3.73,12.87-.02.09-.03.14-.04.17,0,.03-.01.03,0-.01,0-.04.01-.12.03-.24.42-3.96,2.25-9.04,3.56-12.36l.02-.06ZM135.76,138.46c5.81-1.38,8.93-4.99,10.37-9.12.32-.85.26-.85-.15-.06-1.47,2.98-3.53,5.99-7.05,7.66-.89.49-2.44,1.06-3.17,1.51h0ZM111.32,145.14c1.32-1.74,3.49-4.31,5.51-5.72-1.75.92-4.81,3.85-5.51,5.71h0ZM114.24,176.65c-.23,1.47-.43,3.27-.44,4.99.4-1.38.5-3.38.45-4.98h0ZM152.95,74.25c-1.88,7.84,1.22,17.63.32,25.93-1.11,9.71-6.04,17.55-7.61,26.93-.15.73-.2,1.07-.15.95,1.59-7.8,5.11-15.59,7.18-23.28,2.36-8.15-.69-18.38-.05-27.29.84-15.06,18.27-21.19,29.31-30.61,1-.83,3.1-2.86,2.92-2.74-10.27,10.11-28.6,15.97-31.9,30.01l-.03.11ZM129.73,137.23c-2.52-.26-4.81-.51-6.6-.3-2.55.24-5.01,1.68-6.36,2.46,1.32-.69,3.66-2.07,6.4-2.27,2.6-.2,5.99.34,9.04.59.81.08,1.87.19,2.63.26.39.04.46.02.21-.04-1.21-.26-3.7-.53-5.07-.67l-.24-.03ZM85.48,207.28c.13-5.2,4.43-8.37,10.06-10.33,4.63-1.56,11.45-4.67,13.21-6.7-9.78,7.78-26.26,6.03-23.23,21.67,1.64,9.49,6.01,19.56,6.31,28.44.05.37.06.17.03-.55.03-10.07-6.67-22.42-6.4-32.41v-.13ZM92.03,240.58s0,0,0,.01h0s0-.01,0-.01ZM109.73,190.08c1.74-2.08,3.98-5.39,4.22-8.37-.76,2.37-2.37,6.29-4.22,8.38h0ZM111.28,167.53c1.37,3.02,2.12,6.06,2.84,8.83.23.78.3.31.03-1.23-.23-1.23-.58-2.6-1.06-3.95-1.44-3.72-4.35-9.98-5.26-12.83.68,2.68,2.07,6.02,3.38,9.01l.07.17ZM132.82,136.94c5.8-1.38,8.93-4.99,10.37-9.12.32-.85.26-.85-.15-.06-1.47,2.98-3.53,5.99-7.05,7.66-.89.49-2.44,1.06-3.17,1.51h0ZM150.01,72.73c-1.88,7.84,1.22,17.63.32,25.93-1.11,9.71-6.04,17.55-7.61,26.93-.15.73-.2,1.07-.15.95,1.59-7.8,5.11-15.59,7.18-23.28,2.36-8.15-.69-18.38-.05-27.29.84-15.06,18.27-21.19,29.31-30.61,1-.83,3.1-2.86,2.92-2.74-10.27,10.11-28.6,15.97-31.9,30.01l-.03.11ZM108.18,144.16c-1.3,3.32-3.13,8.39-3.56,12.36-.02.12-.02.2-.03.24,0,.04,0,.05,0,.01,0-.03.02-.09.04-.17.23-2.96,2.7-10.04,3.73-12.87-.06.09-.09.2-.16.37l-.02.06ZM111.3,175.13c-.23,1.47-.43,3.27-.44,4.99.4-1.38.5-3.38.45-4.98h0ZM108.38,143.62c1.32-1.74,3.49-4.31,5.51-5.72-1.75.92-4.81,3.85-5.51,5.71h0ZM89.09,239.06s0,0,0,.01h0s0-.01,0-.01ZM82.54,205.76c.13-5.2,4.43-8.37,10.06-10.33,4.63-1.56,11.45-4.67,13.21-6.7-9.78,7.78-26.26,6.03-23.23,21.67,1.64,9.49,6.01,19.56,6.31,28.44.05.37.06.17.03-.55.03-10.07-6.67-22.42-6.4-32.41v-.13ZM106.79,188.56c1.74-2.08,3.98-5.39,4.22-8.37-.76,2.37-2.37,6.29-4.22,8.38h0ZM126.79,135.71c-2.52-.26-4.81-.51-6.6-.3-2.55.24-5.01,1.68-6.36,2.46,1.32-.69,3.66-2.07,6.4-2.27,2.6-.2,5.99.34,9.04.59.81.08,1.87.19,2.63.26.39.04.46.02.21-.04-1.21-.26-3.7-.53-5.07-.67l-.24-.03ZM108.34,166.01c1.37,3.02,2.12,6.06,2.84,8.83.23.78.3.31.03-1.23-.23-1.23-.58-2.6-1.06-3.95-1.44-3.72-4.35-9.98-5.26-12.83.68,2.68,2.07,6.02,3.38,9.01l.07.17ZM105.32,142.68c-1.3,3.32-3.13,8.39-3.56,12.36-.02.12-.02.2-.03.24,0,.04,0,.05,0,.01,0-.03.02-.09.04-.17.23-2.96,2.7-10.04,3.73-12.87-.06.09-.09.2-.16.37l-.02.06ZM105.53,142.14c1.32-1.74,3.49-4.31,5.51-5.72-1.75.92-4.81,3.85-5.51,5.71h0ZM147.16,71.25c-1.88,7.84,1.22,17.63.32,25.93-1.11,9.71-6.04,17.55-7.61,26.93-.15.73-.2,1.07-.15.95,1.59-7.8,5.11-15.59,7.18-23.28,2.36-8.15-.69-18.38-.05-27.29.84-15.06,18.27-21.19,29.31-30.61,1-.83,3.1-2.86,2.92-2.74-10.27,10.11-28.6,15.97-31.9,30.01l-.03.11ZM108.45,173.65c-.23,1.47-.43,3.27-.44,4.99.4-1.38.5-3.38.45-4.98h0ZM123.94,134.23c-2.52-.26-4.81-.51-6.6-.3-2.55.24-5.01,1.68-6.36,2.46,1.32-.69,3.66-2.07,6.4-2.27,2.6-.2,5.99.34,9.04.59.81.08,1.87.19,2.63.26.39.04.46.02.21-.04-1.21-.26-3.7-.53-5.07-.67l-.24-.03ZM79.69,204.29c.13-5.2,4.43-8.37,10.06-10.33,4.63-1.56,11.45-4.67,13.21-6.69-9.78,7.78-26.26,6.03-23.23,21.67,1.44,8.93,5.62,18.17,6.12,26.66.09.87.15,1.49.19,1.78.05.37.06.17.03-.55.03-10.07-6.67-22.42-6.4-32.41v-.13ZM86.24,237.59s0,0,0,.01h0s0-.01,0-.01ZM103.94,187.08c1.74-2.08,3.98-5.39,4.22-8.37-.76,2.37-2.37,6.29-4.22,8.38h0ZM129.97,135.46c5.81-1.37,8.93-4.99,10.37-9.12.32-.85.26-.85-.15-.06-1.47,2.98-3.53,5.99-7.05,7.66-.89.49-2.44,1.06-3.17,1.51h0ZM105.49,164.53c1.37,3.02,2.12,6.06,2.84,8.83.23.78.3.31.03-1.23-.23-1.23-.58-2.6-1.06-3.95-1.44-3.72-4.35-9.98-5.26-12.83.68,2.68,2.07,6.02,3.38,9.01l.07.17ZM102.66,141.25c-1.3,3.32-3.13,8.39-3.56,12.36-.02.12-.02.2-.03.24,0,.04,0,.05,0,.01,0-.03.02-.09.04-.17.23-2.96,2.7-10.04,3.73-12.87-.06.09-.09.2-.16.37l-.02.06ZM127.3,134.03c5.81-1.38,8.93-4.99,10.37-9.12.32-.85.26-.85-.15-.06-1.47,2.98-3.53,5.99-7.05,7.66-.89.49-2.44,1.06-3.17,1.51h0ZM102.86,140.71c1.32-1.74,3.49-4.31,5.51-5.72-1.75.92-4.81,3.85-5.51,5.71h0ZM105.78,172.22c-.23,1.47-.43,3.27-.44,4.99.4-1.38.5-3.38.45-4.98h0ZM144.49,69.82c-1.88,7.84,1.22,17.63.32,25.93-1.11,9.71-6.04,17.55-7.61,26.93-.15.73-.2,1.07-.15.95,1.59-7.8,5.11-15.59,7.18-23.28,2.36-8.15-.69-18.38-.05-27.29.84-15.06,18.27-21.19,29.31-30.61,1-.83,3.1-2.86,2.92-2.74-10.27,10.11-28.6,15.97-31.9,30.01l-.03.11ZM121.27,132.8c-2.52-.26-4.81-.51-6.6-.3-2.55.24-5.01,1.68-6.36,2.46,1.32-.69,3.66-2.07,6.4-2.27,2.6-.2,5.99.34,9.04.59.81.08,1.87.19,2.63.26.39.04.46.02.21-.04-1.21-.26-3.7-.53-5.07-.67l-.24-.03ZM77.02,202.85c.13-5.2,4.43-8.37,10.06-10.33,4.63-1.56,11.45-4.67,13.21-6.7-9.78,7.78-26.26,6.03-23.23,21.67,1.64,9.49,6.01,19.56,6.31,28.44.05.37.06.17.03-.55.03-10.07-6.67-22.42-6.4-32.41v-.13ZM83.57,236.15s0,0,0,.01h0s0-.01,0-.01ZM101.27,185.65c1.74-2.08,3.98-5.39,4.22-8.37-.76,2.37-2.37,6.29-4.22,8.38h0ZM102.82,163.1c1.37,3.02,2.12,6.06,2.84,8.83.23.78.3.31.03-1.23-.23-1.23-.58-2.6-1.06-3.95-1.44-3.72-4.35-9.98-5.26-12.83.68,2.68,2.07,6.02,3.38,9.01l.07.17ZM124.36,132.51c5.81-1.38,8.93-4.99,10.37-9.12.32-.85.26-.85-.15-.06-1.47,2.98-3.53,5.99-7.05,7.66-.89.49-2.44,1.06-3.17,1.51h0ZM141.55,68.3c-1.88,7.84,1.22,17.63.32,25.93-1.11,9.71-6.04,17.55-7.61,26.93-.15.73-.2,1.07-.15.95,1.59-7.8,5.11-15.59,7.18-23.28,2.36-8.15-.69-18.38-.05-27.29.84-15.06,18.27-21.19,29.31-30.61,1-.83,3.1-2.86,2.92-2.74-10.27,10.11-28.6,15.97-31.9,30.01l-.03.11ZM99.72,139.73c-1.3,3.32-3.13,8.39-3.56,12.36-.02.12-.02.2-.03.24,0,.04,0,.05,0,.01,0-.03.02-.09.04-.17.23-2.96,2.7-10.04,3.73-12.87-.06.09-.09.2-.16.37l-.02.06ZM102.85,170.7c-.23,1.47-.43,3.27-.44,4.99.4-1.38.5-3.38.45-4.98h0ZM99.92,139.19c1.32-1.74,3.49-4.31,5.51-5.72-1.75.92-4.81,3.85-5.51,5.71h0ZM80.63,234.63s0,0,0,.01h0s0-.01,0-.01ZM74.08,201.33c.13-5.2,4.43-8.37,10.06-10.33,4.63-1.56,11.45-4.67,13.21-6.7-9.78,7.78-26.26,6.03-23.23,21.67,1.64,9.49,6.01,19.56,6.31,28.44.05.37.06.17.03-.55.03-10.07-6.67-22.42-6.4-32.41v-.13ZM98.33,184.13c1.74-2.08,3.98-5.39,4.22-8.37-.76,2.37-2.37,6.29-4.22,8.38h0ZM118.33,131.28c-2.52-.26-4.81-.51-6.6-.3-2.55.24-5.01,1.68-6.36,2.46,1.32-.69,3.66-2.07,6.4-2.27,2.6-.2,5.99.34,9.04.59.81.08,1.87.19,2.63.26.39.04.46.02.21-.04-1.21-.26-3.7-.53-5.07-.67l-.24-.03ZM99.88,161.58c1.37,3.02,2.12,6.06,2.84,8.83.23.78.3.31.03-1.23-.23-1.23-.58-2.6-1.06-3.95-1.44-3.72-4.35-9.98-5.26-12.83.68,2.68,2.07,6.02,3.38,9.01l.07.17ZM96.87,138.25c-1.3,3.32-3.13,8.39-3.56,12.36-.02.12-.02.2-.03.24,0,.04,0,.05,0,.01,0-.03.02-.09.04-.17.23-2.96,2.7-10.04,3.73-12.87-.06.09-.09.2-.16.37l-.02.06ZM97.07,137.71c1.32-1.74,3.49-4.31,5.51-5.72-1.75.92-4.81,3.85-5.51,5.71h0ZM138.7,66.82c-1.88,7.84,1.22,17.63.32,25.93-1.11,9.71-6.04,17.55-7.61,26.93-.15.73-.2,1.07-.15.95,1.59-7.8,5.11-15.59,7.18-23.28,2.36-8.15-.69-18.38-.05-27.29.84-15.06,18.27-21.19,29.31-30.61,1-.83,3.1-2.86,2.92-2.74-10.27,10.11-28.6,15.97-31.9,30.01l-.03.11ZM99.99,169.22c-.23,1.47-.43,3.27-.44,4.99.4-1.38.5-3.38.45-4.98h0ZM115.48,129.8c-2.52-.26-4.81-.51-6.6-.3-2.55.24-5.01,1.68-6.36,2.46,1.32-.69,3.66-2.07,6.4-2.27,2.6-.2,5.99.34,9.04.59.81.08,1.87.19,2.63.26.39.04.46.02.21-.04-1.21-.26-3.7-.53-5.07-.67l-.24-.03ZM71.23,199.86c.13-5.2,4.43-8.37,10.06-10.33,4.63-1.56,11.45-4.67,13.21-6.69-9.78,7.78-26.26,6.03-23.23,21.67,1.64,9.49,6.01,19.56,6.31,28.44.05.37.06.17.03-.55.03-10.07-6.67-22.42-6.4-32.41v-.13ZM77.78,233.16s0,0,0,.01h0s0-.01,0-.01ZM95.48,182.65c1.74-2.08,3.98-5.39,4.22-8.37-.76,2.37-2.37,6.29-4.22,8.38h0ZM121.51,131.03c5.81-1.37,8.93-4.99,10.37-9.12.32-.85.26-.85-.15-.06-1.47,2.98-3.53,5.99-7.05,7.66-.89.49-2.44,1.06-3.17,1.51h0ZM97.03,160.1c1.37,3.02,2.12,6.06,2.84,8.83.23.78.3.31.03-1.23-.23-1.23-.58-2.6-1.06-3.95-1.44-3.72-4.35-9.98-5.26-12.83.68,2.68,2.07,6.02,3.38,9.01l.07.17ZM93.45,136.42c-1.3,3.32-3.13,8.39-3.56,12.36-.02.12-.02.2-.03.24,0,.04,0,.05,0,.01,0-.03.02-.09.04-.17.23-2.96,2.7-10.04,3.73-12.87-.06.09-.09.2-.16.37l-.02.06ZM118.1,129.2c5.8-1.38,8.93-4.99,10.37-9.12.32-.85.26-.85-.15-.06-1.47,2.98-3.53,5.99-7.05,7.66-.89.49-2.44,1.06-3.17,1.51h0ZM93.66,135.88c1.32-1.74,3.49-4.31,5.51-5.72-1.75.92-4.81,3.85-5.51,5.71h0ZM96.58,167.4c-.23,1.47-.43,3.27-.44,4.99.4-1.38.5-3.38.45-4.98h0ZM135.29,64.99c-1.88,7.84,1.22,17.63.32,25.93-1.11,9.71-6.04,17.55-7.61,26.93-.15.73-.2,1.07-.15.95,1.59-7.8,5.11-15.59,7.18-23.28,2.36-8.15-.69-18.38-.05-27.29.84-15.06,18.27-21.19,29.31-30.61,1-.83,3.1-2.86,2.92-2.74-10.27,10.11-28.6,15.97-31.9,30.01l-.03.11ZM112.07,127.97c-2.52-.26-4.81-.51-6.6-.3-2.55.24-5.01,1.68-6.36,2.46,1.32-.69,3.66-2.07,6.4-2.27,2.6-.2,5.99.34,9.04.59.81.08,1.87.19,2.63.26.39.04.46.02.21-.04-1.21-.26-3.7-.53-5.07-.67l-.24-.03ZM67.82,198.03c.13-5.2,4.43-8.37,10.06-10.33,4.63-1.56,11.45-4.67,13.21-6.7-9.78,7.78-26.26,6.03-23.23,21.67,1.64,9.49,6.01,19.56,6.31,28.44.05.37.06.17.03-.55.03-10.07-6.67-22.42-6.4-32.41v-.13ZM74.37,231.33s0,0,0,.01h0s0-.01,0-.01ZM92.07,180.83c1.74-2.08,3.98-5.39,4.22-8.37-.76,2.37-2.37,6.29-4.22,8.38h0ZM93.62,158.27c1.37,3.02,2.12,6.06,2.84,8.83.23.78.3.31.03-1.23-.23-1.23-.58-2.6-1.06-3.95-1.44-3.72-4.35-9.98-5.26-12.83.68,2.68,2.07,6.02,3.38,9.01l.07.17ZM115.16,127.68c5.81-1.38,8.93-4.99,10.37-9.12.32-.85.26-.85-.15-.06-1.47,2.98-3.53,5.99-7.05,7.66-.89.49-2.44,1.06-3.17,1.51h0ZM132.35,63.47c-1.88,7.84,1.22,17.63.32,25.93-1.11,9.71-6.04,17.55-7.61,26.93-.15.73-.2,1.07-.15.95,1.59-7.8,5.11-15.59,7.18-23.28,2.36-8.15-.69-18.38-.05-27.29.84-15.06,18.27-21.19,29.31-30.61,1-.83,3.1-2.86,2.92-2.74-10.27,10.11-28.6,15.97-31.9,30.01l-.03.11ZM90.52,134.9c-1.3,3.32-3.13,8.39-3.56,12.36-.02.12-.02.2-.03.24,0,.04,0,.05,0,.01,0-.03.02-.09.04-.17.23-2.96,2.7-10.04,3.73-12.87-.06.09-.09.2-.16.37l-.02.06ZM93.64,165.88c-.23,1.47-.43,3.27-.44,4.99.4-1.38.5-3.38.45-4.98h0ZM90.72,134.36c1.32-1.74,3.49-4.31,5.51-5.72-1.75.92-4.81,3.85-5.51,5.71h0ZM71.43,229.81s0,0,0,.01h0s0-.01,0-.01ZM64.88,196.51c.13-5.2,4.43-8.37,10.06-10.33,4.63-1.56,11.45-4.67,13.21-6.7-9.78,7.78-26.26,6.03-23.23,21.67,1.64,9.49,6.01,19.56,6.31,28.44.05.37.06.17.03-.55.03-10.07-6.67-22.42-6.4-32.41v-.13ZM89.13,179.31c1.74-2.08,3.98-5.39,4.22-8.37-.76,2.37-2.37,6.29-4.22,8.38h0ZM109.13,126.45c-2.52-.26-4.81-.51-6.6-.3-2.55.24-5.01,1.68-6.36,2.46,1.32-.69,3.66-2.07,6.4-2.27,2.6-.2,5.99.34,9.04.59.81.08,1.87.19,2.63.26.39.04.46.02.21-.04-1.21-.26-3.7-.53-5.07-.67l-.24-.03ZM90.68,156.75c1.37,3.02,2.12,6.06,2.84,8.83.23.78.3.31.03-1.23-.23-1.23-.58-2.6-1.06-3.95-1.44-3.72-4.35-9.98-5.26-12.83.68,2.68,2.07,6.02,3.38,9.01l.07.17ZM87.66,133.42c-1.3,3.32-3.13,8.39-3.56,12.36-.02.12-.02.2-.03.24,0,.04,0,.05,0,.01,0-.03.02-.09.04-.17.23-2.96,2.7-10.04,3.73-12.87-.06.09-.09.2-.16.37l-.02.06ZM87.87,132.88c1.32-1.74,3.49-4.31,5.51-5.72-1.75.92-4.81,3.85-5.51,5.71h0ZM129.5,61.99c-1.88,7.84,1.22,17.63.32,25.93-1.11,9.71-6.04,17.55-7.61,26.93-.15.73-.2,1.07-.15.95,1.59-7.8,5.11-15.59,7.18-23.28,2.36-8.15-.69-18.38-.05-27.29.84-15.06,18.27-21.19,29.31-30.61,1-.83,3.1-2.86,2.92-2.74-10.27,10.11-28.6,15.97-31.9,30.01l-.03.11ZM90.79,164.4c-.23,1.47-.43,3.27-.44,4.99.4-1.38.5-3.38.45-4.98h0ZM106.28,124.97c-2.52-.26-4.81-.51-6.6-.3-2.55.24-5.01,1.68-6.36,2.46,1.32-.69,3.66-2.07,6.4-2.27,2.6-.2,5.99.34,9.04.59.81.08,1.87.19,2.63.26.39.04.46.02.21-.04-1.21-.26-3.7-.53-5.07-.67l-.24-.03ZM62.03,195.03c.13-5.2,4.43-8.37,10.06-10.33,4.63-1.56,11.45-4.67,13.21-6.69-9.78,7.78-26.26,6.03-23.23,21.67,1.64,9.49,6.01,19.56,6.31,28.44.05.37.06.17.03-.55.03-10.07-6.67-22.42-6.4-32.41v-.13ZM68.58,228.33s0,0,0,.01h0s0-.01,0-.01ZM86.28,177.83c1.74-2.08,3.98-5.39,4.22-8.37-.76,2.37-2.37,6.29-4.22,8.38h0ZM112.31,126.21c5.81-1.37,8.93-4.99,10.37-9.12.32-.85.26-.85-.15-.06-1.47,2.98-3.53,5.99-7.05,7.66-.89.49-2.44,1.06-3.17,1.51h0ZM87.83,155.27c1.37,3.02,2.12,6.06,2.84,8.83.23.78.3.31.03-1.23-.23-1.23-.58-2.6-1.06-3.95-1.44-3.72-4.35-9.98-5.26-12.83.68,2.68,2.07,6.02,3.38,9.01l.07.17ZM84.99,131.99c-1.3,3.32-3.13,8.39-3.56,12.36-.02.12-.02.2-.03.24,0,.04,0,.05,0,.01,0-.03.02-.09.04-.17.23-2.96,2.7-10.04,3.73-12.87-.06.09-.09.2-.16.37l-.02.06ZM109.64,124.77c5.81-1.38,8.93-4.99,10.37-9.12.32-.85.26-.85-.15-.06-1.47,2.98-3.53,5.99-7.05,7.66-.89.49-2.44,1.06-3.17,1.51h0ZM85.2,131.45c1.32-1.74,3.49-4.31,5.51-5.72-1.75.92-4.81,3.85-5.51,5.71h0ZM88.12,162.97c-.23,1.47-.43,3.27-.44,4.99.4-1.38.5-3.38.45-4.98h0ZM126.83,60.56c-1.88,7.84,1.22,17.63.32,25.93-1.11,9.71-6.04,17.55-7.61,26.93-.15.73-.2,1.07-.15.95,1.59-7.8,5.11-15.59,7.18-23.28,2.36-8.15-.69-18.38-.05-27.29.84-15.06,18.27-21.19,29.31-30.61,1-.83,3.1-2.86,2.92-2.74-10.27,10.11-28.6,15.97-31.9,30.01l-.03.11ZM103.61,123.54c-2.52-.26-4.81-.51-6.6-.3-2.55.24-5.01,1.68-6.36,2.46,1.32-.69,3.66-2.07,6.4-2.27,2.6-.2,5.99.34,9.04.59.81.08,1.87.19,2.63.26.39.04.46.02.21-.04-1.21-.26-3.7-.53-5.07-.67l-.24-.03ZM59.36,193.6c.13-5.2,4.43-8.37,10.06-10.33,4.63-1.56,11.45-4.67,13.21-6.7-9.78,7.78-26.26,6.03-23.23,21.67,1.44,8.93,5.62,18.17,6.12,26.66.09.87.15,1.49.19,1.78.05.37.06.17.03-.55.03-10.07-6.67-22.42-6.4-32.41v-.13ZM65.91,226.9s0,0,0,.01h0s0-.01,0-.01ZM83.61,176.4c1.74-2.08,3.98-5.39,4.22-8.37-.76,2.37-2.37,6.29-4.22,8.38h0ZM85.16,153.84c1.37,3.02,2.12,6.06,2.84,8.83.23.78.3.31.03-1.23-.23-1.23-.58-2.6-1.06-3.95-1.44-3.72-4.35-9.98-5.26-12.83.68,2.68,2.07,6.02,3.38,9.01l.07.17ZM106.7,123.25c5.81-1.38,8.93-4.99,10.37-9.12.32-.85.26-.85-.15-.06-1.47,2.98-3.53,5.99-7.05,7.66-.89.49-2.44,1.06-3.17,1.51h0ZM123.89,59.04c-1.88,7.84,1.22,17.63.32,25.93-1.11,9.71-6.04,17.55-7.61,26.93-.15.73-.2,1.07-.15.95,1.59-7.8,5.11-15.59,7.18-23.28,2.36-8.15-.69-18.38-.05-27.29.84-15.06,18.27-21.19,29.31-30.61,1-.83,3.1-2.86,2.92-2.74-10.27,10.11-28.6,15.97-31.9,30.01l-.03.11ZM82.06,130.47c-1.3,3.32-3.13,8.39-3.56,12.36-.02.12-.02.2-.03.24,0,.04,0,.05,0,.01,0-.03.02-.09.04-.17.23-2.96,2.7-10.04,3.73-12.87-.06.09-.09.2-.16.37l-.02.06ZM85.18,161.45c-.23,1.47-.43,3.27-.44,4.99.4-1.38.5-3.38.45-4.98h0ZM82.26,129.93c1.32-1.74,3.49-4.31,5.51-5.72-1.75.92-4.81,3.85-5.51,5.71h0ZM62.97,225.38s0,0,0,.01h0s0-.01,0-.01ZM56.42,192.08c.13-5.2,4.43-8.37,10.06-10.33,4.63-1.56,11.45-4.67,13.21-6.7-9.78,7.78-26.26,6.03-23.23,21.67,1.44,8.93,5.62,18.17,6.12,26.66.09.87.15,1.49.19,1.78.05.37.06.17.03-.55.03-10.07-6.67-22.42-6.4-32.41v-.13ZM80.67,174.87c1.74-2.08,3.98-5.39,4.22-8.37-.76,2.37-2.37,6.29-4.22,8.38h0ZM100.67,122.02c-2.52-.26-4.81-.51-6.6-.3-2.55.24-5.01,1.68-6.36,2.46,1.32-.69,3.66-2.07,6.4-2.27,2.6-.2,5.99.34,9.04.59.81.08,1.87.19,2.63.26.39.04.46.02.21-.04-1.21-.26-3.7-.53-5.07-.67l-.24-.03ZM82.22,152.32c1.37,3.02,2.12,6.06,2.84,8.83.23.78.3.31.03-1.23-.23-1.23-.58-2.6-1.06-3.95-1.44-3.72-4.35-9.98-5.26-12.83.68,2.68,2.07,6.02,3.38,9.01l.07.17ZM79.2,128.99c-1.3,3.32-3.13,8.39-3.56,12.36-.02.12-.02.2-.03.24,0,.04,0,.05,0,.01,0-.03.02-.09.04-.17.23-2.96,2.7-10.04,3.73-12.87-.06.09-.09.2-.16.37l-.02.06ZM79.41,128.45c1.32-1.74,3.49-4.31,5.51-5.72-1.75.92-4.81,3.85-5.51,5.71h0ZM121.04,57.56c-1.88,7.84,1.22,17.63.32,25.93-1.11,9.71-6.04,17.55-7.61,26.93-.15.73-.2,1.07-.15.95,1.59-7.8,5.11-15.59,7.18-23.28,2.36-8.15-.69-18.38-.05-27.29.84-15.06,18.27-21.19,29.31-30.61,1-.83,3.1-2.86,2.92-2.74-10.27,10.11-28.6,15.97-31.9,30.01l-.03.11ZM82.33,159.97c-.23,1.47-.43,3.27-.44,4.99.4-1.38.5-3.38.45-4.98h0ZM97.82,120.54c-2.52-.26-4.81-.51-6.6-.3-2.55.24-5.01,1.68-6.36,2.46,1.32-.69,3.66-2.07,6.4-2.27,2.6-.2,5.99.34,9.04.59.81.08,1.87.19,2.63.26.39.04.46.02.21-.04-1.21-.26-3.7-.53-5.07-.67l-.24-.03ZM53.57,190.6c.13-5.2,4.43-8.37,10.06-10.33,4.63-1.56,11.45-4.67,13.21-6.69-9.78,7.78-26.26,6.03-23.23,21.67,1.64,9.49,6.01,19.56,6.31,28.44.05.37.06.17.03-.55.03-10.07-6.67-22.42-6.4-32.41v-.13ZM60.12,223.9s0,0,0,.01h0s0-.01,0-.01ZM77.82,173.4c1.74-2.08,3.98-5.39,4.22-8.37-.76,2.37-2.37,6.29-4.22,8.38h0ZM103.85,121.78c5.81-1.37,8.93-4.99,10.37-9.12.32-.85.26-.85-.15-.06-1.47,2.98-3.53,5.99-7.05,7.66-.89.49-2.44,1.06-3.17,1.51h0ZM79.37,150.84c1.37,3.02,2.12,6.06,2.84,8.83.23.78.3.31.03-1.23-.23-1.23-.58-2.6-1.06-3.95-1.44-3.72-4.35-9.98-5.26-12.83.68,2.68,2.07,6.02,3.38,9.01l.07.17ZM75.79,127.17c-1.3,3.32-3.13,8.39-3.56,12.36-.02.12-.02.2-.03.24,0,.04,0,.05,0,.01,0-.03.02-.09.04-.17.23-2.96,2.7-10.04,3.73-12.87-.06.09-.09.2-.16.37l-.02.06ZM100.44,119.95c5.81-1.38,8.93-4.99,10.37-9.12.32-.85.26-.85-.15-.06-1.47,2.98-3.53,5.99-7.05,7.66-.89.49-2.44,1.06-3.17,1.51h0ZM76,126.63c1.32-1.74,3.49-4.31,5.51-5.72-1.75.92-4.81,3.85-5.51,5.71h0ZM78.92,158.14c-.23,1.47-.43,3.27-.44,4.99.4-1.38.5-3.38.45-4.98h0ZM117.63,55.74c-1.88,7.84,1.22,17.63.32,25.93-1.11,9.71-6.04,17.55-7.61,26.93-.15.73-.2,1.07-.15.95,1.59-7.8,5.11-15.59,7.18-23.28,2.36-8.15-.69-18.38-.05-27.29.84-15.06,18.27-21.19,29.31-30.61,1-.83,3.1-2.86,2.92-2.74-10.27,10.11-28.6,15.97-31.9,30.01l-.03.11ZM94.41,118.72c-2.52-.26-4.81-.51-6.6-.3-2.55.24-5.01,1.68-6.36,2.46,1.32-.69,3.66-2.07,6.4-2.27,2.6-.2,5.99.34,9.04.59.81.08,1.87.19,2.63.26.39.04.46.02.21-.04-1.21-.26-3.7-.53-5.07-.67l-.24-.03ZM50.16,188.77c.13-5.2,4.43-8.37,10.06-10.33,4.63-1.56,11.45-4.67,13.21-6.7-9.78,7.78-26.26,6.03-23.23,21.67,1.64,9.49,6.01,19.56,6.31,28.44.05.37.06.17.03-.55.03-10.07-6.67-22.42-6.4-32.41v-.13ZM56.71,222.07s0,0,0,.01h0s0-.01,0-.01ZM74.41,171.57c1.74-2.08,3.98-5.39,4.22-8.37-.76,2.37-2.37,6.29-4.22,8.38h0ZM75.96,149.02c1.37,3.02,2.12,6.06,2.84,8.83.23.78.3.31.03-1.23-.23-1.23-.58-2.6-1.06-3.95-1.44-3.72-4.35-9.98-5.26-12.83.68,2.68,2.07,6.02,3.38,9.01l.07.17ZM97.5,118.43c5.81-1.38,8.93-4.99,10.37-9.12.32-.85.26-.85-.15-.06-1.47,2.98-3.53,5.99-7.05,7.66-.89.49-2.44,1.06-3.17,1.51h0ZM114.69,54.22c-1.88,7.84,1.22,17.63.32,25.93-1.11,9.71-6.04,17.55-7.61,26.93-.15.73-.2,1.07-.15.95,1.59-7.8,5.11-15.59,7.18-23.28,2.36-8.15-.69-18.38-.05-27.29.84-15.06,18.27-21.19,29.31-30.61,1-.83,3.1-2.86,2.92-2.74-10.27,10.11-28.6,15.97-31.9,30.01l-.03.11ZM72.85,125.64c-1.3,3.32-3.13,8.39-3.56,12.36-.02.12-.02.2-.03.24,0,.04,0,.05,0,.01,0-.03.02-.09.04-.17.23-2.96,2.7-10.04,3.73-12.87-.06.09-.09.2-.16.37l-.02.06ZM75.98,156.62c-.23,1.47-.43,3.27-.44,4.99.4-1.38.5-3.38.45-4.98h0ZM73.06,125.1c1.32-1.74,3.49-4.31,5.51-5.72-1.75.92-4.81,3.85-5.51,5.71h0ZM53.77,220.55s0,0,0,.01h0s0-.01,0-.01ZM47.22,187.25c.13-5.2,4.43-8.37,10.06-10.33,4.63-1.56,11.45-4.67,13.21-6.7-9.78,7.78-26.26,6.03-23.23,21.67,1.64,9.49,6.01,19.56,6.31,28.44.05.37.06.17.03-.55.03-10.07-6.67-22.42-6.4-32.41v-.13ZM71.47,170.05c1.74-2.08,3.98-5.39,4.22-8.37-.76,2.37-2.37,6.29-4.22,8.38h0ZM91.47,117.19c-2.52-.26-4.81-.51-6.6-.3-2.55.24-5.01,1.68-6.36,2.46,1.32-.69,3.66-2.07,6.4-2.27,2.6-.2,5.99.34,9.04.59.81.08,1.87.19,2.63.26.39.04.46.02.21-.04-1.21-.26-3.7-.53-5.07-.67l-.24-.03ZM73.02,147.5c1.37,3.02,2.12,6.06,2.84,8.83.23.78.3.31.03-1.23-.23-1.23-.58-2.6-1.06-3.95-1.44-3.72-4.35-9.98-5.26-12.83.68,2.68,2.07,6.02,3.38,9.01l.07.17ZM70,124.17c-1.3,3.32-3.13,8.39-3.56,12.36-.02.12-.02.2-.03.24,0,.04,0,.05,0,.01,0-.03.02-.09.04-.17.23-2.96,2.7-10.04,3.73-12.87-.06.09-.09.2-.16.37l-.02.06ZM70.21,123.63c1.32-1.74,3.49-4.31,5.51-5.72-1.75.92-4.81,3.85-5.51,5.71h0ZM111.84,52.74c-1.88,7.84,1.22,17.63.32,25.93-1.11,9.71-6.04,17.55-7.61,26.93-.15.73-.2,1.07-.15.95,1.59-7.8,5.11-15.59,7.18-23.28,2.36-8.15-.69-18.38-.05-27.29.84-15.06,18.27-21.19,29.31-30.61,1-.83,3.1-2.86,2.92-2.74-10.27,10.11-28.6,15.97-31.9,30.01l-.03.11ZM73.13,155.14c-.23,1.47-.43,3.27-.44,4.99.4-1.38.5-3.38.45-4.98h0ZM88.62,115.72c-2.52-.26-4.81-.51-6.6-.3-2.55.24-5.01,1.68-6.36,2.46,1.32-.69,3.66-2.07,6.4-2.27,2.6-.2,5.99.34,9.04.59.81.08,1.87.19,2.63.26.39.04.46.02.21-.04-1.21-.26-3.7-.53-5.07-.67l-.24-.03ZM44.37,185.77c.13-5.2,4.43-8.37,10.06-10.33,4.63-1.56,11.45-4.67,13.21-6.69-9.78,7.78-26.26,6.03-23.23,21.67,1.64,9.49,6.01,19.56,6.31,28.44.05.37.06.17.03-.55.03-10.07-6.67-22.42-6.4-32.41v-.13ZM50.92,219.07s0,0,0,.01h0s0-.01,0-.01ZM68.62,168.57c1.74-2.08,3.98-5.39,4.22-8.37-.76,2.37-2.37,6.29-4.22,8.38h0ZM94.65,116.95c5.81-1.37,8.93-4.99,10.37-9.12.32-.85.26-.85-.15-.06-1.47,2.98-3.53,5.99-7.05,7.66-.89.49-2.44,1.06-3.17,1.51h0ZM70.16,146.02c1.37,3.02,2.12,6.06,2.84,8.83.23.78.3.31.03-1.23-.23-1.23-.58-2.6-1.06-3.95-1.44-3.72-4.35-9.98-5.26-12.83.68,2.68,2.07,6.02,3.38,9.01l.07.17ZM67.33,122.74c-1.3,3.32-3.13,8.39-3.56,12.36-.02.12-.02.2-.03.24,0,.04,0,.05,0,.01,0-.03.02-.09.04-.17.23-2.96,2.7-10.04,3.73-12.87-.06.09-.09.2-.16.37l-.02.06ZM91.98,115.52c5.8-1.38,8.93-4.99,10.37-9.12.32-.85.26-.85-.15-.06-1.47,2.98-3.53,5.99-7.05,7.66-.89.49-2.44,1.06-3.17,1.51h0ZM67.54,122.2c1.32-1.74,3.49-4.31,5.51-5.72-1.75.92-4.81,3.85-5.51,5.71h0ZM70.46,153.71c-.23,1.47-.43,3.27-.44,4.99.4-1.38.5-3.38.45-4.98h0ZM109.17,51.31c-1.88,7.84,1.22,17.63.32,25.93-1.11,9.71-6.04,17.55-7.61,26.93-.15.73-.2,1.07-.15.95,1.59-7.8,5.11-15.59,7.18-23.28,2.36-8.15-.69-18.38-.05-27.29.84-15.06,18.27-21.19,29.31-30.61,1-.83,3.1-2.86,2.92-2.74-10.27,10.11-28.6,15.97-31.9,30.01l-.03.11ZM85.95,114.29c-2.52-.26-4.81-.51-6.6-.3-2.55.24-5.01,1.68-6.36,2.46,1.32-.69,3.66-2.07,6.4-2.27,2.6-.2,5.99.34,9.04.59.81.08,1.87.19,2.63.26.39.04.46.02.21-.04-1.21-.26-3.7-.53-5.07-.67l-.24-.03ZM41.7,184.34c.13-5.2,4.43-8.37,10.06-10.33,4.63-1.56,11.45-4.67,13.21-6.7-9.78,7.78-26.26,6.03-23.23,21.67,1.64,9.49,6.01,19.56,6.31,28.44.05.37.06.17.03-.55.03-10.07-6.67-22.42-6.4-32.41v-.13ZM48.25,217.64s0,0,0,.01h0s0-.01,0-.01ZM65.95,167.14c1.74-2.08,3.98-5.39,4.22-8.37-.76,2.37-2.37,6.29-4.22,8.38h0ZM67.5,144.59c1.37,3.02,2.12,6.06,2.84,8.83.23.78.3.31.03-1.23-.23-1.23-.58-2.6-1.06-3.95-1.44-3.72-4.35-9.98-5.26-12.83.68,2.68,2.07,6.02,3.38,9.01l.07.17ZM89.04,114c5.81-1.38,8.93-4.99,10.37-9.12.32-.85.26-.85-.15-.06-1.47,2.98-3.53,5.99-7.05,7.66-.89.49-2.44,1.06-3.17,1.51h0ZM106.23,49.79c-1.88,7.84,1.22,17.63.32,25.93-1.11,9.71-6.04,17.55-7.61,26.93-.15.73-.2,1.07-.15.95,1.59-7.8,5.11-15.59,7.18-23.28,2.36-8.15-.69-18.38-.05-27.29.84-15.06,18.27-21.19,29.31-30.61,1-.83,3.1-2.86,2.92-2.74-10.27,10.11-28.6,15.97-31.9,30.01l-.03.11ZM64.39,121.21c-1.3,3.32-3.13,8.39-3.56,12.36-.02.12-.02.2-.03.24,0,.04,0,.05,0,.01,0-.03.02-.09.04-.17.23-2.96,2.7-10.04,3.73-12.87-.06.09-.09.2-.16.37l-.02.06ZM67.52,152.19c-.23,1.47-.43,3.27-.44,4.99.4-1.38.5-3.38.45-4.98h0ZM64.6,120.67c1.32-1.74,3.49-4.31,5.51-5.72-1.75.92-4.81,3.85-5.51,5.71h0ZM45.31,216.12s0,0,0,.01h0s0-.01,0-.01ZM38.76,182.82c.13-5.2,4.43-8.37,10.06-10.33,4.63-1.56,11.45-4.67,13.21-6.7-9.78,7.78-26.26,6.03-23.23,21.67,1.64,9.49,6.01,19.56,6.31,28.44.05.37.06.17.03-.55.03-10.07-6.67-22.42-6.4-32.41v-.13ZM63.01,165.62c1.74-2.08,3.98-5.39,4.22-8.37-.76,2.37-2.37,6.29-4.22,8.38h0ZM83.01,112.76c-2.52-.26-4.81-.51-6.6-.3-2.55.24-5.01,1.68-6.36,2.46,1.32-.69,3.66-2.07,6.4-2.27,2.6-.2,5.99.34,9.04.59.81.08,1.87.19,2.63.26.39.04.46.02.21-.04-1.21-.26-3.7-.53-5.07-.67l-.24-.03ZM64.56,143.07c1.37,3.02,2.12,6.06,2.84,8.83.23.78.3.31.03-1.23-.23-1.23-.58-2.6-1.06-3.95-1.44-3.72-4.35-9.98-5.26-12.83.68,2.68,2.07,6.02,3.38,9.01l.07.17ZM61.54,119.74c-1.3,3.32-3.13,8.39-3.56,12.36-.02.12-.02.2-.03.24,0,.04,0,.05,0,.01,0-.03.02-.09.04-.17.23-2.96,2.7-10.04,3.73-12.87-.06.09-.09.2-.16.37l-.02.06ZM61.75,119.2c1.32-1.74,3.49-4.31,5.51-5.72-1.75.92-4.81,3.85-5.51,5.71h0ZM103.38,48.31c-1.88,7.84,1.22,17.63.32,25.93-1.11,9.71-6.04,17.55-7.61,26.93-.15.73-.2,1.07-.15.95,1.59-7.8,5.11-15.59,7.18-23.28,2.36-8.15-.69-18.38-.05-27.29.84-15.06,18.27-21.19,29.31-30.61,1-.83,3.1-2.86,2.92-2.74-10.27,10.11-28.6,15.97-31.9,30.01l-.03.11ZM64.67,150.71c-.23,1.47-.43,3.27-.44,4.99.4-1.38.5-3.38.45-4.98h0ZM80.16,111.29c-2.52-.26-4.81-.51-6.6-.3-2.55.24-5.01,1.68-6.36,2.46,1.32-.69,3.66-2.07,6.4-2.27,2.6-.2,5.99.34,9.04.59.81.08,1.87.19,2.63.26.39.04.46.02.21-.04-1.21-.26-3.7-.53-5.07-.67l-.24-.03ZM35.91,181.34c.13-5.2,4.43-8.37,10.06-10.33,4.63-1.56,11.45-4.67,13.21-6.69-9.78,7.78-26.26,6.03-23.23,21.67,1.64,9.49,6.01,19.56,6.31,28.44.05.37.06.17.03-.55.03-10.07-6.67-22.42-6.4-32.41v-.13ZM42.46,214.64s0,0,0,.01h0s0-.01,0-.01ZM60.16,164.14c1.74-2.08,3.98-5.39,4.22-8.37-.76,2.37-2.37,6.29-4.22,8.38h0ZM86.19,112.52c5.81-1.37,8.93-4.99,10.37-9.12.32-.85.26-.85-.15-.06-1.47,2.98-3.53,5.99-7.05,7.66-.89.49-2.44,1.06-3.17,1.51h0ZM61.7,141.59c1.37,3.02,2.12,6.06,2.84,8.83.23.78.3.31.03-1.23-.23-1.23-.58-2.6-1.06-3.95-1.44-3.72-4.35-9.98-5.26-12.83.68,2.68,2.07,6.02,3.38,9.01l.07.17ZM57.99,118.18c-1.3,3.32-3.13,8.39-3.56,12.36-.02.12-.02.2-.03.24,0,.04,0,.05,0,.01,0-.03.02-.09.04-.17.23-2.96,2.7-10.04,3.73-12.87-.06.09-.09.2-.16.37l-.02.06ZM82.64,110.96c5.81-1.38,8.93-4.99,10.37-9.12.32-.85.26-.85-.15-.06-1.47,2.98-3.53,5.99-7.05,7.66-.89.49-2.44,1.06-3.17,1.51h0ZM58.2,117.64c1.32-1.74,3.49-4.31,5.51-5.72-1.75.92-4.81,3.85-5.51,5.71h0ZM61.12,149.15c-.23,1.47-.43,3.27-.44,4.99.4-1.38.5-3.38.45-4.98h0ZM99.83,46.75c-1.88,7.84,1.22,17.63.32,25.93-1.11,9.71-6.04,17.55-7.61,26.93-.15.73-.2,1.07-.15.95,1.59-7.8,5.11-15.59,7.18-23.28,2.36-8.15-.69-18.38-.05-27.29.84-15.06,18.27-21.19,29.31-30.61,1-.83,3.1-2.86,2.92-2.74-10.27,10.11-28.6,15.97-31.9,30.01l-.03.11ZM76.61,109.73c-2.52-.26-4.81-.51-6.6-.3-2.55.24-5.01,1.68-6.36,2.46,1.32-.69,3.66-2.07,6.4-2.27,2.6-.2,5.99.34,9.04.59.81.08,1.87.19,2.63.26.39.04.46.02.21-.04-1.21-.26-3.7-.53-5.07-.67l-.24-.03ZM32.36,179.78c.13-5.2,4.43-8.37,10.06-10.33,4.63-1.56,11.45-4.67,13.21-6.7-9.78,7.78-26.26,6.03-23.23,21.67,1.64,9.49,6.01,19.56,6.31,28.44.05.37.06.17.03-.55.03-10.07-6.67-22.42-6.4-32.41v-.13ZM38.91,213.08s0,0,0,.01h0s0-.01,0-.01ZM56.61,162.58c1.74-2.08,3.98-5.39,4.22-8.37-.76,2.37-2.37,6.29-4.22,8.38h0ZM58.16,140.03c1.37,3.02,2.12,6.06,2.84,8.83.23.78.3.31.03-1.23-.23-1.23-.58-2.6-1.06-3.95-1.44-3.72-4.35-9.98-5.26-12.83.68,2.68,2.07,6.02,3.38,9.01l.07.17ZM79.7,109.44c5.8-1.38,8.93-4.99,10.37-9.12.32-.85.26-.85-.15-.06-1.47,2.98-3.53,5.99-7.05,7.66-.89.49-2.44,1.06-3.17,1.51h0ZM96.89,45.23c-1.88,7.84,1.22,17.63.32,25.93-1.11,9.71-6.04,17.55-7.61,26.93-.15.73-.2,1.07-.15.95,1.59-7.8,5.11-15.59,7.18-23.28,2.36-8.15-.69-18.38-.05-27.29.84-15.06,18.27-21.19,29.31-30.61,1-.83,3.1-2.86,2.92-2.74-10.27,10.11-28.6,15.97-31.9,30.01l-.03.11ZM55.05,116.66c-1.3,3.32-3.13,8.39-3.56,12.36-.02.12-.02.2-.03.24,0,.04,0,.05,0,.01,0-.03.02-.09.04-.17.23-2.96,2.7-10.04,3.73-12.87-.06.09-.09.2-.16.37l-.02.06ZM58.18,147.63c-.23,1.47-.43,3.27-.44,4.99.4-1.38.5-3.38.45-4.98h0ZM55.26,116.12c1.32-1.74,3.49-4.31,5.51-5.72-1.75.92-4.81,3.85-5.51,5.71h0ZM35.97,211.56s0,0,0,.01h0s0-.01,0-.01ZM29.42,178.26c.13-5.2,4.43-8.37,10.06-10.33,4.63-1.56,11.45-4.67,13.21-6.7-9.78,7.78-26.26,6.03-23.23,21.67,1.64,9.49,6.01,19.56,6.31,28.44.05.37.06.17.03-.55.03-10.07-6.67-22.42-6.4-32.41v-.13ZM53.67,161.06c1.74-2.08,3.98-5.39,4.22-8.37-.76,2.37-2.37,6.29-4.22,8.38h0ZM73.67,108.21c-2.52-.26-4.81-.51-6.6-.3-2.55.24-5.01,1.68-6.36,2.46,1.32-.69,3.66-2.07,6.4-2.27,2.6-.2,5.99.34,9.04.59.81.08,1.87.19,2.63.26.39.04.46.02.21-.04-1.21-.26-3.7-.53-5.07-.67l-.24-.03ZM55.22,138.51c1.37,3.02,2.12,6.06,2.84,8.83.23.78.3.31.03-1.23-.23-1.23-.58-2.6-1.06-3.95-1.44-3.72-4.35-9.98-5.26-12.83.68,2.68,2.07,6.02,3.38,9.01l.07.17ZM52.2,115.18c-1.3,3.32-3.13,8.39-3.56,12.36-.02.12-.02.2-.03.24,0,.04,0,.05,0,.01,0-.03.02-.09.04-.17.23-2.96,2.7-10.04,3.73-12.87-.06.09-.09.2-.16.37l-.02.06ZM52.41,114.64c1.32-1.74,3.49-4.31,5.51-5.72-1.75.92-4.81,3.85-5.51,5.71h0ZM94.04,43.75c-1.88,7.84,1.22,17.63.32,25.93-1.11,9.71-6.04,17.55-7.61,26.93-.15.73-.2,1.07-.15.95,1.59-7.8,5.11-15.59,7.18-23.28,2.36-8.15-.69-18.38-.05-27.29.84-15.06,18.27-21.19,29.31-30.61,1-.83,3.1-2.86,2.92-2.74-10.27,10.11-28.6,15.97-31.9,30.01l-.03.11ZM55.33,146.15c-.23,1.47-.43,3.27-.44,4.99.4-1.38.5-3.38.45-4.98h0ZM70.82,106.73c-2.52-.26-4.81-.51-6.6-.3-2.55.24-5.01,1.68-6.36,2.46,1.32-.69,3.66-2.07,6.4-2.27,2.6-.2,5.99.34,9.04.59.81.08,1.87.19,2.63.26.39.04.46.02.21-.04-1.21-.26-3.7-.53-5.07-.67l-.24-.03ZM26.57,176.79c.13-5.2,4.43-8.37,10.06-10.33,4.63-1.56,11.45-4.67,13.21-6.69-9.78,7.78-26.26,6.03-23.23,21.67,1.44,8.93,5.62,18.17,6.12,26.66.09.87.15,1.49.19,1.78.05.37.06.17.03-.55.03-10.07-6.67-22.42-6.4-32.41v-.13ZM33.12,210.09s0,0,0,.01h0s0-.01,0-.01ZM50.82,159.58c1.74-2.08,3.98-5.39,4.22-8.37-.76,2.37-2.37,6.29-4.22,8.38h0ZM76.85,107.96c5.81-1.37,8.93-4.99,10.37-9.12.32-.85.26-.85-.15-.06-1.47,2.98-3.53,5.99-7.05,7.66-.89.49-2.44,1.06-3.17,1.51h0ZM52.36,137.03c1.37,3.02,2.12,6.06,2.84,8.83.23.78.3.31.03-1.23-.23-1.23-.58-2.6-1.06-3.95-1.44-3.72-4.35-9.98-5.26-12.83.68,2.68,2.07,6.02,3.38,9.01l.07.17ZM49.53,113.75c-1.3,3.32-3.13,8.39-3.56,12.36-.02.12-.02.2-.03.24,0,.04,0,.05,0,.01,0-.03.02-.09.04-.17.23-2.96,2.7-10.04,3.73-12.87-.06.09-.09.2-.16.37l-.02.06ZM74.18,106.53c5.8-1.38,8.93-4.99,10.37-9.12.32-.85.26-.85-.15-.06-1.47,2.98-3.53,5.99-7.05,7.66-.89.49-2.44,1.06-3.17,1.51h0ZM49.74,113.21c1.32-1.74,3.49-4.31,5.51-5.72-1.75.92-4.81,3.85-5.51,5.71h0ZM52.66,144.72c-.23,1.47-.43,3.27-.44,4.99.4-1.38.5-3.38.45-4.98h0ZM91.37,42.32c-1.88,7.84,1.22,17.63.32,25.93-1.11,9.71-6.04,17.55-7.61,26.93-.15.73-.2,1.07-.15.95,1.59-7.8,5.11-15.59,7.18-23.28,2.36-8.15-.69-18.38-.05-27.29.84-15.06,18.27-21.19,29.31-30.61,1-.83,3.1-2.86,2.92-2.74-10.27,10.11-28.6,15.97-31.9,30.01l-.03.11ZM68.15,105.3c-2.52-.26-4.81-.51-6.6-.3-2.55.24-5.01,1.68-6.36,2.46,1.32-.69,3.66-2.07,6.4-2.27,2.6-.2,5.99.34,9.04.59.81.08,1.87.19,2.63.26.39.04.46.02.21-.04-1.21-.26-3.7-.53-5.07-.67l-.24-.03ZM23.9,175.35c.13-5.2,4.43-8.37,10.06-10.33,4.63-1.56,11.45-4.67,13.21-6.7-9.78,7.78-26.26,6.03-23.23,21.67,1.64,9.49,6.01,19.56,6.31,28.44.05.37.06.17.03-.55.03-10.07-6.67-22.42-6.4-32.41v-.13ZM30.45,208.65s0,0,0,.01h0s0-.01,0-.01ZM48.15,158.15c1.74-2.08,3.98-5.39,4.22-8.37-.76,2.37-2.37,6.29-4.22,8.38h0ZM49.7,135.6c1.37,3.02,2.12,6.06,2.84,8.83.23.78.3.31.03-1.23-.23-1.23-.58-2.6-1.06-3.95-1.44-3.72-4.35-9.98-5.26-12.83.68,2.68,2.07,6.02,3.38,9.01l.07.17ZM71.24,105.01c5.81-1.38,8.93-4.99,10.37-9.12.32-.85.26-.85-.15-.06-1.47,2.98-3.53,5.99-7.05,7.66-.89.49-2.44,1.06-3.17,1.51h0ZM88.43,40.8c-1.88,7.84,1.22,17.63.32,25.93-1.11,9.71-6.04,17.55-7.61,26.93-.15.73-.2,1.07-.15.95,1.59-7.8,5.11-15.59,7.18-23.28,2.36-8.15-.69-18.38-.05-27.29.84-15.06,18.27-21.19,29.31-30.61,1-.83,3.1-2.86,2.92-2.74-10.27,10.11-28.6,15.97-31.9,30.01l-.03.11ZM46.6,112.23c-1.3,3.32-3.13,8.39-3.56,12.36-.02.12-.02.2-.03.24,0,.04,0,.05,0,.01,0-.03.02-.09.04-.17.23-2.96,2.7-10.04,3.73-12.87-.06.09-.09.2-.16.37l-.02.06ZM49.72,143.2c-.23,1.47-.43,3.27-.44,4.99.4-1.38.5-3.38.45-4.98h0ZM46.8,111.69c1.32-1.74,3.49-4.31,5.51-5.72-1.75.92-4.81,3.85-5.51,5.71h0ZM27.51,207.13s0,0,0,.01h0s0-.01,0-.01ZM20.96,173.83c.13-5.2,4.43-8.37,10.06-10.33,4.63-1.56,11.45-4.67,13.21-6.7-9.78,7.78-26.26,6.03-23.23,21.67,1.64,9.49,6.01,19.56,6.31,28.44.05.37.06.17.03-.55.03-10.07-6.67-22.42-6.4-32.41v-.13ZM45.21,156.63c1.74-2.08,3.98-5.39,4.22-8.37-.76,2.37-2.37,6.29-4.22,8.38h0ZM65.21,103.78c-2.52-.26-4.81-.51-6.6-.3-2.55.24-5.01,1.68-6.36,2.46,1.32-.69,3.66-2.07,6.4-2.27,2.6-.2,5.99.34,9.04.59.81.08,1.87.19,2.63.26.39.04.46.02.21-.04-1.21-.26-3.7-.53-5.07-.67l-.24-.03ZM46.76,134.08c1.37,3.02,2.12,6.06,2.84,8.83.23.78.3.31.03-1.23-.23-1.23-.58-2.6-1.06-3.95-1.44-3.72-4.35-9.98-5.26-12.83.68,2.68,2.07,6.02,3.38,9.01l.07.17ZM43.74,110.75c-1.3,3.32-3.13,8.39-3.56,12.36-.02.12-.02.2-.03.24,0,.04,0,.05,0,.01,0-.03.02-.09.04-.17.23-2.96,2.7-10.04,3.73-12.87-.06.09-.09.2-.16.37l-.02.06ZM43.95,110.21c1.32-1.74,3.49-4.31,5.51-5.72-1.75.92-4.81,3.85-5.51,5.71h0ZM85.58,39.32c-1.88,7.84,1.22,17.63.32,25.93-1.11,9.71-6.04,17.55-7.61,26.93-.15.73-.2,1.07-.15.95,1.59-7.8,5.11-15.59,7.18-23.28,2.36-8.15-.69-18.38-.05-27.29.84-15.06,18.27-21.19,29.31-30.61,1-.83,3.1-2.86,2.92-2.74-10.27,10.11-28.6,15.97-31.9,30.01l-.03.11ZM46.87,141.72c-.23,1.47-.43,3.27-.44,4.99.4-1.38.5-3.38.45-4.98h0ZM62.36,102.3c-2.52-.26-4.81-.51-6.6-.3-2.55.24-5.01,1.68-6.36,2.46,1.32-.69,3.66-2.07,6.4-2.27,2.6-.2,5.99.34,9.04.59.81.08,1.87.19,2.63.26.39.04.46.02.21-.04-1.21-.26-3.7-.53-5.07-.67l-.24-.03ZM18.11,172.36c.13-5.2,4.43-8.37,10.06-10.33,4.63-1.56,11.45-4.67,13.21-6.69-9.78,7.78-26.26,6.03-23.23,21.67,1.64,9.49,6.01,19.56,6.31,28.44.05.37.06.17.03-.55.03-10.07-6.67-22.42-6.4-32.41v-.13ZM24.66,205.66s0,0,0,.01h0s0-.01,0-.01ZM42.36,155.15c1.74-2.08,3.98-5.39,4.22-8.37-.76,2.37-2.37,6.29-4.22,8.38h0ZM68.39,103.53c5.81-1.37,8.93-4.99,10.37-9.12.32-.85.26-.85-.15-.06-1.47,2.98-3.53,5.99-7.05,7.66-.89.49-2.44,1.06-3.17,1.51h0ZM43.91,132.6c1.37,3.02,2.12,6.06,2.84,8.83.23.78.3.31.03-1.23-.23-1.23-.58-2.6-1.06-3.95-1.44-3.72-4.35-9.98-5.26-12.83.68,2.68,2.07,6.02,3.38,9.01l.07.17ZM40.2,108.97c-1.3,3.32-3.13,8.39-3.56,12.36-.02.12-.02.2-.03.24,0,.04,0,.05,0,.01,0-.03.02-.09.04-.17.23-2.96,2.7-10.04,3.73-12.87-.06.09-.09.2-.16.37l-.02.06ZM64.85,101.75c5.81-1.38,8.93-4.99,10.37-9.12.32-.85.26-.85-.15-.06-1.47,2.98-3.53,5.99-7.05,7.66-.89.49-2.44,1.06-3.17,1.51h0ZM40.41,108.43c1.32-1.74,3.49-4.31,5.51-5.72-1.75.92-4.81,3.85-5.51,5.71h0ZM43.33,139.94c-.23,1.47-.43,3.27-.44,4.99.4-1.38.5-3.38.45-4.98h0ZM82.04,37.54c-1.88,7.84,1.22,17.63.32,25.93-1.11,9.71-6.04,17.55-7.61,26.93-.15.73-.2,1.07-.15.95,1.59-7.8,5.11-15.59,7.18-23.28,2.36-8.15-.69-18.38-.05-27.29.84-15.06,18.27-21.19,29.31-30.61,1-.83,3.1-2.86,2.92-2.74-10.27,10.11-28.6,15.97-31.9,30.01l-.03.11ZM58.82,100.52c-2.52-.26-4.81-.51-6.6-.3-2.55.24-5.01,1.68-6.36,2.46,1.32-.69,3.66-2.07,6.4-2.27,2.6-.2,5.99.34,9.04.59.81.08,1.87.19,2.63.26.39.04.46.02.21-.04-1.21-.26-3.7-.53-5.07-.67l-.24-.03ZM14.57,170.57c.13-5.2,4.43-8.37,10.06-10.33,4.63-1.56,11.45-4.67,13.21-6.7-9.78,7.78-26.26,6.03-23.23,21.67,1.64,9.49,6.01,19.56,6.31,28.44.05.37.06.17.03-.55.03-10.07-6.67-22.42-6.4-32.41v-.13ZM21.12,203.87s0,0,0,.01h0s0-.01,0-.01ZM38.81,153.37c1.74-2.08,3.98-5.39,4.22-8.37-.76,2.37-2.37,6.29-4.22,8.38h0ZM40.36,130.82c1.37,3.02,2.12,6.06,2.84,8.83.23.78.3.31.03-1.23-.23-1.23-.58-2.6-1.06-3.95-1.44-3.72-4.35-9.98-5.26-12.83.68,2.68,2.07,6.02,3.38,9.01l.07.17ZM61.91,100.23c5.81-1.38,8.93-4.99,10.37-9.12.32-.85.26-.85-.15-.06-1.47,2.98-3.53,5.99-7.05,7.66-.89.49-2.44,1.06-3.17,1.51h0ZM79.1,36.02c-1.88,7.84,1.22,17.63.32,25.93-1.11,9.71-6.04,17.55-7.61,26.93-.15.73-.2,1.07-.15.95,1.59-7.8,5.11-15.59,7.18-23.28,2.36-8.15-.69-18.38-.05-27.29.84-15.06,18.27-21.19,29.31-30.61,1-.83,3.1-2.86,2.92-2.74-10.27,10.11-28.6,15.97-31.9,30.01l-.03.11ZM37.26,107.45c-1.3,3.32-3.13,8.39-3.56,12.36-.02.12-.02.2-.03.24,0,.04,0,.05,0,.01,0-.03.02-.09.04-.17.23-2.96,2.7-10.04,3.73-12.87-.06.09-.09.2-.16.37l-.02.06ZM40.39,138.42c-.23,1.47-.43,3.27-.44,4.99.4-1.38.5-3.38.45-4.98h0ZM37.47,106.91c1.32-1.74,3.49-4.31,5.51-5.72-1.75.92-4.81,3.85-5.51,5.71h0ZM18.18,202.35s0,0,0,.01h0s0-.01,0-.01ZM11.63,169.05c.13-5.2,4.43-8.37,10.06-10.33,4.63-1.56,11.45-4.67,13.21-6.7-9.78,7.78-26.26,6.03-23.23,21.67,1.64,9.49,6.01,19.56,6.31,28.44.05.37.06.17.03-.55.03-10.07-6.67-22.42-6.4-32.41v-.13ZM35.88,151.85c1.74-2.08,3.98-5.39,4.22-8.37-.76,2.37-2.37,6.29-4.22,8.38h0ZM55.88,99c-2.52-.26-4.81-.51-6.6-.3-2.55.24-5.01,1.68-6.36,2.46,1.32-.69,3.66-2.07,6.4-2.27,2.6-.2,5.99.34,9.04.59.81.08,1.87.19,2.63.26.39.04.46.02.21-.04-1.21-.26-3.7-.53-5.07-.67l-.24-.03ZM37.43,129.3c1.37,3.02,2.12,6.06,2.84,8.83.23.78.3.31.03-1.23-.23-1.23-.58-2.6-1.06-3.95-1.44-3.72-4.35-9.98-5.26-12.83.68,2.68,2.07,6.02,3.38,9.01l.07.17ZM34.41,105.97c-1.3,3.32-3.13,8.39-3.56,12.36-.02.12-.02.2-.03.24,0,.04,0,.05,0,.01,0-.03.02-.09.04-.17.23-2.96,2.7-10.04,3.73-12.87-.06.09-.09.2-.16.37l-.02.06ZM34.62,105.43c1.32-1.74,3.49-4.31,5.51-5.72-1.75.92-4.81,3.85-5.51,5.71h0ZM76.25,34.54c-1.88,7.84,1.22,17.63.32,25.93-1.11,9.71-6.04,17.55-7.61,26.93-.15.73-.2,1.07-.15.95,1.59-7.8,5.11-15.59,7.18-23.28,2.36-8.15-.69-18.38-.05-27.29.84-15.06,18.27-21.19,29.31-30.61,1-.83,3.1-2.86,2.92-2.74-10.27,10.11-28.6,15.97-31.9,30.01l-.03.11ZM37.54,136.94c-.23,1.47-.43,3.27-.44,4.99.4-1.38.5-3.38.45-4.98h0ZM53.02,97.52c-2.52-.26-4.81-.51-6.6-.3-2.55.24-5.01,1.68-6.36,2.46,1.32-.69,3.66-2.07,6.4-2.27,2.6-.2,5.99.34,9.04.59.81.08,1.87.19,2.63.26.39.04.46.02.21-.04-1.21-.26-3.7-.53-5.07-.67l-.24-.03ZM8.78,167.58c.13-5.2,4.43-8.37,10.06-10.33,4.63-1.56,11.45-4.67,13.21-6.69-9.78,7.78-26.26,6.03-23.23,21.67,1.44,8.93,5.62,18.17,6.12,26.66.09.87.15,1.49.19,1.78.05.37.06.17.03-.55.03-10.07-6.67-22.42-6.4-32.41v-.13ZM15.33,200.88s0,0,0,.01h0s0-.01,0-.01ZM33.02,150.37c1.74-2.08,3.98-5.39,4.22-8.37-.76,2.37-2.37,6.29-4.22,8.38h0ZM59.05,98.75c5.81-1.37,8.93-4.99,10.37-9.12.32-.85.26-.85-.15-.06-1.47,2.98-3.53,5.99-7.05,7.66-.89.49-2.44,1.06-3.17,1.51h0ZM34.57,127.82c1.37,3.02,2.12,6.06,2.84,8.83.23.78.3.31.03-1.23-.23-1.23-.58-2.6-1.06-3.95-1.44-3.72-4.35-9.98-5.26-12.83.68,2.68,2.07,6.02,3.38,9.01l.07.17ZM31.74,104.54c-1.3,3.32-3.13,8.39-3.56,12.36-.02.12-.02.2-.03.24,0,.04,0,.05,0,.01,0-.03.02-.09.04-.17.23-2.96,2.7-10.04,3.73-12.87-.06.09-.09.2-.16.37l-.02.06ZM56.39,97.32c5.81-1.38,8.93-4.99,10.37-9.12.32-.85.26-.85-.15-.06-1.47,2.98-3.53,5.99-7.05,7.66-.89.49-2.44,1.06-3.17,1.51h0ZM31.95,104c1.32-1.74,3.49-4.31,5.51-5.72-1.75.92-4.81,3.85-5.51,5.71h0ZM34.87,135.51c-.23,1.47-.43,3.27-.44,4.99.4-1.38.5-3.38.45-4.98h0ZM73.58,33.11c-1.88,7.84,1.22,17.63.32,25.93-1.11,9.71-6.04,17.55-7.61,26.93-.15.73-.2,1.07-.15.95,1.59-7.8,5.11-15.59,7.18-23.28,2.36-8.15-.69-18.38-.05-27.29.84-15.06,18.27-21.19,29.31-30.61,1-.83,3.1-2.86,2.92-2.74-10.27,10.11-28.6,15.97-31.9,30.01l-.03.11ZM50.36,96.09c-2.52-.26-4.81-.51-6.6-.3-2.55.24-5.01,1.68-6.36,2.46,1.32-.69,3.66-2.07,6.4-2.27,2.6-.2,5.99.34,9.04.59.81.08,1.87.19,2.63.26.39.04.46.02.21-.04-1.21-.26-3.7-.53-5.07-.67l-.24-.03ZM6.11,166.14c.13-5.2,4.43-8.37,10.06-10.33,4.63-1.56,11.45-4.67,13.21-6.7-9.78,7.78-26.26,6.03-23.23,21.67,1.64,9.49,6.01,19.56,6.31,28.44.05.37.06.17.03-.55.03-10.07-6.67-22.42-6.4-32.41v-.13ZM12.66,199.44s0,0,0,.01h0s0-.01,0-.01ZM30.35,148.94c1.74-2.08,3.98-5.39,4.22-8.37-.76,2.37-2.37,6.29-4.22,8.38h0ZM31.9,126.39c1.37,3.02,2.12,6.06,2.84,8.83.23.78.3.31.03-1.23-.23-1.23-.58-2.6-1.06-3.95-1.44-3.72-4.35-9.98-5.26-12.83.68,2.68,2.07,6.02,3.38,9.01l.07.17ZM53.45,95.8c5.81-1.38,8.93-4.99,10.37-9.12.32-.85.26-.85-.15-.06-1.47,2.98-3.53,5.99-7.05,7.66-.89.49-2.44,1.06-3.17,1.51h0ZM70.64,31.59c-1.88,7.84,1.22,17.63.32,25.93-1.11,9.71-6.04,17.55-7.61,26.93-.15.73-.2,1.07-.15.95,1.59-7.8,5.11-15.59,7.18-23.28,2.36-8.15-.69-18.38-.05-27.29.84-15.06,18.27-21.19,29.31-30.61,1-.83,3.1-2.86,2.92-2.74-10.27,10.11-28.6,15.97-31.9,30.01l-.03.11ZM28.8,103.02c-1.3,3.32-3.13,8.39-3.56,12.36-.02.12-.02.2-.03.24,0,.04,0,.05,0,.01,0-.03.02-.09.04-.17.23-2.96,2.7-10.04,3.73-12.87-.06.09-.09.2-.16.37l-.02.06ZM31.93,133.99c-.23,1.47-.43,3.27-.44,4.99.4-1.38.5-3.38.45-4.98h0ZM29.01,102.48c1.32-1.74,3.49-4.31,5.51-5.72-1.75.92-4.81,3.85-5.51,5.71h0ZM9.72,197.92s0,0,0,.01h0s0-.01,0-.01ZM3.17,164.62c.13-5.2,4.43-8.37,10.06-10.33,4.63-1.56,11.45-4.67,13.21-6.7-9.78,7.78-26.26,6.03-23.23,21.67,1.64,9.49,6.01,19.56,6.31,28.44.05.37.06.17.03-.55.03-10.07-6.67-22.42-6.4-32.41v-.13ZM27.42,147.42c1.74-2.08,3.98-5.39,4.22-8.37-.76,2.37-2.37,6.29-4.22,8.38h0ZM47.42,94.57c-2.52-.26-4.81-.51-6.6-.3-2.55.24-5.01,1.68-6.36,2.46,1.32-.69,3.66-2.07,6.4-2.27,2.6-.2,5.99.34,9.04.59.81.08,1.87.19,2.63.26.39.04.46.02.21-.04-1.21-.26-3.7-.53-5.07-.67l-.24-.03ZM28.97,124.87c1.37,3.02,2.12,6.06,2.84,8.83.23.78.3.31.03-1.23-.23-1.23-.58-2.6-1.06-3.95-1.44-3.72-4.35-9.98-5.26-12.83.68,2.68,2.07,6.02,3.38,9.01l.07.17ZM25.95,101.54c-1.3,3.32-3.13,8.39-3.56,12.36-.02.12-.02.2-.03.24,0,.04,0,.05,0,.01,0-.03.02-.09.04-.17.23-2.96,2.7-10.04,3.73-12.87-.06.09-.09.2-.16.37l-.02.06ZM26.16,101c1.32-1.74,3.49-4.31,5.51-5.72-1.75.92-4.81,3.85-5.51,5.71h0ZM61.42,79.68c1.61-6.88,4.82-13.11,6.33-20.06,1.99-8.01-.97-17.85-.26-26.4.74-11.58,11.4-18.08,21.32-24.59,3.49-2.29,8.71-6.15,10.87-8.63-.19.13-1.29,1.12-2.78,2.4-11.05,9.52-28.65,15.65-29.59,30.77-.72,8.65,2.29,18.6.21,26.67-1.88,7.96-5.83,15.66-7.14,23.77-.27,1.55.91-3.49,1.01-3.81l.03-.11ZM29.08,132.51c-.23,1.47-.43,3.27-.44,4.99.4-1.38.5-3.38.45-4.98h0ZM44.61,93.32c1.78.17,3.65.37,5.27.52.29.02.13-.04-.51-.15-.45-.09-1.87-.27-2.36-.33-2.33-.26-4.77-.55-6.92-.64-3.88-.2-6.33,1.3-8.49,2.52,1.35-.72,3.74-2.05,6.21-2.26,1.81-.2,4.08.07,6.56.32l.24.02ZM.32,163.14c.13-5.2,4.43-8.37,10.06-10.33,4.63-1.56,11.45-4.67,13.21-6.69-9.78,7.78-26.26,6.03-23.23,21.67,1.64,9.49,6.01,19.56,6.31,28.44.05.37.06.17.03-.55.03-10.07-6.67-22.42-6.4-32.41v-.13ZM6.87,196.44s0,0,0,.01h0s0-.01,0-.01ZM24.56,145.94c1.74-2.08,3.98-5.39,4.22-8.37-.76,2.37-2.37,6.29-4.22,8.38h0ZM61.19,84.51c-1.81,3.92-4.75,7.65-9.99,9.46-.85.38-.74.41.19.11,5.6-1.56,8.57-5.36,9.8-9.57h0ZM26.11,123.39c1.37,3.02,2.12,6.06,2.84,8.83.23.78.3.31.03-1.23-.23-1.23-.58-2.6-1.06-3.95-1.44-3.72-4.35-9.98-5.26-12.83.68,2.68,2.07,6.02,3.38,9.01l.07.17ZM180.69,287.14s0,0,0,.01h0s0-.01,0-.01ZM177.75,285.62s0,0,0,.01h0s0-.01,0-.01ZM174.9,284.14s0,0,0,.01h0s0-.01,0-.01ZM172.23,282.71s0,0,0,.01h0s0-.01,0-.01ZM169.29,281.19s0,0,0,.01h0s0-.01,0-.01ZM166.44,279.71s0,0,0,.01h0s0-.01,0-.01ZM163.03,277.88s0,0,0,.01h0s0-.01,0-.01ZM160.09,276.36s0,0,0,.01h0s0-.01,0-.01ZM157.24,274.89s0,0,0,.01h0s0-.01,0-.01ZM154.57,273.45s0,0,0,.01h0s0-.01,0-.01ZM151.63,271.93s0,0,0,.01h0s0-.01,0-.01ZM148.78,270.46s0,0,0,.01h0s0-.01,0-.01ZM145.37,268.63s0,0,0,.01h0s0-.01,0-.01ZM142.43,267.11s0,0,0,.01h0s0-.01,0-.01ZM139.58,265.63s0,0,0,.01h0s0-.01,0-.01ZM136.91,264.2s0,0,0,.01h0s0-.01,0-.01ZM133.97,262.68s0,0,0,.01h0s0-.01,0-.01ZM127.42,229.38c.13-5.2,4.43-8.37,10.06-10.33,4.63-1.56,11.45-4.67,13.21-6.7-9.78,7.78-26.26,6.03-23.23,21.67,1.44,8.93,5.62,18.17,6.12,26.66.09.87.15,1.49.19,1.78.05.37.06.17.03-.55.03-10.07-6.67-22.42-6.4-32.41v-.13ZM150.2,166.29c-1.3,3.32-3.13,8.39-3.56,12.36-.02.12-.02.2-.03.24,0,.04,0,.05,0,.01,0-.03.02-.09.04-.17.23-2.96,2.7-10.04,3.73-12.87-.06.09-.09.2-.16.37l-.02.06ZM124.57,227.9c.13-5.2,4.43-8.37,10.06-10.33,4.63-1.56,11.45-4.67,13.21-6.69-9.78,7.78-26.26,6.03-23.23,21.67,1.64,9.49,6.01,19.56,6.31,28.44.05.37.06.17.03-.55.03-10.07-6.67-22.42-6.4-32.41v-.13ZM131.12,261.2s0,0,0,.01h0s0-.01,0-.01ZM146.65,164.73c-1.3,3.32-3.13,8.39-3.56,12.36-.02.12-.02.2-.03.24,0,.04,0,.05,0,.01,0-.03.02-.09.04-.17.23-2.96,2.7-10.04,3.73-12.87-.06.09-.09.2-.16.37l-.02.06ZM171.3,157.51c5.81-1.38,8.93-4.99,10.37-9.12.32-.85.26-.85-.15-.06-1.47,2.98-3.53,5.99-7.05,7.66-.89.49-2.44,1.06-3.17,1.51h0ZM146.86,164.19c1.32-1.74,3.49-4.31,5.51-5.72-1.75.92-4.81,3.85-5.51,5.71h0ZM149.78,195.71c-.23,1.47-.43,3.27-.44,4.99.4-1.38.5-3.38.45-4.98h0ZM165.27,156.28c-2.52-.26-4.81-.51-6.6-.3-2.55.24-5.01,1.68-6.36,2.46,1.32-.69,3.66-2.07,6.4-2.27,2.6-.2,5.99.34,9.04.59.81.08,1.87.19,2.63.26.39.04.46.02.21-.04-1.21-.26-3.7-.53-5.07-.67l-.24-.03ZM121.02,226.34c.13-5.2,4.43-8.37,10.06-10.33,4.63-1.56,11.45-4.67,13.21-6.7-9.78,7.78-26.26,6.03-23.23,21.67,1.64,9.49,6.01,19.56,6.31,28.44.05.37.06.17.03-.55.03-10.07-6.67-22.42-6.4-32.41v-.13ZM127.57,259.64s0,0,0,.01h0s0-.01,0-.01ZM145.26,209.14c1.74-2.08,3.98-5.39,4.22-8.37-.76,2.37-2.37,6.29-4.22,8.38h0ZM146.81,186.58c1.37,3.02,2.12,6.06,2.84,8.83.23.78.3.31.03-1.23-.23-1.23-.58-2.6-1.06-3.95-1.44-3.72-4.35-9.98-5.26-12.83.68,2.68,2.07,6.02,3.38,9.01l.07.17ZM168.36,155.99c5.81-1.38,8.93-4.99,10.37-9.12.32-.85.26-.85-.15-.06-1.47,2.98-3.53,5.99-7.05,7.66-.89.49-2.44,1.06-3.17,1.51h0ZM143.71,163.21c-1.3,3.32-3.13,8.39-3.56,12.36-.02.12-.02.2-.03.24,0,.04,0,.05,0,.01,0-.03.02-.09.04-.17.23-2.96,2.7-10.04,3.73-12.87-.06.09-.09.2-.16.37l-.02.06ZM146.84,194.19c-.23,1.47-.43,3.27-.44,4.99.4-1.38.5-3.38.45-4.98h0ZM143.92,162.67c1.32-1.74,3.49-4.31,5.51-5.72-1.75.92-4.81,3.85-5.51,5.71h0ZM124.63,258.12s0,0,0,.01h0s0-.01,0-.01ZM118.08,224.82c.13-5.2,4.43-8.37,10.06-10.33,4.63-1.56,11.45-4.67,13.21-6.7-9.78,7.78-26.26,6.03-23.23,21.67,1.64,9.49,6.01,19.56,6.31,28.44.05.37.06.17.03-.55.03-10.07-6.67-22.42-6.4-32.41v-.13ZM142.33,207.62c1.74-2.08,3.98-5.39,4.22-8.37-.76,2.37-2.37,6.29-4.22,8.38h0ZM162.33,154.76c-2.52-.26-4.81-.51-6.6-.3-2.55.24-5.01,1.68-6.36,2.46,1.32-.69,3.66-2.07,6.4-2.27,2.6-.2,5.99.34,9.04.59.81.08,1.87.19,2.63.26.39.04.46.02.21-.04-1.21-.26-3.7-.53-5.07-.67l-.24-.03ZM143.88,185.06c1.37,3.02,2.12,6.06,2.84,8.83.23.78.3.31.03-1.23-.23-1.23-.58-2.6-1.06-3.95-1.44-3.72-4.35-9.98-5.26-12.83.68,2.68,2.07,6.02,3.38,9.01l.07.17ZM140.86,161.73c-1.3,3.32-3.13,8.39-3.56,12.36-.02.12-.02.2-.03.24,0,.04,0,.05,0,.01,0-.03.02-.09.04-.17.23-2.96,2.7-10.04,3.73-12.87-.06.09-.09.2-.16.37l-.02.06ZM141.07,161.19c1.32-1.74,3.49-4.31,5.51-5.72-1.75.92-4.81,3.85-5.51,5.71h0ZM143.99,192.71c-.23,1.47-.43,3.27-.44,4.99.4-1.38.5-3.38.45-4.98h0ZM159.47,153.28c-2.52-.26-4.81-.51-6.6-.3-2.55.24-5.01,1.68-6.36,2.46,1.32-.69,3.66-2.07,6.4-2.27,2.6-.2,5.99.34,9.04.59.81.08,1.87.19,2.63.26.39.04.46.02.21-.04-1.21-.26-3.7-.53-5.07-.67l-.24-.03ZM115.23,223.34c.13-5.2,4.43-8.37,10.06-10.33,4.63-1.56,11.45-4.67,13.21-6.69-9.78,7.78-26.26,6.03-23.23,21.67,1.44,8.93,5.62,18.17,6.12,26.66.09.87.15,1.49.19,1.78.05.37.06.17.03-.55.03-10.07-6.67-22.42-6.4-32.41v-.13ZM121.78,256.64s0,0,0,.01h0s0-.01,0-.01ZM139.47,206.14c1.74-2.08,3.98-5.39,4.22-8.37-.76,2.37-2.37,6.29-4.22,8.38h0ZM165.5,154.52c5.81-1.37,8.93-4.99,10.37-9.12.32-.85.26-.85-.15-.06-1.47,2.98-3.53,5.99-7.05,7.66-.89.49-2.44,1.06-3.17,1.51h0ZM141.02,183.59c1.37,3.02,2.12,6.06,2.84,8.83.23.78.3.31.03-1.23-.23-1.23-.58-2.6-1.06-3.95-1.44-3.72-4.35-9.98-5.26-12.83.68,2.68,2.07,6.02,3.38,9.01l.07.17ZM138.19,160.3c-1.3,3.32-3.13,8.39-3.56,12.36-.02.12-.02.2-.03.24,0,.04,0,.05,0,.01,0-.03.02-.09.04-.17.23-2.96,2.7-10.04,3.73-12.87-.06.09-.09.2-.16.37l-.02.06ZM162.84,153.08c5.81-1.38,8.93-4.99,10.37-9.12.32-.85.26-.85-.15-.06-1.47,2.98-3.53,5.99-7.05,7.66-.89.49-2.44,1.06-3.17,1.51h0ZM138.4,159.76c1.32-1.74,3.49-4.31,5.51-5.72-1.75.92-4.81,3.85-5.51,5.71h0ZM141.32,191.28c-.23,1.47-.43,3.27-.44,4.99.4-1.38.5-3.38.45-4.98h0ZM156.81,151.85c-2.52-.26-4.81-.51-6.6-.3-2.55.24-5.01,1.68-6.36,2.46,1.32-.69,3.66-2.07,6.4-2.27,2.6-.2,5.99.34,9.04.59.81.08,1.87.19,2.63.26.39.04.46.02.21-.04-1.21-.26-3.7-.53-5.07-.67l-.24-.03ZM112.56,221.91c.13-5.2,4.43-8.37,10.06-10.33,4.63-1.56,11.45-4.67,13.21-6.7-9.78,7.78-26.26,6.03-23.23,21.67,1.64,9.49,6.01,19.56,6.31,28.44.05.37.06.17.03-.55.03-10.07-6.67-22.42-6.4-32.41v-.13ZM119.11,255.21s0,0,0,.01h0s0-.01,0-.01ZM136.8,204.71c1.74-2.08,3.98-5.39,4.22-8.37-.76,2.37-2.37,6.29-4.22,8.38h0ZM138.35,182.15c1.37,3.02,2.12,6.06,2.84,8.83.23.78.3.31.03-1.23-.23-1.23-.58-2.6-1.06-3.95-1.44-3.72-4.35-9.98-5.26-12.83.68,2.68,2.07,6.02,3.38,9.01l.07.17ZM159.9,151.56c5.8-1.38,8.93-4.99,10.37-9.12.32-.85.26-.85-.15-.06-1.47,2.98-3.53,5.99-7.05,7.66-.89.49-2.44,1.06-3.17,1.51h0ZM135.25,158.78c-1.3,3.32-3.13,8.39-3.56,12.36-.02.12-.02.2-.03.24,0,.04,0,.05,0,.01,0-.03.02-.09.04-.17.23-2.96,2.7-10.04,3.73-12.87-.06.09-.09.2-.16.37l-.02.06ZM138.38,189.76c-.23,1.47-.43,3.27-.44,4.99.4-1.38.5-3.38.45-4.98h0ZM135.46,158.24c1.32-1.74,3.49-4.31,5.51-5.72-1.75.92-4.81,3.85-5.51,5.71h0ZM116.17,253.69s0,0,0,.01h0s0-.01,0-.01ZM109.62,220.39c.13-5.2,4.43-8.37,10.06-10.33,4.63-1.56,11.45-4.67,13.21-6.7-9.78,7.78-26.26,6.03-23.23,21.67,1.64,9.49,6.01,19.56,6.31,28.44.05.37.06.17.03-.55.03-10.07-6.67-22.42-6.4-32.41v-.13ZM133.87,203.19c1.74-2.08,3.98-5.39,4.22-8.37-.76,2.37-2.37,6.29-4.22,8.38h0ZM153.87,150.33c-2.52-.26-4.81-.51-6.6-.3-2.55.24-5.01,1.68-6.36,2.46,1.32-.69,3.66-2.07,6.4-2.27,2.6-.2,5.99.34,9.04.59.81.08,1.87.19,2.63.26.39.04.46.02.21-.04-1.21-.26-3.7-.53-5.07-.67l-.24-.03ZM135.42,180.63c1.37,3.02,2.12,6.06,2.84,8.83.23.78.3.31.03-1.23-.23-1.23-.58-2.6-1.06-3.95-1.44-3.72-4.35-9.98-5.26-12.83.68,2.68,2.07,6.02,3.38,9.01l.07.17ZM132.4,157.3c-1.3,3.32-3.13,8.39-3.56,12.36-.02.12-.02.2-.03.24,0,.04,0,.05,0,.01,0-.03.02-.09.04-.17.23-2.96,2.7-10.04,3.73-12.87-.06.09-.09.2-.16.37l-.02.06ZM132.61,156.76c1.32-1.74,3.49-4.31,5.51-5.72-1.75.92-4.81,3.85-5.51,5.71h0ZM135.53,188.28c-.23,1.47-.43,3.27-.44,4.99.4-1.38.5-3.38.45-4.98h0ZM151.02,148.85c-2.52-.26-4.81-.51-6.6-.3-2.55.24-5.01,1.68-6.36,2.46,1.32-.69,3.66-2.07,6.4-2.27,2.6-.2,5.99.34,9.04.59.81.08,1.87.19,2.63.26.39.04.46.02.21-.04-1.21-.26-3.7-.53-5.07-.67l-.24-.03ZM106.77,218.91c.13-5.2,4.43-8.37,10.06-10.33,4.63-1.56,11.45-4.67,13.21-6.69-9.78,7.78-26.26,6.03-23.23,21.67,1.64,9.49,6.01,19.56,6.31,28.44.05.37.06.17.03-.55.03-10.07-6.67-22.42-6.4-32.41v-.13ZM113.32,252.21s0,0,0,.01h0s0-.01,0-.01ZM131.01,201.71c1.74-2.08,3.98-5.39,4.22-8.37-.76,2.37-2.37,6.29-4.22,8.38h0ZM157.04,150.09c5.81-1.37,8.93-4.99,10.37-9.12.32-.85.26-.85-.15-.06-1.47,2.98-3.53,5.99-7.05,7.66-.89.49-2.44,1.06-3.17,1.51h0ZM132.56,179.16c1.37,3.02,2.12,6.06,2.84,8.83.23.78.3.31.03-1.23-.23-1.23-.58-2.6-1.06-3.95-1.44-3.72-4.35-9.98-5.26-12.83.68,2.68,2.07,6.02,3.38,9.01l.07.17ZM128.86,155.52c-1.3,3.32-3.13,8.39-3.56,12.36-.02.12-.02.2-.03.24,0,.04,0,.05,0,.01,0-.03.02-.09.04-.17.23-2.96,2.7-10.04,3.73-12.87-.06.09-.09.2-.16.37l-.02.06ZM153.5,148.3c5.81-1.38,8.93-4.99,10.37-9.12.32-.85.26-.85-.15-.06-1.47,2.98-3.53,5.99-7.05,7.66-.89.49-2.44,1.06-3.17,1.51h0ZM129.07,154.98c1.32-1.74,3.49-4.31,5.51-5.72-1.75.92-4.81,3.85-5.51,5.71h0ZM131.99,186.5c-.23,1.47-.43,3.27-.44,4.99.4-1.38.5-3.38.45-4.98h0ZM147.47,147.07c-2.52-.26-4.81-.51-6.6-.3-2.55.24-5.01,1.68-6.36,2.46,1.32-.69,3.66-2.07,6.4-2.27,2.6-.2,5.99.34,9.04.59.81.08,1.87.19,2.63.26.39.04.46.02.21-.04-1.21-.26-3.7-.53-5.07-.67l-.24-.03ZM103.23,217.13c.13-5.2,4.43-8.37,10.06-10.33,4.63-1.56,11.45-4.67,13.21-6.7-9.78,7.78-26.26,6.03-23.23,21.67,1.64,9.49,6.01,19.56,6.31,28.44.05.37.06.17.03-.55.03-10.07-6.67-22.42-6.4-32.41v-.13ZM109.78,250.43s0,0,0,.01h0s0-.01,0-.01ZM127.47,199.93c1.74-2.08,3.98-5.39,4.22-8.37-.76,2.37-2.37,6.29-4.22,8.38h0ZM129.02,177.37c1.37,3.02,2.12,6.06,2.84,8.83.23.78.3.31.03-1.23-.23-1.23-.58-2.6-1.06-3.95-1.44-3.72-4.35-9.98-5.26-12.83.68,2.68,2.07,6.02,3.38,9.01l.07.17ZM150.56,146.78c5.81-1.38,8.93-4.99,10.37-9.12.32-.85.26-.85-.15-.06-1.47,2.98-3.53,5.99-7.05,7.66-.89.49-2.44,1.06-3.17,1.51h0ZM125.92,154c-1.3,3.32-3.13,8.39-3.56,12.36-.02.12-.02.2-.03.24,0,.04,0,.05,0,.01,0-.03.02-.09.04-.17.23-2.96,2.7-10.04,3.73-12.87-.06.09-.09.2-.16.37l-.02.06ZM129.05,184.98c-.23,1.47-.43,3.27-.44,4.99.4-1.38.5-3.38.45-4.98h0ZM126.13,153.46c1.32-1.74,3.49-4.31,5.51-5.72-1.75.92-4.81,3.85-5.51,5.71h0ZM106.84,248.91s0,0,0,.01h0s0-.01,0-.01ZM100.29,215.61c.13-5.2,4.43-8.37,10.06-10.33,4.63-1.56,11.45-4.67,13.21-6.7-9.78,7.78-26.26,6.03-23.23,21.67,1.64,9.49,6.01,19.56,6.31,28.44.05.37.06.17.03-.55.03-10.07-6.67-22.42-6.4-32.41v-.13ZM124.53,198.41c1.74-2.08,3.98-5.39,4.22-8.37-.76,2.37-2.37,6.29-4.22,8.38h0ZM144.54,145.55c-2.52-.26-4.81-.51-6.6-.3-2.55.24-5.01,1.68-6.36,2.46,1.32-.69,3.66-2.07,6.4-2.27,2.6-.2,5.99.34,9.04.59.81.08,1.87.19,2.63.26.39.04.46.02.21-.04-1.21-.26-3.7-.53-5.07-.67l-.24-.03ZM126.08,175.85c1.37,3.02,2.12,6.06,2.84,8.83.23.78.3.31.03-1.23-.23-1.23-.58-2.6-1.06-3.95-1.44-3.72-4.35-9.98-5.26-12.83.68,2.68,2.07,6.02,3.38,9.01l.07.17ZM123.07,152.52c-1.3,3.32-3.13,8.39-3.56,12.36-.02.12-.02.2-.03.24,0,.04,0,.05,0,.01,0-.03.02-.09.04-.17.23-2.96,2.7-10.04,3.73-12.87-.06.09-.09.2-.16.37l-.02.06ZM123.28,151.98c1.32-1.74,3.49-4.31,5.51-5.72-1.75.92-4.81,3.85-5.51,5.71h0ZM126.2,183.5c-.23,1.47-.43,3.27-.44,4.99.4-1.38.5-3.38.45-4.98h0ZM141.68,144.07c-2.52-.26-4.81-.51-6.6-.3-2.55.24-5.01,1.68-6.36,2.46,1.32-.69,3.66-2.07,6.4-2.27,2.6-.2,5.99.34,9.04.59.81.08,1.87.19,2.63.26.39.04.46.02.21-.04-1.21-.26-3.7-.53-5.07-.67l-.24-.03ZM97.44,214.13c.13-5.2,4.43-8.37,10.06-10.33,4.63-1.56,11.45-4.67,13.21-6.69-9.78,7.78-26.26,6.03-23.23,21.67,1.44,8.93,5.62,18.17,6.12,26.66.09.87.15,1.49.19,1.78.05.37.06.17.03-.55.03-10.07-6.67-22.42-6.4-32.41v-.13ZM103.99,247.43s0,0,0,.01h0s0-.01,0-.01ZM121.68,196.93c1.74-2.08,3.98-5.39,4.22-8.37-.76,2.37-2.37,6.29-4.22,8.38h0ZM147.71,145.31c5.81-1.37,8.93-4.99,10.37-9.12.32-.85.26-.85-.15-.06-1.47,2.98-3.53,5.99-7.05,7.66-.89.49-2.44,1.06-3.17,1.51h0ZM123.23,174.38c1.37,3.02,2.12,6.06,2.84,8.83.23.78.3.31.03-1.23-.23-1.23-.58-2.6-1.06-3.95-1.44-3.72-4.35-9.98-5.26-12.83.68,2.68,2.07,6.02,3.38,9.01l.07.17ZM120.4,151.09c-1.3,3.32-3.13,8.39-3.56,12.36-.02.12-.02.2-.03.24,0,.04,0,.05,0,.01,0-.03.02-.09.04-.17.23-2.96,2.7-10.04,3.73-12.87-.06.09-.09.2-.16.37l-.02.06ZM145.04,143.87c5.81-1.38,8.93-4.99,10.37-9.12.32-.85.26-.85-.15-.06-1.47,2.98-3.53,5.99-7.05,7.66-.89.49-2.44,1.06-3.17,1.51h0ZM120.61,150.55c1.32-1.74,3.49-4.31,5.51-5.72-1.75.92-4.81,3.85-5.51,5.71h0ZM123.53,182.07c-.23,1.47-.43,3.27-.44,4.99.4-1.38.5-3.38.45-4.98h0ZM139.01,142.64c-2.52-.26-4.81-.51-6.6-.3-2.55.24-5.01,1.68-6.36,2.46,1.32-.69,3.66-2.07,6.4-2.27,2.6-.2,5.99.34,9.04.59.81.08,1.87.19,2.63.26.39.04.46.02.21-.04-1.21-.26-3.7-.53-5.07-.67l-.24-.03ZM94.77,212.7c.13-5.2,4.43-8.37,10.06-10.33,4.63-1.56,11.45-4.67,13.21-6.7-9.78,7.78-26.26,6.03-23.23,21.67,1.64,9.49,6.01,19.56,6.31,28.44.05.37.06.17.03-.55.03-10.07-6.67-22.42-6.4-32.41v-.13ZM101.32,246s0,0,0,.01h0s0-.01,0-.01ZM119.01,195.5c1.74-2.08,3.98-5.39,4.22-8.37-.76,2.37-2.37,6.29-4.22,8.38h0ZM120.56,172.94c1.37,3.02,2.12,6.06,2.84,8.83.23.78.3.31.03-1.23-.23-1.23-.58-2.6-1.06-3.95-1.44-3.72-4.35-9.98-5.26-12.83.68,2.68,2.07,6.02,3.38,9.01l.07.17ZM142.11,142.35c5.81-1.38,8.93-4.99,10.37-9.12.32-.85.26-.85-.15-.06-1.47,2.98-3.53,5.99-7.05,7.66-.89.49-2.44,1.06-3.17,1.51h0ZM117.46,149.57c-1.3,3.32-3.13,8.39-3.56,12.36-.02.12-.02.2-.03.24,0,.04,0,.05,0,.01,0-.03.02-.09.04-.17.23-2.96,2.7-10.04,3.73-12.87-.06.09-.09.2-.16.37l-.02.06ZM120.59,180.55c-.23,1.47-.43,3.27-.44,4.99.4-1.38.5-3.38.45-4.98h0ZM117.67,149.03c1.32-1.74,3.49-4.31,5.51-5.72-1.75.92-4.81,3.85-5.51,5.71h0ZM98.38,244.48s0,0,0,.01h0s0-.01,0-.01ZM91.83,211.18c.13-5.2,4.43-8.37,10.06-10.33,4.63-1.56,11.45-4.67,13.21-6.7-9.78,7.78-26.26,6.03-23.23,21.67,1.64,9.49,6.01,19.56,6.31,28.44.05.37.06.17.03-.55.03-10.07-6.67-22.42-6.4-32.41v-.13ZM116.07,193.98c1.74-2.08,3.98-5.39,4.22-8.37-.76,2.37-2.37,6.29-4.22,8.38h0ZM136.08,141.12c-2.52-.26-4.81-.51-6.6-.3-2.55.24-5.01,1.68-6.36,2.46,1.32-.69,3.66-2.07,6.4-2.27,2.6-.2,5.99.34,9.04.59.81.08,1.87.19,2.63.26.39.04.46.02.21-.04-1.21-.26-3.7-.53-5.07-.67l-.24-.03ZM117.62,171.42c1.37,3.02,2.12,6.06,2.84,8.83.23.78.3.31.03-1.23-.23-1.23-.58-2.6-1.06-3.95-1.44-3.72-4.35-9.98-5.26-12.83.68,2.68,2.07,6.02,3.38,9.01l.07.17ZM114.61,148.09c-1.3,3.32-3.13,8.39-3.56,12.36-.02.12-.02.2-.03.24,0,.04,0,.05,0,.01,0-.03.02-.09.04-.17.23-2.96,2.7-10.04,3.73-12.87-.06.09-.09.2-.16.37l-.02.06ZM114.82,147.55c1.32-1.74,3.49-4.31,5.51-5.72-1.75.92-4.81,3.85-5.51,5.71h0ZM156.45,76.66c-1.88,7.84,1.22,17.63.32,25.93-1.11,9.71-6.04,17.55-7.61,26.93-.15.73-.2,1.07-.15.95,1.59-7.8,5.11-15.59,7.18-23.28,2.36-8.15-.69-18.38-.05-27.29.84-15.06,18.27-21.19,29.31-30.61,1-.83,3.1-2.86,2.92-2.74-10.27,10.11-28.6,15.97-31.9,30.01l-.03.11ZM117.74,179.07c-.23,1.47-.43,3.27-.44,4.99.4-1.38.5-3.38.45-4.98h0ZM133.22,139.64c-2.52-.26-4.81-.51-6.6-.3-2.55.24-5.01,1.68-6.36,2.46,1.32-.69,3.66-2.07,6.4-2.27,2.6-.2,5.99.34,9.04.59.81.08,1.87.19,2.63.26.39.04.46.02.21-.04-1.21-.26-3.7-.53-5.07-.67l-.24-.03ZM88.98,209.7c.13-5.2,4.43-8.37,10.06-10.33,4.63-1.56,11.45-4.67,13.21-6.69-9.78,7.78-26.26,6.03-23.23,21.67,1.64,9.49,6.01,19.56,6.31,28.44.05.37.06.17.03-.55.03-10.07-6.67-22.42-6.4-32.41v-.13ZM95.53,243s0,0,0,.01h0s0-.01,0-.01ZM113.22,192.5c1.74-2.08,3.98-5.39,4.22-8.37-.76,2.37-2.37,6.29-4.22,8.38h0ZM139.25,140.88c5.81-1.37,8.93-4.99,10.37-9.12.32-.85.26-.85-.15-.06-1.47,2.98-3.53,5.99-7.05,7.66-.89.49-2.44,1.06-3.17,1.51h0ZM114.77,169.95c1.37,3.02,2.12,6.06,2.84,8.83.23.78.3.31.03-1.23-.23-1.23-.58-2.6-1.06-3.95-1.44-3.72-4.35-9.98-5.26-12.83.68,2.68,2.07,6.02,3.38,9.01l.07.17ZM268.65,333.2h0s0,0,0,.01h0ZM265.71,331.68s0,0,0,.01h0s0-.01,0-.01ZM262.86,330.2s0,0,0,.01h0s0-.01,0-.01ZM260.19,328.77s0,0,0,.01h0s0-.01,0-.01ZM257.25,327.25s0,0,0,.01h0s0-.01,0-.01ZM254.4,325.77s0,0,0,.01h0s0-.01,0-.01ZM250.99,323.95s0,0,0,.01h0s0-.01,0-.01ZM248.05,322.42s0,0,0,.01h0s0-.01,0-.01ZM245.2,320.95s0,0,0,.01h0s0-.01,0-.01ZM242.53,319.52s0,0,0,.01h0s0-.01,0-.01ZM239.59,317.99s0,0,0,.01h0s0-.01,0-.01ZM236.74,316.52s0,0,0,.01h0s0-.01,0-.01ZM233.33,314.69s0,0,0,.01h0s0-.01,0-.01ZM230.39,313.17s0,0,0,.01h0s0-.01,0-.01ZM227.53,311.69s0,0,0,.01h0s0-.01,0-.01ZM224.87,310.26s0,0,0,.01h0s0-.01,0-.01ZM221.93,308.74s0,0,0,.01h0s0-.01,0-.01ZM219.08,307.26s0,0,0,.01h0s0-.01,0-.01ZM215.53,305.7s0,0,0,.01h0s0-.01,0-.01ZM212.59,304.18s0,0,0,.01h0s0-.01,0-.01ZM209.74,302.7s0,0,0,.01h0s0-.01,0-.01ZM207.07,301.27s0,0,0,.01h0s0-.01,0-.01ZM204.13,299.75s0,0,0,.01h0s0-.01,0-.01ZM201.28,298.27s0,0,0,.01h0s0-.01,0-.01ZM197.73,296.49s0,0,0,.01h0s0-.01,0-.01ZM194.8,294.97s0,0,0,.01h0s0-.01,0-.01ZM191.94,293.49s0,0,0,.01h0s0-.01,0-.01ZM189.27,292.06s0,0,0,.01h0s0-.01,0-.01ZM186.34,290.54s0,0,0,.01h0s0-.01,0-.01ZM183.48,289.06s0,0,0,.01h0s0-.01,0-.01Z"/>
    </g>
  </g>
</svg>