<svg xmlns="http://www.w3.org/2000/svg" width="357.081" height="380.469" viewBox="0 0 357.081 380.469">
  <g id="Group_521" data-name="Group 521" transform="translate(-99.84 -941.517)">
    <path id="Path_146" data-name="Path 146" d="M455.223,1103.07a8.628,8.628,0,0,0-13.329-.9l-109.579,77.917-79.214-111.4a8.628,8.628,0,0,0-12.032-2.031,136.638,136.638,0,0,0-32.175,190.538,153.95,153.95,0,0,0,214.681,36.253,8.635,8.635,0,0,0,3.512-5.619l29.359-176.8a8.617,8.617,0,0,0-1.123-7.819Z" fill="#4a1b1c"/>
    <path id="Path_147" data-name="Path 147" d="M418.574,1286.41l29.617-178.343.1.14-118.007,83.911L246.07,1073.683a128.01,128.01,0,0,0-30.144,178.506h0a145.324,145.324,0,0,0,202.649,34.22" fill="#49b2b0"/>
    <path id="Path_148" data-name="Path 148" d="M310.824,1302.14c12.454,2.4,24.917,4.757,37.355,7.234,3.229.643,5.283.38,7.279-1.049q21.99-15.749,44.333-31.294c2.338-1.628,2.832-3.11,1.17-5.623-9.96-15.063-19.66-30.165-29.291-45.275-1.469-2.305-3.455-3.551-7.281-4.273q-36.744-6.937-73.434-14.157c-4-.789-6.42-.375-8.732,1.274q-22.041,15.721-44.35,31.287c-1.937,1.356-2.325,2.764-1,4.787q15.127,23.147,30.012,46.33c1.247,1.946,3.1,2.925,6.148,3.5,12.608,2.369,25.2,4.831,37.8,7.261" fill="#ff501a"/>
    <path id="Path_149" data-name="Path 149" d="M234.022,1244.71a4.314,4.314,0,1,0-6.016-1.016,4.314,4.314,0,0,0,6.016,1.016" fill="#49b2b0"/>
    <path id="Path_150" data-name="Path 150" d="M243.4,1238.05a4.314,4.314,0,1,0-6.016-1.016,4.314,4.314,0,0,0,6.016,1.016" fill="#49b2b0"/>
    <path id="Path_151" data-name="Path 151" d="M262.15,1224.71a4.314,4.314,0,1,0-6.016-1.016,4.314,4.314,0,0,0,6.016,1.016" fill="#49b2b0"/>
    <path id="Path_152" data-name="Path 152" d="M252.774,1231.38a4.314,4.314,0,1,0-6.016-1.016,4.314,4.314,0,0,0,6.016,1.016" fill="#49b2b0"/>
    <path id="Path_153" data-name="Path 153" d="M240.689,1254.09a4.314,4.314,0,1,0-6.016-1.016,4.314,4.314,0,0,0,6.016,1.016" fill="#49b2b0"/>
    <path id="Path_154" data-name="Path 154" d="M250.065,1247.42a4.314,4.314,0,1,0-6.016-1.016,4.314,4.314,0,0,0,6.016,1.016" fill="#49b2b0"/>
    <path id="Path_155" data-name="Path 155" d="M268.817,1234.09a4.314,4.314,0,1,0-6.016-1.016,4.314,4.314,0,0,0,6.016,1.016" fill="#49b2b0"/>
    <path id="Path_156" data-name="Path 156" d="M259.441,1240.75a4.314,4.314,0,1,0-6.016-1.016,4.314,4.314,0,0,0,6.016,1.016" fill="#49b2b0"/>
    <path id="Path_157" data-name="Path 157" d="M254.023,1272.84a4.314,4.314,0,1,0-6.016-1.016,4.314,4.314,0,0,0,6.016,1.016" fill="#49b2b0"/>
    <path id="Path_158" data-name="Path 158" d="M263.4,1266.17a4.314,4.314,0,1,0-6.016-1.016,4.314,4.314,0,0,0,6.016,1.016" fill="#49b2b0"/>
    <path id="Path_159" data-name="Path 159" d="M282.15,1252.84a4.314,4.314,0,1,0-6.016-1.016,4.314,4.314,0,0,0,6.016,1.016" fill="#49b2b0"/>
    <path id="Path_160" data-name="Path 160" d="M272.774,1259.51a4.314,4.314,0,1,0-6.016-1.016,4.314,4.314,0,0,0,6.016,1.016" fill="#49b2b0"/>
    <path id="Path_161" data-name="Path 161" d="M247.356,1263.46a4.314,4.314,0,1,0-6.016-1.016,4.314,4.314,0,0,0,6.016,1.016" fill="#49b2b0"/>
    <path id="Path_162" data-name="Path 162" d="M256.732,1256.8a4.314,4.314,0,1,0-6.016-1.016,4.314,4.314,0,0,0,6.016,1.016" fill="#49b2b0"/>
    <path id="Path_163" data-name="Path 163" d="M275.483,1243.46a4.314,4.314,0,1,0-6.016-1.016,4.314,4.314,0,0,0,6.016,1.016" fill="#49b2b0"/>
    <path id="Path_164" data-name="Path 164" d="M266.108,1250.13a4.314,4.314,0,1,0-6.016-1.016,4.314,4.314,0,0,0,6.016,1.016" fill="#49b2b0"/>
    <path id="Path_165" data-name="Path 165" d="M271.526,1218.05a4.314,4.314,0,1,0-6.016-1.016,4.314,4.314,0,0,0,6.016,1.016" fill="#49b2b0"/>
    <path id="Path_166" data-name="Path 166" d="M280.9,1211.38a4.314,4.314,0,1,0-6.016-1.016,4.314,4.314,0,0,0,6.016,1.016" fill="#49b2b0"/>
    <path id="Path_167" data-name="Path 167" d="M299.653,1198.05a4.314,4.314,0,1,0-6.016-1.016,4.314,4.314,0,0,0,6.016,1.016" fill="#49b2b0"/>
    <path id="Path_168" data-name="Path 168" d="M290.277,1204.71a4.314,4.314,0,1,0-6.015-1.016,4.314,4.314,0,0,0,6.015,1.016" fill="#49b2b0"/>
    <path id="Path_169" data-name="Path 169" d="M278.193,1227.42a4.314,4.314,0,1,0-6.016-1.016,4.314,4.314,0,0,0,6.016,1.016" fill="#49b2b0"/>
    <path id="Path_170" data-name="Path 170" d="M287.568,1220.75a4.314,4.314,0,1,0-6.016-1.016,4.314,4.314,0,0,0,6.016,1.016" fill="#49b2b0"/>
    <path id="Path_171" data-name="Path 171" d="M306.32,1207.42a4.314,4.314,0,1,0-6.016-1.016,4.314,4.314,0,0,0,6.016,1.016" fill="#49b2b0"/>
    <path id="Path_172" data-name="Path 172" d="M296.944,1214.09a4.314,4.314,0,1,0-6.016-1.016,4.314,4.314,0,0,0,6.016,1.016" fill="#49b2b0"/>
    <path id="Path_173" data-name="Path 173" d="M291.526,1246.17a4.314,4.314,0,1,0-6.016-1.016,4.314,4.314,0,0,0,6.016,1.016" fill="#49b2b0"/>
    <path id="Path_174" data-name="Path 174" d="M300.9,1239.51a4.314,4.314,0,1,0-6.016-1.016,4.314,4.314,0,0,0,6.016,1.016" fill="#49b2b0"/>
    <path id="Path_175" data-name="Path 175" d="M319.654,1226.17a4.314,4.314,0,1,0-6.016-1.016,4.314,4.314,0,0,0,6.016,1.016" fill="#49b2b0"/>
    <path id="Path_176" data-name="Path 176" d="M310.278,1232.84a4.314,4.314,0,1,0-6.016-1.016,4.314,4.314,0,0,0,6.016,1.016" fill="#49b2b0"/>
    <path id="Path_177" data-name="Path 177" d="M284.859,1236.8a4.314,4.314,0,1,0-6.016-1.016,4.314,4.314,0,0,0,6.016,1.016" fill="#49b2b0"/>
    <path id="Path_178" data-name="Path 178" d="M294.235,1230.13a4.314,4.314,0,1,0-6.016-1.016,4.314,4.314,0,0,0,6.016,1.016" fill="#49b2b0"/>
    <path id="Path_179" data-name="Path 179" d="M312.987,1216.8a4.314,4.314,0,1,0-6.016-1.016,4.314,4.314,0,0,0,6.016,1.016" fill="#49b2b0"/>
    <path id="Path_180" data-name="Path 180" d="M303.611,1223.46a4.314,4.314,0,1,0-6.016-1.016,4.314,4.314,0,0,0,6.016,1.016" fill="#49b2b0"/>
    <path id="Path_181" data-name="Path 181" d="M309.029,1191.38a4.314,4.314,0,1,0-6.016-1.016,4.314,4.314,0,0,0,6.016,1.016" fill="#49b2b0"/>
    <path id="Path_182" data-name="Path 182" d="M315.7,1200.75a4.314,4.314,0,1,0-6.016-1.016,4.314,4.314,0,0,0,6.016,1.016" fill="#49b2b0"/>
    <path id="Path_183" data-name="Path 183" d="M329.03,1219.51a4.314,4.314,0,1,0-6.016-1.016,4.314,4.314,0,0,0,6.016,1.016" fill="#49b2b0"/>
    <path id="Path_184" data-name="Path 184" d="M338.4,1212.84a4.314,4.314,0,1,0-6.016-1.016,4.314,4.314,0,0,0,6.016,1.016" fill="#49b2b0"/>
    <path id="Path_185" data-name="Path 185" d="M357.157,1199.51a4.314,4.314,0,1,0-6.016-1.016,4.314,4.314,0,0,0,6.016,1.016" fill="#49b2b0"/>
    <path id="Path_186" data-name="Path 186" d="M347.781,1206.17a4.314,4.314,0,1,0-6.016-1.016,4.314,4.314,0,0,0,6.016,1.016" fill="#49b2b0"/>
    <path id="Path_187" data-name="Path 187" d="M322.363,1210.13a4.314,4.314,0,1,0-6.016-1.016,4.314,4.314,0,0,0,6.016,1.016" fill="#49b2b0"/>
    <path id="Path_188" data-name="Path 188" d="M260.749,1282.3a4.314,4.314,0,1,0-6.016-1.016,4.314,4.314,0,0,0,6.016,1.016" fill="#49b2b0"/>
    <path id="Path_189" data-name="Path 189" d="M270.125,1275.63a4.314,4.314,0,1,0-6.016-1.016,4.314,4.314,0,0,0,6.016,1.016" fill="#49b2b0"/>
    <path id="Path_190" data-name="Path 190" d="M288.876,1262.3a4.314,4.314,0,1,0-6.016-1.016,4.314,4.314,0,0,0,6.016,1.016" fill="#49b2b0"/>
    <path id="Path_191" data-name="Path 191" d="M279.5,1268.96a4.314,4.314,0,1,0-6.016-1.016,4.314,4.314,0,0,0,6.016,1.016" fill="#49b2b0"/>
    <path id="Path_192" data-name="Path 192" d="M267.415,1291.68a4.314,4.314,0,1,0-6.016-1.016,4.314,4.314,0,0,0,6.016,1.016" fill="#49b2b0"/>
    <path id="Path_193" data-name="Path 193" d="M276.791,1285.01a4.314,4.314,0,1,0-6.016-1.016,4.314,4.314,0,0,0,6.016,1.016" fill="#49b2b0"/>
    <path id="Path_194" data-name="Path 194" d="M295.543,1271.67a4.314,4.314,0,1,0-6.016-1.016,4.314,4.314,0,0,0,6.016,1.016" fill="#49b2b0"/>
    <path id="Path_195" data-name="Path 195" d="M286.167,1278.34a4.314,4.314,0,1,0-6.016-1.016,4.314,4.314,0,0,0,6.016,1.016" fill="#49b2b0"/>
    <path id="Path_196" data-name="Path 196" d="M290.125,1303.76a4.314,4.314,0,1,0-6.016-1.016,4.314,4.314,0,0,0,6.016,1.016" fill="#49b2b0"/>
    <path id="Path_197" data-name="Path 197" d="M308.877,1290.43a4.314,4.314,0,1,0-6.016-1.016,4.314,4.314,0,0,0,6.016,1.016" fill="#49b2b0"/>
    <path id="Path_198" data-name="Path 198" d="M299.5,1297.09a4.314,4.314,0,1,0-6.016-1.016,4.314,4.314,0,0,0,6.016,1.016" fill="#49b2b0"/>
    <path id="Path_199" data-name="Path 199" d="M274.082,1301.05a4.314,4.314,0,1,0-6.016-1.016,4.314,4.314,0,0,0,6.016,1.016" fill="#49b2b0"/>
    <path id="Path_200" data-name="Path 200" d="M283.458,1294.38a4.314,4.314,0,1,0-6.016-1.016,4.314,4.314,0,0,0,6.016,1.016" fill="#49b2b0"/>
    <path id="Path_201" data-name="Path 201" d="M302.21,1281.05a4.314,4.314,0,1,0-6.016-1.016,4.314,4.314,0,0,0,6.016,1.016" fill="#49b2b0"/>
    <path id="Path_202" data-name="Path 202" d="M292.834,1287.72a4.314,4.314,0,1,0-6.016-1.016,4.314,4.314,0,0,0,6.016,1.016" fill="#49b2b0"/>
    <path id="Path_203" data-name="Path 203" d="M298.252,1255.63a4.314,4.314,0,1,0-6.016-1.016,4.314,4.314,0,0,0,6.016,1.016" fill="#49b2b0"/>
    <path id="Path_204" data-name="Path 204" d="M307.628,1248.96a4.314,4.314,0,1,0-6.016-1.016,4.314,4.314,0,0,0,6.016,1.016" fill="#49b2b0"/>
    <path id="Path_205" data-name="Path 205" d="M326.38,1235.63a4.314,4.314,0,1,0-6.016-1.016,4.314,4.314,0,0,0,6.016,1.016" fill="#49b2b0"/>
    <path id="Path_206" data-name="Path 206" d="M317,1242.3a4.314,4.314,0,1,0-6.016-1.016A4.314,4.314,0,0,0,317,1242.3" fill="#49b2b0"/>
    <path id="Path_207" data-name="Path 207" d="M304.919,1265.01a4.314,4.314,0,1,0-6.016-1.016,4.314,4.314,0,0,0,6.016,1.016" fill="#49b2b0"/>
    <path id="Path_208" data-name="Path 208" d="M314.3,1258.34a4.314,4.314,0,1,0-6.016-1.016,4.314,4.314,0,0,0,6.016,1.016" fill="#49b2b0"/>
    <path id="Path_209" data-name="Path 209" d="M333.046,1245.01a4.314,4.314,0,1,0-6.016-1.016,4.314,4.314,0,0,0,6.016,1.016" fill="#49b2b0"/>
    <path id="Path_210" data-name="Path 210" d="M323.671,1251.67a4.314,4.314,0,1,0-6.016-1.016,4.314,4.314,0,0,0,6.016,1.016" fill="#49b2b0"/>
    <path id="Path_211" data-name="Path 211" d="M318.253,1283.76a4.314,4.314,0,1,0-6.016-1.016,4.314,4.314,0,0,0,6.016,1.016" fill="#49b2b0"/>
    <path id="Path_212" data-name="Path 212" d="M327.628,1277.09a4.314,4.314,0,1,0-6.016-1.016,4.314,4.314,0,0,0,6.016,1.016" fill="#49b2b0"/>
    <path id="Path_213" data-name="Path 213" d="M346.38,1263.76a4.314,4.314,0,1,0-6.016-1.016,4.314,4.314,0,0,0,6.016,1.016" fill="#49b2b0"/>
    <path id="Path_214" data-name="Path 214" d="M337,1270.43a4.314,4.314,0,1,0-6.016-1.016A4.314,4.314,0,0,0,337,1270.43" fill="#49b2b0"/>
    <path id="Path_215" data-name="Path 215" d="M311.586,1274.38a4.314,4.314,0,1,0-6.016-1.016,4.314,4.314,0,0,0,6.016,1.016" fill="#49b2b0"/>
    <path id="Path_216" data-name="Path 216" d="M320.961,1267.72a4.314,4.314,0,1,0-6.016-1.016,4.314,4.314,0,0,0,6.016,1.016" fill="#49b2b0"/>
    <path id="Path_217" data-name="Path 217" d="M339.713,1254.38a4.314,4.314,0,1,0-6.016-1.016,4.314,4.314,0,0,0,6.016,1.016" fill="#49b2b0"/>
    <path id="Path_218" data-name="Path 218" d="M330.337,1261.05a4.314,4.314,0,1,0-6.016-1.016,4.314,4.314,0,0,0,6.016,1.016" fill="#49b2b0"/>
    <path id="Path_219" data-name="Path 219" d="M335.755,1228.96a4.314,4.314,0,1,0-6.015-1.016,4.314,4.314,0,0,0,6.015,1.016" fill="#49b2b0"/>
    <path id="Path_220" data-name="Path 220" d="M345.131,1222.3a4.314,4.314,0,1,0-6.016-1.016,4.314,4.314,0,0,0,6.016,1.016" fill="#49b2b0"/>
    <path id="Path_221" data-name="Path 221" d="M363.883,1208.96a4.314,4.314,0,1,0-6.016-1.016,4.314,4.314,0,0,0,6.016,1.016" fill="#49b2b0"/>
    <path id="Path_222" data-name="Path 222" d="M354.507,1215.63a4.314,4.314,0,1,0-6.016-1.016,4.314,4.314,0,0,0,6.016,1.016" fill="#49b2b0"/>
    <path id="Path_223" data-name="Path 223" d="M342.422,1238.34a4.314,4.314,0,1,0-6.016-1.016,4.314,4.314,0,0,0,6.016,1.016" fill="#49b2b0"/>
    <path id="Path_224" data-name="Path 224" d="M351.8,1231.67a4.314,4.314,0,1,0-6.016-1.016,4.314,4.314,0,0,0,6.016,1.016" fill="#49b2b0"/>
    <path id="Path_225" data-name="Path 225" d="M370.55,1218.34a4.314,4.314,0,1,0-6.016-1.016,4.314,4.314,0,0,0,6.016,1.016" fill="#49b2b0"/>
    <path id="Path_226" data-name="Path 226" d="M361.174,1225.01a4.314,4.314,0,1,0-6.016-1.016,4.314,4.314,0,0,0,6.016,1.016" fill="#49b2b0"/>
    <path id="Path_227" data-name="Path 227" d="M355.756,1257.09a4.314,4.314,0,1,0-6.016-1.016,4.314,4.314,0,0,0,6.016,1.016" fill="#49b2b0"/>
    <path id="Path_228" data-name="Path 228" d="M365.132,1250.43a4.314,4.314,0,1,0-6.016-1.016,4.314,4.314,0,0,0,6.016,1.016" fill="#49b2b0"/>
    <path id="Path_229" data-name="Path 229" d="M383.884,1237.09a4.314,4.314,0,1,0-6.016-1.016,4.314,4.314,0,0,0,6.016,1.016" fill="#49b2b0"/>
    <path id="Path_230" data-name="Path 230" d="M374.508,1243.76a4.314,4.314,0,1,0-6.016-1.016,4.314,4.314,0,0,0,6.016,1.016" fill="#49b2b0"/>
    <path id="Path_231" data-name="Path 231" d="M349.089,1247.72a4.314,4.314,0,1,0-6.016-1.016,4.314,4.314,0,0,0,6.016,1.016" fill="#49b2b0"/>
    <path id="Path_232" data-name="Path 232" d="M358.465,1241.05a4.314,4.314,0,1,0-6.016-1.016,4.314,4.314,0,0,0,6.016,1.016" fill="#49b2b0"/>
    <path id="Path_233" data-name="Path 233" d="M377.217,1227.72a4.314,4.314,0,1,0-6.016-1.016,4.314,4.314,0,0,0,6.016,1.016" fill="#49b2b0"/>
    <path id="Path_234" data-name="Path 234" d="M367.841,1234.38a4.314,4.314,0,1,0-6.016-1.016,4.314,4.314,0,0,0,6.016,1.016" fill="#49b2b0"/>
    <path id="Path_235" data-name="Path 235" d="M315.543,1299.8a4.314,4.314,0,1,0-6.016-1.016,4.314,4.314,0,0,0,6.016,1.016" fill="#49b2b0"/>
    <path id="Path_236" data-name="Path 236" d="M306.168,1306.47a4.314,4.314,0,1,0-6.016-1.016,4.314,4.314,0,0,0,6.016,1.016" fill="#49b2b0"/>
    <path id="Path_237" data-name="Path 237" d="M322.21,1309.18a4.314,4.314,0,1,0-6.016-1.016,4.314,4.314,0,0,0,6.016,1.016" fill="#49b2b0"/>
    <path id="Path_238" data-name="Path 238" d="M324.919,1293.14a4.314,4.314,0,1,0-6.016-1.016,4.314,4.314,0,0,0,6.016,1.016" fill="#49b2b0"/>
    <path id="Path_239" data-name="Path 239" d="M334.3,1286.47a4.314,4.314,0,1,0-6.016-1.016,4.314,4.314,0,0,0,6.016,1.016" fill="#49b2b0"/>
    <path id="Path_240" data-name="Path 240" d="M353.047,1273.14a4.314,4.314,0,1,0-6.016-1.016,4.314,4.314,0,0,0,6.016,1.016" fill="#49b2b0"/>
    <path id="Path_241" data-name="Path 241" d="M343.671,1279.8a4.314,4.314,0,1,0-6.016-1.016,4.314,4.314,0,0,0,6.016,1.016" fill="#49b2b0"/>
    <path id="Path_242" data-name="Path 242" d="M331.586,1302.51a4.314,4.314,0,1,0-6.016-1.016,4.314,4.314,0,0,0,6.016,1.016" fill="#49b2b0"/>
    <path id="Path_243" data-name="Path 243" d="M340.962,1295.84a4.314,4.314,0,1,0-6.016-1.016,4.314,4.314,0,0,0,6.016,1.016" fill="#49b2b0"/>
    <path id="Path_244" data-name="Path 244" d="M359.714,1282.51a4.314,4.314,0,1,0-6.016-1.015,4.314,4.314,0,0,0,6.016,1.015" fill="#49b2b0"/>
    <path id="Path_245" data-name="Path 245" d="M350.338,1289.18a4.314,4.314,0,1,0-6.016-1.016,4.314,4.314,0,0,0,6.016,1.016" fill="#49b2b0"/>
    <path id="Path_246" data-name="Path 246" d="M354.3,1314.6a4.314,4.314,0,1,0-6.016-1.016,4.314,4.314,0,0,0,6.016,1.016" fill="#49b2b0"/>
    <path id="Path_247" data-name="Path 247" d="M373.047,1301.26a4.314,4.314,0,1,0-6.016-1.016,4.314,4.314,0,0,0,6.016,1.016" fill="#49b2b0"/>
    <path id="Path_248" data-name="Path 248" d="M363.671,1307.93a4.314,4.314,0,1,0-6.016-1.016,4.314,4.314,0,0,0,6.016,1.016" fill="#49b2b0"/>
    <path id="Path_249" data-name="Path 249" d="M338.253,1311.89a4.314,4.314,0,1,0-6.016-1.016,4.314,4.314,0,0,0,6.016,1.016" fill="#49b2b0"/>
    <path id="Path_250" data-name="Path 250" d="M347.629,1305.22a4.314,4.314,0,1,0-6.016-1.016,4.314,4.314,0,0,0,6.016,1.016" fill="#49b2b0"/>
    <path id="Path_251" data-name="Path 251" d="M366.38,1291.89a4.314,4.314,0,1,0-6.015-1.016,4.314,4.314,0,0,0,6.015,1.016" fill="#49b2b0"/>
    <path id="Path_252" data-name="Path 252" d="M357.005,1298.55a4.314,4.314,0,1,0-6.016-1.016,4.314,4.314,0,0,0,6.016,1.016" fill="#49b2b0"/>
    <path id="Path_253" data-name="Path 253" d="M362.423,1266.47a4.314,4.314,0,1,0-6.016-1.016,4.314,4.314,0,0,0,6.016,1.016" fill="#49b2b0"/>
    <path id="Path_254" data-name="Path 254" d="M371.8,1259.8a4.314,4.314,0,1,0-6.016-1.016,4.314,4.314,0,0,0,6.016,1.016" fill="#49b2b0"/>
    <path id="Path_255" data-name="Path 255" d="M390.55,1246.47a4.314,4.314,0,1,0-6.016-1.016,4.314,4.314,0,0,0,6.016,1.016" fill="#49b2b0"/>
    <path id="Path_256" data-name="Path 256" d="M381.174,1253.13a4.314,4.314,0,1,0-6.016-1.016,4.314,4.314,0,0,0,6.016,1.016" fill="#49b2b0"/>
    <path id="Path_257" data-name="Path 257" d="M369.09,1275.84a4.314,4.314,0,1,0-6.016-1.016,4.314,4.314,0,0,0,6.016,1.016" fill="#49b2b0"/>
    <path id="Path_258" data-name="Path 258" d="M378.465,1269.18a4.314,4.314,0,1,0-6.016-1.016,4.314,4.314,0,0,0,6.016,1.016" fill="#49b2b0"/>
    <path id="Path_259" data-name="Path 259" d="M397.217,1255.84a4.314,4.314,0,1,0-6.016-1.016,4.314,4.314,0,0,0,6.016,1.016" fill="#49b2b0"/>
    <path id="Path_260" data-name="Path 260" d="M387.841,1262.51a4.314,4.314,0,1,0-6.016-1.016,4.314,4.314,0,0,0,6.016,1.016" fill="#49b2b0"/>
    <path id="Path_261" data-name="Path 261" d="M382.423,1294.59a4.314,4.314,0,1,0-6.016-1.016,4.314,4.314,0,0,0,6.016,1.016" fill="#49b2b0"/>
    <path id="Path_262" data-name="Path 262" d="M391.8,1287.93a4.314,4.314,0,1,0-6.016-1.016,4.314,4.314,0,0,0,6.016,1.016" fill="#49b2b0"/>
    <path id="Path_263" data-name="Path 263" d="M410.551,1274.59a4.314,4.314,0,1,0-6.016-1.016,4.314,4.314,0,0,0,6.016,1.016" fill="#49b2b0"/>
    <path id="Path_264" data-name="Path 264" d="M401.175,1281.26a4.314,4.314,0,1,0-6.016-1.016,4.314,4.314,0,0,0,6.016,1.016" fill="#49b2b0"/>
    <path id="Path_265" data-name="Path 265" d="M375.756,1285.22a4.314,4.314,0,1,0-6.016-1.016,4.314,4.314,0,0,0,6.016,1.016" fill="#49b2b0"/>
    <path id="Path_266" data-name="Path 266" d="M385.132,1278.55a4.314,4.314,0,1,0-6.016-1.016,4.314,4.314,0,0,0,6.016,1.016" fill="#49b2b0"/>
    <path id="Path_267" data-name="Path 267" d="M403.884,1265.22a4.314,4.314,0,1,0-6.016-1.016,4.314,4.314,0,0,0,6.016,1.016" fill="#49b2b0"/>
    <path id="Path_268" data-name="Path 268" d="M394.508,1271.89a4.314,4.314,0,1,0-6.016-1.016,4.314,4.314,0,0,0,6.016,1.016" fill="#49b2b0"/>
    <path id="Path_269" data-name="Path 269" d="M308.726,1319.78a152.95,152.95,0,0,1-99.833-62.59,136.64,136.64,0,0,1,32.176-190.538,8.63,8.63,0,0,1,12.032,2.031l79.214,111.4,109.579-77.917a8.628,8.628,0,0,1,13.329.9l.1.14a8.616,8.616,0,0,1,1.124,7.818l-29.36,176.8a8.625,8.625,0,0,1-3.512,5.619,152.948,152.948,0,0,1-114.848,26.337m139.425-211.472.139-.1-.1-.141-.04.24-117.868,83.811-84.214-118.436a128.011,128.011,0,0,0-30.144,178.507,145.324,145.324,0,0,0,202.649,34.222Z" fill="#4a1b1c"/>
    <path id="Path_270" data-name="Path 270" d="M276.685,1102.19c10.3-12.281,20.529-24.628,30.954-36.805,2.707-3.162,3.261-5.941,1.761-9.985q-16.521-44.556-32.517-89.3c-1.675-4.683-4.007-6.975-9.189-7.844-31.061-5.212-62.063-10.783-93.045-16.446-4.725-.864-7.867.107-11.006,3.9q-30.137,36.4-60.739,72.425c-3.337,3.923-3.811,7.321-2.085,12q16.449,44.585,32.5,89.316c1.4,3.888,3.655,5.968,7.818,6.687q47.645,8.225,95.233,16.784c3.992.72,6.6-.392,9.1-3.418,10.32-12.506,20.8-24.884,31.217-37.306" fill="#4a1b1c"/>
    <path id="Path_271" data-name="Path 271" d="M109.4,1023.81c-1.124,1.34-1.188,1.429-.487,3.329,11.968,32.438,23.666,64.8,32.52,89.378a4.828,4.828,0,0,0,.417.921,4.177,4.177,0,0,0,.751.188c33.667,5.812,64.839,11.306,95.3,16.8.205.037.361.056.476.066a5.809,5.809,0,0,0,.4-.431l.044-.053c4.131-5.005,8.679-10.467,14.315-17.188q4.383-5.227,8.777-10.448,4.086-4.86,8.17-9.724l.535-.638q4.021-4.8,8.034-9.6t8.053-9.622c5.722-6.824,10.159-12.07,14.388-17.009l.063-.075a.8.8,0,0,0,.162-1.3c-10.732-28.939-21.683-59.017-32.551-89.4a5.44,5.44,0,0,0-.857-1.782,4.917,4.917,0,0,0-1.636-.459c-33.072-5.55-65.656-11.439-93.168-16.468a4.853,4.853,0,0,0-1.74-.125h0a4.149,4.149,0,0,0-1.022.982l-.045.055c-10.554,12.749-20.962,25.245-30.939,37.141-10.125,12.075-20.177,23.977-29.875,35.375l-.076.089" fill="#49b2b0"/>
    <path id="Path_272" data-name="Path 272" d="M163.2,999.267c-.645,4.2-1.3,8.392-1.933,12.591-.468,3.1-.428,3.154,2.768,3.649,7.172,1.109,14.335,2.278,21.523,3.27,2.239.309,2.772,1.215,2.412,3.365-1.224,7.309-2.3,14.643-3.408,21.971-.425,2.808-.241,3.064,2.516,3.493q12.816,1.994,25.638,3.944c2.886.44,3.019.343,3.457-2.474,1.149-7.4,2.337-14.794,3.382-22.209.291-2.062,1.032-2.733,3.162-2.376,7.461,1.25,14.958,2.284,22.422,3.519,2.057.341,2.928-.2,3.233-2.324q1.893-13.181,4.043-26.325c.33-2.029-.359-2.761-2.3-3.04-7.412-1.067-14.808-2.242-22.208-3.39-2.984-.463-3.015-.511-2.546-3.58q1.662-10.875,3.339-21.748c.44-2.884.335-3.046-2.452-3.478q-12.816-1.991-25.639-3.941c-2.877-.437-3.1-.258-3.563,2.7-1.139,7.323-2.315,14.641-3.352,21.979-.295,2.1-1.122,2.7-3.209,2.351-7.31-1.218-14.655-2.226-21.964-3.447-2.166-.361-3.083.216-3.355,2.445-.533,4.366-1.3,8.7-1.966,13.053" fill="#ff501a"/>
    <line id="Line_1" data-name="Line 1" y1="13.143" x2="146.485" transform="translate(134.016 1091.78)" fill="none" stroke="#4a1b1c" stroke-miterlimit="10" stroke-width="8.628"/>
    <line id="Line_2" data-name="Line 2" y1="16.362" x2="182.223" transform="translate(122.903 1062.415)" fill="none" stroke="#4a1b1c" stroke-miterlimit="10" stroke-width="8.628"/>
    <line id="Line_3" data-name="Line 3" y1="6.77" x2="75.44" transform="translate(179.981 1121.689)" fill="none" stroke="#4a1b1c" stroke-miterlimit="10" stroke-width="8.628"/>
    <line id="Line_4" data-name="Line 4" y1="16.471" x2="182.252" transform="translate(114.711 1033.819)" fill="none" stroke="#4a1b1c" stroke-miterlimit="10" stroke-width="8.628"/>
    <line id="Line_5" data-name="Line 5" y1="16.423" x2="181.305" transform="translate(102.719 1007.398)" fill="none" stroke="#4a1b1c" stroke-miterlimit="10" stroke-width="8.628"/>
    <line id="Line_6" data-name="Line 6" y1="7.06" x2="77.04" transform="translate(154.724 956.615)" fill="none" stroke="#4a1b1c" stroke-miterlimit="10" stroke-width="8.628"/>
    <line id="Line_7" data-name="Line 7" y1="13.816" x2="151.116" transform="translate(127.811 979.393)" fill="none" stroke="#4a1b1c" stroke-miterlimit="10" stroke-width="8.628"/>
  </g>
</svg>
