<svg xmlns="http://www.w3.org/2000/svg" width="269.397" height="280.236" viewBox="0 0 269.397 280.236">
  <g id="Group_566" data-name="Group 566" transform="translate(-1180.642 -2074.137)">
    <path id="Path_392" data-name="Path 392" d="M1233.953,2308.035c16.024,14.206,32.137,28.313,48.019,42.679,4.124,3.73,7.8,4.567,13.206,2.7q59.58-20.558,119.4-40.4c6.261-2.079,9.365-5.119,10.659-12.021,7.751-41.367,15.978-82.643,24.327-123.89,1.273-6.29.069-10.526-4.879-14.856q-47.511-41.572-94.5-83.753c-5.116-4.6-9.614-5.352-15.866-3.206q-59.617,20.46-119.421,40.378c-5.2,1.739-8.019,4.683-9.084,10.226q-12.2,63.447-24.836,126.806c-1.062,5.315.342,8.846,4.292,12.291,16.322,14.238,32.469,28.679,48.677,43.049" fill="#4a1b1c"/>
    <path id="Path_393" data-name="Path 393" d="M1342.477,2086.984c-1.748-1.549-1.865-1.639-4.406-.766-43.375,14.886-86.648,29.412-119.5,40.405a6.363,6.363,0,0,0-1.234.526,5.555,5.555,0,0,0-.269,1c-8.619,44.833-16.748,86.34-24.852,126.89-.055.273-.084.481-.1.634a7.747,7.747,0,0,0,.561.543l.07.061c6.532,5.7,13.659,11.972,22.428,19.743q6.82,6.045,13.631,12.1,6.341,5.635,12.687,11.265l.832.737q6.259,5.547,12.529,11.08,6.279,5.548,12.554,11.1c8.9,7.89,15.748,14.008,22.19,19.836l.1.086a8.044,8.044,0,0,0,.691.556,8.155,8.155,0,0,0,1.032-.294c38.7-13.353,78.915-26.961,119.528-40.447a7.194,7.194,0,0,0,2.389-1.084,6.643,6.643,0,0,0,.653-2.173c8.254-44.046,16.945-87.428,24.36-124.055a6.538,6.538,0,0,0,.212-2.323h0a5.608,5.608,0,0,0-1.277-1.4l-.072-.063c-16.638-14.558-32.943-28.913-48.466-42.669-15.754-13.962-31.281-27.82-46.149-41.188l-.116-.1" fill="#49b2b0"/>
    <path id="Path_394" data-name="Path 394" d="M1373.6,2159.791c-5.553-1.008-11.1-2.028-16.659-3.021-4.107-.734-4.176-.682-4.918,3.576-1.666,9.554-3.41,19.1-4.919,28.676-.47,2.984-1.687,3.667-4.531,3.11-9.668-1.89-19.373-3.582-29.07-5.319-3.715-.665-4.06-.429-4.7,3.245q-2.991,17.073-5.924,34.157c-.661,3.846-.537,4.027,3.191,4.71,9.79,1.793,19.573,3.638,29.386,5.293,2.73.461,3.6,1.474,3.069,4.312-1.86,9.936-3.434,19.929-5.274,29.87-.507,2.74.186,3.924,3,4.405q17.444,2.988,34.832,6.319c2.684.512,3.674-.385,4.1-2.971,1.614-9.878,3.373-19.73,5.095-29.589.695-3.976.759-4.015,4.821-3.281q14.389,2.6,28.775,5.218c3.816.689,4.034.555,4.683-3.159q2.985-17.075,5.919-34.158c.657-3.834.426-4.142-3.49-4.86-9.69-1.777-19.371-3.6-29.083-5.244-2.772-.468-3.551-1.595-3.033-4.375,1.812-9.736,3.347-19.525,5.164-29.261.538-2.884-.2-4.131-3.155-4.571-5.781-.864-11.517-2.037-17.272-3.082" fill="#ff501a"/>
    <line id="Line_8" data-name="Line 8" x2="13.51" y2="196.398" transform="translate(1234.154 2117.103)" fill="none" stroke="#4a1b1c" stroke-miterlimit="10" stroke-width="11.5"/>
    <line id="Line_9" data-name="Line 9" x2="16.822" y2="244.313" transform="translate(1269.156 2103.142)" fill="none" stroke="#4a1b1c" stroke-miterlimit="10" stroke-width="11.5"/>
    <line id="Line_10" data-name="Line 10" x2="6.959" y2="101.146" transform="translate(1201.68 2177.771)" fill="none" stroke="#4a1b1c" stroke-miterlimit="10" stroke-width="11.5"/>
    <line id="Line_11" data-name="Line 11" x2="16.966" y2="244.355" transform="translate(1307.186 2093.171)" fill="none" stroke="#4a1b1c" stroke-miterlimit="10" stroke-width="11.5"/>
    <line id="Line_12" data-name="Line 12" x2="16.928" y2="243.087" transform="translate(1342.64 2078.047)" fill="none" stroke="#4a1b1c" stroke-miterlimit="10" stroke-width="11.5"/>
    <line id="Line_13" data-name="Line 13" x2="7.302" y2="103.295" transform="translate(1421.073 2149.692)" fill="none" stroke="#4a1b1c" stroke-miterlimit="10" stroke-width="11.5"/>
    <line id="Line_14" data-name="Line 14" x2="14.278" y2="202.615" transform="translate(1382.597 2112.669)" fill="none" stroke="#4a1b1c" stroke-miterlimit="10" stroke-width="11.5"/>
  </g>
</svg>
