<svg xmlns="http://www.w3.org/2000/svg" xmlns:xlink="http://www.w3.org/1999/xlink" width="128.43" height="11.78" viewBox="0 0 128.43 11.78">
  <defs>
    <clipPath id="clip-path">
      <rect id="Rectangle_17" data-name="Rectangle 17" width="128.43" height="11.78" transform="translate(1736.52 68)" fill="none"/>
    </clipPath>
  </defs>
  <g id="Group_37" data-name="Group 37" transform="translate(-1736.52 -68)" opacity="0.6">
    <g id="Group_36" data-name="Group 36">
      <g id="Group_35" data-name="Group 35" clip-path="url(#clip-path)">
        <path id="Path_17" data-name="Path 17" d="M1864.942,73.746c.108.222-1.33.784-1.754.978-3.092,1.415-6.086,2.841-9.149,4.259-.518.239-1.221.457-2.148.8l-12.4-5.764a47.4,47.4,0,0,0-6.636,2.859c-2.056.893-3.916,1.81-5.764,2.671a3.52,3.52,0,0,1-2.164-.332c-3.053-1.419-6.068-2.842-9.126-4.261-.614-.284-1.364-.552-2.24-.9a26.233,26.233,0,0,0-4.352,1.851c-1.391.612-2.638,1.24-3.972,1.859s-2.684,1.226-3.962,1.81a3.376,3.376,0,0,1-2.276-.451c-3.071-1.417-6.094-2.84-9.159-4.257-.518-.24-1.166-.464-2.054-.814-4.879,1.869-7.966,3.813-12.734,5.65a15.261,15.261,0,0,1-3.535-1.4c-1.053-.468-2.032-.946-3.044-1.42-.933-.437-1.859-.876-2.8-1.312-1.017-.47-2.052-.938-3.327-1.521-.805.254-1.467.411-1.875.6-3,1.38-5.941,2.767-8.925,4.149-.6.279-1.307.546-1.917.8-.457-.02-.694-.013-.788-.037a6.406,6.406,0,0,1-.949-.281c-3.83-1.782-7.64-3.566-11.367-5.309a89.252,89.252,0,0,1,12.873-5.825,16.315,16.315,0,0,1,3.265,1.353c1.054.469,2.023.948,3.034,1.422.933.437,1.863.875,2.81,1.311,1.017.468,2.051.934,3.043,1.384a3.5,3.5,0,0,0,2.155-.5c2.833-1.309,5.608-2.624,8.433-3.933.757-.351,1.62-.69,2.732-1.159,4.891,1.877,8.021,3.819,12.453,5.56a3.281,3.281,0,0,0,2.206-.506c3.007-1.379,5.915-2.77,8.9-4.152.6-.276,1.383-.53,2.41-.92l12.408,5.742a44.646,44.646,0,0,0,6.665-2.851c2.069-.891,3.912-1.811,5.777-2.683a3.479,3.479,0,0,1,2.368.457c3,1.38,5.915,2.77,8.893,4.152.61.284,1.364.55,2.348.942,4.6-1.9,8.05-3.8,12.568-5.7.8.258,1.455.423,1.874.615,3,1.379,5.943,2.766,8.932,4.147.6.276,1.319.537,2.274.923" fill="#90d0d3"/>
      </g>
    </g>
  </g>
</svg>
