<svg xmlns="http://www.w3.org/2000/svg" xmlns:xlink="http://www.w3.org/1999/xlink" width="167.85" height="11.78" viewBox="0 0 167.85 11.78">
  <defs>
    <clipPath id="clip-path">
      <rect id="Rectangle_15" data-name="Rectangle 15" width="167.85" height="11.78" transform="translate(1503.06 68)" fill="none"/>
    </clipPath>
  </defs>
  <g id="Group_31" data-name="Group 31" transform="translate(-1503.06 -68)" opacity="0.6">
    <g id="Group_30" data-name="Group 30">
      <g id="Group_29" data-name="Group 29" clip-path="url(#clip-path)">
        <path id="Path_16" data-name="Path 16" d="M1670.908,73.821a9.28,9.28,0,0,1-1.863.846c-3.165,1.345-6.269,2.7-9.43,4.042-.739.315-1.624.613-2.714,1.021a33.954,33.954,0,0,1-4.863-1.887c-1.483-.614-2.836-1.244-4.356-1.854a28.026,28.026,0,0,0-4.507-1.78,3.608,3.608,0,0,0-2.262.515c-3.365,1.415-6.623,2.841-9.957,4.259-.564.239-1.329.457-2.338.8l-13.494-5.764a54.08,54.08,0,0,0-7.222,2.859c-2.238.893-4.261,1.81-6.273,2.671a4.127,4.127,0,0,1-2.356-.332c-3.321-1.419-6.6-2.842-9.931-4.261-.668-.284-1.484-.552-2.438-.9a29.939,29.939,0,0,0-4.736,1.851c-1.513.612-2.871,1.24-4.323,1.859s-2.92,1.226-4.312,1.81a3.925,3.925,0,0,1-2.476-.451c-3.342-1.417-6.633-2.84-9.968-4.257-.564-.24-1.269-.464-2.236-.814-5.309,1.869-8.669,3.813-13.857,5.65a17.462,17.462,0,0,1-3.848-1.4c-1.146-.468-2.211-.946-3.312-1.42-1.016-.437-2.024-.876-3.051-1.312-1.107-.47-2.233-.938-3.621-1.521-.876.254-1.6.411-2.04.6-3.266,1.38-6.466,2.767-9.714,4.149-.656.279-1.422.546-2.086.8-.5-.02-.755-.013-.858-.037a7.459,7.459,0,0,1-1.032-.281c-4.169-1.782-8.314-3.566-12.371-5.309a101.5,101.5,0,0,1,14.01-5.825,18.637,18.637,0,0,1,3.553,1.353c1.147.469,2.2.948,3.3,1.422,1.015.437,2.028.875,3.058,1.311,1.107.468,2.233.934,3.312,1.385a4.068,4.068,0,0,0,2.345-.5c3.083-1.309,6.1-2.624,9.178-3.933.824-.351,1.763-.69,2.973-1.159,5.323,1.877,8.729,3.819,13.552,5.56a3.8,3.8,0,0,0,2.4-.506c3.273-1.379,6.438-2.77,9.685-4.152.65-.276,1.5-.53,2.623-.92l13.5,5.742c3.384-.913,4.926-1.93,7.253-2.851,2.253-.891,4.258-1.811,6.288-2.683a4.049,4.049,0,0,1,2.577.457c3.263,1.38,6.438,2.77,9.678,4.152.664.284,1.484.55,2.555.943,5.011-1.9,8.761-3.8,13.678-5.7.868.259,1.584.423,2.04.615,3.266,1.379,6.467,2.766,9.72,4.147.651.276,1.435.537,2.475.923,5.294-1.876,8.677-3.82,13.914-5.674a18.59,18.59,0,0,1,3.793,1.4c1.132.47,2.209.947,3.308,1.421s2.169.951,3.3,1.421c1.1.458,2.267.91,3.769,1.509" fill="#90d0d3"/>
      </g>
    </g>
  </g>
</svg>
