<?xml version="1.0" encoding="UTF-8"?>
<svg id="Layer_2" data-name="Layer 2" xmlns="http://www.w3.org/2000/svg" xmlns:xlink="http://www.w3.org/1999/xlink" viewBox="0 0 714.9 696.1">
  <defs>
    <style>
      .cls-1 {
        fill: url(#linear-gradient);
        stroke-width: 0px;
      }
    </style>
    <linearGradient id="linear-gradient" x1="0" y1="348.05" x2="714.9" y2="348.05" gradientUnits="userSpaceOnUse">
      <stop offset="0" stop-color="#113768"/>
      <stop offset=".5" stop-color="#007992"/>
      <stop offset="1" stop-color="#3eb489"/>
    </linearGradient>
  </defs>
  <g id="Layer_1-2" data-name="Layer 1">
    <g id="object">
      <path class="cls-1" d="M702.62,238.88c-2.71-4.03-4.6-8.53-5.45-13.01-2.76-14.52,1.66-29.41,5.97-43.9.4-1.36.8-2.71,1.2-4.06,4.59-15.7,8.35-33.83,1.4-49.25-6.38-14.14-19.89-22.45-32.96-30.49-7.26-4.46-14.77-9.08-21.01-14.66-6.67-5.96-12.17-13.3-17.53-20.46-3.63-4.85-7.39-9.87-11.52-14.45-5.98-6.64-21.94-21.74-40.76-18.41-7.19,1.27-13.27,4.09-18.98,7.25-2.6,1.14-5.08,2.41-7.49,3.75-2.3,1.03-4.52,2.16-6.67,3.36-2.26.99-4.43,2.09-6.54,3.25-1.53.66-3.02,1.36-4.47,2.1-3.53.98-7.32,1.57-11.47,1.57-8.54,0-17.4.8-25.22,1.51-9.91.9-20.15,1.83-30.17,1.41-20.46-.84-38.29-9.49-47.68-23.12-2.07-3-3.9-6.4-5.66-9.69-4.37-8.13-8.88-16.54-17.49-20.04-13.08-5.32-26.97,4.38-34.09,10.63-1.52,1.33-3.06,2.74-4.67,4.22-7.38,6.76-15,13.76-24.53,15.67-9.82,1.97-19.74-1.84-29.42-5.55-2.62-1.01-5.34-2.05-8.01-2.95-18.18-6.16-38.95-6.43-58.46-.75-19.51,5.68-36.93,17.05-49.06,32.03-5.84,7.22-10.7,15.32-15.41,23.19-5.86,9.79-11.92,19.91-19.89,28.19-14.06,14.62-33.29,22.88-51.93,30.89-7.76,3.33-15.79,6.78-23.37,10.66-22.75,11.63-43.34,28.26-59.52,48.09-10.45,12.8-26.97,38.06-20.15,63.39,1.82,6.77,5.21,13.1,8.49,19.23,4.43,8.27,9,16.82,9.35,26.13.4,10.66-4.76,20.58-9.75,30.19-2.67,5.13-5.43,10.44-7.38,15.9-3.8,10.58-1.88,24.59,4.46,32.58,3.93,4.96,9.11,7.21,14.96,6.55.12-.01.23-.04.35-.06.84.06,1.7.08,2.57.01.34-.03.67-.09,1.01-.13.68.06,1.38.08,2.08.05.67-.03,1.33-.1,1.98-.19.38.03.77.07,1.16.07.92,0,1.83-.09,2.72-.21.12,0,.23.03.34.03,1.31.07,2.59-.04,3.86-.2,1.51.07,2.98-.03,4.42-.17,1.07.04,2.12,0,3.16-.04.81.52,1.56,1.05,2.26,1.57,29.93,22.15,32.22,65.07,30.93,88.68-.59,10.66-1.86,21.52-3.1,32.06-2.58,22.02-5.25,44.78-1.76,67.01,1.77,11.25,5.93,18.3,12.38,20.96,6.15,2.54,12.62.48,18.93-1.79,1.99-.54,3.97-1.22,5.94-1.91,1.39-.37,2.78-.81,4.16-1.27,3.4-.69,6.71-.73,9.78.67,6.84,3.14,8.92,11.48,10.95,19.64.25,1.02.51,2.03.76,3.02,5.35,20.39,20.65,37.62,41.96,47.28,21.25,9.63,44.19,9.77,62.95.4,1.12-.56,2.25-1.16,3.34-1.74,3.85-2.04,7.83-4.15,12.06-4.84,6.39-1.03,12.98,1.2,18.8,3.17l88.32,29.94c8.45,2.86,15.48,4.25,21.5,4.25,7.68,0,13.62-2.39,17.65-7.11,3.8-4.45,5.2-10.31,6.56-15.98,1.54-6.45,3-12.55,7.74-16.33,7.83-6.25,17.51-1.86,27.75,2.79,6.72,3.05,13.67,6.2,20.62,6.64,16.69,1.03,27.95-12.94,38.88-26.53,2.91-3.62,5.92-7.36,8.93-10.66,12.69-13.88,29.97-22.86,46.69-31.56,17.79-9.25,36.19-18.81,49.25-34.33,19.53-23.22,23.2-54.35,26.75-84.47,1.72-14.55,3.49-29.6,7.03-43.64,8.11-32.2,26.26-61.19,43.81-89.23,5.9-9.42,12-19.17,17.66-28.95,6.92-11.96,10.39-25.55,10.04-39.31-.36-13.86-4.6-27.2-12.26-38.57ZM685.62,220.86c.9,4.57,2.85,9.21,5.65,13.44,10.7,16.14,14.77,35.86,11.46,55.53-.81,4.81-2.13,9.96-4.04,15.75-1.41,4.29-2.73,8.14-4.59,11.75-6.42,12.5-13.84,24.85-21.06,36.87-15.02,25-30.55,50.85-37.86,79.56-3.44,13.5-5.29,27.86-7.09,41.75-3.78,29.32-7.7,59.63-26.92,81.59-11.64,13.3-27.84,21.85-43.5,30.11l-.73.39c-18.04,9.53-36.71,19.37-50.54,34.68-2.73,3.03-5.43,6.34-8.04,9.55-1.64,2.01-3.33,4.09-5.03,6.1-8.11,9.59-17.86,19.83-31.02,19.83h0c-.57,0-1.16-.02-1.75-.06-6.46-.43-13.14-3.41-19.61-6.28-10.85-4.82-21.09-9.38-30.04-2.58-5.43,4.11-7.15,10.42-8.97,17.1-.64,2.37-1.31,4.81-2.16,7.1-1.15,3.14-2.46,5.49-4.1,7.41-6.57,7.67-18.22,8.79-35.59,3.42-20.8-6.43-41.81-13.38-62.14-20.1l-1.28-.42c-7.13-2.36-14.27-4.72-21.45-7.07-4.7-1.54-10.04-3.28-15.45-3.28-1.29,0-2.55.1-3.75.3-4.44.73-8.44,2.84-12.31,4.87l-.22.11c-.99.52-2,1.05-3.01,1.55-5.43,2.69-11.3,4.54-17.46,5.5-34.94,5.48-71.79-17.56-80.46-50.34-.26-.98-.51-1.99-.77-3.01-1.98-7.9-4.23-16.86-11.76-20.4-.22-.1-.45-.19-.67-.28,1.38.13,2.72.47,4.01,1.1,6.21,3,8.16,10.71,10.04,18.16.25,1,.5,1.98.76,2.95,4.3,16.12,15.24,30.26,30.78,39.83,15.01,9.24,32.96,13.1,49.27,10.62,6.17-.94,12.06-2.77,17.51-5.44,1.08-.53,2.16-1.09,3.21-1.64,3.56-1.85,7.24-3.77,11.14-4.43,5.89-.98,12.01.94,17.42,2.64,7.24,2.29,14.57,4.64,21.68,6.93,19.55,6.28,39.77,12.77,59.77,18.32,6.26,1.74,11.95,2.62,16.92,2.62,8.74,0,15.49-2.7,20.07-8.03,1.8-2.1,3.25-4.62,4.57-7.96.9-2.27,1.62-4.61,2.32-6.87,1.89-6.12,3.67-11.9,8.53-15.39,7.87-5.66,17.44-1.49,27.59,2.92,6.58,2.86,13.39,5.83,20.18,6.31,6.65.47,12.93-1.28,19.21-5.37,6.13-4,11.49-9.8,15.49-14.4,2.02-2.32,4.02-4.74,6.05-7.22,2.27-2.76,4.61-5.6,6.93-8.2,13.51-15.12,30.94-25.05,49.11-34.72l4.37-2.32c15-7.92,29.16-15.4,40.19-27.5,19.86-21.78,24.12-52.02,28.24-81.27,1.84-13.06,3.74-26.58,7.01-39.25,6.6-25.66,20.19-49.03,33.33-71.63,7.89-13.57,16.05-27.61,22.65-42.05,1.53-3.34,2.51-6.91,3.47-10.42.26-.94.52-1.89.79-2.83,1.69-5.88,3.3-11.64,4.32-17.46,3.87-22.08-.5-44.17-12.3-62.21-2.55-3.9-4.34-8.11-5.16-12.18-2.71-13.41.88-27.1,4.36-40.34l.11-.43c.34-1.28.67-2.56,1-3.84.95-3.7,1.69-6.95,2.26-9.92,2.83-14.77,2.03-25.98-2.52-35.27-6.3-12.93-19.12-20.38-31.52-27.59-6.77-3.93-13.76-8-19.62-12.91-5.82-4.88-10.59-10.62-15.78-17.07l-.86-1.07c-3.48-4.32-7.08-8.8-11.01-12.88-10.76-11.16-23.05-17.01-34.34-16.49,1.25-.35,2.53-.66,3.85-.9,17.01-3.08,31.82,10.53,37.4,16.52,3.97,4.26,7.62,8.97,11.15,13.53l.88,1.13c5.4,6.96,10.37,13.16,16.5,18.48,6.21,5.38,13.55,9.78,20.66,14.03,13,7.78,25.28,15.13,31.31,28.02,4.35,9.29,4.93,20.54,1.8,35.42-.64,3.03-1.46,6.37-2.51,10.18-.38,1.37-.76,2.75-1.17,4.2-3.95,14.08-8.04,28.64-5.19,43.16ZM84.01,454.72c-1.66-13.75-5.03-25.99-9.93-36.5,5.27,10.31,9.03,22.46,11.22,36.39,1.18,7.48,1.82,15.14,1.9,22.76.16,11.69-.58,23.27-1.37,35.64-.17,2.62-.34,5.26-.5,7.91-1.09,18.01-1.82,35.64,1.04,53.34,1.83,11.33,5.63,18.2,11.61,21,.71.33,1.43.59,2.15.79-2.51.28-4.95.09-7.24-.92-5.47-2.4-8.95-8.68-10.62-19.2-2.65-16.65-2.06-33.31-.35-53.2.31-3.85.67-7.75,1.01-11.51.97-10.78,1.98-21.93,2.21-32.84.18-8.03-.2-15.98-1.13-23.66ZM676.54,215.37c.88,4.35,2.78,8.84,5.5,12.99,11.47,17.54,15.72,39.03,11.96,60.52-1,5.7-2.58,11.39-4.26,17.21-.28.96-.54,1.92-.8,2.89-.97,3.53-1.88,6.87-3.33,10.04-6.55,14.33-14.68,28.32-22.55,41.85-13.22,22.74-26.89,46.25-33.58,72.23-3.29,12.8-5.21,26.37-7.06,39.51-4.07,28.89-8.28,58.77-27.66,80.02-10.75,11.8-24.74,19.18-39.62,27.04l-4.31,2.28c-18.36,9.77-35.98,19.82-49.76,35.23-2.38,2.67-4.85,5.66-7.02,8.31-1.93,2.35-3.94,4.78-5.98,7.13-15.3,17.64-24.78,19.53-32.75,18.96-6.4-.46-13.02-3.34-19.42-6.12-10.77-4.69-20.94-9.11-29.89-2.68-5.5,3.96-7.4,10.1-9.41,16.62-.68,2.22-1.39,4.52-2.26,6.68-1.22,3.08-2.54,5.39-4.17,7.29-6.57,7.65-18.2,9.22-34.58,4.68-19.92-5.52-40.08-12-59.7-18.3-7.09-2.28-14.43-4.64-21.67-6.92-4.5-1.41-9.6-3.02-14.77-3.02-1.29,0-2.55.1-3.75.3-4.27.72-8.11,2.72-11.84,4.66-1.03.54-2.1,1.09-3.15,1.61-5.24,2.56-10.9,4.32-16.84,5.23-15.75,2.41-33.13-1.34-47.68-10.3-15.03-9.25-25.59-22.9-29.74-38.43-.25-.96-.5-1.93-.75-2.92-1.92-7.6-4.1-16.22-11.3-19.7-.26-.13-.53-.23-.79-.34,1.41.12,2.79.45,4.11,1.1,5.9,2.94,7.78,10.33,9.62,17.55.24.94.48,1.87.72,2.78,4.19,15.54,14.71,29.19,29.61,38.43,14.41,8.94,31.68,12.74,47.38,10.4,5.95-.88,11.63-2.62,16.89-5.16.99-.48,1.99-.99,2.96-1.49l.18-.1c3.41-1.76,6.94-3.58,10.68-4.22,5.63-.97,11.54.81,16.74,2.37,6.91,2.09,13.89,4.26,20.76,6.4,18.73,5.82,38.09,11.84,57.27,16.5,5.12,1.25,9.94,1.88,14.33,1.88,9.42,0,16.68-2.89,21.57-8.58,1.77-2.06,3.24-4.53,4.62-7.78.91-2.13,1.67-4.32,2.4-6.43,2.07-5.97,4.02-11.6,8.97-14.97,7.88-5.36,17.41-1.31,27.5,2.99,6.51,2.77,13.25,5.64,19.97,6.15,14.64,1.14,25.32-8.43,34.67-18.93,2.43-2.71,4.85-5.63,6.98-8.2,1.95-2.35,3.97-4.79,5.96-7.04,13.78-15.59,31.22-26.08,48.01-35.1,2.51-1.35,5.07-2.69,7.55-3.98,13.72-7.17,26.68-13.95,36.97-24.77,20.04-21.08,24.62-50.91,29.04-79.77,1.89-12.29,3.83-25,6.95-36.97,6.13-23.57,18.31-45.16,30.09-66.04,8.24-14.61,16.76-29.72,23.15-45.39,1.31-3.22,2.06-6.66,2.78-9.98.31-1.45.64-2.95,1.01-4.43.37-1.46.75-2.93,1.14-4.42,1.23-4.69,2.49-9.55,3.37-14.41,4.33-23.89-.22-47.76-12.79-67.21-2.47-3.82-4.2-7.89-5.01-11.76-2.69-12.85.5-25.93,3.58-38.6.35-1.45.71-2.9,1.05-4.34.85-3.61,1.48-6.64,1.97-9.52,2.42-14.13,1.45-24.82-3.06-33.65-6.27-12.32-18.75-19.35-30.84-26.15-6.51-3.66-13.24-7.45-18.89-12.02-5.66-4.58-10.31-9.96-15.37-16.01l-.82-.98c-3.4-4.06-6.91-8.26-10.76-12.09-10.33-10.31-22.05-15.74-32.79-15.36,1.15-.31,2.32-.6,3.52-.82,11.53-2.13,24.72,3.47,36.2,15.38,3.86,4,7.42,8.43,10.89,12.74l.85,1.05c5.27,6.55,10.12,12.39,16.1,17.4,6.01,5.04,13.1,9.16,19.95,13.14,12.09,7.03,24.6,14.3,30.58,26.59,4.31,8.82,5.05,19.56,2.32,33.8-.56,2.92-1.29,6.11-2.23,9.77-.36,1.41-.73,2.83-1.11,4.25-3.55,13.49-7.22,27.45-4.39,41.4ZM87.62,454.25c-1.93-12.33-5.09-23.29-9.42-32.86,4.73,9.49,8.31,20.44,10.73,32.8,1.44,7.4,2.35,14.87,2.7,22.2.62,12.41.15,24.84-.34,38.01l-.18,4.87c-.59,16.31-1.27,34.79,1.7,52.91,1.18,7.2,3.63,17.22,11.23,21.03.76.38,1.52.67,2.29.89-2.55.3-5.03.14-7.34-.95-5.23-2.45-8.59-8.75-10.29-19.25-2.82-17.46-2.09-34.95-1.01-52.82.16-2.68.33-5.33.5-7.98.79-12.32,1.53-23.95,1.37-35.74-.09-7.73-.74-15.5-1.93-23.1ZM667.48,209.84c.87,4.15,2.72,8.49,5.34,12.55,12.24,18.95,16.67,42.22,12.45,65.52-.86,4.77-2.12,9.58-3.34,14.23l-.08.31c-.36,1.38-.72,2.75-1.07,4.12-.37,1.48-.7,2.97-1.03,4.52-.73,3.37-1.42,6.55-2.66,9.58-6.33,15.54-14.82,30.58-23.03,45.14-11.85,21-24.1,42.72-30.31,66.59-3.14,12.08-5.1,24.85-7,37.21-4.57,29.8-8.89,57.96-28.42,78.5-10.02,10.54-22.8,17.22-36.36,24.31l-.29.15c-2.39,1.25-4.86,2.54-7.28,3.84-16.99,9.12-34.64,19.75-48.66,35.62-2.02,2.29-4.05,4.73-6.01,7.1-2.23,2.69-4.54,5.47-6.93,8.14-8.43,9.47-17.97,18.23-30.6,18.23h0c-.7,0-1.41-.03-2.13-.08-6.33-.48-12.88-3.27-19.24-5.97-10.69-4.55-20.79-8.85-29.73-2.77-5.59,3.8-7.67,9.79-9.87,16.16-.72,2.07-1.46,4.21-2.33,6.25-1.29,3.03-2.64,5.31-4.24,7.17-8.29,9.64-22.83,8.55-33.56,5.95-19.18-4.66-38.53-10.68-57.24-16.5l-.44-.14c-6.62-2.06-13.45-4.18-20.22-6.22-4.28-1.29-9.13-2.74-14.05-2.74-1.31,0-2.57.1-3.76.31-4.09.7-7.78,2.61-11.36,4.45-1.01.52-2.06,1.06-3.09,1.56-5.05,2.44-10.5,4.11-16.21,4.96-15.16,2.25-31.85-1.42-45.79-10.07-14.4-8.93-24.55-22.09-28.58-37.05-.23-.87-.46-1.76-.74-2.83-1.86-7.3-3.97-15.57-10.83-18.99-.32-.16-.64-.3-.95-.42,1.47.11,2.89.43,4.25,1.12,5.58,2.88,7.4,9.95,9.19,16.87.23.91.47,1.82.71,2.7,4.08,14.96,14.18,28.11,28.45,37.04,13.8,8.64,30.38,12.35,45.49,10.18,5.72-.82,11.19-2.47,16.26-4.89,1.03-.49,2.07-1.02,3.08-1.54,3.27-1.67,6.65-3.39,10.21-4.01,5.38-.94,11.05.68,16.05,2.1,6.57,1.89,13.19,3.88,19.67,5.82,17.96,5.38,36.53,10.94,54.93,14.73,4.18.86,8.14,1.3,11.79,1.3,12.41,0,19.37-5.04,23.02-9.28,1.74-2.01,3.22-4.44,4.68-7.62.91-1.97,1.69-3.98,2.45-5.95,2.26-5.83,4.38-11.33,9.43-14.57,7.9-5.07,17.38-1.12,27.43,3.06,6.44,2.68,13.1,5.45,19.74,5.99,14.84,1.21,25.84-8.47,34.64-18.1,2.74-2.97,5.36-6.12,7.94-9.21,1.63-1.95,3.32-3.97,4.96-5.86,11.39-13.04,26.3-24.31,46.92-35.48,3.44-1.86,7.01-3.69,10.16-5.31,12.68-6.5,24.65-12.65,34.33-22.39,20.24-20.37,25.14-49.83,29.89-78.33,1.91-11.5,3.89-23.39,6.85-34.63,5.75-21.85,16.77-41.99,27.43-61.47,8.38-15.32,17.05-31.16,23.06-47.7,1.18-3.26,1.76-6.71,2.31-10.04.3-1.82.61-3.69,1.02-5.53.58-2.6,1.24-5.26,1.89-7.85,1.01-4.03,2.05-8.2,2.82-12.35,4.72-25.32-.12-51.64-13.27-72.21-2.42-3.78-4.06-7.6-4.87-11.34-2.66-12.28.12-24.76,2.83-36.96.32-1.44.64-2.87.95-4.3.73-3.42,1.29-6.4,1.69-9.11,2.01-13.49.86-23.67-3.61-32.02-6.23-11.71-18.38-18.31-30.13-24.7-6.26-3.4-12.72-6.91-18.17-11.15-5.5-4.27-10.03-9.29-14.96-14.94l-.81-.92c-3.31-3.79-6.74-7.7-10.49-11.28-12.6-12.06-23.84-14.43-31.23-14.21,1.04-.28,2.1-.54,3.19-.74,11.06-2.11,23.82,3.08,35,14.24,3.77,3.76,7.25,7.92,10.62,11.94l.82.98c5.14,6.14,9.87,11.61,15.7,16.32,5.81,4.7,12.63,8.54,19.24,12.25,11.76,6.62,23.93,13.47,29.87,25.16,4.27,8.35,5.17,18.58,2.84,32.18-.48,2.82-1.1,5.79-1.95,9.37-.33,1.37-.66,2.74-1,4.13l-.05.21c-3.14,12.9-6.39,26.25-3.59,39.62ZM93.98,476.27c-.35-7.45-1.28-15.03-2.74-22.54-2.34-11.97-5.77-22.64-10.25-32,4.88,9.29,8.76,19.96,11.59,31.97,1.72,7.32,2.9,14.6,3.49,21.64,1.17,13.25,1.01,26.77.83,41.08l-.04,2.93c-.21,16.6-.42,33.76,2.39,50.67,1.19,7.18,3.62,17.17,10.84,21.04.84.45,1.69.78,2.55,1.02-2.63.34-5.19.18-7.55-1-3.18-1.59-7.67-5.33-9.96-19.3-2.93-17.89-2.26-36.24-1.68-52.44l.18-4.87c.5-13.22.97-25.71.35-38.21ZM658.43,204.26c.87,4.01,2.61,8.08,5.18,12.11,12.83,20.07,17.54,45.77,12.94,70.51-.76,4.09-1.8,8.23-2.81,12.28-.64,2.57-1.3,5.23-1.89,7.83-.42,1.9-.74,3.8-1.05,5.67-.56,3.38-1.09,6.57-2.2,9.61-5.95,16.36-14.57,32.11-22.91,47.37-10.72,19.6-21.81,39.87-27.64,62.01-2.98,11.34-4.97,23.28-6.9,34.84-4.89,29.42-9.52,57.21-29.23,77.05-9.41,9.48-21.22,15.54-33.73,21.95-3.34,1.72-6.8,3.49-10.21,5.33-20.88,11.31-35.99,22.75-47.57,36-1.66,1.91-3.36,3.94-5.01,5.92-2.53,3.03-5.15,6.17-7.86,9.11-8.42,9.21-18.89,18.47-32.72,17.34-6.27-.51-12.76-3.21-19.06-5.83-10.61-4.42-20.64-8.59-29.57-2.86-5.69,3.65-7.96,9.5-10.37,15.76-.74,1.9-1.5,3.87-2.37,5.76-1.36,2.97-2.73,5.22-4.32,7.06-4.65,5.39-14.08,11.02-32.55,7.21-18.3-3.77-36.82-9.32-54.74-14.68l-.15.5s-.04-.01-.06-.02c0,0-.01,0-.02,0l.04-.54c-6.37-1.91-12.96-3.88-19.49-5.76-4.07-1.16-8.68-2.48-13.33-2.48-1.31,0-2.58.11-3.78.32-3.91.68-7.45,2.49-10.96,4.28-.96.49-1.95,1-2.94,1.46-4.85,2.32-10.09,3.89-15.58,4.68-14.56,2.09-30.56-1.49-43.91-9.84-13.77-8.61-23.51-21.28-27.43-35.66-.24-.9-.48-1.82-.72-2.75-1.8-7-3.85-14.93-10.37-18.29-.4-.21-.8-.38-1.2-.54,1.55.08,3.06.41,4.48,1.17,5.27,2.81,7.03,9.56,8.73,16.09.24.91.47,1.81.71,2.7,3.96,14.38,13.65,27.04,27.28,35.64,13.4,8.46,28.89,12,43.61,9.96,5.49-.76,10.75-2.31,15.63-4.61,1.01-.48,2.03-.99,3.03-1.49,3.12-1.57,6.35-3.2,9.74-3.8,5.13-.91,10.34.48,15.37,1.84,6.23,1.7,12.48,3.49,18.56,5.23,18,5.16,35.01,10.04,52.62,12.96,3.01.5,6,.75,8.88.75,10.58,0,19.17-3.46,24.83-10.01,1.7-1.96,3.2-4.33,4.73-7.45.91-1.84,1.73-3.75,2.45-5.44,2.45-5.71,4.77-11.1,9.93-14.21,7.93-4.77,17.35-.94,27.33,3.12,6.38,2.59,12.97,5.28,19.54,5.84,14.99,1.31,25.91-8,34.61-17.26,3.11-3.28,6.04-6.79,8.9-10.2,1.3-1.56,2.65-3.17,3.97-4.7,11.9-13.78,26.89-25.51,45.82-35.86,4.09-2.24,8.29-4.33,12.35-6.36,11.8-5.9,22.94-11.47,32.1-20.28,20.47-19.68,25.48-47.51,30.78-76.97,1.92-10.68,3.91-21.72,6.7-32.2,5.43-20.37,15.43-39.27,25.12-57.56,8.39-15.84,17.06-32.22,22.62-49.36,1.08-3.35,1.51-6.88,1.93-10.3.26-2.12.52-4.3.94-6.44.68-3.43,1.53-6.92,2.37-10.33.9-3.67,1.83-7.47,2.55-11.24,5.17-27.09.15-55.23-13.75-77.21-2.33-3.68-3.92-7.36-4.72-10.92-2.63-11.71-.26-23.57,2.03-35.05.31-1.52.61-3.04.9-4.55.63-3.3,1.08-6.06,1.41-8.7,1.01-8.09,1.67-20.04-4.15-30.4-6.2-11.1-18.02-17.28-29.44-23.24-5.99-3.13-12.19-6.37-17.45-10.26-5.35-3.98-9.76-8.63-14.56-13.87l-.78-.85c-3.24-3.52-6.58-7.16-10.23-10.48-5.78-5.28-16.79-13.36-29.58-13.08.91-.24,1.83-.46,2.78-.65,6.23-1.21,18.92-1.14,33.8,13.1,3.66,3.5,7.06,7.38,10.35,11.13l.81.92c5.01,5.73,9.62,10.84,15.29,15.24,5.6,4.35,12.15,7.91,18.5,11.36,11.44,6.22,23.27,12.64,29.17,23.74,4.22,7.89,5.29,17.61,3.36,30.57-.4,2.71-.93,5.56-1.66,8.96-.32,1.46-.64,2.94-.97,4.42-2.73,12.31-5.57,25.05-2.8,37.84ZM98.41,475.15c-.61-7.16-1.8-14.55-3.55-21.98-2.74-11.64-6.46-22.03-11.11-31.18,5.05,9.1,9.22,19.51,12.47,31.19,1.98,7.14,3.43,14.23,4.29,21.08,1.68,13.33,1.97,26.7,2.16,41.55l.05,4.97c.16,15.41.33,31.35,2.98,47.07,1.31,7.77,3.68,17.18,10.46,21.06.91.52,1.83.9,2.77,1.16-2.71.39-5.3.25-7.72-1.05-6.31-3.38-8.52-12.67-9.63-19.36-2.78-16.7-2.56-33.76-2.36-50.26l.04-2.95c.17-14.37.34-27.94-.84-41.29ZM649.38,198.63c.86,3.82,2.55,7.75,5.03,11.66,13.59,21.48,18.48,49,13.43,75.51-.71,3.73-1.63,7.49-2.53,11.15-.84,3.41-1.7,6.93-2.39,10.41-.44,2.22-.71,4.45-.97,6.62-.42,3.45-.82,6.72-1.83,9.84-5.49,16.95-14.12,33.24-22.47,49-9.74,18.39-19.81,37.41-25.31,58.04-2.81,10.56-4.81,21.65-6.74,32.39-5.23,29.08-10.17,56.54-30.09,75.69-8.9,8.56-19.89,14.05-31.52,19.87-4.08,2.04-8.3,4.15-12.42,6.4-19.19,10.49-34.39,22.39-46.47,36.39-1.27,1.47-2.57,3.02-3.83,4.53l-.17.2c-2.81,3.36-5.72,6.84-8.81,10.1-8.24,8.77-18.61,17.75-32.7,16.54-6.22-.53-12.65-3.15-18.86-5.67-10.54-4.29-20.5-8.33-29.43-2.96-5.81,3.5-8.27,9.23-10.9,15.35-.75,1.74-1.52,3.54-2.38,5.28-1.43,2.93-2.83,5.14-4.4,6.95-9.02,10.44-23.64,9.79-31.55,8.48-17.48-2.91-34.43-7.76-52.39-12.91-6.05-1.73-12.31-3.53-18.56-5.23-4.05-1.09-8.23-2.21-12.53-2.21-1.33,0-2.63.11-3.87.33-3.73.67-7.11,2.37-10.46,4.05-.95.48-1.93.97-2.9,1.43-4.67,2.2-9.7,3.68-14.95,4.41-14.16,1.96-29.09-1.46-42.03-9.62-13.13-8.29-22.46-20.47-26.27-34.28-.23-.85-.46-1.72-.71-2.67-1.83-7.02-3.72-14.28-9.9-17.58-.53-.28-1.06-.49-1.59-.68,1.68.04,3.32.39,4.85,1.23,4.96,2.74,6.65,9.18,8.31,15.47.23.86.45,1.72.68,2.55,7.07,25.36,32.98,44.49,60.25,44.49,2.54,0,5.1-.17,7.58-.5,5.26-.7,10.31-2.16,15.01-4.34.99-.46,1.99-.95,2.96-1.44,2.98-1.48,6.06-3.01,9.28-3.6,4.92-.9,9.88.35,14.69,1.57,5.97,1.51,11.98,3.14,17.8,4.72l.37.1c16.98,4.62,33.03,8.98,49.59,11.02,1.92.24,3.9.36,5.89.36,7.88,0,18.92-1.89,26.72-10.9,2.13-2.46,3.67-5.18,4.78-7.28.84-1.61,1.62-3.24,2.37-4.82,2.67-5.64,5.2-10.96,10.52-13.96,7.95-4.47,17.32-.75,27.25,3.19,6.31,2.5,12.83,5.09,19.33,5.68,7.97.72,19.11-.49,34.58-16.43,3.5-3.61,6.76-7.5,10.02-11.39.95-1.13,1.88-2.25,2.82-3.35,12.54-14.7,27.17-26.56,44.73-36.24,4.66-2.57,9.5-4.91,14.2-7.19,11.05-5.35,21.49-10.4,30.21-18.39,20.72-18.99,26.07-46.54,31.74-75.76,1.91-9.82,3.88-19.97,6.48-29.62,5.14-19.04,14.23-36.83,23.03-54.03,8.3-16.24,16.89-33.03,21.95-50.62,1-3.47,1.3-7.11,1.59-10.64.2-2.38.4-4.85.82-7.25.72-4.11,1.74-8.31,2.72-12.37.84-3.45,1.7-7.01,2.4-10.58,5.61-28.85.43-58.81-14.23-82.2-2.24-3.58-3.78-7.11-4.58-10.5-2.6-11.13-.63-22.37,1.28-33.25.28-1.57.55-3.13.81-4.68.52-3.15.88-5.79,1.12-8.3.75-7.68,1.08-19.03-4.7-28.77-6.17-10.49-17.66-16.24-28.79-21.8-5.73-2.86-11.65-5.82-16.68-9.38-5.19-3.67-9.65-8.15-14.15-12.8l-.82-.84c-3.14-3.24-6.39-6.58-9.9-9.62-5.52-4.79-15.91-12.04-27.89-11.93.76-.2,1.52-.39,2.31-.55,13.89-2.8,26.39,6.29,32.61,11.96,3.56,3.25,6.88,6.85,10.08,10.34l.78.85c4.88,5.32,9.37,10.07,14.89,14.17,5.39,4,11.67,7.28,17.76,10.46,11.12,5.81,22.62,11.81,28.48,22.31,2.63,4.67,5.89,12.76,3.87,28.96-.32,2.57-.76,5.29-1.38,8.55-.29,1.5-.59,3.01-.89,4.53-2.34,11.71-4.77,23.82-2.03,36.02ZM640.33,192.94c.85,3.64,2.49,7.41,4.87,11.22,14.35,22.89,19.42,52.24,13.92,80.51-.67,3.47-1.53,6.99-2.38,10.51-.99,4.08-2.01,8.31-2.75,12.49-.43,2.5-.64,5.02-.84,7.47-.29,3.57-.57,6.93-1.5,10.18-5,17.36-13.53,34.05-21.79,50.21-8.85,17.31-18,35.21-23.2,54.49-2.63,9.74-4.61,19.95-6.53,29.83-5.58,28.78-10.86,55.96-31.01,74.43-8.46,7.76-18.75,12.74-29.64,18.01-4.7,2.28-9.56,4.63-14.31,7.25-17.8,9.82-32.65,21.85-45.38,36.78-.97,1.15-1.95,2.31-2.97,3.53-3.11,3.72-6.34,7.56-9.76,11.09-14.78,15.23-25.23,16.41-32.68,15.73-6.15-.55-12.52-3.08-18.68-5.52-10.47-4.15-20.35-8.07-29.27-3.05-5.97,3.36-8.66,9.02-11.49,15-.74,1.55-1.5,3.15-2.32,4.73-1.05,1.99-2.5,4.56-4.47,6.84-9.55,11.02-24.54,10.48-30.55,9.74-8.3-1.02-16.49-2.64-24.75-4.59,4.08.77,8.15,1.25,12.23,1.25,2.78,0,5.52-.22,8.13-.65,1.49-.25,3.01-.46,4.62-.69,9.04-1.26,19.28-2.69,26.6-11.12,2.05-2.36,3.59-4.92,4.82-7.11.79-1.41,1.53-2.82,2.25-4.19,2.91-5.57,5.66-10.83,11.15-13.71,7.96-4.18,17.3-.57,27.18,3.25,6.24,2.41,12.69,4.91,19.11,5.52,11.97,1.14,22.63-3.67,34.55-15.6,3.9-3.9,7.46-8.17,10.92-12.31l1.88-2.25c13.17-15.63,27.44-27.61,43.63-36.62,5.18-2.88,10.57-5.4,15.82-7.84,10.4-4.85,20.21-9.42,28.54-16.68,21.01-18.32,26.72-45.65,32.75-74.59,1.87-8.94,3.8-18.18,6.21-27,4.86-17.79,13.1-34.54,21.07-50.74,8.16-16.58,16.59-33.73,21.15-51.66.92-3.61,1.1-7.37,1.27-11.02.13-2.63.26-5.36.67-8.03.73-4.73,1.89-9.53,3.02-14.2.8-3.32,1.63-6.74,2.3-10.14,6.06-30.6.7-62.38-14.71-87.2-2.16-3.47-3.65-6.87-4.43-10.09-2.56-10.53-.98-21.14.54-31.42.24-1.62.48-3.24.7-4.84.41-2.99.67-5.5.84-7.89.49-7.26.49-17.96-5.26-27.15-6.17-9.88-17.33-15.19-28.12-20.33-5.46-2.6-11.11-5.29-15.94-8.51-5.03-3.37-9.37-7.48-13.74-11.74l-.72-.7c-3.08-2.99-6.27-6.08-9.71-8.89-5.11-4.18-14.49-10.39-25.3-10.76.32-.07.63-.16.95-.23,13.29-2.75,25.38,5.6,31.41,10.83,3.45,2.99,6.68,6.32,9.81,9.53l.77.79c4.58,4.74,9.13,9.3,14.48,13.09,5.18,3.66,11.19,6.66,17.01,9.57,10.8,5.4,21.97,10.98,27.8,20.89,2.6,4.39,5.89,11.99,4.39,27.35-.24,2.45-.59,5.04-1.1,8.14-.26,1.54-.53,3.09-.8,4.66-1.94,11.1-3.96,22.59-1.25,34.19ZM28.96,379.07c-5.38-7.35-7.85-18.91-6.14-28.77.83-4.77,2.2-9.57,3.72-14.31-1.24,4.41-2.31,8.87-2.94,13.32-1.77,12.47,2.5,27.19,10.94,34.55-.21.03-.41.07-.62.1-1.81-1.24-3.48-2.87-4.96-4.89ZM631.3,186.92c.84,3.46,2.43,7.09,4.72,10.77,15.1,24.32,20.36,55.49,14.41,85.51-.67,3.38-1.49,6.79-2.29,10.09-1.13,4.69-2.3,9.53-3.05,14.34-.43,2.79-.56,5.58-.69,8.27-.18,3.69-.34,7.17-1.2,10.55-4.5,17.69-12.88,34.73-20.98,51.2-8.02,16.3-16.31,33.15-21.23,51.16-2.43,8.88-4.36,18.16-6.24,27.16-5.95,28.53-11.58,55.48-32,73.28-8.09,7.05-17.77,11.56-28.04,16.35-5.25,2.45-10.68,4.98-15.92,7.9-16.45,9.16-30.93,21.31-44.29,37.16l-1.9,2.27c-3.41,4.09-6.94,8.32-10.76,12.14-11.39,11.4-21.48,16-32.67,14.92-6.09-.58-12.39-3.01-18.48-5.37-10.39-4.02-20.21-7.82-29.12-3.14-6.15,3.22-9.06,8.79-12.14,14.7-.7,1.35-1.43,2.75-2.21,4.13-1.18,2.09-2.64,4.52-4.55,6.72-6.74,7.76-16.52,9.13-25.15,10.33-1.63.23-3.16.44-4.68.7-14.11,2.34-28.26-2.35-43.27-7.34-6.66-2.21-13.54-4.5-20.46-6.11-3.54-.83-7.19-1.68-10.94-1.68-1.39,0-2.73.12-4.01.36-3.37.63-6.44,2.14-9.47,3.62-.91.45-1.86.91-2.79,1.33-4.29,1.96-8.9,3.26-13.7,3.87-27,3.43-54.91-14.82-62.22-40.68-.23-.82-.45-1.65-.68-2.5-1.7-6.39-3.46-12.99-8.96-16.15-1.05-.61-2.12-.99-3.2-1.25,2.24-.16,4.42.07,6.4,1.27,4.34,2.61,5.91,8.42,7.47,14.18.21.78.42,1.55.64,2.31,3.62,12.64,12.07,23.81,23.78,31.45,11.58,7.55,25.06,10.86,37.94,9.3,4.82-.58,9.44-1.85,13.75-3.78.96-.43,1.92-.89,2.86-1.34,2.68-1.29,5.46-2.63,8.34-3.18,4.43-.85,8.96.11,13.34,1.04,6.43,1.36,12.93,3.46,19.24,5.5,10.99,3.54,21.37,6.89,31.63,6.89,3.67,0,7.07-.42,10.37-1.29,1.79-.47,3.64-.87,5.6-1.3,8.24-1.8,17.58-3.83,24.47-11.75,1.97-2.26,3.51-4.67,4.87-6.95.7-1.17,1.37-2.34,2.04-3.5,3.17-5.53,6.16-10.76,11.87-13.53,7.99-3.88,17.27-.39,27.11,3.32,6.17,2.32,12.55,4.73,18.88,5.36,11.94,1.21,22.92-3.49,34.53-14.76,4.33-4.2,8.19-8.87,11.92-13.38l.84-1.02c13.97-16.79,27.48-28.54,42.54-37,5.6-3.15,11.49-5.77,17.18-8.31,9.84-4.39,19.14-8.54,27.14-15.15,21.35-17.66,27.71-46.1,33.86-73.59,1.79-8,3.64-16.28,5.84-24.22,4.59-16.58,12.02-32.32,19.2-47.54,7.97-16.9,16.21-34.38,20.27-52.6.84-3.75.91-7.64.97-11.41.05-2.88.11-5.87.5-8.79.72-5.26,2.01-10.61,3.27-15.82.78-3.24,1.59-6.6,2.26-9.92,6.51-32.33.97-65.94-15.2-92.2-2.07-3.36-3.51-6.61-4.28-9.67-2.52-9.93-1.33-19.91-.18-29.56l.03-.23c.19-1.62.38-3.22.55-4.81.29-2.81.47-5.26.55-7.49.24-6.84-.1-16.93-5.8-25.52-6.16-9.27-17.01-14.15-27.49-18.88-5.19-2.34-10.55-4.75-15.15-7.64-4.89-3.08-9.1-6.8-13.34-10.68l-.72-.65c-3-2.71-6.1-5.52-9.42-8.06-5.72-4.37-13.86-9.03-23.02-9.58.06-.03.12-.06.18-.09,12.56-2.55,24.14,4.99,29.95,9.73,3.34,2.72,6.47,5.76,9.56,8.76l.72.7c4.45,4.34,8.88,8.52,14.07,12,4.98,3.33,10.7,6.05,16.23,8.68,10.49,4.99,21.33,10.16,27.14,19.45,2.58,4.12,5.89,11.27,4.9,25.74-.16,2.33-.42,4.79-.82,7.73-.22,1.56-.45,3.13-.7,4.82-1.55,10.5-3.16,21.34-.5,32.33ZM25.93,349.64c.68-4.79,1.89-9.62,3.27-14.41-1.1,4.42-2.01,8.88-2.5,13.32-1.41,12.76,3.33,28.19,12.49,35.36-.29-.05-.58-.09-.88-.12-9.34-5.82-14.23-21.26-12.39-34.15ZM622.28,180.74c.83,3.29,2.37,6.76,4.56,10.32,15.86,25.76,21.29,58.74,14.9,90.5-.66,3.28-1.46,6.61-2.24,9.84-1.26,5.23-2.57,10.65-3.31,16.04-.42,3.06-.47,6.11-.53,9.07-.07,3.81-.14,7.42-.92,10.94-4,17.95-11.82,34.54-20.1,52.11-7.22,15.31-14.69,31.14-19.33,47.91-2.21,7.98-4.07,16.28-5.87,24.33-6.34,28.35-12.34,55.14-33.07,72.29-7.75,6.41-16.91,10.49-26.6,14.82-5.74,2.56-11.68,5.21-17.37,8.41-15.31,8.6-29.03,20.54-43.19,37.55l-.84,1.02c-3.7,4.46-7.52,9.08-11.74,13.18-11.07,10.75-21.46,15.24-32.65,14.11-6.03-.6-12.26-2.95-18.3-5.22-10.32-3.88-20.06-7.55-28.96-3.23-6.36,3.09-9.53,8.62-12.89,14.5-.64,1.12-1.31,2.28-2,3.44-1.32,2.18-2.79,4.5-4.63,6.61-6.39,7.33-15.32,9.28-23.21,11-1.97.43-3.84.84-5.68,1.32-12.92,3.39-26.42-.96-40.77-5.59-6.33-2.04-12.88-4.15-19.42-5.54-3.28-.7-6.67-1.42-10.14-1.42-1.45,0-2.79.12-4.1.37-3.18.61-6.1,2.02-8.96,3.4-.9.43-1.83.88-2.75,1.29-4.1,1.83-8.5,3.04-13.07,3.59-12.34,1.48-25.27-1.69-36.38-8.94-11.24-7.33-19.33-18.03-22.8-30.13-.23-.79-.45-1.6-.67-2.42-1.64-6.06-3.33-12.33-8.48-15.43-1.14-.69-2.29-1.11-3.46-1.37,2.33-.18,4.6.04,6.64,1.33,4.03,2.55,5.54,8.04,6.99,13.35.22.8.44,1.6.67,2.38,6.65,22.87,28.93,39.47,52.98,39.46,1.9,0,3.81-.11,5.69-.32,4.58-.52,9-1.7,13.12-3.51.95-.41,1.9-.86,2.83-1.3,2.53-1.2,5.14-2.43,7.85-2.97,4.17-.82,8.43-.03,12.66.78,6.03,1.14,12.2,3.04,18.17,4.88,9.75,3,18.96,5.84,27.87,5.84,4.3,0,8.17-.66,11.83-2.01,2.01-.74,4.14-1.38,6.45-2.08,7.49-2.24,15.98-4.79,22.46-12.21,1.96-2.25,3.57-4.68,4.92-6.78.59-.92,1.16-1.82,1.72-2.73,3.61-5.78,6.73-10.77,12.7-13.44,8.01-3.59,17.26-.2,27.05,3.39,6.09,2.23,12.4,4.54,18.64,5.19,12.1,1.28,23.05-3.15,34.5-13.92,4.76-4.48,8.99-9.66,12.73-14.23,10.55-12.84,23.73-27.33,41.44-37.38,5.96-3.38,12.28-6.06,18.42-8.67,9.34-3.97,18.16-7.71,25.85-13.73,21.75-17.03,28.53-45.38,35.08-72.8,1.67-7.01,3.41-14.26,5.37-21.22,4.32-15.37,10.95-30.09,17.36-44.33,8.12-18.03,15.79-35.07,19.35-53.55.75-3.9.72-7.93.69-11.82-.03-3.13-.05-6.37.33-9.54.71-5.8,2.12-11.67,3.51-17.42.77-3.17,1.56-6.45,2.22-9.7,6.95-34.06,1.24-69.49-15.68-97.19-1.98-3.24-3.37-6.35-4.14-9.26-2.46-9.32-1.66-18.65-.88-27.67l.02-.23c.14-1.67.29-3.38.41-5.04.18-2.66.27-4.97.27-7.08-.02-10.36-1.98-17.73-6.36-23.88-6.16-8.67-16.69-13.11-26.88-17.42-4.9-2.07-9.97-4.21-14.35-6.76-4.61-2.7-8.59-5.95-12.93-9.61l-.28-.24c-3.05-2.57-6.2-5.22-9.58-7.61-5.21-3.69-12.47-7.59-20.58-8.36.28-.14.56-.29.83-.43,10.63-1.44,20.41,3.96,26.91,8.93,3.25,2.48,6.31,5.25,9.28,7.95l.71.64c4.33,3.95,8.63,7.76,13.67,10.92,4.74,2.97,10.18,5.42,15.45,7.79,10.18,4.58,20.7,9.32,26.49,18.03,2.55,3.84,5.89,10.52,5.41,24.13-.08,2.16-.26,4.56-.54,7.32-.17,1.64-.37,3.3-.58,5.01-1.18,9.86-2.39,20.05.23,30.41ZM41.77,279.77c-.03-6.24-.06-12.14.94-18.56.23-1.48.52-2.99.86-4.49,3.57-15.59,13.35-34.35,27.52-52.82,17.77-23.17,35.91-39.54,55.46-50.05,3.28-1.76,6.67-3.4,10.09-4.98-1.89.93-3.77,1.89-5.61,2.89-19.69,10.66-37.42,26.87-55.8,51.01-14.05,18.46-24.27,37.35-28.77,53.2-.42,1.51-.81,3.04-1.14,4.54-1.5,6.85-1.93,13.07-2.39,19.69-.38,5.48-.81,11.15-1.86,17.39.75-6.39.73-12.18.7-17.82ZM543.62,70.31c3.3,2.33,6.42,4.96,9.46,7.52l.24.2c4.43,3.73,8.49,7.05,13.26,9.84,4.51,2.63,9.65,4.8,14.63,6.9,9.89,4.17,20.11,8.49,25.88,16.61,4.08,5.74,5.9,12.68,5.92,22.53,0,2.05-.08,4.31-.26,6.92-.12,1.71-.28,3.49-.43,5.24-.79,9.22-1.61,18.76.95,28.47.83,3.12,2.31,6.45,4.41,9.88,16.61,27.21,22.22,62.02,15.39,95.5-.65,3.19-1.44,6.44-2.22,9.71-1.38,5.74-2.82,11.67-3.54,17.6-.4,3.31-.37,6.63-.35,9.86.03,3.94.06,7.67-.65,11.34-3.51,18.22-11.12,35.13-19.18,53.03-6.45,14.32-13.11,29.12-17.48,44.65-1.97,7.02-3.71,14.29-5.39,21.32-6.46,27.02-13.14,54.96-34.24,71.49-7.45,5.83-16.14,9.52-25.34,13.43-6.17,2.62-12.55,5.33-18.64,8.78-18.05,10.24-31.41,24.92-42.12,37.96-3.69,4.51-7.86,9.61-12.5,13.98-10.91,10.27-21.28,14.5-32.64,13.3-5.97-.62-12.14-2.88-18.11-5.08-10.24-3.75-19.92-7.29-28.79-3.32-6.62,2.96-10.07,8.48-13.74,14.34-.55.89-1.12,1.79-1.7,2.69-1.3,2.02-2.84,4.36-4.71,6.5-6.03,6.91-14.18,9.35-21.41,11.52-2.29.69-4.45,1.34-6.54,2.11-11.65,4.3-24.55.33-38.21-3.87-6.03-1.86-12.26-3.78-18.53-4.96-2.98-.57-6.06-1.15-9.22-1.15-1.5,0-2.88.13-4.23.4-2.99.59-5.74,1.89-8.41,3.15-.9.43-1.83.87-2.75,1.27-3.91,1.71-8.1,2.83-12.45,3.32-24.58,2.79-49.22-13.67-56.14-37.46-.22-.75-.43-1.52-.65-2.35-1.58-5.74-3.2-11.68-8.01-14.71-.26-.16-.53-.28-.79-.42,1.37.16,2.7.55,3.94,1.37,3.73,2.48,5.17,7.65,6.58,12.72.21.76.42,1.51.64,2.25,6.47,21.9,27.77,37.79,50.65,37.79,1.66,0,3.33-.09,4.96-.26,4.36-.46,8.57-1.54,12.5-3.22.92-.39,1.85-.83,2.77-1.25,2.38-1.1,4.84-2.24,7.38-2.77,3.92-.81,7.92-.15,11.79.48l.2.03c17.92,2.92,35.11,4.59,51.73,6.21l2.19.21h.22s.16-.04.16-.04c9.81-2.72,19.99-6.49,27.95-15.59,1.82-2.07,3.38-4.31,4.96-6.61l1.24-1.82c3.97-5.85,7.4-10.9,13.69-13.47,8.03-3.28,17.23-.01,26.99,3.46,6.03,2.14,12.26,4.36,18.42,5.04,12.24,1.36,23.2-2.8,34.47-13.09,4.71-4.3,8.85-9.3,12.69-14.06,11.22-13.84,23.58-28.16,40.35-37.76,6.27-3.59,12.98-6.29,19.48-8.9,8.9-3.58,17.31-6.96,24.75-12.45,22.22-16.41,29.45-44.79,36.45-72.29,1.51-5.92,3.07-12.04,4.75-17.95,4.03-14.12,9.87-27.77,15.53-40.99,7.89-18.43,15.34-35.84,18.41-54.62.66-4.04.53-8.19.41-12.2-.1-3.38-.22-6.88.15-10.31.68-6.29,2.22-12.65,3.71-18.81.77-3.17,1.56-6.44,2.23-9.7,7.39-35.77,1.5-73.02-16.16-102.19-1.89-3.12-3.23-6.09-3.99-8.84-2.4-8.68-1.97-17.35-1.54-25.88.09-1.86.18-3.63.24-5.41.07-2.51.07-4.69-.02-6.68-.43-9.69-2.56-16.55-6.91-22.25-6.16-8.06-16.4-12.07-26.31-15.95-4.61-1.8-9.37-3.67-13.52-5.89-4.45-2.4-8.31-5.29-12.53-8.54l-.17-.13c-3-2.31-6.09-4.7-9.4-6.84-5.08-3.3-12.15-6.76-19.96-7.29.87-.42,1.73-.85,2.58-1.3.17-.07.34-.15.52-.22,9.43-.72,18.15,3.78,24.08,7.99ZM155.28,143.07c12.45-5.34,25.32-10.86,35.95-18.98,6.56-5.03,12.11-10.86,17.48-16.49,4.64-4.87,9.44-9.91,14.78-14.29,9.06-7.44,20.42-13.18,32.83-16.6,16.21-4.46,33.82-4.84,49.58-1.04,1.95.47,3.94,1.01,5.88,1.53,7.77,2.1,15.81,4.27,23.96,2.79,8.34-1.51,15.2-6.43,21.86-11.2l.26-.18c.76-.54,1.52-1.09,2.28-1.62,9.2-6.49,16.69-8.9,22.92-7.36,5.56,1.37,9.18,5.42,12.68,9.33,1.54,1.72,3.12,3.49,4.88,5.06,8.24,7.4,21.39,11.14,36.04,10.22,7.09-.44,14.28-1.65,21.27-2.83,2.19-.37,4.38-.74,6.57-1.08,3.3-.52,6.85-1.03,10.42-1.37-1.61.41-3.28.74-5.03.91-3.69.37-7.38.97-10.81,1.55-2.1.36-4.21.74-6.33,1.13-6.56,1.19-13.35,2.42-19.98,2.95-13.3,1.03-25.27-1.93-32.85-8.14-1.62-1.32-3.14-2.86-4.6-4.36-3.67-3.73-7.46-7.59-13.45-8.91-6.56-1.46-14.35.96-23.79,7.39l-2.23,1.53c-6.36,4.38-12.93,8.91-20.59,10.27-7.41,1.32-14.96-.59-22.29-2.45-1.85-.47-3.76-.95-5.64-1.38-15.63-3.54-33.05-3.19-49.05.98-12.3,3.21-23.65,8.62-32.82,15.66-5.45,4.17-10.33,8.94-15.08,13.58-5.2,5.08-10.59,10.34-16.78,14.86-9.91,7.21-21.87,12.32-33.43,17.26-7.83,3.35-15.93,6.81-23.52,10.95-19.27,10.51-36.87,26.82-55.38,51.34-13.67,18.1-24.18,36.81-29.59,52.67-.5,1.48-.96,2.97-1.38,4.44-2.09,7.32-3.05,14-4.08,21.1-.83,5.76-1.7,11.71-3.23,18.48-.13.58-.27,1.19-.43,1.81.11-.49.22-1,.31-1.47,1.52-7.66,1.98-14.33,2.43-20.78.45-6.5.88-12.64,2.34-19.32.32-1.47.69-2.95,1.1-4.41,4.42-15.57,14.5-34.19,28.38-52.42,18.16-23.87,35.65-39.87,55.05-50.37,7.41-4.02,15.36-7.43,23.13-10.76ZM557.38,88.72c4.27,2.29,9.1,4.18,13.79,6.02,9.6,3.76,19.52,7.65,25.28,15.18,4.04,5.3,6.03,11.75,6.43,20.92.08,1.93.09,4.06.02,6.51-.06,1.77-.15,3.53-.24,5.51-.43,8.57-.87,17.43,1.63,26.48.82,2.96,2.25,6.13,4.25,9.43,17.36,28.67,23.15,65.3,15.87,100.5-.67,3.23-1.46,6.48-2.21,9.63-1.51,6.22-3.06,12.66-3.76,19.11-.38,3.58-.27,7.17-.16,10.63.12,3.9.25,7.93-.38,11.74-3.03,18.51-10.43,35.79-18.27,54.1-5.68,13.27-11.55,26.99-15.62,41.25-1.69,5.94-3.26,12.08-4.78,18.06-6.89,27.05-14.01,55.01-35.55,70.92-7.2,5.32-15.47,8.64-24.23,12.16-6.57,2.64-13.35,5.37-19.77,9.04-17.11,9.8-29.64,24.31-41.01,38.32-3.78,4.69-7.86,9.61-12.45,13.8-10.73,9.8-21.1,13.76-32.62,12.49-5.9-.65-12-2.82-17.9-4.92-10.18-3.62-19.79-7.04-28.65-3.41-6.95,2.84-10.56,8.17-14.83,14.45l-1.15,1.68c-1.53,2.23-3.05,4.4-4.8,6.39-7.51,8.58-17.21,12.2-26.6,14.82l-1.99-.19c-16.56-1.61-33.69-3.28-51.51-6.18l-.2-.03c-4.07-.66-8.29-1.35-12.64-.46-2.8.57-5.39,1.77-7.9,2.94-.89.41-1.8.83-2.71,1.22-3.72,1.59-7.69,2.61-11.82,3.05-23.12,2.43-46.44-13.32-53.11-35.85-.21-.7-.41-1.42-.64-2.27-1.51-5.42-3.07-11.02-7.52-13.98-.51-.34-1.03-.62-1.57-.86,1.65.11,3.22.5,4.69,1.54,3.42,2.41,4.8,7.27,6.14,11.98.21.75.43,1.5.64,2.23,3.29,10.91,10.48,20.59,20.27,27.26,8.51,5.8,18.18,8.86,27.96,8.86,1.45,0,2.9-.07,4.32-.21,4.14-.4,8.13-1.39,11.87-2.95.92-.38,1.85-.8,2.75-1.21,2.23-1.01,4.53-2.05,6.89-2.55,3.67-.78,7.4-.28,11.03.21l.29.04c17.36,2.32,33.81,3.18,49.72,4.02l.77.04.41-.07c9.24-3.41,18.88-7.81,26.8-16.83,1.75-1.99,3.28-4.09,4.76-6.11l.79-1.08c4.39-6,8.19-11.19,14.89-13.67,8.07-2.99,17.23.17,26.92,3.52,5.95,2.05,12.11,4.18,18.19,4.88,12.24,1.41,23.5-2.59,34.44-12.26,4.74-4.19,8.89-9.15,12.66-13.89,11.3-14.13,22.99-28.74,39.25-38.14,6.53-3.77,13.59-6.45,20.45-9.04,8.5-3.21,16.54-6.25,23.72-11.24,22.81-15.84,30.51-44.39,38-72.15,1.27-4.71,2.58-9.58,3.95-14.3,3.71-12.79,8.77-25.28,13.66-37.35,7.68-18.94,14.93-36.83,17.52-55.99.57-4.18.34-8.45.13-12.6-.19-3.63-.38-7.39-.03-11.07.65-6.77,2.3-13.61,3.91-20.23.77-3.17,1.56-6.44,2.24-9.68,7.83-37.47,1.76-76.54-16.65-107.19-1.82-3.03-3.08-5.79-3.85-8.43-2.32-7.98-2.24-15.91-2.16-23.73.02-2.04.04-3.97.01-5.9-.03-2.29-.13-4.34-.3-6.28-.83-9.01-3.13-15.36-7.47-20.61-6.17-7.46-16.14-11.03-25.84-14.5-4.28-1.53-8.7-3.12-12.57-5-4.27-2.09-8.03-4.63-12.15-7.5-2.96-2.06-6.01-4.18-9.26-6.08-6.66-3.9-13.06-5.94-19.14-6.18.77-.35,1.52-.72,2.27-1.09,9.35-1.25,18.19,2.87,24.16,6.75,3.23,2.09,6.29,4.45,9.26,6.74l.56-.72-.4.84c4.3,3.32,8.24,6.27,12.85,8.76ZM595.32,163.89c.82,2.83,2.16,5.77,4.09,8.98,18.11,30.15,24.07,68.6,16.36,105.49-.67,3.21-1.46,6.46-2.23,9.63-1.62,6.69-3.3,13.61-3.96,20.54-.36,3.86-.16,7.71.03,11.44.21,4.02.42,8.17-.11,12.13-2.55,18.87-9.75,36.63-17.37,55.43-4.92,12.13-10,24.67-13.74,37.58-1.39,4.81-2.72,9.73-4,14.48-7.34,27.21-14.93,55.34-37.03,70.68-6.95,4.83-14.86,7.82-23.22,10.98-6.93,2.62-14.09,5.33-20.79,9.2-16.65,9.63-28.47,24.41-39.91,38.71-3.71,4.65-7.77,9.52-12.38,13.59-10.4,9.2-21.07,13.02-32.61,11.68-5.83-.67-11.86-2.75-17.7-4.77-10.11-3.49-19.65-6.79-28.51-3.5-7.36,2.73-11.35,8.18-15.97,14.49l-.82,1.12c-1.45,1.97-2.94,4.01-4.6,5.9-7.52,8.57-16.75,12.81-25.62,16.1l-.48-.03c-15.86-.84-32.27-1.7-49.53-4l-.3-.04c-3.81-.51-7.75-1.04-11.82-.18-2.61.55-5.03,1.65-7.39,2.72-.87.39-1.77.8-2.66,1.17-3.53,1.47-7.29,2.41-11.19,2.78-10.51,1.02-21.43-1.92-30.73-8.26-9.34-6.36-16.21-15.6-19.34-25.99-.2-.66-.39-1.33-.58-2l-.05-.19c-1.44-5.09-2.94-10.36-7.04-13.25-.58-.41-1.17-.73-1.76-.99,1.71.13,3.34.54,4.84,1.67,3.12,2.34,4.43,6.89,5.7,11.29.21.73.42,1.46.64,2.16,6.13,19.97,25.38,34.46,45.78,34.46,1.23,0,2.47-.05,3.7-.16,3.91-.34,7.69-1.24,11.24-2.67.89-.35,1.78-.75,2.73-1.16,2.07-.91,4.22-1.86,6.4-2.34,3.42-.75,6.89-.4,10.25-.06l.4.04c16.83,1.69,32.85,1.69,47.01,1.7l.5-.11c8.63-4.05,17.71-9.03,25.66-18.07,1.48-1.68,2.83-3.42,4.14-5.11l.91-1.16c4.49-5.74,8.73-11.16,15.94-13.56,8.1-2.7,17.22.36,26.89,3.6,5.87,1.96,11.94,4,17.94,4.71,12.4,1.51,23.66-2.23,34.41-11.42,4.96-4.24,9.17-9.32,12.62-13.72l2.83-3.6c10.63-13.55,20.67-26.36,35.32-34.92,6.76-3.95,14.16-6.57,21.32-9.09,8.14-2.88,15.84-5.6,22.81-10.13,23.53-15.3,31.75-44.22,39.7-72.2.97-3.44,1.99-6.99,3.01-10.46,3.34-11.34,7.61-22.5,11.73-33.28,7.5-19.61,14.58-38.12,16.69-57.8.46-4.3.16-8.67-.14-12.89-.27-3.91-.55-7.95-.22-11.92.61-7.24,2.38-14.54,4.13-21.74.76-3.13,1.54-6.36,2.22-9.56,8.26-39.15,2.02-80.04-17.13-112.18-1.73-2.9-2.94-5.52-3.71-8.02-2.23-7.3-2.48-14.54-2.72-21.54-.08-2.24-.15-4.35-.28-6.45-.14-2.14-.33-4.06-.59-5.88-1.22-8.33-3.7-14.18-8.03-18.97-6.2-6.86-15.9-9.98-25.29-12.99-4.16-1.34-8.08-2.6-11.71-4.16-4.1-1.78-7.59-3.88-11.73-6.43-2.85-1.76-5.79-3.57-8.99-5.22-6.75-3.5-13.17-5.18-19.19-5.1.52-.21,1.03-.45,1.54-.67,7.64-1.75,16.05,0,25.02,5.26,3.17,1.85,6.2,3.96,9.12,5.99,4.19,2.92,8.02,5.51,12.44,7.67,4.01,1.95,8.52,3.56,12.89,5.13,9.33,3.34,18.98,6.8,24.74,13.76,4.02,4.86,6.16,10.82,6.94,19.32.17,1.87.27,3.87.3,6.1.03,1.96,0,3.92-.01,5.99-.08,7.85-.16,15.96,2.26,24.27ZM600.98,321.4c.29,4.12.58,8.38.15,12.47-2.08,19.38-9.11,37.76-16.55,57.22-4.15,10.84-8.43,22.04-11.79,33.46-1.02,3.47-2.03,7.03-3.01,10.48-7.83,27.56-15.92,56.05-38.71,70.87-6.73,4.38-14.29,7.05-22.33,9.89-7.25,2.57-14.76,5.22-21.7,9.28-15.04,8.79-25.69,22.36-35.99,35.5l-2.83,3.6c-3.39,4.31-7.5,9.28-12.31,13.39-10.21,8.73-20.88,12.29-32.6,10.88-5.78-.7-11.73-2.69-17.5-4.62-10.04-3.36-19.52-6.53-28.36-3.59-7.89,2.62-12.34,8.31-17.06,14.34l-.92,1.19c-1.29,1.65-2.61,3.36-4.04,4.98-7.59,8.64-16.33,13.47-24.65,17.38-14.01,0-29.87-.02-46.51-1.69l-.4-.04c-3.54-.36-7.2-.73-10.99.1-2.41.53-4.67,1.53-6.85,2.49-.87.38-1.76.78-2.65,1.13-3.34,1.35-6.9,2.19-10.57,2.51-20.55,1.75-40.78-12.27-47.04-32.64-.18-.6-.36-1.2-.54-1.82l-.09-.32c-1.38-4.77-2.8-9.7-6.55-12.51-.7-.53-1.42-.93-2.15-1.24,1.86.16,3.61.58,5.22,1.88,2.82,2.28,4.07,6.51,5.32,10.73.2.66.39,1.33.6,1.97,5.96,19,24.23,32.79,43.45,32.79.99,0,1.98-.04,2.98-.11,3.68-.28,7.25-1.08,10.61-2.39.89-.34,1.77-.72,2.75-1.14,1.9-.81,3.87-1.66,5.86-2.11,3.15-.72,6.36-.52,9.46-.32l.54.03c15.03.94,29.19.23,43.64-.66l.27-.04.19-.11c7.57-4.38,16.41-10.09,24.52-19.29,1.18-1.33,2.3-2.71,3.39-4.04.57-.69,1.13-1.38,1.7-2.06,4.75-5.69,9.27-10.57,16.45-12.69,8.13-2.39,17.21.54,26.84,3.66,5.8,1.88,11.79,3.82,17.7,4.56,12.59,1.59,23.83-1.86,34.38-10.58,5.16-4.27,9.44-9.48,12.59-13.55,1.63-2.09,3.26-4.23,4.84-6.31,9.22-12.12,18.75-24.64,32.22-32.59,6.96-4.11,14.67-6.64,22.12-9.08,7.81-2.56,15.18-4.98,21.96-9.08,24.47-14.82,33.23-44.4,41.71-73.01.58-1.96,1.16-3.92,1.74-5.87,2.89-9.64,6.33-19.21,9.67-28.48,7.39-20.53,14.37-39.91,15.99-60.34.35-4.41-.03-8.86-.4-13.16-.36-4.19-.73-8.53-.42-12.8.56-7.69,2.45-15.43,4.29-22.96.78-3.18,1.58-6.48,2.27-9.73,8.69-40.8,2.27-83.51-17.61-117.18-1.64-2.78-2.8-5.26-3.56-7.61-2.12-6.58-2.67-13.11-3.2-19.46-.2-2.39-.39-4.65-.66-6.89-.24-1.98-.53-3.77-.88-5.48-1.6-7.64-4.25-12.98-8.59-17.32-6.26-6.26-15.72-8.92-24.87-11.49-3.79-1.07-7.38-2.07-10.72-3.32-4.23-1.59-8-3.6-11.35-5.38-2.6-1.38-5.56-2.95-8.67-4.33-6.75-3-12.91-4.31-18.67-4,.59-.18,1.18-.35,1.78-.51,7.31-1.9,15.49-.53,24.33,4.04,3.12,1.61,6.02,3.4,8.83,5.13,4.23,2.6,7.8,4.74,12.03,6.58,3.72,1.6,7.87,2.94,11.93,4.24,9.09,2.92,18.48,5.94,24.26,12.33,4,4.42,6.29,9.89,7.44,17.73.25,1.76.44,3.62.57,5.69.13,2.07.2,4.15.28,6.38.25,7.15.5,14.55,2.82,22.15.82,2.67,2.1,5.46,3.93,8.53,18.85,31.65,24.99,71.92,16.85,110.49-.68,3.23-1.47,6.49-2.24,9.64-1.74,7.14-3.53,14.53-4.15,21.95-.34,4.14-.05,8.27.22,12.28ZM160.56,571.21c-4.15-4.08-5.56-11.73-6.79-18.47l-.26-1.4c-1.49-8.03-2.63-16.15-3.73-24-1.16-8.25-2.36-16.78-3.94-25-2.86-14.84-6.46-26.38-11.67-37.41-2.52-5.31-5.7-10.86-10.02-17.47-3.17-4.85-6.99-10.5-11.41-16.5,5.12,6.39,9.58,12.4,13.26,17.5,4.61,6.38,7.99,11.66,10.65,16.64,5.72,10.68,9.67,21.84,12.82,36.17,1.99,9.05,3.45,18.54,4.88,27.74,1.05,6.8,2.14,13.83,3.45,20.81l.38,2.07c1.3,7.09,2.64,14.42,6.93,19.05,1.04,1.12,2.2,1.8,3.4,2.24-3.11.11-5.79.17-7.96-1.96ZM592.41,322.9c.36,4.21.73,8.56.4,12.76-1.6,20.11-8.52,39.36-15.86,59.74-3.35,9.29-6.8,18.9-9.71,28.59l-1.75,5.88c-8.35,28.17-16.98,57.3-40.67,71.66-6.54,3.96-13.79,6.34-21.47,8.86-7.57,2.48-15.4,5.05-22.57,9.29-13.87,8.18-23.54,20.89-32.9,33.2-1.57,2.07-3.2,4.2-4.82,6.29-3.07,3.97-7.24,9.05-12.23,13.18-10.01,8.28-20.67,11.57-32.58,10.07-5.7-.72-11.59-2.62-17.28-4.47-9.97-3.23-19.4-6.28-28.22-3.68-7.81,2.3-12.59,7.45-17.59,13.44-.57.69-1.14,1.38-1.71,2.08-1.07,1.31-2.18,2.66-3.33,3.97-7.82,8.86-16.35,14.42-23.69,18.67-14.21.87-28.2,1.57-43.02.64l-.55-.04c-3.26-.21-6.63-.42-10.11.38-2.2.5-4.27,1.39-6.3,2.26-.86.37-1.76.75-2.64,1.1-3.14,1.22-6.49,1.98-9.94,2.24-19.08,1.44-38-11.91-44-31.03-.21-.68-.42-1.37-.62-2.07-1.31-4.43-2.66-9.02-6.05-11.76-.95-.77-1.93-1.28-2.93-1.64,2.14.26,4.17.64,5.98,2.24,2.53,2.21,3.71,6.13,4.86,9.94.2.68.41,1.35.62,2.02,5.89,18.33,22.74,31.13,40.97,31.13.79,0,1.59-.02,2.39-.07,3.46-.22,6.82-.93,9.98-2.11.88-.33,1.77-.69,2.73-1.09,1.74-.72,3.54-1.47,5.37-1.91,2.89-.69,5.82-.63,8.64-.57h.7c14.48.3,27.77-1.33,40.24-3.02l.27-.07.18-.12c5.9-4.13,14.74-10.74,23.38-20.51.85-.96,1.67-1.92,2.48-2.88.86-1.01,1.76-2.06,2.64-3.06,5.33-5.98,10.03-10.04,16.96-11.82,8.16-2.09,17.21.73,26.8,3.73,5.72,1.79,11.63,3.64,17.46,4.41,12.78,1.68,24.02-1.5,34.35-9.75,5.32-4.24,9.51-9.38,12.56-13.38,2.08-2.71,4.13-5.5,6.22-8.35,8.45-11.52,17.18-23.44,29.75-30.93,7.14-4.25,15.13-6.67,22.86-9.01,7.17-2.17,14.58-4.41,21.16-8.1,25.71-14.43,35.05-45.07,44.09-74.69l.12-.39c2.3-7.53,4.86-15.09,7.35-22.43,7.42-21.88,14.43-42.54,15.54-64.13.23-4.47-.22-8.99-.66-13.38-.45-4.5-.91-9.15-.62-13.73.52-8.14,2.52-16.33,4.46-24.26.79-3.21,1.6-6.54,2.31-9.84,9.11-42.43,2.52-86.96-18.1-122.17-1.55-2.65-2.67-5-3.42-7.2-1.99-5.84-2.79-11.61-3.56-17.19-.36-2.62-.7-5.1-1.16-7.53-.34-1.82-.73-3.48-1.17-5.07-1.95-6.85-4.85-11.83-9.15-15.66-6.34-5.66-15.6-7.85-24.56-9.97-3.4-.8-6.6-1.56-9.62-2.5-4.02-1.26-7.7-2.88-10.94-4.31-2.91-1.28-5.55-2.43-8.4-3.46-6.17-2.26-11.79-3.2-17-2.89.45-.14.89-.31,1.35-.44,6.93-1.88,14.51-.93,23.17,2.92,3.04,1.35,5.96,2.9,8.55,4.27,3.39,1.8,7.24,3.85,11.61,5.49,3.46,1.29,7.08,2.3,10.92,3.38,8.86,2.49,18.02,5.07,23.84,10.89,3.99,4,6.44,8.97,7.95,16.14.34,1.62.62,3.35.85,5.28.27,2.19.45,4.43.66,6.85.54,6.44,1.09,13.1,3.3,19.94.81,2.51,2.04,5.15,3.77,8.08,19.59,33.17,25.91,75.26,17.34,115.49-.69,3.23-1.48,6.5-2.26,9.69-1.85,7.58-3.76,15.43-4.34,23.33-.32,4.45.05,8.88.42,13.19ZM166.84,569.34c-3.83-4.13-5.11-11.11-6.35-17.87l-.39-2.08c-1.3-6.94-2.39-13.95-3.45-20.79-1.42-9.2-2.9-18.72-4.9-27.83-3.19-14.55-7.22-25.89-13.04-36.78-2.72-5.07-6.16-10.45-10.82-16.9-3.24-4.48-7.08-9.67-11.44-15.21,4.92,5.76,9.42,11.3,13.41,16.3,5.03,6.32,8.57,11.28,11.45,16.08,6.31,10.49,10.67,21.44,14.14,35.5,2.47,10,4.23,20.53,5.94,30.73.95,5.69,1.94,11.58,3.05,17.39.16.81.31,1.64.46,2.47l.04.22c1.23,6.76,2.5,13.75,6.42,18.41,1.2,1.43,2.57,2.2,3.99,2.67-.41-.02-.81-.03-1.2-.04-2.88-.09-5.36-.16-7.32-2.27ZM583.89,324.45c.43,4.28.87,8.7.65,13-1.09,21.26-8.05,41.77-15.44,63.54-2.48,7.32-5.05,14.9-7.36,22.45l-.12.39c-8.9,29.18-18.1,59.35-42.99,73.33-6.35,3.57-13.32,5.67-20.7,7.9-7.86,2.38-15.99,4.83-23.38,9.24-12.98,7.74-21.86,19.85-30.54,31.7-1.98,2.7-4.02,5.48-6.09,8.17-2.97,3.89-7.04,8.89-12.16,12.97-9.8,7.83-20.46,10.86-32.57,9.25-5.63-.74-11.45-2.56-17.07-4.32-9.91-3.1-19.27-6.03-28.08-3.77-7.51,1.93-12.51,6.23-18.13,12.53-.88.99-1.77,2.03-2.68,3.1-.81.95-1.62,1.9-2.45,2.84-8.38,9.48-16.96,15.92-22.73,19.98-12.23,1.66-25.36,3.23-39.52,2.96l-.75-.02c-2.96-.06-6.02-.12-9.18.63-2,.48-3.89,1.27-5.74,2.03-.86.36-1.75.73-2.63,1.05-2.95,1.1-6.09,1.77-9.31,1.97-17.88,1.1-35.14-11.26-40.97-29.43-.2-.62-.39-1.25-.62-2.01-1.24-4.1-2.52-8.34-5.55-11-2.59-2.28-5.5-2.61-8.07-2.9-2.58-.29-4.8-.54-6.53-2.59-3.52-4.19-4.73-10.87-5.91-17.33-.17-.91-.33-1.82-.5-2.71-1.09-5.73-2.07-11.56-3.04-17.36-1.71-10.22-3.48-20.8-5.97-30.88-3.53-14.3-7.98-25.45-14.41-36.15-2.94-4.9-6.53-9.94-11.63-16.34-3.36-4.22-7.12-8.84-11.15-13.63,4.65,5.1,9.09,10.1,13.24,14.84,5.4,6.17,9.18,10.96,12.25,15.53,6.89,10.27,11.66,21.01,15.46,34.83,3.01,10.95,5.08,22.56,7.12,33.95.8,4.5,1.64,9.16,2.52,13.74.21,1.07.4,2.16.6,3.26,1.17,6.45,2.37,13.12,5.92,17.84,2.02,2.68,4.61,3.25,7.13,3.8,2.15.47,4.18.92,5.98,2.66,2.23,2.14,3.35,5.74,4.43,9.24.21.67.41,1.33.63,1.98,2.84,8.61,8.37,16.3,15.57,21.64,6.81,5.05,14.99,7.84,23.03,7.84.56,0,1.13-.01,1.69-.04,3.23-.16,6.38-.77,9.36-1.83.89-.31,1.79-.67,2.81-1.08,1.56-.62,3.17-1.27,4.79-1.67,2.61-.65,5.24-.73,7.79-.8l.9-.03c13.18-.41,25.45-2.83,36.83-5.41l.26-.09.17-.14c7.68-6.39,14.96-13.5,22.25-21.72l1.46-1.66c1.2-1.37,2.44-2.78,3.7-4.11,4.46-4.68,9.66-9.25,17.47-10.96,8.21-1.8,17.23.93,26.8,3.81,5.63,1.7,11.45,3.45,17.17,4.24,12.99,1.79,24.21-1.13,34.31-8.91,4.19-3.23,8.17-7.43,12.53-13.21,2.46-3.25,4.84-6.64,7.16-9.95,7.8-11.1,15.86-22.58,27.71-29.71,7.29-4.39,15.56-6.67,23.55-8.87,6.89-1.9,14.01-3.86,20.41-7.17,25.1-12.98,35.59-41.13,44.97-71.3,1.48-4.75,3.03-9.56,4.53-14.21,7.74-23.98,15.06-46.64,15.6-70.08.1-4.52-.41-9.07-.9-13.47-.54-4.84-1.1-9.85-.84-14.79.47-8.59,2.59-17.22,4.65-25.62.79-3.23,1.61-6.58,2.33-9.88,9.53-44.03,2.76-90.38-18.58-127.17-1.46-2.51-2.53-4.73-3.28-6.79-1.83-5.05-2.82-10.03-3.77-14.84-.57-2.89-1.11-5.61-1.81-8.25-.45-1.68-.92-3.21-1.47-4.67-2.29-6.16-5.38-10.61-9.7-14.01-2.38-1.86-5.11-3.26-8.06-4.38,6.45,1.71,12.59,3.89,17.01,7.84,3.94,3.52,6.63,8.15,8.45,14.55.43,1.52.8,3.11,1.13,4.86.44,2.37.78,4.82,1.14,7.43.78,5.69,1.59,11.57,3.66,17.61.8,2.35,1.98,4.84,3.61,7.62,20.32,34.71,26.82,78.63,17.83,120.49-.7,3.27-1.51,6.58-2.29,9.77-1.96,8.02-3.99,16.31-4.52,24.67-.3,4.77.17,9.52.63,14.14ZM575.44,326.11c.48,4.32.98,8.78.88,13.15-.53,23.1-7.79,45.59-15.48,69.42-1.51,4.66-3.06,9.47-4.54,14.24-9.22,29.67-19.51,57.35-43.8,69.91-6.19,3.2-13.19,5.13-19.97,7-8.14,2.25-16.56,4.57-24.12,9.12-12.28,7.4-20.48,19.08-28.43,30.4-2.29,3.26-4.66,6.64-7.1,9.86-4.23,5.61-8.07,9.67-12.09,12.77-9.57,7.38-20.23,10.15-32.56,8.45-5.55-.76-11.29-2.49-16.84-4.17-9.85-2.97-19.15-5.78-27.95-3.85-8.43,1.85-13.96,6.68-18.67,11.63-1.31,1.38-2.59,2.84-3.83,4.25l-1.39,1.57c-7.14,8.05-14.27,15.02-21.78,21.29-11.11,2.51-23.16,4.88-36.04,5.28l-.9.03c-2.67.08-5.43.15-8.29.87-1.77.45-3.46,1.12-5.14,1.79-.87.35-1.77.71-2.67,1.03-2.76.98-5.68,1.55-8.68,1.7-8.07.37-16.32-2.22-23.21-7.34-6.81-5.06-12.05-12.33-14.74-20.49-.2-.61-.39-1.23-.62-1.97-1.17-3.76-2.37-7.65-5.04-10.21-2.29-2.21-4.85-2.77-7.12-3.27-2.29-.5-4.26-.94-5.75-2.92-3.21-4.27-4.37-10.66-5.52-17.02-.19-1.05-.38-2.09-.58-3.1-.89-4.62-1.73-9.3-2.55-13.87-2.02-11.28-4.1-22.94-7.14-33.99-3.87-14.08-8.73-25.03-15.78-35.52-3.13-4.66-6.96-9.52-12.44-15.77-3.23-3.69-6.63-7.54-10.18-11.47,4.2,4.31,8.35,8.59,12.39,12.8,5.84,6.08,9.75,10.56,13.05,14.98,7.58,10.16,12.6,20.37,16.78,34.16,3.63,11.98,6.04,24.76,8.37,37.13l.07.35c.6,3.21,1.23,6.51,1.86,9.77.24,1.24.47,2.5.7,3.78,1.11,6.16,2.25,12.53,5.43,17.29,1.72,2.59,3.99,3.4,6.19,4.19,1.86.67,3.61,1.3,5.19,3,1.94,2.08,2.98,5.35,3.99,8.51.21.67.43,1.33.65,1.98,5.58,16.39,20.46,27.84,36.18,27.84.35,0,.69,0,1.04-.02,3-.1,5.93-.62,8.73-1.55.96-.32,1.92-.68,2.88-1.05,1.38-.53,2.8-1.07,4.22-1.45,2.31-.61,4.63-.8,6.87-.99l1.18-.1c12.56-1.13,23.91-4.56,33.36-7.78l.45-.27c5.99-5.88,12.12-12.78,18.61-20.09l2.58-2.9c1.73-1.95,3.37-3.78,5.14-5.53,5.97-5.87,11.35-8.89,17.98-10.09,8.25-1.5,17.24,1.11,26.77,3.88,5.54,1.61,11.26,3.28,16.92,4.08,13.21,1.89,24.42-.75,34.28-8.08,4.28-3.18,8.25-7.33,12.49-13.04,2.71-3.64,5.29-7.49,7.82-11.26,7.23-10.78,14.71-21.94,25.95-28.78,7.43-4.52,15.96-6.64,24.22-8.7,6.62-1.65,13.47-3.35,19.68-6.29,25.14-11.88,36.83-39.47,45.72-67.51l.5-1.59c8.37-26.39,17.02-53.67,16.86-80.45-.03-4.52-.59-9.05-1.13-13.44-.64-5.23-1.31-10.63-1.06-15.96.42-9.03,2.65-18.09,4.8-26.85.81-3.29,1.64-6.69,2.38-10.05,9.93-45.59,2.99-93.76-19.06-132.16-1.36-2.38-2.39-4.47-3.14-6.39-1.63-4.19-2.72-8.33-3.78-12.35-.85-3.22-1.65-6.26-2.68-9.13-.54-1.52-1.13-2.95-1.76-4.27-2.62-5.47-5.89-9.39-10.26-12.34-1.4-.95-2.93-1.72-4.52-2.4,5.1,1.28,9.86,3.01,13.55,5.91,3.97,3.11,6.81,7.24,8.95,12.97.51,1.39.97,2.84,1.4,4.45.68,2.57,1.22,5.26,1.78,8.1.97,4.91,1.98,9.98,3.87,15.19.79,2.19,1.92,4.53,3.45,7.17,21.05,36.29,27.72,82.03,18.32,125.49-.72,3.33-1.57,6.8-2.33,9.89-2.07,8.44-4.21,17.17-4.69,25.98-.27,5.14.3,10.24.85,15.18ZM87.63,248.71s.03-.04.04-.07l.5.2c8.15-12.46,16.58-25.35,25.56-37.72,16.64-22.94,31.95-40.61,52.56-52.3,8.4-4.76,17.53-8.47,26.39-12.08,7.17-2.92,14.59-5.93,21.38-9.44,4.77-2.48,9.24-5.16,13.61-7.78,5.52-3.31,10.73-6.43,16.5-9.16,8.33-3.95,17.68-6.81,27.81-8.52,12.8-2.15,26.68-2.34,39.77-.56,1.36.18,2.71.39,4.08.59,6.46.97,13.13,1.96,19.84.89,7.53-1.2,14.08-4.67,20.41-8.03,5.68-3.01,11.71-5.74,17.27-5.48,4.09.2,7.24,1.62,10.31,3.01,1.4.63,2.85,1.29,4.38,1.82,7.06,2.5,16.85,2.8,26.85.83,1.12-.22,2.24-.47,3.36-.72-2.45.69-4.91,1.35-7.34,1.91-9,2.08-17.59,2.34-24.21.74-1.42-.34-2.82-.79-4.2-1.23-3.14-1.01-6.39-2.06-10.63-2.06-5.89,0-12.05,2.79-17.37,5.41-6.52,3.21-12.45,5.95-19.06,6.98-6.18.96-12.51.18-18.63-.58l-.49-.06c-1.06-.13-2.12-.26-3.19-.38-12.96-1.48-26.36-1.3-38.75.49-9.93,1.44-19.2,3.91-27.54,7.32-6.23,2.54-11.87,5.49-17.83,8.61-3.85,2.01-7.82,4.09-12.02,6.08-5.73,2.69-11.87,5.12-17.86,7.49-9.43,3.73-19.18,7.6-28.18,12.75-10.12,5.79-19.66,13.52-29.16,23.64-9.03,9.61-17.06,20.38-23.73,29.65-5.66,7.86-11.22,16.03-16.64,23.99-6.17,9.07-12.01,17.64-17.8,25.51-.89,1.21-1.77,2.4-2.65,3.59l-2.24,2.99c-7.73,10.3-15.03,20.02-20.48,33.35-.67,1.63-1.25,3.17-1.79,4.69-4.78,13.5-6.14,28.45-3.93,43.23,2.13,14.22,8.44,27.5,16.8,35.74-9.14-7.08-16.1-21.07-17.85-36.13-1.61-13.8,0-28.34,4.64-42.07.49-1.46,1.03-2.97,1.66-4.62,5.58-14.81,12.47-25.21,19.76-36.23l2.59-3.93c2.56-3.86,5.17-7.85,7.92-12.06l-.44-.29ZM567.05,327.96c.53,4.32,1.08,8.79,1.11,13.16.15,26.41-8.44,53.51-16.75,79.73l-.5,1.59c-8.73,27.53-20.16,54.6-44.49,66.09-6.02,2.84-12.75,4.52-19.27,6.14-8.41,2.09-17.12,4.26-24.85,8.97-11.69,7.12-19.32,18.48-26.69,29.48-2.48,3.71-5.05,7.54-7.75,11.16-4.1,5.53-7.92,9.52-12.01,12.56-9.34,6.94-19.98,9.44-32.55,7.64-5.45-.78-11.09-2.41-16.59-4.01-9.8-2.84-19.05-5.53-27.85-3.94-7.13,1.29-12.87,4.5-19.21,10.73-1.82,1.79-3.55,3.74-5.25,5.64l-2.64,2.97c-6.38,7.18-12.4,13.97-18.25,19.73-9.24,3.14-20.33,6.48-32.56,7.58l-1.18.1c-2.34.2-4.76.4-7.25,1.06-1.54.41-3.03.98-4.57,1.57-.87.34-1.77.68-2.67.97-2.58.86-5.29,1.34-8.06,1.43-15.09.48-29.5-10.3-34.92-26.22-.2-.58-.39-1.17-.58-1.77l-.06-.18c-1.09-3.41-2.22-6.94-4.52-9.4-1.97-2.12-4.17-2.91-6.13-3.61-2-.72-3.73-1.34-5.02-3.28-2.9-4.36-4.01-10.49-5.08-16.46-.23-1.26-.45-2.52-.7-3.76-.65-3.29-1.28-6.63-1.89-9.87l-.05-.24c-2.34-12.42-4.76-25.27-8.43-37.37-4.26-14.07-9.39-24.5-17.15-34.89-3.36-4.5-7.32-9.05-13.24-15.2-2.89-3.01-5.86-6.07-8.83-9.14,3.79,3.61,7.49,7.13,11.16,10.62,6.23,5.91,10.37,10.22,13.85,14.43,8.18,9.88,13.59,19.9,18.1,33.49,4.33,13.08,7.09,27.11,9.75,40.7l1.2,6.11c.27,1.37.52,2.78.79,4.24,1.06,5.89,2.15,11.97,4.94,16.8,1.43,2.48,3.37,3.54,5.24,4.57,1.5.82,3.05,1.67,4.41,3.33,1.64,2,2.62,4.95,3.56,7.79.22.67.44,1.34.67,1.99,5.52,15.67,19.09,26.2,33.77,26.2h.38c2.77-.04,5.5-.47,8.1-1.27,1.02-.31,2.05-.69,3.12-1.08,1.14-.42,2.32-.85,3.49-1.18,1.96-.55,3.93-.84,5.83-1.13l1.59-.24c12.09-1.93,22.89-6.74,29.96-10.18l.37-.28c2.85-3.26,5.62-6.72,8.57-10.39,3.58-4.47,7.29-9.09,11.44-13.74,1.49-1.67,3.28-3.63,5.24-5.43,5.88-5.39,11.58-8.23,18.49-9.23,8.29-1.2,17.26,1.31,26.83,3.98,5.44,1.52,11.06,3.09,16.57,3.91,13.47,2.01,24.67-.36,34.25-7.24,4.35-3.1,8.31-7.19,12.47-12.88,2.92-3.99,5.63-8.24,8.26-12.35,6.73-10.55,13.68-21.46,24.42-28.07,7.56-4.65,16.34-6.59,24.84-8.47,6.37-1.41,12.96-2.87,19-5.45,26.91-11.51,39.41-41.88,46.48-63.72,13.84-42.77,15.15-64.33,14.6-79.78-.16-4.43-.75-8.88-1.33-13.21-.76-5.67-1.54-11.54-1.32-17.33.37-9.47,2.71-18.96,4.97-28.13.82-3.33,1.67-6.77,2.42-10.17,10.33-47.12,3.21-97.11-19.55-137.16-1.28-2.25-2.26-4.21-3-5.99-1.35-3.24-2.43-6.46-3.48-9.58-1.23-3.66-2.39-7.11-3.87-10.29-.64-1.37-1.33-2.67-2.06-3.86-2.93-4.79-6.37-8.17-10.82-10.66-.54-.3-1.11-.55-1.68-.81,4,.94,7.73,2.26,10.82,4.35,4.02,2.7,7.02,6.33,9.46,11.4.59,1.24,1.15,2.6,1.67,4.04,1,2.79,1.79,5.79,2.63,8.97,1.07,4.06,2.18,8.26,3.85,12.57.79,2.03,1.86,4.22,3.29,6.71,21.76,37.9,28.62,85.46,18.8,130.49-.72,3.3-1.54,6.65-2.37,10-2.18,8.86-4.44,18.03-4.87,27.29-.25,5.54.42,11.05,1.08,16.37ZM558.74,330.1c.57,4.25,1.15,8.64,1.31,12.96.54,15.25-.76,36.56-14.49,78.97-6.93,21.4-19.15,51.14-45.17,62.28-5.83,2.5-12.3,3.93-18.58,5.32-8.69,1.92-17.67,3.91-25.56,8.77-11.2,6.89-18.3,18.03-25.19,28.82-2.6,4.08-5.29,8.29-8.16,12.21-4,5.48-7.8,9.41-11.94,12.35-9.06,6.51-19.7,8.74-32.53,6.83-5.36-.79-10.91-2.34-16.33-3.85-9.75-2.72-18.96-5.29-27.76-4.03-7.4,1.07-13.49,4.1-19.75,9.83-2.03,1.87-3.87,3.88-5.4,5.6-4.19,4.7-7.92,9.34-11.56,13.88-2.86,3.56-5.56,6.92-8.31,10.09-6.92,3.36-17.42,8-29.09,9.87l-1.56.24c-1.97.29-4.01.6-6.12,1.19-1.28.36-2.52.81-3.76,1.27-.95.35-1.93.7-2.91,1.01-2.39.74-4.89,1.13-7.44,1.16h-.35c-13.68,0-26.36-9.89-31.55-24.62-.21-.59-.4-1.19-.66-1.96-1.01-3.05-2.05-6.2-3.97-8.53-1.64-2.01-3.48-3.02-5.1-3.91-1.74-.95-3.24-1.77-4.34-3.68-2.58-4.47-3.64-10.35-4.67-16.09-.25-1.4-.51-2.84-.79-4.24l-1.2-6.11c-2.68-13.65-5.45-27.77-9.83-40.99-4.61-13.89-10.15-24.14-18.52-34.25-3.54-4.28-7.74-8.66-14.04-14.64-1.38-1.31-2.76-2.62-4.15-3.94,2.18,1.91,4.38,3.83,6.6,5.74,4.94,4.28,10.14,8.92,14.65,13.88,8.75,9.54,14.56,19.35,19.42,32.83,5.15,14.27,8.25,29.7,11.26,44.62l.35,1.76c.31,1.55.6,3.15.88,4.69,1.02,5.62,2.07,11.43,4.45,16.32,1.16,2.37,2.76,3.69,4.32,4.97,1.22,1,2.47,2.03,3.6,3.64,1.35,1.91,2.24,4.51,3.1,7.02l.08.23c.21.62.42,1.23.64,1.84,5.41,14.79,17.61,24.43,31.06,24.57h.28c2.45,0,4.87-.33,7.2-.98,1.15-.32,2.3-.72,3.4-1.11.89-.31,1.8-.63,2.71-.9,1.49-.45,2.98-.78,4.53-1.13.77-.17,1.52-.34,2.27-.53,11.97-2.92,20.95-7.21,26.71-12.72,3.94-3.77,6.96-8.41,10.17-13.31,2.68-4.11,5.45-8.35,8.87-12.17,1.92-2.15,3.6-3.82,5.27-5.27,5.76-4.94,11.8-7.6,19-8.37,8.37-.89,17.33,1.51,26.92,4.08,5.32,1.42,10.82,2.89,16.2,3.72,13.71,2.12,24.9.03,34.22-6.41,4.42-3.03,8.38-7.07,12.44-12.71,3.05-4.23,5.82-8.81,8.53-13.29,6.27-10.38,12.75-21.1,23.05-27.51,7.67-4.77,16.72-6.52,25.48-8.22,6.11-1.18,12.44-2.41,18.3-4.65,20.83-7.98,36.73-28.14,47.25-59.93,9.38-28.33,13.36-54.42,11.83-77.52-.28-4.25-.89-8.54-1.49-12.72-.89-6.2-1.81-12.61-1.61-18.97.32-9.91,2.77-19.81,5.14-29.39.83-3.37,1.7-6.86,2.46-10.31,10.72-48.58,3.41-100.39-20.03-142.15-1.2-2.14-2.11-3.92-2.87-5.59-.98-2.18-1.87-4.35-2.74-6.49-1.73-4.23-3.37-8.23-5.5-11.77-.74-1.23-1.54-2.4-2.36-3.46-2.98-3.83-6.48-6.65-10.64-8.63,3.09.66,6,1.61,8.55,3.04,4.09,2.29,7.26,5.41,9.96,9.84.68,1.11,1.33,2.33,1.94,3.63,1.43,3.06,2.57,6.45,3.77,10.04,1.06,3.15,2.15,6.4,3.53,9.74.78,1.87,1.8,3.92,3.13,6.25,22.47,39.55,29.5,88.94,19.29,135.49-.75,3.42-1.63,6.98-2.4,10.11-2.29,9.29-4.66,18.89-5.04,28.6-.23,6,.57,11.96,1.34,17.76ZM550.5,332.72c.59,4.11,1.2,8.35,1.47,12.52,1.51,22.8-2.44,48.58-11.72,76.63-10.28,31.08-25.71,50.76-45.85,58.47-5.68,2.17-11.9,3.38-17.93,4.54-8.95,1.73-18.21,3.53-26.25,8.52-10.77,6.7-17.41,17.67-23.84,28.31-2.66,4.4-5.41,8.96-8.41,13.11-3.89,5.41-7.66,9.27-11.86,12.15-8.8,6.07-19.43,8.04-32.52,6.02-5.28-.81-10.75-2.28-16.03-3.69-9.28-2.48-18.89-5.06-27.69-4.12-7.7.82-14.14,3.65-20.29,8.92-1.76,1.52-3.5,3.26-5.49,5.48-3.54,3.95-6.36,8.27-9.08,12.46-3.13,4.79-6.08,9.31-9.82,12.9-4.31,4.12-10.62,7.52-18.76,10.17,6.74-3.27,12.54-7.58,16.45-12.32,3.08-3.73,5.53-7.9,8.12-12.32,2.88-4.91,5.86-9.99,9.77-14.34,1.81-2.02,3.54-3.68,5.31-5.1,5.74-4.6,11.93-6.98,19.51-7.5,8.47-.59,17.85,1.83,26.96,4.16,5.21,1.33,10.61,2.72,15.87,3.56,14.15,2.27,25.01.5,34.18-5.57,4.5-2.97,8.45-6.95,12.41-12.54,3.16-4.45,5.96-9.35,8.68-14.11,5.85-10.24,11.9-20.83,21.81-27.07,7.78-4.89,17.09-6.43,26.11-7.92,5.86-.97,11.93-1.98,17.6-3.89,28.49-9.63,42.31-39.3,48.01-56.13,8.33-24.6,11.47-50.63,9.07-75.27-.39-3.98-1-7.96-1.59-11.82-1.05-6.87-2.14-13.98-1.96-21.01.26-10.34,2.83-20.66,5.3-30.65.8-3.23,1.71-6.9,2.5-10.45,11.09-49.98,3.61-103.61-20.51-147.14-1.12-2.02-1.99-3.67-2.74-5.2l-1.35-2.8c-2.43-5.06-4.73-9.84-7.81-13.85-.86-1.11-1.75-2.13-2.66-3.05-3.41-3.41-7.31-5.8-11.92-7.3-.91-.3-1.86-.53-2.81-.74,4.41.33,8.66,1.07,12.27,2.67,4.14,1.83,7.56,4.54,10.47,8.28.76.98,1.51,2.07,2.2,3.23,2.04,3.39,3.64,7.3,5.35,11.47.87,2.12,1.77,4.32,2.77,6.54.78,1.73,1.72,3.57,2.96,5.78,23.17,41.26,30.38,92.47,19.78,140.49-.75,3.39-1.6,6.83-2.44,10.25-2.4,9.7-4.88,19.73-5.21,29.89-.21,6.55.72,13.07,1.63,19.4ZM542.35,337.28c.59,3.83,1.19,7.78,1.57,11.69,2.37,24.31-.72,50-8.95,74.29-5.56,16.42-19,45.36-46.54,54.66-5.49,1.86-11.47,2.84-17.25,3.8-9.23,1.53-18.78,3.1-26.96,8.25-10.41,6.54-16.61,17.4-22.6,27.89-2.68,4.69-5.45,9.55-8.55,13.91-3.79,5.34-7.53,9.14-11.79,11.94-8.65,5.73-18.98,7.39-32.51,5.21-5.18-.83-10.52-2.2-15.7-3.52-9.26-2.37-18.83-4.82-27.67-4.22-8.08.56-14.69,3.1-20.82,8.02-1.86,1.5-3.69,3.25-5.59,5.37-4.06,4.53-7.1,9.71-10.05,14.73-2.54,4.33-4.94,8.41-7.9,12-3.65,4.43-9.07,8.46-15.4,11.57,5.25-3.68,9.91-8.44,13.29-13.73,2.15-3.37,4.06-7.04,5.92-10.63,3.11-5.98,6.32-12.17,10.83-17.18,1.74-1.93,3.49-3.55,5.34-4.94,5.65-4.23,12.2-6.41,20.02-6.64,8.57-.27,17.99,2.03,27.11,4.26,5.08,1.24,10.32,2.53,15.44,3.38,14.41,2.41,25.26.9,34.15-4.73,4.57-2.9,8.51-6.83,12.38-12.38,3.24-4.64,6.03-9.82,8.72-14.84,5.46-10.15,11.11-20.64,20.67-26.72,7.89-5.01,17.47-6.32,26.73-7.59,5.62-.77,11.43-1.56,16.91-3.17,11.3-3.3,21.48-10.02,30.27-19.97,7.83-8.86,14.23-20.05,18.51-32.37,7.63-21.97,9.74-46.53,6.3-73.01-.45-3.42-1.01-6.88-1.57-10.26-1.27-7.76-2.59-15.77-2.44-23.71.21-10.76,2.88-21.51,5.47-31.91.82-3.29,1.74-7.01,2.54-10.6,11.44-51.29,3.78-106.74-20.99-152.13-.87-1.6-1.75-3.21-2.61-4.82-2.96-5.53-5.96-10.85-10.09-15.03-.95-.96-1.95-1.85-2.96-2.63-3.26-2.52-6.91-4.22-11.04-5.25,2.88.19,5.68.61,8.24,1.44,4.26,1.38,7.85,3.58,10.98,6.73.84.84,1.67,1.79,2.47,2.82,2.93,3.81,5.17,8.48,7.55,13.43l.1.22c.41.86.83,1.73,1.26,2.6.77,1.57,1.65,3.26,2.79,5.31,23.85,43.04,31.24,96.07,20.27,145.49-.77,3.49-1.65,7-2.49,10.4-2.51,10.11-5.1,20.56-5.37,31.16-.18,7.24.92,14.45,1.99,21.43ZM494.57,102.48c7.19,4.18,11.88,11.66,15.89,19.12,12.57,23.43,20.8,48.95,24.48,75.84,3.68,26.9,2.59,53.7-3.22,79.66-.8,3.58-1.71,7.21-2.58,10.71-2.72,10.92-5.54,22.22-5.7,33.68-.13,9.46,1.55,18.89,3.19,28.07.44,2.44.89,4.97,1.29,7.46,4.54,27.64,3.42,50.4-3.42,69.59-8.49,23.83-26.84,41.85-47.89,47.04-5.11,1.26-10.56,1.85-15.86,2.42-9.81,1.06-19.96,2.15-28.42,7.59-9.79,6.29-15.2,17.01-20.44,27.37-5.19,10.28-10.57,20.91-20.16,26.74-13.64,8.28-30.73,4.3-47.26.45-17.44-4.05-35.47-8.25-49.79,1.75-9.2,6.43-13.86,16.96-18.38,27.18-1.1,2.48-2.23,5.03-3.4,7.47-3.2,6.64-7.47,12.48-12.02,16.44-5.49,4.77-11.25,6.86-17.13,6.21-15.16-1.67-21.98-20.28-25.03-35.61l-1.22-6.18c-3.98-20.22-8.08-41.13-16.68-60.23-10.03-22.28-22.86-31.91-41.27-44.06-6.7-4.42-13.5-9.07-20.21-14-4.71-3.64-9.14-7.18-13.32-10.66-7.54-6.48-14.47-12.74-20.9-18.86-14.41-15.11-26.27-32.5-32.8-52.93-3.6-11.27-6.58-27.76-.28-42.23,5.61-12.9,17.36-21.83,28.72-30.47,4.12-3.13,8.37-6.37,12.29-9.76,15.16-13.1,26.87-30.06,38.21-46.46,14.32-20.71,29.12-42.14,50.73-55.15,25-15.06,55.53-16.85,82.83-16.85,1.43,0,2.86,0,4.28.01l6.19.05c19.27.16,39.19.33,58.14-4.51,16.24-4.15,31.42-11.9,46.1-19.4,2.47-1.26,4.93-2.52,7.39-3.76,14.43-7.26,29.29-14.06,44.17-20.22,14.3-5.92,30.64-10.97,43.48-3.51ZM198.68,496.22c8.48,18.85,12.57,39.62,16.52,59.72l1.22,6.19c3.42,17.2,9.5,28.77,17.79,34.15-6.16-3.09-11.32-9.15-14.71-17.57-.4-1.01-.8-2.07-1.17-3.09-.59-1.59-1.19-3.23-1.87-4.74-.54-1.22-1.09-2.32-1.65-3.44-1.02-2.05-1.99-3.99-2.67-6.28-1.41-4.72-2.38-9.8-3.35-14.86-.37-1.92-.75-3.9-1.15-5.84-2.94-14.19-6.62-30.62-13.06-45.95-4.95-11.78-10.75-20.66-18.96-28.85,9.32,7.73,16.77,16.61,23.06,30.57ZM275.03,575.64c1.2-2.49,2.34-5.07,3.45-7.57,4.38-9.89,8.9-20.12,17.56-26.17,13.46-9.4,30.97-5.33,47.91-1.39,16.99,3.95,34.55,8.04,49-.73,10.17-6.17,15.69-17.11,21.04-27.68,5.09-10.08,10.36-20.51,19.61-26.45,7.99-5.14,17.86-6.2,27.44-7.23,5.35-.58,10.88-1.17,16.14-2.47,21.81-5.38,40.79-23.98,49.55-48.54,6.98-19.58,8.13-42.72,3.53-70.76-.4-2.44-.84-4.92-1.27-7.32l-.04-.21c-1.61-9.02-3.28-18.34-3.15-27.58.15-11.2,2.94-22.36,5.63-33.15.88-3.52,1.78-7.15,2.59-10.76,5.88-26.24,6.97-53.32,3.26-80.49-3.72-27.18-12.04-52.96-24.74-76.64-4.17-7.77-9.08-15.57-16.78-20.05-2.08-1.21-4.24-2.08-6.44-2.73,1.14.11,2.26.26,3.35.48,4.38.89,8.15,2.58,11.5,5.17.93.72,1.85,1.54,2.73,2.42,3.91,3.96,6.81,9.11,9.69,14.49.86,1.61,1.74,3.23,2.62,4.83,24.51,44.9,32.08,99.76,20.76,150.5-.78,3.47-1.65,7.01-2.53,10.54-2.62,10.52-5.32,21.39-5.54,32.43-.16,8.16,1.18,16.28,2.47,24.14.55,3.32,1.11,6.76,1.56,10.17,3.4,26.12,1.32,50.32-6.19,71.94-4.17,12.03-10.42,22.95-18.05,31.59-8.49,9.61-18.3,16.09-29.17,19.27-5.31,1.55-11.02,2.33-16.57,3.09-9.51,1.3-19.35,2.65-27.67,7.94-10.08,6.41-15.88,17.18-21.48,27.59-2.66,4.95-5.41,10.07-8.58,14.6-3.69,5.28-7.41,9.01-11.71,11.73-8.36,5.31-18.69,6.71-32.5,4.4-5.03-.84-10.23-2.11-15.28-3.35-9.27-2.27-18.83-4.6-27.73-4.32-8.32.25-15.3,2.58-21.36,7.11-1.98,1.48-3.84,3.2-5.68,5.25-4.71,5.23-7.99,11.55-11.18,17.68-1.82,3.51-3.71,7.15-5.81,10.43-3.12,4.88-7.39,9.28-12.2,12.74,3.9-3.99,7.48-9.18,10.26-14.96ZM405.87,124.12c-2.47,1.24-4.94,2.5-7.41,3.76-14.57,7.44-29.63,15.13-45.61,19.22-18.66,4.77-38.43,4.6-57.57,4.43l-6.16-.05c-28.68-.17-61.49,1-88.34,17.18-22.05,13.28-37,34.92-51.47,55.86-11.24,16.27-22.87,33.09-37.79,45.99-3.85,3.33-8.07,6.54-12.18,9.67-11.59,8.82-23.58,17.94-29.44,31.4-6.59,15.14-3.53,32.22.2,43.88,2.53,7.91,5.85,15.37,9.78,22.42-4.78-7.89-8.55-16.49-11.09-25.43-3.18-11.07-5.66-27.38.54-42.19.62-1.47,1.33-2.95,2.11-4.41,5.86-10.82,15.54-18.96,24.93-26.86,2.4-2.02,4.89-4.11,7.28-6.22,1.42-1.25,2.68-2.4,3.85-3.5,13.59-12.77,24.8-28.88,35.65-44.49l2.32-3.33c16.05-23.03,29.95-41.62,50.5-53.91,12.99-7.7,27.25-11.88,38.23-14.67,9.83-2.5,19.07-4.27,28.27-5.43,7.29-.92,15.05-1.5,23.72-1.76,4.72-.14,9.85-.21,16.62-.21,2.79,0,5.57,0,8.33.02,2.26,0,4.51.02,6.75.02,6.11.02,12.6-.04,18.92-.87,5.39-.71,10.96-1.98,17.01-3.86,1.4-.44,2.81-.9,4.38-1.41,2.79-.91,5.67-1.85,8.45-2.59,1.68-.45,3.3-.85,4.87-1.24l.31-.08c2.51-.63,4.88-1.22,7.33-1.93,5.88-1.69,12.24-4,18.92-6.88,2.84-1.22,5.72-2.52,8.54-3.79l.21-.09c1.56-.7,3.11-1.4,4.67-2.09,1.74-.77,3.59-1.59,5.43-2.36,3.45-1.45,6.82-3.08,10.19-4.71,3.34-1.62,6.8-3.3,10.32-4.75,2.27-.95,4.53-1.75,6.75-2.49-12.93,5.51-25.8,11.44-38.31,17.74ZM426.02,111.53c-3.24,1.57-6.6,3.2-10,4.63-1.86.78-3.72,1.6-5.47,2.38-1.63.72-3.26,1.46-4.89,2.19l-.24.11c-2.71,1.22-5.51,2.48-8.27,3.67-6.58,2.83-12.84,5.11-18.64,6.78-2.46.71-4.82,1.3-7.36,1.93-1.65.41-3.35.83-5.11,1.3-2.9.77-5.83,1.73-8.68,2.66-1.42.46-2.84.93-4.25,1.36-5.92,1.85-11.36,3.08-16.61,3.77-6.1.8-12.3.85-18.61.85l-6.83-.02c-8.2-.03-16.69-.06-24.95.19-8.75.27-16.58.85-23.95,1.78-9.3,1.17-18.64,2.97-28.55,5.49-11.13,2.82-25.6,7.06-38.85,14.93-20.95,12.52-35.01,31.31-51.23,54.58l-2.32,3.34c-10.77,15.49-21.92,31.51-35.33,44.11-1.16,1.09-2.4,2.22-3.79,3.45-2.39,2.11-4.87,4.2-7.27,6.21-9.53,8.01-19.38,16.29-25.45,27.51-.82,1.51-1.56,3.06-2.21,4.62-6.47,15.45-3.91,32.32-.63,43.75,2.36,8.32,5.77,16.35,10.04,23.81-4.99-7.89-8.9-16.97-11.31-26.57-2.74-10.9-4.72-27.07,1.36-42.17.6-1.49,1.28-2.98,2.02-4.45,5.64-11.11,14.26-19.17,23.45-27.76,2.07-1.93,4.2-3.93,6.28-5.94,1.33-1.3,2.51-2.47,3.6-3.59,11.94-12.23,22.47-27.31,32.64-41.89,1.48-2.12,2.96-4.25,4.45-6.36,15.47-22.02,29.98-41.25,50.91-53.58,12.72-7.49,27.29-12.03,40.15-16.04,8.98-2.81,18.59-5.72,28.64-7.73,7.55-1.52,15.8-2.57,24.53-3.12,5.6-.35,11.46-.52,17.93-.52,4.72,0,9.75.09,15.38.28l1.28.04c6.1.2,12.41.42,18.64-.45,5.32-.74,10.78-2.18,17.7-4.69l1.51-.55c4.02-1.47,8.19-2.99,12.18-3.73,2.82-.52,5.38-.78,7.86-1.03,1.73-.17,3.37-.34,5.09-.58,6.26-.88,13.35-2.73,20.51-5.36,3.4-1.25,6.84-2.63,10.22-3.99,1.51-.61,3.01-1.21,4.51-1.8,2.11-.83,4.01-1.58,5.95-2.27,2.02-.73,3.97-1.56,5.88-2.43-.63.3-1.27.6-1.9.91ZM170.37,463.91c9.94,8.95,16.54,18.38,22.05,31.5,6.36,15.14,10,31.43,12.92,45.52.41,1.97.79,3.98,1.17,5.95.95,4.98,1.94,10.13,3.38,14.95.74,2.47,1.75,4.5,2.84,6.7.52,1.04,1.05,2.12,1.58,3.3.65,1.46,1.24,3.05,1.81,4.6.38,1.04.78,2.11,1.2,3.15,3.6,8.93,9.11,15.4,15.73,18.75-7.73-3.02-14.14-9.98-17.89-19.77-.27-.72-.54-1.45-.82-2.26-.79-2.22-1.61-4.53-2.75-6.49-.96-1.66-1.95-2.9-2.92-4.11-1.19-1.49-2.32-2.9-3.1-4.89-1.86-4.71-2.86-10.12-3.82-15.35l-.04-.2c-.31-1.65-.62-3.35-.96-5.02-3.43-16.77-6.73-31.83-12.38-46.33-5.17-13.25-11.35-22.94-20.52-32.2.85.72,1.71,1.44,2.53,2.18ZM458.77,99.73c-2.63.69-4.67,1.24-6.61,1.79-4.67,1.3-10.12,2.88-15.62,5.17-1.68.7-3.35,1.45-5,2.21.77-.38,1.54-.76,2.3-1.13,3.38-1.67,6.87-3.4,10.51-4.79,5.55-2.14,11.19-3.14,16.45-3.9.42-.06.85-.12,1.29-.18-1.09.27-2.17.53-3.31.83ZM416.81,111.56c1.31-.47,2.62-.94,3.92-1.41,2.4-.85,4.41-1.55,6.46-2.19,1.09-.34,2.16-.72,3.2-1.13-2.96,1.44-5.99,2.86-9.15,4-1.95.7-3.88,1.46-6.01,2.3-1.29.51-2.59,1.03-3.88,1.55l-.65.26c-3.16,1.27-6.74,2.71-10.16,3.97-7,2.57-13.93,4.39-20.03,5.24-1.68.24-3.29.4-4.99.57-2.53.26-5.14.52-8.05,1.05-4.18.77-8.44,2.33-12.56,3.83l-1.51.55c-6.75,2.45-12.06,3.86-17.22,4.58-6.05.84-12.27.63-18.27.42l-1.25-.04c-13.19-.44-23.84-.36-33.53.25-8.84.56-17.2,1.62-24.85,3.16-10.14,2.03-19.83,4.96-28.89,7.79-12.98,4.04-27.68,8.62-40.63,16.25-21.34,12.57-36.01,32.01-51.64,54.26-1.49,2.11-2.97,4.24-4.45,6.36-10.12,14.5-20.59,29.5-32.4,41.59-1.07,1.1-2.24,2.26-3.55,3.54-2.08,2.02-4.23,4.03-6.31,5.97-9.28,8.67-18.04,16.86-23.87,28.35-.77,1.52-1.48,3.09-2.11,4.64-6.31,15.69-4.28,32.38-1.46,43.62,2.28,9.1,5.88,17.78,10.46,25.46-5.34-7.94-9.44-17.65-11.68-27.95-2.32-10.66-3.82-26.63,2.17-42.14.57-1.47,1.22-2.98,1.93-4.49,5.46-11.52,13.51-19.93,22.02-28.83,1.71-1.79,3.47-3.63,5.21-5.5,1.26-1.36,2.35-2.56,3.35-3.67,10.17-11.4,19.73-25.1,28.97-38.34l.11-.17c2.33-3.35,4.74-6.8,7.13-10.17,14.84-20.95,29.93-40.79,51.33-53.26,10.73-6.25,22.57-10.46,34.04-14.53,2.64-.94,5.37-1.91,8.02-2.88,1.93-.71,3.84-1.42,5.73-2.13,7.86-2.94,15.27-5.72,23.28-7.89,7.8-2.13,16.33-3.63,25.35-4.47,6-.56,12.38-.84,18.96-.84,5.13,0,10.5.17,15.95.51l2.41.16c6.05.4,12.3.81,18.52-.09,6.65-.96,12.76-3.23,18.38-5.53l.19-.08c4.75-1.95,9.65-3.96,14.37-4.49,3.25-.37,6.08-.24,8.98-.11,1.43.07,2.91.14,4.41.12,6.47-.03,14.32-1.39,22.11-3.84,3.86-1.21,7.77-2.63,11.55-3.99l.57-.21ZM165.43,462.62c9.35,9.25,15.55,18.87,20.73,32.16,5.59,14.33,8.86,29.29,12.27,45.95.35,1.7.67,3.45.99,5.17.99,5.34,2.01,10.87,3.95,15.78.92,2.31,2.15,3.86,3.46,5.5.9,1.13,1.84,2.3,2.71,3.81,1.04,1.78,1.82,3.98,2.59,6.14.27.76.54,1.53.83,2.27,3.87,10.11,10.45,17.38,18.44,20.79-9.01-3.08-16.65-10.88-20.57-21.57-.24-.65-.46-1.32-.71-2.03-.91-2.66-1.86-5.42-3.39-7.6-1.3-1.86-2.68-3-4.03-4.1-1.48-1.22-2.76-2.27-3.7-4.18-2.24-4.59-3.26-10.24-4.27-15.81-.28-1.53-.56-3.1-.87-4.63l-.36-1.77c-3.02-15-6.14-30.51-11.35-44.94-4.97-13.79-10.92-23.84-19.89-33.61-.69-.76-1.42-1.49-2.13-2.23,1.82,1.6,3.61,3.23,5.3,4.91ZM476.41,94.82l-.48.05c-2.99.32-5.81.63-8.57.97-2.61.32-4.81.61-6.91.91-5.4.79-11.18,1.82-16.95,4.04-.46.18-.91.37-1.36.55,2.94-1.47,5.97-2.91,9.15-4.04,6.11-2.19,12.29-2.62,17.54-2.74,2.62-.07,5.19-.06,7.13-.04l2.4.02c.19,0,.38,0,.57,0-.85.09-1.71.18-2.53.27ZM403.97,113.52c-7.56,2.38-15.17,3.7-21.41,3.73-1.5,0-3-.06-4.43-.13-2.83-.13-5.74-.27-9.2.12-5.04.57-10.1,2.65-15,4.65l-.19.08c-5.48,2.24-11.43,4.45-17.83,5.38-5.97.86-12.1.46-18.03.07l-2.42-.16c-12.56-.79-24.43-.68-35.28.33-9.16.85-17.82,2.38-25.75,4.55-8.1,2.2-15.57,5-23.48,7.96-1.89.71-3.79,1.42-5.72,2.13-2.63.97-5.36,1.93-8.02,2.88-11.55,4.1-23.5,8.34-34.41,14.7-21.8,12.71-37.07,32.76-52.06,53.93-2.43,3.43-4.88,6.95-7.27,10.36-9.2,13.19-18.71,26.83-28.79,38.11-.98,1.1-2.07,2.3-3.31,3.64-1.73,1.86-3.49,3.7-5.19,5.47-8.65,9.04-16.82,17.58-22.45,29.45-.74,1.55-1.41,3.12-2,4.65-6.2,16.06-4.66,32.51-2.28,43.49,2.99,13.78,9.25,26.55,17.37,35.66-8.93-8.22-15.84-21.8-18.54-36.52-2.73-14.89-1.69-29.45,2.99-42.12.55-1.49,1.17-3.02,1.84-4.54,5.34-12.1,12.89-20.99,20.89-30.39,1.28-1.5,2.56-3.02,3.86-4.56,1.03-1.24,2.07-2.49,3.1-3.76,8.18-10.07,16-21.35,24.27-33.29,3.6-5.2,7.32-10.57,11.07-15.82,14.18-19.86,29.86-40.3,51.74-52.94,9.59-5.53,20.09-9.53,30.32-13.41,4.52-1.72,9.2-3.5,13.65-5.36,3.31-1.39,6.54-2.84,9.67-4.23l.23-.1c6.56-2.93,12.75-5.7,19.48-8,7.99-2.73,16.79-4.69,26.16-5.82,6.33-.76,13.03-1.15,19.91-1.15,5.5,0,11.09.25,16.61.74l3.14.3c6.13.59,12.47,1.2,18.79.24,6.93-1.04,13.22-3.71,19.06-6.36,5.34-2.42,10.55-4.61,15.45-4.87,3.58-.19,6.55.37,9.49.92,1.39.26,2.83.53,4.32.71,6.72.83,15.14.01,23.7-2.29,1.27-.34,2.54-.74,3.82-1.12-2.62.93-5.26,1.86-7.88,2.68ZM478.39,92.19l-2.41-.03c-1.96-.02-4.56-.02-7.21.04-3.08.08-6.48.27-10.02.82,6.59-2.09,13.15-1.89,18.16-1.46,2.11.18,4.11.41,6.02.65-1.52,0-3.02-.02-4.54-.03ZM407.43,109.69c-8.27,2.23-16.37,3.01-22.8,2.23-1.44-.17-2.87-.44-4.25-.7-3.01-.56-6.11-1.15-9.96-.94-5.32.27-10.75,2.56-16.3,5.07-5.69,2.58-11.81,5.18-18.44,6.18-6.05.91-12.24.32-18.23-.26-1.05-.1-2.1-.2-3.14-.29-12.61-1.12-25.4-.98-37.01.41-9.53,1.15-18.5,3.14-26.64,5.93-6.85,2.34-13.1,5.13-19.72,8.09-3.17,1.42-6.45,2.88-9.8,4.3-4.38,1.84-9.01,3.6-13.61,5.35-10.25,3.89-20.85,7.92-30.62,13.57-22.29,12.87-38.15,33.54-52.48,53.61-3.76,5.26-7.49,10.64-11.09,15.84-8.25,11.9-16.04,23.15-24.16,33.15-1.02,1.26-2.05,2.51-3.07,3.73-1.29,1.54-2.57,3.05-3.85,4.56-8.1,9.54-15.76,18.54-21.24,30.96-.7,1.58-1.33,3.15-1.9,4.67-4.83,13.06-5.91,28.06-3.1,43.36,2.61,14.25,9.08,27.49,17.53,36.15-9.24-7.54-16.37-21.53-18.64-36.69-2.16-14.39-.84-28.95,3.81-42.09.53-1.49,1.1-2.98,1.75-4.58,5.33-13.04,12.54-22.65,20.18-32.83l2.25-3c.88-1.19,1.77-2.39,2.66-3.6,5.83-7.92,11.67-16.5,17.85-25.58,5.37-7.89,10.93-16.05,16.61-23.94,13.49-18.74,29.75-39.8,52.15-52.62,8.88-5.08,18.55-8.91,28.01-12.65,5.96-2.36,12.12-4.8,17.86-7.5,4.19-1.98,8.19-4.07,12.11-6.12,5.91-3.09,11.48-6.01,17.63-8.52,8.16-3.34,17.24-5.75,26.98-7.17,6.69-.97,13.69-1.46,20.8-1.46,5.8,0,11.64.33,17.34.98,1.21.14,2.41.29,3.65.44,6.28.78,12.77,1.58,19.28.57,6.93-1.08,13.04-3.89,19.74-7.19,5.08-2.5,10.94-5.17,16.36-5.17,3.84,0,6.91.99,9.91,1.96,1.39.45,2.83.91,4.34,1.27,6.96,1.68,15.93,1.42,25.28-.73.77-.18,1.54-.38,2.31-.57-2.11.66-4.23,1.3-6.32,1.86ZM494.41,91.19c-3.07-.26-5.95-.63-8.85-1.01l-.95-.12c-2.35-.3-4.88-.61-7.51-.83-3.33-.29-7.32-.48-11.58,0,7.34-2.23,14.64-1.3,19.51-.4,2.77.51,5.42,1.14,7.69,1.68l.4.1c.99.24,2,.48,3.02.71-.58-.04-1.17-.08-1.74-.13ZM503.45,90.41c-3.49-.58-6.7-1.36-9.81-2.1l-.36-.09c-2.32-.56-5.02-1.19-7.81-1.71-3.56-.67-8.38-1.32-13.63-.86.17-.05.33-.12.5-.17,6.12-1.82,12.76-1.6,20.89.67,2.76.77,5.35,1.64,8.01,2.56,2.47.85,5,1.72,7.7,2.49-1.89-.25-3.73-.49-5.49-.78ZM414.44,102.61c-9.6,1.89-18.94,1.62-25.62-.74-1.44-.51-2.85-1.14-4.21-1.76-3.25-1.47-6.61-2.98-11.15-3.2-6.11-.33-12.51,2.58-18.48,5.75-6.16,3.26-12.53,6.64-19.68,7.78-6.35,1.02-12.85.04-19.13-.9l-.34-.05c-1.26-.19-2.51-.37-3.76-.54-13.38-1.83-27.38-1.63-40.47.57-10.34,1.74-19.9,4.67-28.42,8.71-5.88,2.78-11.14,5.93-16.74,9.29-4.29,2.57-8.72,5.23-13.44,7.68-6.68,3.46-13.71,6.32-21.22,9.37-8.89,3.61-18.08,7.35-26.63,12.2-20.98,11.9-36.48,29.78-53.31,52.96-9.01,12.41-17.44,25.31-25.67,37.89-2.77,4.24-5.4,8.26-7.98,12.14l-2.59,3.93c-7.37,11.13-14.32,21.64-20,36.69-.64,1.68-1.19,3.22-1.69,4.7-.57,1.67-1.08,3.36-1.56,5.05.4-1.42.82-2.85,1.27-4.27.45-1.39.95-2.88,1.57-4.67,5-14.46,10.32-24.83,17.27-36.86.76-1.32,1.54-2.66,2.34-4.01,11.92-20.1,22.62-36.58,32.71-50.36,14.32-19.57,30.64-39.42,52.98-51.98,8.08-4.54,16.82-8.16,25.27-11.66,8.23-3.41,16.75-6.93,24.39-11.23,5.2-2.94,9.97-6.17,14.61-9.31,5.28-3.57,10.26-6.95,15.86-9.94,8.48-4.55,18.11-7.87,28.64-9.86,7.33-1.39,14.93-2.09,22.58-2.09,6.34,0,12.67.49,18.81,1.45,1.46.23,2.95.49,4.45.75,6.66,1.15,13.54,2.35,20.47,1.21,7.6-1.25,14.2-4.97,20.58-8.57l.5-.28c5.62-3.17,12.18-6.33,18.19-5.79,4.34.39,7.57,2.25,10.7,4.05,1.41.81,2.88,1.65,4.45,2.37,7.27,3.33,17.62,4.2,28.41,2.4,1.71-.29,3.43-.63,5.14-1-3.03.79-6.09,1.54-9.11,2.14ZM49.16,348.18c1.64,14.11,7.74,27.38,15.97,35.32-10.29-7.66-15.93-23.11-16.97-35.59-.97-11.67.45-24.53,4.09-37.46-3.46,12.44-4.54,25.38-3.1,37.73ZM520.9,91.42c-2.94-.55-5.72-1.07-8.38-1.7-3.79-.92-7.23-2.11-10.55-3.25-2.68-.92-5.31-1.81-8.11-2.59-5.67-1.59-10.66-2.19-15.3-1.87.3-.09.59-.21.9-.3,6.5-1.84,13.7-1.25,22.02,1.79,2.79,1.01,5.39,2.14,8.26,3.41,3.3,1.45,7.03,3.1,11.19,4.4.38.12.76.22,1.14.33-.39-.07-.79-.15-1.18-.22ZM418.01,99.15c-10.34,1.73-20.19.92-27.04-2.22-1.45-.66-2.85-1.46-4.26-2.27-3.35-1.92-6.81-3.91-11.66-4.35-6.67-.6-13.63,2.73-19.56,6.08l-.5.28c-6.2,3.5-12.61,7.12-19.8,8.3-6.54,1.07-13.23-.09-19.72-1.21-1.46-.25-2.97-.51-4.45-.75-13.86-2.17-28.45-1.95-42.2.66-10.76,2.04-20.62,5.44-29.31,10.1-5.68,3.04-10.96,6.61-16.1,10.09-4.58,3.1-9.31,6.29-14.42,9.18-7.5,4.22-15.55,7.56-24.14,11.11-8.52,3.52-17.33,7.17-25.53,11.78-22.73,12.78-39.25,32.85-53.72,52.64-10.13,13.84-20.87,30.38-32.84,50.55-.8,1.36-1.59,2.7-2.35,4.03-7.02,12.16-12.39,22.64-17.46,37.27-.41,1.19-.76,2.23-1.09,3.21.22-.72.45-1.44.67-2.15l.09-.29c4.94-15.67,8.95-25.84,14.78-37.51.67-1.34,1.37-2.72,2.09-4.09,9.01-17.12,20.31-35.15,31.84-50.77,13.54-18.37,30.48-38.87,53.39-51.66,7.85-4.38,16.32-7.93,24.51-11.36,9.18-3.85,18.67-7.82,27.05-12.9,5.55-3.38,10.55-7.15,15.41-10.8,4.9-3.69,9.96-7.5,15.43-10.75,8.5-5.08,18.69-8.95,29.47-11.21,7.64-1.6,15.54-2.41,23.47-2.41,6.62,0,13.19.57,19.55,1.69,1.58.28,3.19.59,4.76.9,6.87,1.35,13.98,2.74,21.15,1.53,7.7-1.29,14.31-5.24,20.71-9.07l1.04-.62c5.5-3.28,12.64-6.93,19.12-6.1,4.58.59,7.89,2.88,11.09,5.1,1.43.99,2.92,2.02,4.52,2.91,7.47,4.16,18.39,5.6,29.95,3.97,2.4-.34,4.82-.79,7.23-1.27-3.72.9-7.48,1.75-11.18,2.37ZM45.82,348.1c.63,7.54,2.77,15.39,6.02,22.08,2.54,5.23,5.67,9.59,9.19,12.91-10.22-7.38-15.53-22.98-16.15-35.17-.49-9.65.66-20.11,3.46-31.71-2.49,11.02-3.36,21.87-2.53,31.88ZM421.64,95.71c-11.07,1.56-21.45.21-28.48-3.7-1.48-.82-2.91-1.81-4.33-2.79-3.43-2.38-6.98-4.84-12.13-5.5-7.2-.92-14.8,2.94-20.63,6.41l-1.04.62c-6.2,3.71-12.62,7.54-19.89,8.76-6.74,1.13-13.63-.21-20.3-1.52-1.57-.31-3.2-.63-4.8-.91-14.34-2.53-29.53-2.28-43.92.73-11.03,2.31-21.47,6.28-30.19,11.49-5.57,3.32-10.69,7.17-15.64,10.89-4.79,3.61-9.75,7.34-15.21,10.67-8.21,4.98-17.2,8.75-26.77,12.76-8.24,3.46-16.76,7.03-24.71,11.46-23.3,13-40.44,33.74-54.14,52.31-11.59,15.72-22.97,33.86-32.03,51.08-.73,1.39-1.44,2.78-2.11,4.13-5.89,11.79-9.93,22.05-14.92,37.85l-.15.48c-.16.51-.32,1.04-.49,1.56l.38-1.32c.6-2.11,1.18-4.15,1.73-6.11l.09-.33c3.31-11.75,5.92-21.04,10.46-31.71.59-1.38,1.21-2.78,1.84-4.17,7.39-16,18.68-34.66,30.97-51.19,24.12-32.45,41.42-44.48,53.8-51.33,7.69-4.26,15.96-7.75,23.99-11.15,10.05-4.25,20.45-8.65,29.45-14.49,5.86-3.81,11.04-8.11,16.09-12.29,4.78-3.96,9.73-8.06,15.1-11.57,8.64-5.67,19.12-10.01,30.31-12.56,14.7-3.34,30.14-3.62,44.66-.8,1.67.32,3.37.69,5.06,1.05,7.09,1.53,14.42,3.11,21.83,1.85,7.83-1.34,14.48-5.53,20.92-9.58l1.49-.94c5.26-3.3,13.07-7.55,20.06-6.41,4.82.78,8.21,3.51,11.49,6.15,1.38,1.12,2.95,2.38,4.61,3.45,7.67,4.98,19.14,7,31.49,5.54,3.16-.37,6.34-.91,9.49-1.51-4.46,1.01-8.99,1.97-13.44,2.6ZM42.53,348.05c.39,7.63,2.4,15.58,5.66,22.38,2.33,4.87,5.2,8.93,8.45,12.04-7.69-5.83-14.7-18.48-14.99-34.5-.18-9.87,1.48-19.83,3.69-29.14-2.32,10.57-3.26,20.23-2.81,29.23ZM425.31,92.29c-11.81,1.39-22.72-.49-29.93-5.18-1.52-.98-2.98-2.15-4.41-3.31-3.52-2.83-7.15-5.76-12.59-6.64-7.77-1.27-16.1,3.24-21.69,6.74l-1.5.94c-6.24,3.93-12.69,7.99-20.06,9.25-6.97,1.2-14.07-.34-20.94-1.82-1.67-.36-3.41-.74-5.11-1.07-14.84-2.88-30.62-2.6-45.63.82-11.45,2.61-22.2,7.06-31.07,12.88-5.5,3.6-10.51,7.74-15.35,11.76-4.96,4.11-10.09,8.36-15.83,12.1-8.84,5.73-19.14,10.09-29.12,14.31-8.06,3.41-16.4,6.93-24.18,11.24-12.59,6.97-30.16,19.17-54.55,51.99-12.39,16.66-23.76,35.47-31.22,51.61-.65,1.41-1.28,2.83-1.87,4.23-4.6,10.81-7.23,20.17-10.56,32.01l-.08.3c-.55,1.97-1.13,4-1.73,6.12-.06.22-.13.45-.19.67,0,0,0,0,0,0,1.4-5.47,2.46-10.33,3.49-15.05,1.75-8.02,3.4-15.59,6.29-23.75.5-1.41,1.03-2.84,1.59-4.25,6.24-15.58,17.21-34.39,30.1-51.6,12.58-16.8,30.11-37.77,54.22-51.01,7.57-4.16,15.71-7.62,23.58-10.97,10.89-4.63,22.15-9.42,31.74-16.03,6.11-4.22,11.44-9.04,16.6-13.7,4.72-4.26,9.6-8.67,14.95-12.47,8.79-6.26,19.55-11.07,31.14-13.9,15.29-3.73,31.3-4.04,46.3-.88,1.78.37,3.59.8,5.34,1.21,7.31,1.72,14.88,3.5,22.54,2.16,7.99-1.4,14.7-5.83,21.2-10.11l1.88-1.24c5.46-3.58,13.58-8.17,21.01-6.72,5.07.98,8.53,4.15,11.9,7.22,1.48,1.35,3.01,2.75,4.68,3.98,7.85,5.79,19.88,8.37,33.01,7.1,4.19-.41,8.41-1.1,12.62-1.88-5.46,1.15-11.07,2.3-16.56,2.95ZM42.26,321.79c-1.83,8.45-3.11,17.36-2.95,26.22.14,7.71,2.02,15.76,5.3,22.68,2.16,4.57,4.82,8.36,7.83,11.29-7.52-5.81-14.19-18.25-13.96-33.97.12-8.68,1.7-17.48,3.79-26.22ZM122.18,448.74c4.26,6.51,7.39,11.98,9.86,17.19,5.13,10.84,8.67,22.21,11.49,36.85,1.57,8.15,2.76,16.65,3.92,24.89,1.11,7.88,2.25,16.03,3.75,24.1l.26,1.4c1.3,7.09,2.77,15.12,7.45,19.72.97.96,2.03,1.56,3.13,1.96-2.96.24-5.54.21-7.72-1.75-4.49-4.05-5.95-12.06-7.25-19.14l-.12-.66c-1.66-9.08-2.82-18.3-3.93-27.21-.92-7.31-1.86-14.87-3.07-22.18-2.52-15.17-5.7-26.9-10.31-38.03-2.3-5.56-5.23-11.29-9.21-18.04-3.84-6.51-7.66-12.51-11.52-18.08,5.22,6.92,9.66,13.46,13.26,18.97ZM464.32,82.98c-.12.01-.24.03-.36.05.38-.06.74-.11,1.12-.17-.26.04-.5.09-.76.12ZM429.03,88.87c-12.55,1.22-23.99-1.21-31.39-6.66-1.57-1.15-3.05-2.51-4.51-3.83-3.59-3.28-7.31-6.68-13.02-7.78-8.26-1.59-16.93,3.27-22.74,7.07l-1.89,1.24c-6.29,4.15-12.79,8.44-20.3,9.76-7.19,1.25-14.51-.47-21.62-2.14-1.76-.41-3.58-.84-5.37-1.22-15.35-3.24-31.72-2.93-47.34.9-11.88,2.91-22.92,7.84-31.95,14.27-5.46,3.88-10.39,8.33-15.17,12.65-5.1,4.6-10.36,9.36-16.35,13.5-9.4,6.47-20.55,11.22-31.35,15.81-7.92,3.37-16.11,6.86-23.77,11.07-24.5,13.46-42.24,34.68-54.97,51.67-13.2,17.62-24,36.13-30.4,52.14-.57,1.44-1.12,2.9-1.63,4.33-2.94,8.31-4.6,15.96-6.37,24.05-1.02,4.69-2.09,9.54-3.47,14.95-.02.09-.05.18-.07.27,1.5-6.7,2.36-12.61,3.19-18.33,1.01-6.99,1.97-13.58,4.01-20.74.41-1.43.86-2.89,1.35-4.33,5.33-15.63,15.71-34.1,29.24-52.01,18.3-24.24,35.66-40.35,54.63-50.7,7.47-4.07,15.51-7.51,23.36-10.87,11.67-4.99,23.73-10.15,33.85-17.5,6.35-4.63,11.8-9.95,17.11-15.15,4.66-4.55,9.48-9.26,14.8-13.33,8.92-6.85,19.98-12.12,31.98-15.25,15.64-4.07,32.67-4.41,47.94-.96,1.86.42,3.77.9,5.61,1.37,7.54,1.91,15.34,3.9,23.25,2.48,8.16-1.45,14.95-6.13,21.51-10.65l2.22-1.53c8.88-6.04,16.06-8.35,21.96-7.04,5.31,1.18,8.86,4.78,12.28,8.27,1.51,1.54,3.07,3.13,4.78,4.52,8.05,6.6,20.64,9.76,34.53,8.66,4.8-.38,9.63-1.12,14.4-1.94-6.03,1.18-12.24,2.37-18.32,2.97ZM39.33,324.06c-1.79,7.95-3.1,15.96-3.21,23.92-.11,7.67,1.69,16.05,4.93,22.98,1.65,3.52,4.18,7.74,7.8,11.15-3.62-2.62-6.8-6.65-9.19-11.82-3.11-6.72-4.7-14.81-4.35-22.18.37-7.94,2.02-16.03,4.02-24.04ZM118.41,449.04c3.92,6.65,6.8,12.29,9.06,17.74,4.55,10.96,7.68,22.53,10.17,37.52,1.2,7.27,2.15,14.8,3.06,22.09,1.12,8.94,2.28,18.19,3.95,27.33l.12.67c1.36,7.44,2.9,15.87,7.99,20.46.95.85,1.96,1.4,3,1.78-2.88.31-5.43.24-7.63-1.59-4.86-4.03-6.36-12.37-7.69-19.73-1.83-10.14-2.95-20.42-4.03-30.37-.69-6.38-1.41-12.98-2.3-19.4-2.17-15.56-4.93-27.49-8.95-38.66-2.07-5.74-4.82-11.83-8.4-18.6-3.85-7.28-7.81-14.01-11.89-20.21,4.54,6.36,9.04,13.3,13.56,20.97ZM37.22,322.82c-2.1,8.34-3.87,16.8-4.26,25.16-.36,7.74,1.3,16.23,4.57,23.28,1.8,3.89,4.03,7.2,6.56,9.82-8.37-6.77-12.87-21.11-11.92-33.14.66-8.32,2.77-16.81,5.05-25.12ZM114.66,449.38c3.53,6.67,6.24,12.65,8.27,18.29,3.96,11.02,6.69,22.8,8.84,38.19.88,6.35,1.6,12.91,2.3,19.33,1.09,9.99,2.21,20.32,4.05,30.53,1.4,7.76,2.99,16.54,8.5,21.12.76.63,1.57,1.08,2.39,1.42-2.61.27-4.96.09-7.07-1.53-4.82-3.7-6.54-11.41-8.01-19.66-1.99-11.19-3.03-22.55-4.03-33.54-.5-5.45-1.01-11.08-1.64-16.61-1.82-16.02-4.16-28.13-7.59-39.29-1.85-6-4.33-12.27-7.59-19.16-3.17-6.7-6.48-12.92-9.93-18.71,3.95,6.03,7.79,12.56,11.53,19.62ZM436.52,81.89c-14.03.86-26.55-2.65-34.33-9.63-1.66-1.48-3.2-3.21-4.7-4.88-3.74-4.18-7.61-8.5-13.87-10.04-6.92-1.72-15.05.81-24.84,7.72l-2.55,1.82c-6.43,4.61-13.09,9.38-20.91,10.79-7.64,1.38-15.42-.72-22.95-2.75l-.2-.05c-1.88-.51-3.82-1.03-5.73-1.49-16.14-3.88-34.17-3.51-50.76,1.06-12.73,3.51-24.38,9.41-33.69,17.05-5.45,4.47-10.3,9.56-15.01,14.5-5.3,5.57-10.79,11.33-17.19,16.23-7.15,5.46-15.4,9.73-23.86,13.6,7.66-3.7,15.06-7.86,21.57-13.07,6.77-5.43,12.41-11.76,17.88-17.9,4.61-5.18,9.38-10.53,14.73-15.19,9.2-8.03,20.85-14.24,33.67-17.95,16.78-4.86,34.97-5.25,51.23-1.12,1.98.5,4,1.08,6.12,1.68,8.01,2.29,16.29,4.65,24.71,3.11,8.53-1.57,15.5-6.74,22.23-11.75l.31-.23c.84-.62,1.67-1.24,2.51-1.85,9.38-6.84,17.41-9.42,23.88-7.68,5.81,1.57,9.51,6.06,13.09,10.4,1.56,1.9,3.18,3.86,4.98,5.6,8.03,7.8,21.41,12.17,36.04,11.82-.79.07-1.58.16-2.37.21ZM32.17,333.12c-1.1,4.87-1.97,9.77-2.35,14.63-.62,7.81.91,16.4,4.2,23.58,2.72,5.94,6.46,10.46,10.81,13.16-11.24-4.45-17.33-21.74-15.78-35.69.58-5.2,1.75-10.46,3.13-15.68ZM110.94,449.48c3.21,6.79,5.66,12.96,7.47,18.85,3.39,11.01,5.7,23,7.5,38.87.62,5.43,1.13,11.03,1.63,16.57,1.01,11.03,2.05,22.44,4.05,33.72,1.55,8.72,3.4,16.9,8.89,21.11,1.45,1.11,3,1.69,4.59,1.94-3.48.65-6.57.87-9.33-1.09-5.16-3.67-7.01-12.04-8.33-19.6-2.15-12.24-3.05-24.68-3.93-36.72-.33-4.54-.67-9.23-1.07-13.81-1.47-16.77-3.33-28.71-6.24-39.92-1.62-6.27-3.84-12.72-6.78-19.73-5.32-12.67-11.25-23.66-17.89-33.15,7.01,9.4,13.46,20.32,19.43,32.95ZM440.29,79.3c-14.57.67-27.95-3.49-35.8-11.12-1.71-1.66-3.28-3.57-4.8-5.41-3.81-4.62-7.75-9.4-14.28-11.17-7.18-1.95-15.89.76-25.88,8.04-.93.68-1.86,1.37-2.84,2.1-6.52,4.84-13.26,9.85-21.26,11.32-7.88,1.45-15.89-.84-23.79-3.1-1.98-.57-4.02-1.15-6.03-1.66-16.66-4.24-35.29-3.83-52.46,1.14-13.15,3.81-25.1,10.18-34.56,18.44-5.48,4.77-10.3,10.18-14.98,15.43-5.39,6.05-10.96,12.3-17.57,17.6-7.71,6.16-16.75,10.86-26.02,15.08,8.49-4.08,16.68-8.7,23.79-14.62,6.96-5.82,12.68-12.64,18.22-19.25,4.6-5.5,9.37-11.18,14.76-16.15,9.34-8.62,21.28-15.29,34.52-19.3,17.34-5.25,36.12-5.67,52.88-1.2,2.06.55,4.16,1.18,6.37,1.84,8.24,2.48,16.76,5.04,25.44,3.42,8.72-1.62,15.79-7.05,22.62-12.3,1.03-.79,2.06-1.58,3.09-2.36,9.7-7.29,18.05-9.97,24.84-7.99,6.06,1.77,9.83,6.7,13.49,11.46,1.59,2.08,3.24,4.23,5.08,6.14,8.49,8.85,23.07,13.83,39.02,13.33-1.28.11-2.56.22-3.83.28ZM125.44,151.78c-19.85,10.67-38.23,27.25-56.21,50.69-14.38,18.73-24.3,37.82-27.95,53.73-.35,1.54-.65,3.11-.89,4.65-1.03,6.61-1,12.6-.97,18.95.03,6.15.05,12.5-.96,19.59.67-7.17.17-13.6-.32-19.84-.48-6.12-.93-11.89-.33-18.19.15-1.52.35-3.05.62-4.57,2.76-15.67,12.23-34.57,26.67-53.23,17.62-22.8,35.9-39.06,55.87-49.73,3.88-2.07,7.9-3.99,11.96-5.83-2.53,1.21-5.04,2.45-7.5,3.76ZM107.24,450.59c2.9,6.91,5.08,13.26,6.68,19.41,2.86,11.07,4.71,22.89,6.17,39.54.4,4.56.74,9.24,1.07,13.77.88,12.09,1.79,24.6,3.96,36.96,1.41,8.02,3.4,16.92,9.29,21.1,1.42,1.01,2.93,1.53,4.47,1.78-3.35.66-6.49.82-9.26-1.01-5.23-3.46-7.25-11.43-8.66-19.53-2.31-13.32-3.03-26.87-3.72-39.97-.19-3.59-.39-7.31-.61-10.94-.8-12.91-1.95-26.76-4.88-40.55-1.38-6.52-3.34-13.16-5.97-20.29-4.8-12.98-10.38-24.22-16.82-33.88,6.81,9.55,12.88,20.69,18.3,33.61ZM444.08,76.68c-15.33.49-29.24-4.23-37.28-12.61-1.73-1.8-3.33-3.88-4.91-5.94-3.88-5.07-7.9-10.3-14.69-12.29-7.54-2.21-16.59.61-26.91,8.37-1.04.78-2.07,1.57-3.12,2.38-6.61,5.08-13.45,10.33-21.61,11.85-8.11,1.51-16.36-.97-24.33-3.37-2.11-.64-4.29-1.29-6.44-1.87-17.17-4.59-36.41-4.16-54.17,1.22-13.58,4.11-25.83,10.97-35.43,19.82-5.49,5.06-10.29,10.79-14.97,16.37-5.46,6.52-11.11,13.27-17.91,18.95-11.3,9.42-25.54,15.55-39.37,21.49-7.68,3.31-15.62,6.73-23.08,10.71-20.27,10.83-38.79,27.3-56.63,50.37-14.66,18.96-24.3,38.23-27.12,54.26-.27,1.58-.49,3.18-.64,4.75-.62,6.49-.16,12.36.32,18.6.52,6.7,1.05,13.62.1,21.39.6-7.89-.43-14.91-1.45-21.72-.91-6.07-1.77-11.8-1.52-18.06.05-1.5.18-3.07.38-4.64,1.98-15.77,11.14-34.82,25.82-53.64,17.47-22.42,35.88-38.59,56.29-49.41,7.37-3.91,15.26-7.31,22.93-10.61,14.64-6.31,29.78-12.83,41.78-23.22,7.14-6.2,12.93-13.52,18.57-20.64,4.59-5.81,9.34-11.81,14.76-17.07,9.48-9.21,21.71-16.35,35.37-20.65,17.9-5.64,37.27-6.09,54.53-1.28,2.2.61,4.44,1.32,6.61,2,8.48,2.66,17.24,5.42,26.17,3.74,8.92-1.68,16.1-7.37,23.08-12.9,1.1-.87,2.19-1.73,3.29-2.58,10.01-7.73,18.7-10.53,25.81-8.31,6.31,1.97,10.16,7.34,13.89,12.53,1.62,2.26,3.3,4.6,5.18,6.68,8.68,9.63,23.89,15.21,40.55,14.88,1.84-.04,3.68-.13,5.53-.26-3.13.33-6.26.6-9.36.7ZM103.56,451.67c2.6,7.02,4.52,13.55,5.88,19.96,2.9,13.65,4.04,27.39,4.83,40.21.22,3.59.42,7.27.61,10.93.7,13.17,1.42,26.78,3.75,40.23,1.49,8.62,3.7,17.14,9.68,21.09,1.26.83,2.56,1.31,3.88,1.58-3.12.58-6.07.61-8.72-1.02-5.57-3.43-7.67-11.77-8.98-19.47-2.46-14.41-2.94-29.09-3.4-43.28v-.38c-.09-2.55-.18-5.09-.27-7.63-.58-15.58-1.4-28.55-3.53-41.18-1.13-6.7-2.87-13.71-5.17-20.85-4.2-13.01-9.43-24.48-15.65-34.33,6.56,9.67,12.22,20.99,17.09,34.14ZM155.15,584.82c4.65,2.68,6.28,8.8,7.86,14.72l.08.28c.2.76.4,1.51.61,2.25,3.73,13.22,12.59,24.89,24.95,32.85,12.19,7.85,26.33,11.23,39.83,9.52,5.04-.64,9.88-2.01,14.38-4.06.98-.44,1.96-.92,2.93-1.4,2.83-1.38,5.75-2.81,8.79-3.38,4.68-.88,9.42.23,14.01,1.31,6.78,1.58,13.61,3.85,20.27,6.06,3.85,1.28,7.62,2.52,11.36,3.65-3.93-1.04-7.9-2.11-11.92-3.21-5.93-1.61-12.07-3.28-18.18-4.83-3.6-.91-7.68-1.95-11.8-1.95-1.35,0-2.66.11-3.89.34-3.54.65-6.77,2.25-9.9,3.8-.95.47-1.94.96-2.91,1.41-4.48,2.08-9.3,3.47-14.33,4.14-2.43.32-4.86.48-7.29.48-25.98,0-51.06-17.99-57.97-42.77-.23-.85-.46-1.71-.69-2.58-1.77-6.71-3.59-13.64-9.43-16.87-.86-.48-1.74-.79-2.62-1.04,2.05-.09,4.03.2,5.86,1.25ZM492.3,69.34c-1.97.1-3.92.26-5.82.43,2.86-.32,6.23-.65,9.67-.84-1.25.19-2.53.34-3.85.4ZM447.87,73.88c-16.03.25-30.53-4.98-38.76-14.1-1.79-1.99-3.43-4.27-5.02-6.48-3.95-5.5-8.03-11.19-15.09-13.4-7.89-2.46-17.29.46-27.94,8.69-1.08.83-2.15,1.68-3.36,2.64-6.71,5.32-13.65,10.82-22,12.39-8.35,1.58-16.83-1.09-25.04-3.67-2.19-.69-4.46-1.4-6.68-2.02-17.69-4.94-37.53-4.48-55.87,1.3-14,4.41-26.55,11.75-36.3,21.21-5.54,5.37-10.35,11.45-14.99,17.33-5.53,7-11.26,14.23-18.23,20.29-11.72,10.15-26.69,16.6-41.17,22.84-7.67,3.3-15.61,6.72-23.1,10.7-20.7,10.98-39.36,27.35-57.04,50.04-8.65,11.09-23.56,32.96-26.29,54.8-.2,1.65-.34,3.29-.39,4.85-.26,6.47.66,12.58,1.55,18.49,1.08,7.24,2.2,14.73,1.26,23.16.64-8.73-1.02-16.43-2.65-23.89-1.27-5.79-2.57-11.77-2.68-18.01-.03-1.52.01-3.12.13-4.73.86-11.25,5.89-29.77,24.97-54.05,17.07-21.74,36.15-38.25,56.7-49.09,7.37-3.88,15.24-7.28,22.94-10.6,15.35-6.61,31.23-13.46,43.65-24.6,7.33-6.59,13.18-14.4,18.85-21.96,4.6-6.14,9.36-12.49,14.83-18.05,9.62-9.79,22.14-17.4,36.21-22.01,18.47-6.04,38.42-6.52,56.18-1.36,2.27.66,4.6,1.42,6.84,2.16,8.71,2.86,17.73,5.8,26.92,4.05,9.12-1.74,16.4-7.68,23.45-13.42l.22-.18c1.12-.91,2.24-1.82,3.36-2.71,12.87-10.19,21.66-10.32,26.78-8.62,6.56,2.17,10.48,7.98,14.29,13.6,1.65,2.44,3.36,4.96,5.28,7.21,8.79,10.31,24.29,16.43,41.54,16.43.17,0,.34,0,.51,0,6.43-.04,12.94-.69,19.34-1.45-7.63,1.03-15.48,2.07-23.16,2.22ZM24.35,335.11c-1.57,4.87-2.99,9.81-3.85,14.78-1.82,10.45.82,22.73,6.56,30.56,1.2,1.64,2.53,3.05,3.94,4.23-.03.01-.06.02-.09.03-1.96-1.2-3.77-2.89-5.36-5.02-5.44-7.3-7.83-19.25-5.82-29.06,1.06-5.19,2.79-10.4,4.63-15.52ZM99.88,452.58c2.27,7.03,3.98,13.94,5.09,20.52,2.11,12.51,2.92,25.39,3.5,40.88.1,2.66.18,5.33.27,8.01.46,14.27.94,29.02,3.43,43.59,1.4,8.22,3.7,17.16,10.07,21.08,1,.61,2.02,1,3.05,1.28-2.82.43-5.49.33-7.95-1.08-5.92-3.4-8.09-12.16-9.31-19.41-2.62-15.54-2.79-31.38-2.95-46.7l-.05-4.97c-.18-14.92-.48-28.37-2.17-41.82-.88-6.97-2.35-14.18-4.36-21.41-3.15-11.33-7.16-21.49-12-30.45,5.24,8.92,9.72,19.09,13.39,30.48ZM501.24,66.2c-1.08.14-2.17.25-3.31.3-4.86.19-9.74.71-13.46,1.14-2.57.3-5.18.63-7.71.95-8.23,1.05-16.75,2.12-25.09,2.19h-.49c-16.57,0-31.43-5.83-39.76-15.6-1.84-2.16-3.51-4.62-5.12-7.01-4.02-5.95-8.18-12.1-15.5-14.52-10.26-3.4-21.42,3.03-28.97,9.01-1.13.9-2.26,1.82-3.39,2.74l-.21.17c-6.82,5.56-13.86,11.3-22.4,12.94-8.59,1.64-17.31-1.22-25.74-3.98-2.27-.74-4.61-1.51-6.92-2.18-18.21-5.29-38.65-4.8-57.57,1.38-14.43,4.72-27.28,12.53-37.16,22.59-5.58,5.67-10.38,12.07-15.04,18.29-5.6,7.47-11.38,15.19-18.54,21.62-12.13,10.89-27.82,17.65-43.01,24.2-7.68,3.31-15.61,6.73-23.1,10.67-20.85,10.99-40.18,27.71-57.45,49.72-19.45,24.75-24.58,43.75-25.46,55.33-.13,1.69-.17,3.36-.14,4.95.11,6.47,1.44,12.57,2.73,18.46,1.64,7.51,3.34,15.26,2.56,23.98,0,0,0,.01,0,.02.48-9.09-1.79-17.1-4.01-24.86-1.66-5.79-3.37-11.79-3.81-18.04-.12-1.56-.15-3.18-.1-4.81.33-11.36,4.78-30.03,24.12-54.46,16.91-21.37,36.13-37.77,57.12-48.77,7.39-3.87,15.28-7.27,22.97-10.59,16.05-6.92,32.65-14.07,45.48-25.98,7.5-6.97,13.42-15.27,19.14-23.3,4.6-6.46,9.36-13.13,14.89-19.01,9.76-10.39,22.58-18.46,37.07-23.36,19.02-6.43,39.56-6.94,57.83-1.44,2.35.71,4.76,1.53,7.08,2.32,8.95,3.04,18.2,6.19,27.66,4.37,9.33-1.8,16.73-8,23.94-14.04,1.23-1.03,2.49-2.09,3.74-3.1,7.32-5.94,18.08-12.32,27.75-8.94,6.81,2.37,10.82,8.62,14.69,14.68,1.68,2.62,3.42,5.33,5.38,7.75,9.06,11.18,25.34,17.89,43.55,17.97,8.9,0,17.78-1.03,26.43-2.05,2.6-.31,5.29-.63,7.92-.91,3.28-.35,7.46-.76,11.74-.96-.11.06-.22.12-.33.18ZM21.62,335.79c-1.66,4.73-3.21,9.53-4.2,14.37-2.14,10.42.43,23.14,6.24,30.94,1.16,1.56,2.45,2.89,3.81,4.02-1.95-1.14-3.75-2.76-5.33-4.84-5.58-7.37-7.85-19.44-5.5-29.37,1.2-5.07,3.05-10.14,4.98-15.12ZM507.18,63.29c-1.17.15-2.37.26-3.61.29-5.06.15-10.13.64-13.99,1.05-2.66.29-5.36.6-7.98.92l-.24.03c-8.5,1.01-17.26,2.02-25.87,2-17.51-.07-33.11-6.47-41.73-17.1-1.89-2.32-3.59-4.98-5.23-7.54-4.09-6.38-8.32-12.99-15.9-15.63-10.7-3.72-22.22,3.02-30,9.34-1.2.97-2.4,1.98-3.58,2.97l-.25.21c-6.92,5.8-14.08,11.79-22.81,13.48-8.84,1.72-17.79-1.34-26.55-4.32-2.32-.79-4.71-1.6-7.07-2.31-18.73-5.64-39.77-5.13-59.26,1.46-14.86,5.02-28.01,13.31-38.03,23.97-5.62,5.98-10.43,12.72-15.09,19.26-5.65,7.93-11.5,16.14-18.83,22.95-12.53,11.63-28.94,18.7-44.81,25.54-7.68,3.31-15.63,6.73-23.13,10.66-21.28,11.15-40.75,27.77-57.87,49.39-19.74,24.94-24.29,44.14-24.63,55.86-.05,1.71,0,3.41.11,5.05.46,6.5,2.21,12.61,3.9,18.54,2.2,7.68,4.47,15.63,3.91,24.49,0,.01,0,.03,0,.04.28-9.32-2.6-17.55-5.4-25.52-2.05-5.83-4.16-11.85-4.94-18.15-.2-1.6-.32-3.24-.35-4.9-.19-11.48,3.69-30.32,23.28-54.88,16.75-20.99,36.1-37.29,57.53-48.45,7.43-3.87,15.36-7.28,23.03-10.59,16.75-7.21,34.07-14.67,47.29-27.34,7.67-7.35,13.64-16.14,19.42-24.64,4.61-6.78,9.38-13.8,14.95-19.98,9.9-10.98,23.01-19.52,37.92-24.71,19.59-6.83,40.71-7.37,59.49-1.52,2.39.74,4.84,1.6,7.31,2.48,9.19,3.24,18.69,6.58,28.4,4.69,9.54-1.86,17.05-8.31,24.33-14.56,1.31-1.12,2.66-2.29,4-3.4,7.54-6.25,18.64-12.93,28.72-9.26,7.07,2.57,11.15,9.27,15.12,15.78,1.7,2.79,3.47,5.68,5.46,8.26,9.25,11.95,26.09,19.24,45.04,19.52,9.12.11,18.38-.89,27.42-1.89,2.7-.3,5.49-.61,8.24-.88,5.09-.5,9.14-.79,12.88-.92-.22.09-.42.18-.64.28ZM18.78,336.64c-1.72,4.5-3.33,9.09-4.43,13.72-2.49,10.56-.06,23.45,5.92,31.33.97,1.28,2.01,2.39,3.12,3.36-1.7-1.07-3.27-2.49-4.67-4.31-5.62-7.32-7.79-19.77-5.16-29.62,1.3-4.87,3.23-9.72,5.22-14.48ZM515.09,60.06c-1.88.32-3.84.52-5.89.56-4.23.1-8.7.4-14.51.97-2.71.27-5.46.57-8.27.88-8.91.99-18.14,1.99-27.13,1.88-18.25-.27-34.4-7.22-43.22-18.6-1.92-2.48-3.65-5.32-5.34-8.09-4.16-6.82-8.46-13.87-16.29-16.72-11.12-4.05-23.01,3.02-31.03,9.66-1.32,1.1-2.66,2.24-4.06,3.44-7.03,6.04-14.3,12.28-23.22,14.01-9.08,1.79-18.28-1.46-27.17-4.59-2.42-.85-4.91-1.73-7.39-2.5-19.25-5.99-40.9-5.45-60.96,1.54-15.28,5.33-28.73,14.1-38.89,25.36-5.67,6.28-10.48,13.36-15.16,20.24-5.71,8.4-11.61,17.08-19.1,24.26-12.92,12.37-30.05,19.75-46.67,26.91-7.68,3.31-15.63,6.73-23.11,10.63-21.72,11.31-41.33,27.82-58.28,49.07-20.03,25.1-23.99,44.52-23.79,56.38.03,1.75.15,3.48.36,5.14.81,6.55,2.97,12.7,5.05,18.65,2.75,7.85,5.6,15.96,5.27,24.96,0,.02,0,.03,0,.05.06-9.52-3.42-17.95-6.8-26.11-2.43-5.88-4.95-11.95-6.05-18.31-.28-1.62-.48-3.3-.58-4.98-.71-11.61,2.61-30.63,22.44-55.29,16.51-20.54,36.01-36.73,57.94-48.12,7.41-3.82,15.3-7.21,22.92-10.49,17.5-7.53,35.6-15.32,49.27-28.8,7.84-7.73,13.87-17.01,19.7-25.98,4.62-7.11,9.41-14.47,15.03-20.95,10.04-11.56,23.44-20.58,38.77-26.07,20.14-7.22,41.86-7.79,61.14-1.59,2.54.82,5.2,1.78,7.55,2.63,9.42,3.42,19.17,6.97,29.14,4.99,9.75-1.92,17.38-8.62,24.76-15.11,1.39-1.22,2.82-2.48,4.23-3.67,6.35-5.37,18.66-13.77,29.7-9.58,7.32,2.77,11.48,9.91,15.5,16.83,1.74,2.98,3.53,6.07,5.58,8.83,9.44,12.71,26.84,20.58,46.54,21.06,9.46.23,19.08-.76,28.44-1.73,2.79-.29,5.68-.59,8.52-.85,5.96-.54,10.54-.82,14.86-.88.17,0,.34-.02.52-.02-.1.04-.21.08-.31.12ZM15.91,337.41c-1.77,4.29-3.44,8.67-4.63,13.1-2.8,10.5-.46,23.81,5.57,31.66.88,1.14,1.82,2.14,2.81,3.03-1.59-1.01-3.06-2.36-4.38-4.05-5.74-7.39-7.77-19.95-4.81-29.87,1.39-4.68,3.38-9.33,5.43-13.88ZM514.85,57.61c-4.38.06-9.02.34-15.04.89-2.85.26-5.75.56-8.66.86-9.21.95-18.73,1.94-28.03,1.71-18.98-.45-35.7-7.97-44.71-20.1-1.98-2.67-3.74-5.69-5.44-8.62-4.23-7.26-8.6-14.77-16.7-17.84-6.38-2.42-17.12-2.65-32.05,9.98-1.39,1.17-2.79,2.41-4.27,3.71-7.14,6.28-14.53,12.77-23.65,14.56-9.33,1.83-18.77-1.59-27.9-4.9-2.36-.86-5.03-1.83-7.62-2.66-19.77-6.35-42.02-5.77-62.66,1.62-15.71,5.63-29.45,14.88-39.75,26.74-5.73,6.6-10.56,14.03-15.23,21.22-5.76,8.87-11.72,18.03-19.37,25.57-13.36,13.17-31.25,20.87-48.55,28.31-7.66,3.3-15.59,6.71-23.07,10.57-22.23,11.55-41.98,27.95-58.7,48.74-20.3,25.25-23.68,44.88-22.95,56.91.11,1.77.32,3.53.62,5.24,1.15,6.61,3.72,12.81,6.2,18.82,3.29,7.94,6.68,16.15,6.62,25.18-.22-9.59-4.27-18.14-8.2-26.41-2.82-5.94-5.74-12.08-7.17-18.51-.37-1.66-.65-3.36-.82-5.07-1.22-11.75,1.54-30.95,21.6-55.71,16.13-19.91,36.31-36.44,58.36-47.8,7.47-3.84,15.41-7.25,23.09-10.55,18.16-7.81,36.94-15.89,50.97-30.1,8-8.11,14.08-17.87,19.98-27.34,4.63-7.43,9.42-15.12,15.1-21.89,10.17-12.15,23.88-21.63,39.62-27.43,20.71-7.62,43.01-8.21,62.8-1.67,2.59.85,5.22,1.84,7.77,2.79,9.67,3.61,19.66,7.35,29.9,5.31,9.93-1.97,17.66-8.91,25.26-15.73,1.44-1.29,2.92-2.62,4.38-3.88,6.52-5.63,19.17-14.42,30.68-9.9,7.57,2.97,11.8,10.56,15.92,17.93,1.76,3.15,3.59,6.42,5.67,9.34,9.63,13.48,27.58,21.92,48.03,22.6,9.86.32,19.82-.64,29.46-1.57,2.89-.28,5.88-.57,8.81-.82,6.17-.52,10.91-.77,15.39-.79.52,0,1.03-.03,1.55-.05-2.29.45-4.68.72-7.22.75ZM13.08,337.98c-1.83,4.13-3.58,8.35-4.85,12.63-3.15,10.59-.96,24.04,5.21,31.98.81,1.04,1.68,1.94,2.58,2.76-1.52-.97-2.92-2.26-4.17-3.86-5.76-7.34-7.67-20.27-4.43-30.08,1.48-4.54,3.55-9.03,5.67-13.43ZM12.16,277.37c-3.21-6.01-6.54-12.22-8.29-18.73-6.54-24.32,9.53-48.84,19.7-61.29,15.99-19.58,36.31-36,58.77-47.48,7.53-3.85,15.53-7.29,23.27-10.61,18.81-8.08,38.27-16.44,52.66-31.4,8.16-8.48,14.29-18.73,20.23-28.63,4.65-7.77,9.46-15.8,15.2-22.9,11.83-14.61,28.83-25.71,47.89-31.25,19.05-5.55,39.31-5.29,57.05.72,2.62.88,5.3,1.91,8,2.95,9.91,3.8,20.15,7.73,30.64,5.63,10.18-2.04,18.05-9.26,25.78-16.35,1.48-1.36,3-2.75,4.51-4.08,6.71-5.89,19.75-15.05,31.66-10.22,7.82,3.18,12.14,11.21,16.3,18.97,1.8,3.35,3.66,6.81,5.8,9.92,9.82,14.24,28.33,23.26,49.52,24.13,10.17.41,20.5-.51,30.48-1.42,8.16-.74,16.6-1.5,24.8-1.5h.28c.63,0,1.25-.02,1.86-.05-2.45.48-5.02.77-7.76.79-4.53.03-9.33.27-15.57.8-2.94.25-5.94.54-8.88.82-9.56.92-19.46,1.87-29.11,1.56-19.72-.65-36.99-8.73-46.2-21.61-2.02-2.82-3.82-6.04-5.56-9.16-4.3-7.7-8.74-15.65-17.09-18.93-12.66-4.97-26.15,4.32-33.07,10.31-1.48,1.27-2.97,2.61-4.54,4.02-7.24,6.5-14.72,13.22-24.03,15.07-9.58,1.9-19.26-1.71-28.62-5.21-2.57-.96-5.22-1.95-7.85-2.82-20.29-6.7-43.15-6.1-64.35,1.7-16.13,5.93-30.18,15.66-40.61,28.12-5.79,6.92-10.63,14.68-15.31,22.2-5.81,9.33-11.83,18.98-19.64,26.89-13.71,13.89-32.28,21.88-50.23,29.6-7.71,3.31-15.68,6.74-23.23,10.62-22.34,11.51-42.78,28.25-59.11,48.42-20.56,25.38-23.37,45.24-22.11,57.43.19,1.8.48,3.6.87,5.34,1.49,6.69,4.46,12.95,7.35,19.01,2.78,5.84,5.6,11.84,7.03,18.16-1.73-6.86-5.14-13.26-8.48-19.51ZM20.86,297.78s-.01-.07-.02-.11c0,.04.01.07.02.11ZM8.61,381.83c-5.88-7.41-7.63-20.45-4.09-30.33,1.02-2.85,2.29-5.68,3.64-8.47-1.1,2.52-2.14,5.07-2.98,7.65-3.52,10.65-1.49,24.23,4.82,32.27.54.69,1.12,1.32,1.7,1.91-1.1-.83-2.14-1.83-3.09-3.03ZM86.97,597.1c-5.64-2.33-9.32-8.77-10.95-19.15-3.45-21.91-.79-44.51,1.77-66.38,1.24-10.55,2.52-21.45,3.11-32.21.77-14.05.27-34.81-6.39-54.21,3.43,8.88,5.85,18.86,7.18,29.84.91,7.56,1.29,15.41,1.11,23.32-.23,10.83-1.24,21.93-2.2,32.68-.34,3.77-.69,7.67-1.01,11.53-1.73,20.07-2.32,36.89.37,53.77,1.81,11.37,5.74,18.23,12,20.98.66.29,1.33.52,2.01.7-2.41.23-4.75.04-6.98-.88ZM702.8,315.58c-5.63,9.72-11.72,19.46-17.62,28.88-17.65,28.19-35.89,57.34-44.09,89.9-3.57,14.18-5.35,29.3-7.08,43.95-3.51,29.76-7.13,60.53-26.22,83.21-12.76,15.16-30.94,24.62-48.53,33.76-16.9,8.78-34.37,17.87-47.34,32.06-3.08,3.37-6.12,7.16-9.07,10.83-10.5,13.06-21.3,26.62-36.85,25.6-6.52-.41-13.27-3.47-19.8-6.43-10.92-4.95-21.23-9.63-30.19-2.48-5.36,4.28-6.99,11.06-8.56,17.62-1.29,5.4-2.63,10.98-6.06,14.99-6.5,7.6-18.47,8.3-36.61,2.16l-88.32-29.94c-4.92-1.67-10.49-3.56-16.17-3.56-1.3,0-2.56.1-3.75.29-4.62.75-8.77,2.95-12.81,5.09-1.07.57-2.18,1.16-3.27,1.7-18.12,9.06-40.33,8.9-60.93-.43-20.67-9.36-35.49-26.04-40.66-45.74-.26-.98-.51-1.98-.78-3.09-2.04-8.2-4.35-17.5-12.22-21.1-.13-.06-.27-.1-.4-.16,1.23.16,2.42.48,3.58,1.02,6.53,3.07,8.54,11.09,10.48,18.85.26,1.03.51,2.04.77,3.03,7.98,30.16,39.07,52.89,72.31,52.89h0c3.63,0,7.25-.28,10.78-.83,6.4-1.01,12.5-2.93,18.14-5.72,1.07-.53,2.15-1.1,3.28-1.69,3.7-1.95,7.53-3.96,11.6-4.63,6.15-1.02,12.5,1.07,18.11,2.91,7.58,2.48,15.14,4.98,22.81,7.52,20.32,6.72,41.34,13.66,62.08,20.07,7.37,2.28,13.88,3.43,19.36,3.43,8.12,0,14.41-2.55,18.72-7.57,1.83-2.14,3.27-4.72,4.52-8.12.88-2.38,1.56-4.88,2.22-7.3,1.71-6.28,3.33-12.21,8.13-15.84,7.84-5.97,17.47-1.68,27.66,2.85,6.65,2.96,13.53,6.02,20.41,6.48,15.17,1.04,25.9-10.16,34.72-20.6,1.71-2.02,3.41-4.11,5.07-6.14,2.6-3.19,5.28-6.49,7.96-9.44,13.56-15,32.03-24.75,49.9-34.18l.73-.38c15.85-8.37,32.24-17.02,44.17-30.65,19.69-22.5,23.65-53.17,27.48-82.85,1.78-13.82,3.63-28.1,7.03-41.47,7.22-28.37,22.66-54.07,37.6-78.93,7.21-12,14.66-24.4,21.13-37,1.93-3.75,3.28-7.7,4.73-12.09,1.95-5.9,3.3-11.17,4.12-16.09,3.41-20.26-.79-40.58-11.82-57.22-2.63-3.97-4.47-8.33-5.3-12.59-2.74-13.97,1.27-28.26,5.15-42.08.4-1.41.79-2.81,1.17-4.2,1.06-3.86,1.9-7.24,2.54-10.33,3.23-15.4,2.61-27.13-1.97-36.9-6.34-13.53-19.49-21.41-32.23-29.04-7.02-4.2-14.27-8.54-20.33-13.79-5.97-5.18-10.86-11.28-16.19-18.15l-.87-1.13c-3.56-4.6-7.24-9.34-11.29-13.69-5.41-5.82-19.17-18.46-35.61-17.66,1.33-.37,2.68-.69,4.08-.94,17.67-3.11,32.88,11.32,38.6,17.67,4.07,4.52,7.81,9.5,11.43,14.35,5.39,7.19,10.96,14.63,17.79,20.74,6.41,5.72,14.01,10.4,21.36,14.92,13.35,8.21,25.95,15.96,32.03,29.45,6.64,14.72,2.96,32.33-1.51,47.62-.4,1.38-.81,2.76-1.23,4.15-4.36,14.66-8.86,29.83-6,44.91.91,4.79,2.92,9.59,5.81,13.88,7.41,10.99,11.5,23.9,11.85,37.31.34,13.33-3.02,26.49-9.72,38.07Z"/>
    </g>
  </g>
</svg>