<svg xmlns="http://www.w3.org/2000/svg" xmlns:xlink="http://www.w3.org/1999/xlink" width="259.38" height="274.734" viewBox="0 0 259.38 274.734">
  <defs>
    <clipPath id="clip-path">
      <rect id="Rectangle_123" data-name="Rectangle 123" width="203.195" height="219.362" transform="translate(17.557 222.869)" fill="none"/>
    </clipPath>
    <clipPath id="clip-path-2">
      <rect id="Rectangle_159" data-name="Rectangle 159" width="160.994" height="160.582" transform="translate(115.943 167.497)" fill="none"/>
    </clipPath>
  </defs>
  <g id="Group_953" data-name="Group 953" transform="translate(-17.557 -167.497)">
    <g id="Group_296" data-name="Group 296" style="mix-blend-mode: multiply;isolation: isolate">
      <g id="Group_295" data-name="Group 295">
        <g id="Group_294" data-name="Group 294" clip-path="url(#clip-path)">
          <path id="Path_396" data-name="Path 396" d="M201.061,319.608a77.849,77.849,0,0,0,7.083-14.593L24.053,373.881a59.528,59.528,0,0,0,9.5,13.16l165.493-61.8c-.078-1.582.588-3.332,2.014-5.633" fill="#82d1d3"/>
          <path id="Path_397" data-name="Path 397" d="M212.374,281.356l-194.4,72.737a56.681,56.681,0,0,0,3.345,13.768l189.186-70.772a68.43,68.43,0,0,0,1.868-15.733" fill="#82d1d3"/>
          <path id="Path_398" data-name="Path 398" d="M202.645,330.939,38.887,392.091a53.953,53.953,0,0,0,15.735,9.435L211.956,342.81a57.3,57.3,0,0,0-9.311-11.871" fill="#82d1d3"/>
          <path id="Path_399" data-name="Path 399" d="M179.026,228.025c-1.683-.738-3.362-1.474-5.068-2.14l-68.18,25.428-.285-.764a72.658,72.658,0,0,0-9.931,20.935c-.076.26-.155.5-.234.748l96.583-36.16a56.908,56.908,0,0,0-12.885-8.047" fill="#82d1d3"/>
          <path id="Path_400" data-name="Path 400" d="M112.856,241.633l49.51-18.465c-18.577-1.875-36.462,5.17-49.51,18.465" fill="#82d1d3"/>
          <path id="Path_401" data-name="Path 401" d="M197.227,241.124,34.784,301.943l-.592-1.581A67.778,67.778,0,0,0,21.338,323.3L206.163,254.15a55.759,55.759,0,0,0-8.936-13.026" fill="#82d1d3"/>
          <path id="Path_402" data-name="Path 402" d="M42.808,291.895l37.6-14.076c-13.513-.043-26.792,5.2-37.6,14.076" fill="#82d1d3"/>
          <path id="Path_403" data-name="Path 403" d="M215.024,348.707,65.968,404.333c9.682,1.191,19.97-.429,30.685-4.692,4.138-1.646,5.932-1.649,7.562,3.222.319.952.655,1.884,1,2.8L219.571,363.1a64.057,64.057,0,0,0-4.547-14.394" fill="#82d1d3"/>
          <path id="Path_404" data-name="Path 404" d="M208.755,260.224,20.521,330.65l-.7-1.885a77.041,77.041,0,0,0-2.257,18.44l194.453-72.757a60.988,60.988,0,0,0-3.257-14.224" fill="#82d1d3"/>
          <path id="Path_405" data-name="Path 405" d="M201.066,422.834l-50.9,18.954c18.756,2.332,37.1-4.617,50.9-18.954" fill="#82d1d3"/>
          <path id="Path_406" data-name="Path 406" d="M220.5,369.793,107.822,411.736A57.576,57.576,0,0,0,115.6,423.79l104.5-38.872a66.429,66.429,0,0,0,.406-15.125" fill="#82d1d3"/>
          <path id="Path_407" data-name="Path 407" d="M212.848,406.744a62.826,62.826,0,0,0,5.7-14.212l-97.91,36.422a51.1,51.1,0,0,0,17.812,10.158l70.712-26.33q1.945-2.892,3.688-6.038" fill="#82d1d3"/>
        </g>
      </g>
    </g>
    <g id="Group_387" data-name="Group 387" style="mix-blend-mode: multiply;isolation: isolate">
      <g id="Group_386" data-name="Group 386">
        <g id="Group_385" data-name="Group 385" clip-path="url(#clip-path-2)">
          <path id="Path_441" data-name="Path 441" d="M139.682,186.89q8.784-8.214,17.572-16.422c4.34-4.036,4.461-4.028,8.648.441,9.394,10.027,18.871,19.979,28.1,30.157,2.874,3.17,4.856,3.039,7.826.188,10.091-9.693,20.381-19.18,30.625-28.713,3.924-3.652,4.521-3.638,8.135.215q16.8,17.905,33.546,35.871c3.771,4.042,3.762,4.352-.164,8.035-10.313,9.673-20.578,19.4-31.024,28.926-2.906,2.65-3.161,4.521-.328,7.471,9.922,10.33,19.544,20.946,29.447,31.3,2.728,2.853,2.818,4.788-.171,7.528q-18.537,16.988-36.738,34.339c-2.813,2.676-4.69,2.377-7.2-.359-9.582-10.448-19.317-20.757-29.015-31.1-3.91-4.171-4.018-4.168-8.3-.168q-15.187,14.172-30.352,28.366c-4.028,3.758-4.392,3.767-8.045-.128q-16.8-17.913-33.54-35.876c-3.757-4.031-3.719-4.575.406-8.445,10.205-9.575,20.361-19.2,30.7-28.633,2.951-2.692,3.009-4.626.237-7.518-9.711-10.129-19.13-20.535-28.844-30.66-2.878-3-2.957-5.047.228-7.845,6.241-5.479,12.189-11.291,18.258-16.966" fill="#ff501a"/>
        </g>
      </g>
    </g>
  </g>
</svg>
